<?xml version="1.0" encoding="utf-8"?>
<!-- Generator: Adobe Illustrator 23.1.1, SVG Export Plug-In . SVG Version: 6.00 Build 0)  -->
<svg version="1.1" id="Layer_1" xmlns="http://www.w3.org/2000/svg" xmlns:xlink="http://www.w3.org/1999/xlink" x="0px" y="0px"
	 viewBox="0 0 19.7 17.2" style="enable-background:new 0 0 19.7 17.2;" xml:space="preserve">
<style type="text/css">
	.st0{enable-background:new    ;}
</style>
<g class="st0">
	<path d="M15.8,4.1c0.6,0.8,1,1.7,1.3,2.5c0.2,0.8,0.4,1.5,0.4,2c0,0.8-0.2,1.7-0.5,2.7s-1,2-2.1,2.9c-1.1,0.9-2.6,1.3-4.6,1.3
		c-2.8,0-4.7-1.2-5.9-3.6c-0.5-1.1-0.8-2.3-0.9-3.7C3.4,7.1,3.8,6,4.4,5C5,4,5.8,3.2,6.8,2.6c1-0.6,2-0.9,3.1-0.9
		c0.9,0,1.6,0,2.1,0.1s0.9,0.2,1.3,0.4C14.3,2.6,15.2,3.3,15.8,4.1z M14,12.8c0.9-1.1,1.3-2.5,1.3-4.2c0-1.1-0.2-2-0.6-2.9
		s-1-1.6-1.7-2.1c-0.7-0.5-1.6-0.8-2.5-0.8c-0.6,0-1.1,0-1.4,0.1C8.7,3,8.4,3.1,8.1,3.4c-0.1,0-0.4,0.3-0.9,0.7
		c-0.6,0.4-1.1,1-1.5,1.8S5,7.5,5,8.4c0,1.1,0.2,2.1,0.5,3c0.3,0.9,0.9,1.7,1.6,2.2s1.7,0.9,2.9,0.9C11.9,14.5,13.2,13.9,14,12.8z
		 M9.4,6.9C9.1,7.4,9,8,9,8.9c0,0.6,0.1,1,0.3,1.4c0.2,0.3,0.4,0.6,0.6,0.7c0.2,0.1,0.4,0.2,0.6,0.2c0.2,0,0.4-0.1,0.5-0.2
		c0.2-0.1,0.3-0.2,0.3-0.3c0.1-0.1,0.1-0.1,0.1-0.1c0,0,0.1,0,0.2,0c0.1,0.1,0.2,0.2,0.5,0.3c0.2,0.1,0.4,0.2,0.5,0.3
		c0,0,0.1,0,0.2,0.1c0.1,0,0.1,0.1,0.1,0.1c0,0,0,0.1-0.1,0.2c-0.1,0.3-0.4,0.6-0.8,0.9c-0.4,0.3-0.9,0.5-1.6,0.5
		c-0.5,0-1-0.2-1.5-0.6c-0.5-0.4-0.8-0.9-1.1-1.6c-0.3-0.7-0.4-1.4-0.4-2.2c0-0.8,0.1-1.5,0.4-2.2c0.3-0.6,0.6-1.1,1-1.5
		c0.4-0.3,0.9-0.5,1.3-0.5c0.6,0,1,0.1,1.4,0.4C12,5,12.2,5.3,12.3,5.5c0.1,0.1,0.1,0.2,0.1,0.2c0,0,0,0.1-0.1,0.2
		c-0.4,0.3-0.6,0.5-0.8,0.8c0,0-0.1,0.1-0.1,0.2c-0.1,0.1-0.2,0.1-0.2,0.1c-0.1,0-0.1,0-0.2-0.1c0,0-0.1-0.1-0.2-0.2
		c-0.1-0.1-0.2-0.2-0.3-0.2s-0.2-0.1-0.3-0.1C9.9,6.3,9.6,6.5,9.4,6.9z"/>
</g>
</svg>
