<?xml version="1.0" encoding="utf-8"?>
<!-- Generator: Adobe Illustrator 23.1.1, SVG Export Plug-In . SVG Version: 6.00 Build 0)  -->
<svg version="1.1" id="Layer_1" xmlns="http://www.w3.org/2000/svg" xmlns:xlink="http://www.w3.org/1999/xlink" x="0px" y="0px"
	 viewBox="0 0 19.7 19.7" style="enable-background:new 0 0 19.7 19.7;" xml:space="preserve">
<style type="text/css">
	.st0{enable-background:new    ;}
</style>
<g class="st0">
	<path d="M15.9,4.3c0.4,0.5,0.8,1.1,1,1.7c0.3,0.6,0.4,1.1,0.4,1.5c0,0.7-0.1,1.5-0.2,2.4c-0.1,1-0.2,1.6-0.3,2
		c-0.1,0.3-0.2,0.6-0.4,0.8s-0.3,0.4-0.6,0.6c-0.3,0.2-0.7,0.3-1.2,0.3c-0.7,0-1.2-0.3-1.5-0.9c-0.2-0.3-0.3-0.6-0.3-0.9l-1,1.4
		c-0.5,0.6-1.3,1-2.4,1c-0.7,0-1.3-0.2-1.8-0.6c-0.5-0.4-0.9-1-1.1-1.6c-0.3-0.6-0.4-1.3-0.4-2c0-0.6,0.1-1.2,0.4-1.7
		c0.2-0.5,0.5-1,0.8-1.3C7.7,6.4,8,6.2,8.2,6.1L8.6,6c0.5-0.2,1-0.4,1.4-0.5c0.4-0.1,0.8-0.2,1.1-0.2c0.5,0,1.1,0.1,1.8,0.2
		c0.7,0.1,1.1,0.2,1.4,0.4c0.2,0.1,0.3,0.3,0.3,0.5c0,0.1,0,0.2-0.1,0.4c0,0.2-0.1,0.3-0.1,0.5c0,0.2,0,0.4-0.1,0.6
		s-0.1,0.5-0.1,0.7c-0.1,0.6-0.2,1.2-0.3,1.8c0,0.1,0,0.2,0,0.4c0,0.4,0.1,0.7,0.2,1s0.3,0.4,0.6,0.4c0.5,0,0.8-0.3,1.1-0.9
		c0.3-0.6,0.4-1.5,0.4-2.7c0-1.2-0.2-2.1-0.7-2.8s-1.1-1.2-2-1.6c-0.6-0.3-1.4-0.4-2.5-0.4c-0.5,0-1.1,0-1.6,0.1
		C8.9,3.9,8.4,4,8,4.1C7.5,4.3,7,4.6,6.5,5C6.1,5.3,5.6,5.9,5.3,6.7C4.9,7.5,4.7,8.5,4.7,9.8c0,1.3,0.3,2.4,0.9,3.3
		C6.3,14,7,14.7,7.8,15.1c0.8,0.5,1.4,0.7,1.8,0.7c0.5,0,1,0,1.3-0.1c0.4-0.1,0.7-0.1,1-0.3c0.3-0.1,0.7-0.3,0.9-0.5
		s0.5-0.4,0.6-0.6c0.1-0.1,0.2-0.1,0.3-0.1c0.1,0,0.1,0,0.2,0.1c0.1,0.1,0.1,0.1,0.1,0.1c0.1,0,0.2,0.1,0.3,0.3
		c0.2,0.2,0.3,0.3,0.4,0.3c0,0,0.1,0.1,0.1,0.1s0.1,0.1,0.1,0.1c0,0.1-0.1,0.2-0.2,0.3c-0.1,0.1-0.3,0.2-0.8,0.5s-0.9,0.4-1.3,0.6
		C12.3,16.9,12,17,11.7,17l-1.4,0c-1.4,0-2.3-0.1-2.9-0.3c-0.7-0.3-1.5-1.1-2.5-2.4c0-0.1-0.1-0.2-0.3-0.3c-0.3-0.3-0.5-0.7-0.6-1
		c-0.2-0.3-0.3-0.7-0.5-1.3c-0.1-0.5-0.2-1.2-0.2-2c0-0.9,0.1-1.8,0.4-2.6c0.3-0.8,0.6-1.5,0.9-2s0.6-0.9,0.9-1.1
		c0.2-0.2,0.5-0.4,0.9-0.7C7,3,7.5,2.8,8.1,2.6c0.7-0.2,1.4-0.3,2.1-0.3c1,0,1.8,0.1,2.5,0.2c0.7,0.1,1.4,0.4,1.9,0.7
		C15.1,3.4,15.5,3.8,15.9,4.3z M12.9,7.2c0-0.1,0-0.2,0-0.4c-0.1-0.1-0.3-0.1-0.5-0.2c-0.4-0.1-1-0.2-1.6-0.2c-0.5,0-1,0.1-1.5,0.4
		C8.9,7.1,8.5,7.4,8.2,7.9C8,8.4,7.8,8.9,7.8,9.4c0,0.9,0.2,1.6,0.5,2.2s0.8,0.8,1.4,0.8c0.4,0,0.8-0.1,1.2-0.3
		c0.4-0.2,0.8-0.5,1.1-0.8c0.3-0.3,0.5-0.6,0.5-0.8c0.1-0.2,0.1-0.5,0.1-0.8c0-0.3,0-0.6,0.1-0.7c0-0.5,0.1-0.9,0.1-1
		C12.8,7.7,12.9,7.5,12.9,7.2z"/>
</g>
</svg>
