<svg id="a08f33da-d9dd-4cbf-b3c7-1de1ba17a22b" data-name="—ÎÓÈ_1" xmlns="http://www.w3.org/2000/svg" viewBox="0 0 247.4 456.3"><title>coffee</title><path d="M21,237.8c-3-.2-6,.3-8.6-.4l-1.6-2a5.7,5.7,0,0,1-.8-1.3c-.4-.8-.6-1.5-1-2.3a2.7,2.7,0,0,1-.3-1.2,3.6,3.6,0,0,1,.2-1,28.5,28.5,0,0,0,1.2-3.1l.9-2.3a46.2,46.2,0,0,0,2.5-9,4.3,4.3,0,0,1,1.2-2.3c.7-.7,1.3-1.6,2-2.4s-.6-1.5-.1-2.3.3-.2.5-.1a6.4,6.4,0,0,0,3.3-.7,6.1,6.1,0,0,1,1.8-.5l5.3-.6c.7-2.7,1.4-5.4,2-8.1s1-5.1,1.4-7.7.3-3,.6-4.5.9-3.6,1.4-5.4,1.7-5.7,2.6-8.5a57.1,57.1,0,0,1,3-6.7c.9-1.7,1.6-3.5,2.4-5.3a103.3,103.3,0,0,1,4.5-9.5,8.9,8.9,0,0,0,.8-1.7c.9-2.7,2.7-4.9,4.3-7.1s5.1-7,7.9-10.3,4.7-5,7.1-7.5a42.7,42.7,0,0,1,5.4-5,24.4,24.4,0,0,1,4.3-2.8l1-.7a31,31,0,0,1,5.2-3.1,24.8,24.8,0,0,0,4.4-2,51.1,51.1,0,0,1,9.8-4.5,31,31,0,0,1,4.6-1.1l1.2-.2a4.2,4.2,0,0,0-.1-2.5,33.3,33.3,0,0,1-.7-7,13.4,13.4,0,0,0-.6-4,27.9,27.9,0,0,1-.7-4l-1.2-8.7c-.3-1.8-.6-3.6-.8-5.4l-.9-6.8c-.2-1.2-.3-2.4-.5-3.7s-.5-3-.6-4.5a44.2,44.2,0,0,0-1-5c-.2-1-.3-2-.4-2.9s-.3-2.9-.5-4.3-.9-4.5-1.3-6.7A4.1,4.1,0,0,1,92,38c-.1-1.1-.3-2.3-.4-3.4s-.5-3.8-.8-5.7a23.4,23.4,0,0,0-.4-2.6l-1.2-7.4a4.7,4.7,0,0,1,4.7-3.3h3.4c1.2-.1,2.4-.5,3.5-.7l6.5-1.1c1.1-.2,2.1-.5,3.2-.6h2.3a39.8,39.8,0,0,1,1.7,5.6c.5,2.6.7,5.3,1.2,7.9a56.1,56.1,0,0,0,1.3,5.9c.1.3.1.5.2.8.4,2.3.9,4.6,1.3,6.9s.7,5.3,1.1,7.9.7,4.4,1,6.6.5,3.1.7,4.6c.6,3.6,1.2,7.1,1.6,10.7s1.3,6,1.9,9.1a21.3,21.3,0,0,1,.3,2.5,28.5,28.5,0,0,0,1.2,5.8c.3,1.4.4,2.8.7,4.1l1.2,5.3.4.7,3-1.5a6.2,6.2,0,0,1,3.8-.7,24.3,24.3,0,0,0,2.7,0,3.9,3.9,0,0,1,3.1,1.1,15.6,15.6,0,0,0,1.7,1.2,7.6,7.6,0,0,1,1.2,6.2h12.2c2.2,0,4.4.3,6.6.4h2.7c1.6.5,3.2.9,4.7,1.5,3.2,1.2,6.5,2.3,9.2,4.7a16.1,16.1,0,0,0,3.3,2c.3.2.6.2.8.4,2.7,2,5.5,3.9,8.1,5.9a73.7,73.7,0,0,1,6.1,5,61.5,61.5,0,0,1,4.9,5.3c1.2,1.3,2.5,2.5,3.6,3.9s2.7,3.3,4,5l3.6,4.8c1.4,2.1,2.7,4.2,4,6.3l2.2,3.2,2.4,4.2,2.8,5a57.9,57.9,0,0,1,3.4,7.1,76.8,76.8,0,0,1,2.6,9.7c.5,2.2.6,4.5,1.2,6.6a57.9,57.9,0,0,1,1.6,8.3c.6,3.9,1.1,7.9,1.7,11.8a2.5,2.5,0,0,0,1.5,2.1l1.6.9,5.8-.3a2.7,2.7,0,0,1,2.1.7,20,20,0,0,1,4.3,4.9,17.2,17.2,0,0,1,1.9,4.4,43.9,43.9,0,0,1,1.3,5.2,30.1,30.1,0,0,0,1.1,3.2,5.8,5.8,0,0,1,.6,3.6,4.5,4.5,0,0,0,.1,1.2h0c-.5,1.1-1,2.1-1.4,3.1a4.3,4.3,0,0,1-3.5,2.8,39.6,39.6,0,0,1-8.4.6c-1.1,0-1.5.2-1.6,1.3s-.5,4.1-.8,6.2a2.5,2.5,0,0,1-.1.9c-.7,1.4-.5,3-.8,4.4s-.4,2.5-.8,3.7a90,90,0,0,0-1.6,10.4c-.5,4.1-.9,8.2-1.5,12.3s-1.2,6.6-1.8,9.9c-.1.8-.1,1.6-.2,2.3-.5,3.6-1.1,7.1-1.6,10.7-.3,2-.5,4-.8,6.1s-.7,4.2-.9,6.4l-.6,5a16,16,0,0,1-.3,2.3,19.9,19.9,0,0,0-.4,4.2c-.1,1.7-.5,3.4-.6,5.1s-1.3,4.7-1.6,7.2-.9,3.6-1.3,5.5-1.5,6-2.3,9a2.1,2.1,0,0,0-.1,1.1,12.4,12.4,0,0,1-.6,4.3c-.4,1.7-.6,3.4-.9,5.1-.6,3.6-1.2,7.1-1.7,10.7a12.3,12.3,0,0,1-.2,2c-.4,2.1-.9,4.3-1.3,6.4a14,14,0,0,0,0,2.9,2.7,2.7,0,0,1,0,.9,52,52,0,0,0-1,7.8,5,5,0,0,1-.2,1.2l-.6,4a28.7,28.7,0,0,0-.5,3.1l-1.2,6.5c0,.2-.1.3-.1.5,0,3.1-1.2,6.1-1.4,9.2s-1,5.5-1.4,8.3a47.2,47.2,0,0,0-1.1,7.4,23.2,23.2,0,0,1-.7,3.8c-.2,1-.3,2.1-.5,3.1l-1.5,5.6a2.4,2.4,0,0,0-.2.8c.2,1.6-.7,2.7-1.6,3.9a6.1,6.1,0,0,0-.9,1.8c-.8,2.8-1.4,5.6-2.4,8.3a50.5,50.5,0,0,0-1.8,5.5c-.7,2.2-2.5,3.1-4.4,3.9a10.3,10.3,0,0,1-3.9.3h-5.3c-2.1,0-4.2-.1-6.3,0l-11.1.8H157.9a59.2,59.2,0,0,1-8.4-.5,33.8,33.8,0,0,0-4.5-.1l-13.7-.3c-2.2,0-4.5.1-6.7,0l-11.8-.2c-1.6,0-3.1.2-4.7.3l-7.4.2-6,.4c-2.5.1-5,.3-7.5.2L77,468.9c-3-.2-6.1-.2-9-.6a7.9,7.9,0,0,1-6.5-4.6,19.8,19.8,0,0,1-1.6-5.4c-.4-2.7-1-5.3-1.6-8a2.6,2.6,0,0,0-.9-1.4,13,13,0,0,1-3.8-6.2c-.6-2.2-1-4.4-1.4-6.7a8.8,8.8,0,0,1,.1-2.8,12,12,0,0,0-.3-3.8c-.5-1.9-.8-3.9-1.1-5.8-.6-3.9-.9-7.9-1.9-11.8a33.1,33.1,0,0,1-.4-3.3l-1.5-8.6c-.5-2.3-1.2-4.6-1.6-6.9s-.9-4.8-1.2-7.3-.4-4.7-.7-7-.5-2.6-.8-3.8a85,85,0,0,1-1.6-9.9l-.9-5.3c-.2-1.3-.3-2.7-.6-4l-2.4-12c-.5-2.6-.8-5.2-1.2-7.7s-.7-3.8-1-5.7-.3-3.1-.5-4.6-.3-2.2-.4-3.3l-.3-2.6-.9-7.3c-.2-2-.4-4-.7-6.1s-.3-2-.4-2.9c-.4-2.8-1.3-5.6-1.9-8.4s-1.5-4.6-1.6-7-.5-2.3-.6-3.5c-.6-4-1.1-8.1-1.6-12.1s-.4-5.7-.6-8.6c0-.6-.3-1.2-.3-1.8-.3-2.2-.5-4.5-.8-6.7s-.9-5.1-1.2-7.6a49.9,49.9,0,0,0-2.3-10Zm70.1-42.6a1.5,1.5,0,0,0,1.1,2l1-.7a2.8,2.8,0,0,0-2.1-1.3c-.5-.2-.8-.8-1.5-.6s1,.5,1.5.6Zm70.5,25.9.3-1h-.3v1.1c-1.1,1.9-1.2,4-1.7,6l.6.7c.4-2.4.7-4.6,1.1-6.7Zm1.1-19.1c.3-.7.7-1.3,1-2.1s-2.7-1.2-4-2a4.9,4.9,0,0,0-.1,1.1l-1.4.6a1.9,1.9,0,0,0,1.4,1.2l3.1,1.2,2.9,1.1c.7-.7,1.4-1,1.9-1.8l-2.8-1.1-1.4,1.7c-.1-.1-.4,0-.6.1ZM82.9,172.3c4.1,2.2,11.3,4,14.4,3.5.6-3.1,1.3-6.3,1.9-9.5l-1.8-1.5-1.6,6c-.2,1.1-.8,2.2-.1,3.3l-.6.3c-.1-.1-.3-.2-.3-.4.1-3.4,1.3-6.6,1.8-10l-1.2-1.3A109.3,109.3,0,0,0,92.6,174a.7.7,0,0,1-.2-.7c.3-1.5.5-3.1.8-4.6s.9-3.5,1.4-5.3,0-1.1-.9-1.6a23.5,23.5,0,0,0-2,8.7c-.8-.1-.6-.5-.6-.9.5-2.9.8-5.8,2.4-8.8l-3,2.5a28.3,28.3,0,0,0-1.8,9l-.9-.3c.2-1.2.3-2.3.5-3.5s.3-2.3.5-3.6a1.6,1.6,0,0,0-1.5,1c-.5,1.7-.9,3.4-1.4,5l.6.7a2,2,0,0,1-1.4.8c-.5-.9-.1-1.7,0-2.6s.3-1.8.6-3l-1.5.7c-.2,1.4-.4,2.8-.6,4.4s-.4.3-.7.4.6-2.4.2-3.7A7.3,7.3,0,0,0,80,170a5.5,5.5,0,0,0,2.9,2.3Zm77.8,76,1.4-1.1c2.3.2,9.1-.8,10.3-1.6l-4.2-.5-7.8-.5H156l-13.3-.2H141a15.3,15.3,0,0,0-3.7,0,33.8,33.8,0,0,1-4.5,0l-4.5.2c-.2.3-.3.6-.5.7a4.7,4.7,0,0,0-1.9,1.2c-.4.4-1,.1-1.2-.7l.8-1.2c-3.1-.2-6-.1-9,0,.5.6,1.2.5,1.8.5a6.1,6.1,0,0,1,4.1.9c1.5.9,2.7,2.1,4.4,2.7l3.5,1.4.9.2a12.1,12.1,0,0,0,.5-1.4c.8-.1,1.6-.7,2.3.1a8.8,8.8,0,0,0-.5,1.5l1.8.9a2,2,0,0,1-1,.2l-4.9-.7a8.7,8.7,0,0,1-3.5-1.3l-2.6-1.7c-1.4-.7-2.6-1.9-4.7-1.8a20.3,20.3,0,0,1,5.1,4.5c.3.3.6.7,1,.8s2.6,1.2,4.1.8.7.1,1.1.2a32.4,32.4,0,0,0,4.4.2c2-.2,3.9-.6,5.8-.9s5.9.1,8,2.8l.6.6c2.1.1,4.4.3,6.7.2a12.7,12.7,0,0,1,6.4,1.3,7.3,7.3,0,0,0,2.8,1c1.6,0,3.3.2,4.6-.7a20.7,20.7,0,0,0,6.1-.1l1.5-.4a29,29,0,0,0,2.9-1.9,12,12,0,0,1,5.4-2.4l2-.3a6.1,6.1,0,0,0-3.7-3.2l-3.6-1.1a4.4,4.4,0,0,0-4.3.1,7.2,7.2,0,0,0-1.9-.2l-8.7,1.1-1.5.4a18,18,0,0,1,.9,2.8,14.3,14.3,0,0,1,2.3.3l2.2.8c.4.2.4.5.1.9a9.1,9.1,0,0,0-1.3-.8h-2.7a10.4,10.4,0,0,0-.4,1.3,10.5,10.5,0,0,0-.8-1.3c-.8-.4-1.6.3-2.3-.3s1.4-.3,2-1.1-.8-1.7-1.3-2.5-1.1-.5-1.4-.4Zm-2.4-39.5h0l1.4.2,6.4-.4a1.9,1.9,0,0,0,1.3-.5l5.2-4.1c.1-.1.1-.3.2-.5l-1.2-.8a16.2,16.2,0,0,1-1.9,1.3c-.2.6-.3,1.1-.5,1.6h-1.4a10.5,10.5,0,0,1-.8,1.1c-.9-.3-.4-1-.7-1.6l-1.5-.4-1.5,1.6h-.2a7.8,7.8,0,0,0,.2-1.4l-2.2-1a5.2,5.2,0,0,1-3.6,1.2l-3.9.4-2.9.4-.7-.3c1.6-.9,3.3-.8,4.9-1.2s3.3-.1,4.9-.9a4.3,4.3,0,0,0-2.9-.4l-4.5.8c-.5.1-1.1.3-1.6-.4,1.6-1.2,3.7-.4,5.4-1.5a1.8,1.8,0,0,0-1.8-.4l-2.9.8h-1.2c-.1,0-.1-.3-.1-.5l1.4-.5c0-.3-.1-.6-.1-.9l.7-.7-2.3-1.1c-1.4-.7-3-.5-4.5-.8a35.6,35.6,0,0,1-6.5-1.3c-3.3-1.2-6.7-2.2-9.6-4.2l-1-.4a3,3,0,0,1-1.8-1.7h1l7.6,3,3.2,1.3a22.3,22.3,0,0,0,6.2,1.4l.2-.2-.3-.3c-1.6-1.1-3.5-1.2-5.4-1.5a12.9,12.9,0,0,1-2.8-.8l-3.7-1.7c-2.2-1-4.5-1.7-6.2-3.3.4-.7.7-1.4,1.1-2.2l-.8-.5c-1.1.2-.5,1.1-.7,1.6s-1.5.7-2,1.4a8.3,8.3,0,0,1-.8,1.2c-2.7,3-4.5,6.6-6.5,10.1a6.4,6.4,0,0,0-.2.7c3.6,1.9,7.6,2.9,11.4,4.4a61.7,61.7,0,0,1-6.2-1.1c-2-.5-3.9-1.4-5.8-2-1.1,1.5-1.5,2.5-1.9,5.3l1.4,1.8h4.4l15.9-.4,10.2-.3h3.1l8.3.4c.3.3.7.2,1.1.1Zm-42.7-74.9a9.8,9.8,0,0,0,5.6,3.5l4.8.9,1.7.4a10.9,10.9,0,0,1,5.6,2.1,7.4,7.4,0,0,1,3.4,4v3.1a3.7,3.7,0,0,1-.7,2.5,11.5,11.5,0,0,0-2.3,4.2c-1,2.7-2.2,5.2-3.4,7.8a8,8,0,0,0-.3,1.5,10.9,10.9,0,0,1-.7,3c-.7-1-.8-1.1-.7-1.8a17.7,17.7,0,0,1,.8-3.3c.6-1.7,1.4-3.4,2.2-5.1a2.1,2.1,0,0,0,.3-1.6l-6.3,1.6.6.9a1.2,1.2,0,0,1-1.7,0l-1-.7H123c0,.2-.1.4-.1.6v.5l2.6.4h2.3c-.6.9-1.6.8-2.4,1.1l.5,1.1h-.6a16.6,16.6,0,0,1-5.3-3.8,5.3,5.3,0,0,0-1.4-1.2,27.9,27.9,0,0,0-3.3-.6l-.9,5c-.1.9-.5,1.8.2,2.7-1,.2-1.3-.3-1.2-.9s.3-1.6.4-2.5.3-3.1.5-4.5-.9.1-.9.5-.1,1-.2,1.6-.5,2.7-.8,4.3l-.5.2c-.1-.4-.3-.7-.2-1.1l.6-4.5a1.1,1.1,0,0,0-.3-1.4c-.5,2.2-.9,4.1-1.3,6s4.5,4.1,7.3,5.1c.6-2.4.3-3.4-1.4-4.1s-.2,1.8-.3,2.6-.8,0-.9-.4a6.6,6.6,0,0,1,0-1.4c.3-1.8.5-3.6.8-5.4a2.5,2.5,0,0,1,.2-.7c3.2,2.8,6.1,5.4,10.3,5.9l-.4.7h-2l1.6,1.4c-.7.4-.8.5-1.1.2l-4.6-3.9c-1-.8-1.8-2-3.3-2.3l-.3,1.8,4.1,3.4c1.4,1.2,3.4,1,5.1,2.1l-1.4.9.7,1.2a15.2,15.2,0,0,0,6.7.2,3.2,3.2,0,0,0,2.2-1.2c2.2-2.4,3.2-5.3,4-8.4a1.3,1.3,0,0,0,.1-.6c.1-2.1.1-4.2.2-6.3a20.2,20.2,0,0,1,.6-3.4,37.5,37.5,0,0,1,1.9-4.1c-2-1.6-4.2-3-6.1-4.8s-4.5-2.8-6.7-4.4a1.6,1.6,0,0,1,1.7-.4,15.9,15.9,0,0,1,5,2.6l6.8,5.1,1,.6a.7.7,0,0,0-.2-.8l-3.1-2.6a6.4,6.4,0,0,1-1.8-1.9,23.5,23.5,0,0,0-2.3-3.2l-2.3-3a5.4,5.4,0,0,1-.2-1.1l2,1.9a14.3,14.3,0,0,0,4.4-5.1,2.6,2.6,0,0,0-.9-1.8l-.6.7c.2.6.3,1.2.5,1.8h-.2l-.9-1.3-2,1.8c-.5.4-.5,1.6-1.9,1.2l1.6-2.1a15.3,15.3,0,0,1,1.8-1.8c-.5-1.1-1-2.1-1.4-3.1-1.8,1.1-2.3,3.4-4.6,4l4.1-4.9c-.6-1.2-.8-2.4-1.8-3.4l-3.2,3.1-.3-.3c.7-1.6,2.6-2.4,3.3-4.2a8.4,8.4,0,0,1-.5-1.7,5.3,5.3,0,0,1-.3-1.2c-.1-.5.1-.8.9-.8a22.5,22.5,0,0,0,.8,2.4c.7-.1.9-.6,1.2-1l1.2-1.6c.4-.5.9-.5,1.5.1l-3.5,4.1c.8.9.6,2.3,1.7,3s0-1.4-.1-2-.4-1.1.4-1.4l1.1.7c.5-.2.7-1.2,1.6-.4l-1.2,2.7.6,1.4a14.6,14.6,0,0,0,.9,1.6c.3-.9.4-1.4.6-1.9l1-.8c-.3-1.8-.6-3.4-.7-4.9a32.3,32.3,0,0,1,.1-4.4c.1-.6.1-1.5,1.2-1.5s-.3,1.9.3,2.9l.8.4a15.7,15.7,0,0,1,3.1,1.8,6.5,6.5,0,0,0,2.9,1.6l.7.3a52.5,52.5,0,0,0,8.7,2.1c2.4.2,4.8.7,7.1,1.1l3.4.6a34.9,34.9,0,0,1,11,2.3l2.2.8a21,21,0,0,1,4.9,2h.4a7.6,7.6,0,0,1,.8-1.1,4.8,4.8,0,0,1,1.7.5,20.7,20.7,0,0,1,2.4,1.7,65.8,65.8,0,0,1,9.7,9.3c.9,1,2,1.9,2.1,3.5l-.7.5-7-7.3a32.9,32.9,0,0,0-7.8-6.1,14.3,14.3,0,0,0,1.9,2.4c2,2.5,3.2,5.1,2.1,8.4-.3,1-.5,2-.8,3.1l.7.8a35.3,35.3,0,0,1,5.4,6.2c1.5,2.1,2.7,4.4,4,6.6s2.7,4.6,4,6.9l2.2.7a31.7,31.7,0,0,1,5,1.5c3.6,1.3,6.6,6.1,6.2,9.5a14.8,14.8,0,0,0,.1,2.1,74.7,74.7,0,0,0-2.8,10c2.6,8.4,5.1,16.6,5.8,25.3l4.6.2a5.1,5.1,0,0,0,1.2-4.3c-.2-4.1-.4-8.2-.7-12.2a10.7,10.7,0,0,0-.3-2.5c-.6-2.4-1.3-4.7-1.9-7.1a1.1,1.1,0,0,1-.1-.8c.5-1.3-.1-2.5-.5-3.6s-1.7-4.6-2.5-7a61.2,61.2,0,0,0-7.9-16c-2.5-3.7-4.9-7.4-7.3-11.2-.4-.6-.6-1.2-.9-1.7s.7-1,1.4-.7a34.5,34.5,0,0,1,2,3.2,76.6,76.6,0,0,0,5,7.6c1.2,1.7,2.4,3.4,3.5,5.2a64.5,64.5,0,0,1,3.1,5.8c.8,1.7,1.4,3.6,2.1,5.4s.9,2.9,1.5,4.3,1.6,3.7,2.2,5.5a73.7,73.7,0,0,1,2,8.1c.5,3.2.9,6.4,1.7,9.5s.6,4.4,1,6.7a11.3,11.3,0,0,1,.1,2.6,13.5,13.5,0,0,0,.4,2.8c.1.3.5.4.7.6a4.2,4.2,0,0,0,.9-3.5c-.1-1-.3-2.1-.4-3.1a15.5,15.5,0,0,1-.4-3.7,45.2,45.2,0,0,0-1.1-9c-.7-4-1.6-7.9-2.3-11.9a29.7,29.7,0,0,0-2.4-7.1c-1.4-3.3-3.1-6.5-4.6-9.8a57.5,57.5,0,0,0-3.8-7.4c-2-3.2-3.6-6.7-5.9-9.8s-4.2-5.7-6.3-8.6l-1.2-1.6a35.7,35.7,0,0,1-2.7-2.8,37.1,37.1,0,0,0-6.2-5.7l-5.8-4.3a67.4,67.4,0,0,0-6.3-4.6,52.3,52.3,0,0,0-9.8-4.8,21.1,21.1,0,0,1-3.4-1.6l-5-2.5a7.7,7.7,0,0,0-3.7-.7l-3.9.2q-3,.2-6,0c-4.8-.2-9.5.2-14.3.2-2.8,0-5.5.2-8.3.3l-1.3.2-.5.9c-.1,1,.4,1.8-.5,2.5a2.5,2.5,0,0,1-.3-2.7,1.7,1.7,0,0,0-1.9-.7l-3.8.3-.9.2.6,3.3c1.3-.1.9-1.9,2-2.1a4.4,4.4,0,0,1,1.7.7,11.1,11.1,0,0,1,1.2,1.6l1.1.4-.3,1a25.3,25.3,0,0,0,3.2-2.1c1-.7,1.7-1.9,3-2.2s.1.9-.3,1.3l-2.9,2.4a50.8,50.8,0,0,1-8.5,6.1,53.9,53.9,0,0,1-7.5,3.1l-5.2,2,1.2,1.1h2.1l1.2-.8a3.9,3.9,0,0,1,.2,1.4c-.1,1.1-.2,2.3-.2,3.4s-.3,1.6.8,2c.2-1.5.7-2.9.3-4.4a7.6,7.6,0,0,1,.1-2.6c.1-.7.5-1,1.3-.8v.9c-.2,2.1-.3,4.2-.5,6.3s0,2.4,1.2,3.4Zm-2.2,4.4c-.3-1-1.4-1-2-1.6l-.9-.9,1.2-.7-1.3-.7-1.1,1.3c.1-.6,0-.8.1-1,1.2-2.4.5-4.7-.5-6.9a5.5,5.5,0,0,0-2.6-2.6,19.4,19.4,0,0,0-10-2.1l-4.4.5a19.1,19.1,0,0,0-8.7,3.2l-7.4,5.3c-2,1.5-4.1,2.8-5.7,4.9s-3.1,3.8-4.6,5.7c-.2.2-.2.5-.3.7s-.5,1.2-.7,1.7c-1.2,2.6-2.5,5.3-3.6,8a17.5,17.5,0,0,0-1.7,4.3c0,.4-.3.8-1,.7a2.7,2.7,0,0,1,0-.9c2.6-8.5,6.1-16.6,12.4-23.1a5.6,5.6,0,0,0-1.5-3.6c-.8.2-1.3,1.1-2.2.6s.8-1.4,1.4-2,.3-.8.4-1.3l-.7-.9-.7.2-1.6,1.5a78.5,78.5,0,0,0-10.4,11.9l-1,1.2a36.7,36.7,0,0,0-5.2,8.2c-1,2-1.8,4-2.8,6s-3.1,5.8-4.5,8.8-1.7,3.9-2.5,5.9-1.5,5-2.4,7.5a34.5,34.5,0,0,0-1.7,6.3c-.4,2.6-.7,5.2-1.2,7.7a51.8,51.8,0,0,1-1.4,5.3,38.8,38.8,0,0,0-1.4,10.7c0,.3.1.6.1.9,2.3.4,3.1.5,4.5,0a33.2,33.2,0,0,1,0-8.9c.4-4.3.5-8.7,1.3-13a116.9,116.9,0,0,1,3.7-14.4c1-3.4,2.6-6.6,3.9-9.9l1.4-3.3c1-2.2,1.7-4.5,3.1-6.5a22,22,0,0,0,1.5-2.6c1.2-2.1,2.3-4.2,3.7-6.2s3.1-4,4.7-6c.3-.4.8-.5,1.3-.8l.7,1.5-1.4,1.8a27,27,0,0,0-2.5,3.4c-1.8,2.8-3.4,5.7-5.1,8.6s-2.9,4.6-3.3,7.4v.3l-2.1,5.2c-.6,1.7-1.1,3.4-1.8,5a59.1,59.1,0,0,0-2.9,11.9c-.3,1.6-.1,3.3-.3,5a6.4,6.4,0,0,0,.7,4.5,20.9,20.9,0,0,1,1.4,3l1.2-.6a24.9,24.9,0,0,1,5.7-3.3,4.9,4.9,0,0,0,2.6-1.9c.1-.2.3-.2.6-.4l1,.3a36.4,36.4,0,0,0,4.4-1,42.7,42.7,0,0,1,4.8-1.3,19.2,19.2,0,0,1,6.3-.5c.3-.6.6-1.1.8-1.6a5.7,5.7,0,0,0,.5-3.4,24.7,24.7,0,0,0-.6-2.9c-.2-1-.7-2.2.2-3s.8-2.1,1.9-2.6h.4c0,.7.1,1.4.1,1.9,1.7,3.5,3.6,6.6,5,10.4-1.3-.7-1.4-1.7-1.9-2.5l-1.5-2.8-1.5-2.5-.8.2c-.2-.7-.3-1.3-.5-2a2.3,2.3,0,0,0-.6,2.4l1.2.8h-.2l3.6,6.3c-.4.1-.8,0-.9-.2s-1.2-2-1.7-3a6.2,6.2,0,0,0-1.7-2.2c.8,2.2,0,4.2-.4,6.5L76,186c1.4,0,2.7.6,4.2,0-1-2.1-1.9-4.2-2.8-6.2a34.5,34.5,0,0,1-1.8-5.1,4.2,4.2,0,0,0-1.8-2.7c-2.7,1.3-5.7,1-8.6,1.6H64.1l-4.7-1.1c-1.8-.4-2.3-1.8-2.6-3.4a13.3,13.3,0,0,1,0-2c0-.2.2-.4.4-.8l.4,1.5.6,1.9a2.5,2.5,0,0,0,2.1,1.7,8.3,8.3,0,0,1,2.1.6,7.3,7.3,0,0,0,3.6.3l2.6-.3a15.7,15.7,0,0,0,4.3-.9,54.2,54.2,0,0,1,8.4-3.3l.4-.2c4.6-2.8,9.1-5.6,12.7-9.6l1.2-1.2a39.7,39.7,0,0,0,6-7c1.9-2.5,3.5-5.2,5.3-7.9,0-.4-.9-.8-.1-1.4a2.9,2.9,0,0,1,2.2,1c1.3,1.5,3.1,2,4.7,3.1a12.6,12.6,0,0,0,2.9,1.2,9.7,9.7,0,0,0,.1-1.6l-.7-.6-3.2-1.6-4.6-2.4c-.2-.1-.3-.4-.5-.6l.8-.7,2.9,2,3,1.6c1,.6,1.9,1.4,3,2a29.4,29.4,0,0,0,3.1,1.6c-1.3.6-2-.8-3.1-.6a2.4,2.4,0,0,0,1.6,2.4l-.8.5c.6,1.3.7,2.8,1.9,3.9l.5-.8c2.8.2,5.4.2,8.1.5a2.9,2.9,0,0,1,2.1,1.1,45.3,45.3,0,0,1-4.9.8h-5a5.8,5.8,0,0,0,.5,1.1,35.7,35.7,0,0,0,9.2-.7l.8.2c1.6-.7,1.5-2.4,2.3-3.5l1.4-1a3.6,3.6,0,0,0-.5-.9,22.5,22.5,0,0,0,.5-2.2,2.9,2.9,0,0,0-.8-2.5,10.8,10.8,0,0,0-3.7-2.6,46.9,46.9,0,0,0-8.9-2.4,9.6,9.6,0,0,1-3.7-1.3l-.6-.3a11.3,11.3,0,0,0,6.6,4.1l3.3.7c1.9.4,3.2,1.7,4.7,2.7a.6.6,0,0,1,.1.4h-.2l-.9-.3a24.9,24.9,0,0,0-6.5-2.2,13.1,13.1,0,0,1-5.8-2.1l-1.4.5,1.6,1.1a9.6,9.6,0,0,1-2.9-.8l-1.6-.8c-1.5-.7-3-1.6-4.4-2.4s-.6-.7,0-1.2l1.6.8a6.5,6.5,0,0,1,1.8.5c.3.3.4.8,1.3.5l-1.3-.5Zm49.7,90.3a21,21,0,0,0,6.7,3.3l1,.5,2.1,1.8,4.9.2c1.7,0,3.3-.2,5-.1l7.3.5h12.3c2.4-.1,4.7-.3,7.1-.3h27.4a25.4,25.4,0,0,1,3.9-.1,82.2,82.2,0,0,0,8.6,0,7.1,7.1,0,0,0,2-.4l.4-.3c-.1-.4-.3-.7-.4-1.1h-1.5a2.6,2.6,0,0,1-.7-3.1l1,1.8c.1-1.4-1.4-6.3-2.3-7.2.1,1.1.3,2.1.4,3.4h-.8c-.4-.9-.7-1.7-1.2-2.7l-.9,1.9c-.3.6-.6,1.3-1.6.8a9.4,9.4,0,0,0,.6-1.5c.7-1.8,1.6-3.5,1.6-5.5a17.6,17.6,0,0,1,.6-3.9,7.1,7.1,0,0,1,.8-1.8c-.6-.5-1.2-1.2-1.9-1.7a5.9,5.9,0,0,0-5.1-1.5,21.7,21.7,0,0,1-3.6.2h-7.5a11.1,11.1,0,0,1-2.6-.1,15.5,15.5,0,0,0-3.1-.4l-5.5-.2c-2.4-.1-4.8-.6-7.2-.1a8.9,8.9,0,0,1-2.3-.1,14.1,14.1,0,0,0-2-.1l-5.9.6a3.2,3.2,0,0,1-1.4-.1c-1.7-.6-3.4-.2-5.1-.2h-6.8l-6.4.2c-2,.1-4.1-.1-6,.6h-2.6c-3.6,0-7.2.1-10.8-.1l-11-.6c-1.6-.1-3.1-.3-4.7-.3s-5.2,0-7.8.2c-4.5.3-9,.3-13.5.4l-5.6.2-5.3-.2a44,44,0,0,1-7.3-.6,22.9,22.9,0,0,0-6.4.1,1.9,1.9,0,0,0-1,.5c-1.6-1.1-3.4-.9-5.1-.8s-4.4.5-6.7.7H79.5l-10.8.2h-2l-3.9.2-9.3.2H46c-1,0-2.1.2-3.1.1a73,73,0,0,0-8.1,0H29l-6.7-.2c-1.6-.1-2.5.8-3.1,2.2h0a5.4,5.4,0,0,0-.5,1.1,44.4,44.4,0,0,1-2.7,7.2c-1.5,3-2.2,6.2-3.3,9.3l2,2.7a22.2,22.2,0,0,0,5.7.7,45.1,45.1,0,0,1,5.2-.1c5.4.2,10.7.8,16.2.6,3.1-.1,6.3.1,9.4.1l6.9-.2,13.5-.4,6.4-.3c2.8-.2,5.6.3,8.4,0a24.9,24.9,0,0,1,6.1.2c1.8.2,3.7,0,5.5.2a25.3,25.3,0,0,0,5.5,0h15.7c5.4.1,10.7.4,16.1.4h15.2l6.7-.2h14.6v-.3l-1.5-.2a6.8,6.8,0,0,1-1.5-.2,10.6,10.6,0,0,0-5-.5l-6.1.6a146,146,0,0,1-16.2.4h-3.1c-.6-.1-1.4-.1-1.5-1.1l1-.2h19.2a17.6,17.6,0,0,0,2.3,0H162a2.1,2.1,0,0,0,1.9-.6,8.5,8.5,0,0,0-2.3-2l-.7.9c-.4-.8.1-1.9-1-2.1s.2,1.5-.6,2.1c-.4-1.1.1-2.3-.6-3-4.2-1.7-8.1-3.7-12.5-4.9l-.9,1.3a12,12,0,0,1-5.8,5.3l-1,.7a8.7,8.7,0,0,1-6,1.8,17.4,17.4,0,0,1-6.9-2.5,15.2,15.2,0,0,1-3.4-3.3,23.4,23.4,0,0,1-3.9-4.9,15.8,15.8,0,0,1-2.2-6.3l-.3-2.5c.6-.6.6-.7,1.4-.5s1.9.5,2.9.6a43.8,43.8,0,0,0,5.2.4c1.7,0,3.3.9,5.1.6l.4.2.3,1a44.4,44.4,0,0,0,9.6,2.9l-.6,1.3-2.7-.5H132a9.5,9.5,0,0,0,4.4,5.2c1.8,1.1,3.8.6,5.7.7a1.1,1.1,0,0,0,.7-.3,12.4,12.4,0,0,0,2.1-1.8,21.5,21.5,0,0,0,3.4-5.6c.1-.4.4-.6.6-1,.3,1.7-.4,3.1-.8,4.6l5.4,3.2.4.3c1.1,1.4,2.8,2,4.2,3s.5.2.9.3l3.2-11.2h1.7l-.8-1.2c.8-1,.9-1.1,1.9-1l2.2.2h6.3v.2l1.8,1c1.2,1.1.1,2.6.8,4s1.9,2.4,2,4.1a2.8,2.8,0,0,0,.1.9c.3,1.1.4,2.3,1.4,3.1l2.5,1.6a1.9,1.9,0,0,0,2.4-.4,11.8,11.8,0,0,0,2.2-2.8c1.4-3,2.7-6,4-9l.7-1.2a2.9,2.9,0,0,1,0,2.4c-.7,2.1-1.5,4.2-2.3,6.3a12.6,12.6,0,0,1-2.4,4.4,32.5,32.5,0,0,0-2.3,2.9l.5.9c-.4.6-.8.5-1.3.5a2.5,2.5,0,0,0-1.2.2,7.8,7.8,0,0,1-6-.1,15.8,15.8,0,0,1-7.8-6.6c-.5-.9-1.1-1.8-1.7-2.7a3,3,0,0,0-.8-.7c-.1,1.1-.3,2-.3,2.9s.1,1.7.2,2.7c-.9-.9-1.2-1.3-1.1-2.1s-.3-3,1-4.3l-1.2-2.4c-.5,3.1-1.5,6.1-.4,9.3a1.2,1.2,0,0,0-1.1-.4,15.2,15.2,0,0,1-.3-2.1c.1-1.9.3-3.8.5-5.8s.1-1.2.1-1.7h-.3a33.4,33.4,0,0,0-1.7,8.9l1.7.7ZM149.5,259l-.3-2.9c-1.2-.4-2.1-1.1-3.3-1a10.2,10.2,0,0,0-3.5.4l.9,24.4H143l-.3-1.8c-.2-3-.3-6.1-.4-9.1,0-1.3,0-2.7-.1-4a22.6,22.6,0,0,1-.2-4.5c.2-1.5-.3-3,0-4.5a4.1,4.1,0,0,0-.3-.8,13.1,13.1,0,0,0-4.4.3V257c0,.4.4.8-.1,1.3s-.3-1-.5-1.4l-.4-1.3a7.6,7.6,0,0,0-4.6.4c.1.7.1,1.5.2,2.3s.3,1.4-.1,2.2c-.3-1.5-.6-3-.8-4.6a11.7,11.7,0,0,0-4.6.4v1.4c.2,2.1.5,4.2.8,6.2s1.1,6.6,1.6,9.9v.8c-1-3.6-1.6-7.2-2.3-10.8s-.7-7.4-1.9-11.1c-1.3.5-2.3,0-3.4-.5a29.6,29.6,0,0,1-3.1-1.5c-1.8-.9-2.1-1.1-2.5-2a31,31,0,0,0,7.7,3.1c-2.8-3.9-6.8-7-10.1-6.8.1.9.3,1.7.4,2.6a4.6,4.6,0,0,1-.2,2.9c-.4-2.1-.4-4.1-1.6-5.6a11.2,11.2,0,0,0-2.3-.6,14.5,14.5,0,0,0-3.6.1,9.3,9.3,0,0,0-2.6,1l-2,.9v4.8c-.6-1.4-.3-3-1-4.4a19.4,19.4,0,0,0-4.9,3.4c.1,4,.2,7.9.2,11.9h4.1c-1.3.3-2.8-.1-4.2.8-.1,4.2.1,8.5.2,12.8-.3-3-.5-6-.7-9a14.1,14.1,0,0,0-.5-4,19.2,19.2,0,0,0-2.4,0,23.6,23.6,0,0,1-2.8.4l-12.2.6-.7-.2a1.2,1.2,0,0,1,.9-.6l9.1-.4,7.4-.4.8-.2a12.3,12.3,0,0,0,.2-1.9l-.3-5.9a12.3,12.3,0,0,0-.2-1.9,5.4,5.4,0,0,0-.4-1.2c-.7,1.3-1.2,2.6-2.6,2.7l-1.2,1.6c.1.9.1,1.8.2,2.8s.3,1-.3,1.4c-.2-1.2-.5-2.3-.7-3.6L87.4,257c-1.5.9-2.9,1.6-4.7.9s-2.4-.8-3.6-1.2a12.8,12.8,0,0,1-2.7-1.1,7,7,0,0,0-4-1l-.6.9c-.4-.2-.7-.5-1-.5l-6.5-1.7a13.5,13.5,0,0,0-7.7.5l-7.5,2.9-1.2.3a9.3,9.3,0,0,1-.5-1,2.7,2.7,0,0,1,1.8-1.3,15.7,15.7,0,0,0,3.8-1.4c5-2.7,10.1-2.7,15.3-.7l2,.5,3.9.3a4.8,4.8,0,0,1,2.5.9,6,6,0,0,0,2.6,1.1,10.4,10.4,0,0,1,2.5.8c1.1.4,2.3,1.1,3.5.6a9.6,9.6,0,0,0,3.3-1.8c1.5-1.5,3.4-2.6,4.5-4.5a1,1,0,0,1,.5-.4,24.8,24.8,0,0,1,5.6-4l2.7-1.5a4.5,4.5,0,0,0-2,0l-6.7.4c-3.2.2-6.4.6-9.7.7l-12.2.6-3.7.3-4.1.4-4.7.4a55.4,55.4,0,0,0-7.1,1.2c-2,.5-4,.4-6,1h-.6c-1.9-.1-3.6.9-5.5,1.3-.2,0-.3.2-.6.4a4.2,4.2,0,0,0,2.4.5l6.3-.3,1.1.2c-2,.9-3.9.6-5.7.8s-3.7-.4-5.6,0a7.1,7.1,0,0,0,2.9,2.8l2.9,2a12,12,0,0,1-6.2-3.2c.2,1.8.4,3.2.7,4.7s-.2,3.1.4,4.6a4.3,4.3,0,0,0,2.5,0c-.1-2.2-1.3-4.3-.8-6.9,1.1,1.2.6,2.5,1.3,3.5s0,2.5,1.1,3.6h.8c.2-1.9.4-3.7.7-5.7l-.4-.5c.8.4,1.9,0,2.6.9a2.7,2.7,0,0,0-.9,2.7,13.3,13.3,0,0,1,0,2,16.2,16.2,0,0,0,.1,2.2c.5,2.5,1,4.9,1.6,7.3s.6,2,.8,3,.3,2,.5,3.1a8.2,8.2,0,0,1,.2,3.5,18.2,18.2,0,0,1-1.1-3c-.4-1.1-.7-2.2-1.1-3.3l-1.8.2c.2,1.7.5,3.3.7,4.9h-.4c-.3-1.6-.6-3.2-1-5-2.3-.3-4.5-1.3-7-1.3.4,3.5,1.1,6.8,1.6,10.1.5.2.8.5,1.1.5,2.1.1,4.1.6,6.3.2a8.3,8.3,0,0,1,2.2.1c.2,0,.4.4.6.6a2.6,2.6,0,0,1-2.3.6l-5.7-.7H38.8c0,.3-.1.5-.1.7.2,2.8.4,5.6.7,8.4,0,.5.4,1,.6,1.6,3,.5,5.9,1.3,8.9.8,0,1.2-.1,1.3-1,1.2l-4.8-.5h0l-2.7-.8-.4.5a.7.7,0,0,0-.1.6c.3,2.6.3,5.3,1.2,7.9.2.6.3,1.2.5,1.8,3.5.4,6.7,2.1,10.4.9-.4-2.4-.7-4.7-1.1-7s-.8-4.4-1.1-6.7a19.4,19.4,0,0,1-.2-3.4,1.9,1.9,0,0,1,.7-1.8c.2.3.3.4.3.6l.3,2.5a2.2,2.2,0,0,0,.1.8c.4,2.5.9,4.9,1.3,7.4s1.2,5.6,1.5,8.5a63.7,63.7,0,0,0,1.3,7.4,9.9,9.9,0,0,1,.2,1.7c.3,3,.5,5.9.7,8.9s.4,4.1.7,6.1.6,6.4,1,9.6c.1,1.2.4,2.3.4,3.6a15.3,15.3,0,0,0,.3,3c.4,2.6.8,5.3,1.3,7.9l.6,3.4c.4,1.9.9,3.9,1.2,5.8s.7,4.5,1.1,6.8.5,2.9.7,4.3c.3,3.1.6,6.3.8,9.4a5.1,5.1,0,0,1-.4,3.1,5.4,5.4,0,0,1-.4-1.2l-.6-4.2c0-.3-.1-.6-.1-.9a6.6,6.6,0,0,0-.6-3.6c-1.6-.2-3.3-.3-4.9-.6s-3.2-.8-4.9-1.3a43.8,43.8,0,0,0,2.1,12,13.2,13.2,0,0,0,4,1.1l3.9.3a1.8,1.8,0,0,1,1.6.9c-3.2.3-6-.8-9.1-1,.8,4.3,1.6,8.3,2.3,12.4,3.4,1,6.5,2.5,10.2,1.8a8.6,8.6,0,0,0-.3-1.7c-.3-.9-.6-1.9-.8-2.8s0-1.8,1.2-2.6l.3,1.4a10.9,10.9,0,0,0,.4,2.5,16,16,0,0,1,1,3.1c.9,4,1.8,7.9,2.8,11.9.5,2.2,1.2,4.3,1.8,6.5l.4,1a14.9,14.9,0,0,0,1.5,2c1.1,1.2,1.9,3,4,3a.9.9,0,0,1,.6.3c2,1.6,4.1,1.1,6.3.4a2.4,2.4,0,0,0,1.7-1.7c.9-2.9,2.1-5.7,1.9-8.8a2.2,2.2,0,0,0,0-.8l-.3-8.8-.6-8.9c-.1-1.8-.2-3.6-.2-5.3l-.8-1a9,9,0,0,0,.2-2.2c-.1-2-.3-4-.5-5.9a26,26,0,0,0-.5-3.9,20.6,20.6,0,0,1-.4-4.4c.4.4.8.6.9.9a31.5,31.5,0,0,1,1.1,4.4c.3,2,.4,4.1.6,6.1l.6,4.6a30.8,30.8,0,0,0,5.2.3c1.7-.1,3.4-.6,5.1-.4-.1.2-.2.2-.4.3a19.3,19.3,0,0,1-7.9.9c-.6,0-1.3-.2-1.7.5v1.1l.9,12.5.6,9.7V422c-.2,3.1-1.3,5.9-2.2,8.8a3.9,3.9,0,0,1-2.5,2.5,8.9,8.9,0,0,1-6,.4,16.2,16.2,0,0,1-3.7-1.9c-1.6-1.2-3-2.6-4.8-4a57.9,57.9,0,0,0-10.5-1,1.3,1.3,0,0,0,.1.6l2.2,5.2c.1.3.2.7.4.8a4.4,4.4,0,0,0,1.5,1l13,2.8c2.1.4,4.3.9,6.5,1.1a4.8,4.8,0,0,1,3.4,1.3H99.8a28.3,28.3,0,0,1,7.7-.4c4.1,0,8.2.3,12.2.5,1.8.1,3.7-.1,5.5-.1a76.3,76.3,0,0,1,8.3.1c2.9.3,5.8,0,8.8.1s6.4-.3,9.6-.5l5.2-.2a25.5,25.5,0,0,0,3.9-.2,30.3,30.3,0,0,0,4.2-.6c1.7-.5,3.3-1.2,4.8-1.8a3.7,3.7,0,0,0,2.1-1.6,41.7,41.7,0,0,0-5,0c-4.2.7-8.5.5-12.7,1l-4.4.5-2.4-.7c4.5-1,9.1-1.2,13.6-1.9s9.2-.3,13.8-1.1c.4-.7,1.3-1.1.8-2.3h-2.4c-4.5.4-9,.7-13.4,1.3s-8.5.4-12.7.7a3.6,3.6,0,0,1-2.1-.5l1-.2c2.4,0,4.8-.6,7.2-.2a7.1,7.1,0,0,0,1.4-.1c2.1-.2,4.2-.6,6.3-.7s2.9-.7,4.5-.4,3.4-.5,5.1-.7l5.8-.6c.2-1.2.5-2.2.6-3.2s.7-1.9.1-3.1c-.8.7-.5,1.6-.8,2.3s.1,1.6-1,2.1c-.1-1.4-.1-2.7-.2-4a14.7,14.7,0,0,0-2.1,0l-11.7,1.2-10.6,1.1H148c2.5-.5,5-.8,7.5-1.2l5.1-.7,5.4-.8a15.3,15.3,0,0,0,4.7-1.1h.5l.9.7,3.1-.3c-.1-2.2.5-4.2.2-6.4h-1.9l-3.7.5-16.2,2-5,.4a1.4,1.4,0,0,1-1.3-.4c10.5-1.5,20.9-2.2,31.1-4.4a21,21,0,0,0,.5-6.1l-3.1.4c-7.1,1.2-14.2,2-21.3,2.8l-2,.5a7.8,7.8,0,0,1-4,.5l-.5-1.2,1-.6,6.7-1.9,17.4-4.1,1-.4a11.5,11.5,0,0,1,1.7-.6,8,8,0,0,1,1.5-.3,31.7,31.7,0,0,0-4.4.2c-4.2.4-8.4.7-12.5,1.2s-5.4.1-8,1.1-6.1,1.8-9.2,2.6a29.9,29.9,0,0,0-3.2.8l-8.8,3-9.7,3.2-1.6.5-7.9,3-2.6.7c-.3.1-.6-.1-.9-.1s.3-.9.8-1.1l2.9-1.1,9.7-3.7,7.1-2.5,11.1-4,3.8-1,7.9-2.2,17.2-4.9,4.7-1.4c-.3-.3-.5-.3-.7-.2-3,.4-6,.8-9.1,1a6.4,6.4,0,0,0-3.5,1.2A10.4,10.4,0,0,1,158,400l-3,.8a3.8,3.8,0,0,1-2.4.1l3.6-2.4c-2-.7-4,.6-5.9-.2,9.1-1.1,18.2-1.4,27.2-3.2.4-1.5,0-3.1.9-4.5l.9.4a5.5,5.5,0,0,1,.1-.9,2.4,2.4,0,0,0-2.4-.5l-5.1.9c-5.7.9-11.5,1.3-17.3,1.7h-1.3v-.3a195.1,195.1,0,0,0,26.3-3.4c.2-1.9.7-3.8.1-5.7l-1.6.2-7.7,1.2a91.4,91.4,0,0,1-15.7,1.1,1.4,1.4,0,0,1-1.4-.6c4.7-.2,9.1,0,13.5-.6s8.9-1.3,13.3-2.3a7.8,7.8,0,0,0,.5-3.4c0-1.1.7-2.2.1-3.4l-6.8.9a106.4,106.4,0,0,1-11.2,1.2,12.3,12.3,0,0,0-4.2.7l1.5,3.5a14.7,14.7,0,0,1-9.1-2.1l-1-2.6h.6c2.4.2,4.9-.3,7.3.3a.6.6,0,0,0,.6,0l11.4-1c2.5-.3,5-.8,7.4-1.2l3.8-.5a29.1,29.1,0,0,0,.6-6c-4.4.6-8.6,1.2-12.9,1.6a90.7,90.7,0,0,1-12.8.8,1.3,1.3,0,0,1,.8-.3l8.1-.7,12.8-1.6a10.6,10.6,0,0,0,3.9-.9,11.2,11.2,0,0,0,.4-5.3c-7.1.8-14.2,2.2-21.4,2,7.3-.7,14.5-1.5,21.8-2.9.5-2.4.5-4.8.9-7.4l-12.8,1.3-12.9,1.5a2.4,2.4,0,0,1,1.9-.9l5-.5,6.6-.6,5.5-.6c1.7-.2,3.3-.6,4.9-.9l2-.4c.1-1.8.6-3.4.2-5.2l-1.6.2c-3.4.4-6.9,1-10.3,1.3l-12.2.9-1-.3a4.2,4.2,0,0,1,3.4-.9,24.4,24.4,0,0,0,2.7.1c3.1-.2,6.3-.3,9.4-.8l8.7-1.3,1.1-.4a12.3,12.3,0,0,0-3.8-5.2l-.3,4.3h-.3c-.1-.4-.3-.7-.4-1.1l-1.5.6a22.9,22.9,0,0,1-1.7,2.3l-2-.4a4.1,4.1,0,0,1,0-4.3l1.1-.5.3-1.8c2.1-.1,2,1.6,2.5,2.8s1.8-1.3,1.2-3.7c-2.5.3-4.9.7-7.4.9s-5,.6-7.5.7-4.9.6-7.4.1c3.6-.8,7.2-.5,10.8-1l11.1-1.6a38.5,38.5,0,0,0-3.9-5.5l-4,.5-4.2.5-4,.6c-1.4.1-2.7.7-4.2.6a1.5,1.5,0,0,1,1.3-1.1l2.3-.3,10.6-1.2c.5-.1,1.2,0,1.5-.6-1.2-1.7-2.3-3.4-3.4-5.1s-1.2-2.5-4.5-2.1l-5.4.7a1.6,1.6,0,0,1-1.7-.3,27.7,27.7,0,0,1,5.4-.9,6.9,6.9,0,0,0,3.8-.9c-1.6-2.2-3-4.5-4.6-6.5-1.2-.1-2.3.5-3.5-.3,1-.4,1.9.1,2.7-.5-.8-1.8-16.2-22.8-17.5-23.9l-5.9,3.7-5.9,3.9a54.5,54.5,0,0,0-5.7,4.1c2.5.5,4.7-.5,6.9.2l-8.4.8-3.5,2.4-13,9.6-6,4.5c-2.5,2-4.9,3.9-7.2,6s-5.2,5.1-7.8,7.5a10.8,10.8,0,0,0-3.7,6.2l-1.4.9a79.2,79.2,0,0,1,1.9,18.2,101.1,101.1,0,0,1-1.9-11c-.6-3.7-1.2-7.3-1.6-11s-1.1-7.4-1.6-11c-.5-.4-1.3,0-1.6-.9l1.5-.5c-.3-2.4-.6-4.6-.8-6.9-.4-4.3-.7-8.6-1-12.8a25.4,25.4,0,0,0-.1-3.9,55,55,0,0,1-.8-9.1,95.2,95.2,0,0,0-1.2-13q-.6-3.7-.9-7.5a95.5,95.5,0,0,0-1.2-10.6,12.1,12.1,0,0,1-.1-1.9.8.8,0,0,1,.9-.9c.9.7.9.7,1,1.6.3,3.3.7,6.7,1,10a28.2,28.2,0,0,1,.2,4.1,18.7,18.7,0,0,0,.7,4,49,49,0,0,1,7.7.7,23.1,23.1,0,0,1-3.7.3H78.3c.3,5.5.7,10.9,1,16.5l2.2-.2c.7-.1,1.3-.5,2,.1-1.3.8-2.9.1-4.2,1.2.9,9.4.9,19,2.3,28.3.7.6,1.6.3,2,1.3l-1.8.2c.2,1.7.4,3.2.6,5.1,2.6-1.5,5-2.9,7.3-4.4l2.4-1.7,11.3-8.5c1.3-1,2.7-1.8,4-2.7l5.4-3.8,7.3-5.2a9.3,9.3,0,0,0,1-1l-1.9-.4,2.7-.3.9-.2c2.2-1.4,4.4-2.7,6.4-4.2,4.1-3.2,8.6-6,13-8.8l1.8-1.3-.9-1.4-7.5-10.5c-.7-1-1.6-1.9-2.4-2.9l-.3-.7a2.2,2.2,0,0,1,2.2.7l7,8.5,3.3,4.2.8.8c2.9-1.4,5.8-3.4,6.5-4.4s1.3-.3,1.8-.7a39.8,39.8,0,0,1,3.3-2.4,23.3,23.3,0,0,1,3.4-2c2-1,3.9-2.2,5.9-3.4l1-.8-8,.5c0,.6-.1,1.2-.1,1.8-.7-2.1-.5-4.3-.5-6.5s-.5-4.5-.5-6.7-.3-4.3-.4-6.6l1.1.8h1.9v.3l-2.2.4c.4,1-.2,2,.3,2.7l2.7,1c1.2.4,2.3,1,3.6.3v-3c-1.1-.9-1.1-.9-3.2-1.4a16.2,16.2,0,0,0-1.9-1.3,29.9,29.9,0,0,0-3.2-.9h-.9l-3.1.2a5.1,5.1,0,0,0-2.5.3,3.8,3.8,0,0,0-1.7,2.8ZM59.1,193c3.2-1.2,6.5-1.2,9.7-1.6a24.9,24.9,0,0,1,10,1.1l-.9-1.6-4.4-.3H69.3c-1.4-.1-2.8.9-4.3.4a1.6,1.6,0,0,1,1.4-1,32.6,32.6,0,0,1,6.2-.6,85.8,85.8,0,0,1,8.7,1,29.2,29.2,0,0,1,9.2,3,20.6,20.6,0,0,1,6.4,4.1,21.1,21.1,0,0,0,2.3,1.9l6.5,4.4c.9.5,1.7,1.3,2.9,1.3a59.2,59.2,0,0,0,3.5-4.8c-3.1-1.9-6.2-3.2-9.1-4.9s-6.1-3-9-5a2.9,2.9,0,0,1,1.6.3c1.8.8,3.6,1.5,5.3,2.4l9.7,5.1,2.1,1,.5-.4a23.2,23.2,0,0,0,3-4c1.2-1.8,2.5-3.6,3.8-5.3a17.1,17.1,0,0,0,1.3-2.3l-3.9-2.9a9.4,9.4,0,0,0-2.2-1.2l-3.8-1.4-.8-.5c1.9-.5,3.4.8,5.3.4a16.5,16.5,0,0,0-5.6-3.4,48.4,48.4,0,0,0-6.4-1.3,5.6,5.6,0,0,0-1.3,0c-1.6.2-3.3-.1-4.9.3a9.8,9.8,0,0,1-3.8-.3,49.2,49.2,0,0,1-8.4-2.1c-1.4-.6-3-.8-4.3-1.8l-2.9-2.3-2.2,1A62,62,0,0,1,81.9,186l5,1.7,1.3.5c.2.1.3.5.5.8a3.5,3.5,0,0,1-1.4.1l-3.5-.6a30.4,30.4,0,0,0-9-.6H71.7a27.2,27.2,0,0,0-6.4.4A63.2,63.2,0,0,0,55,191.2a36.9,36.9,0,0,0-6.4,2.9,24.7,24.7,0,0,0-4.2,3c.5,1.6.7,3.2,1.6,4.5a18.1,18.1,0,0,0,5.8,5.2,2.8,2.8,0,0,0,2.7.5,2.1,2.1,0,0,1,1.7.4,3.3,3.3,0,0,0,2.5.6,1.6,1.6,0,0,1,2.1,1.2l11.9-.3c3-.1,6.1-.4,9.1-.3a97.3,97.3,0,0,0,10.8-.2h.9L90,204.4a9.5,9.5,0,0,0-1.2-1.6c-1.7-1.4-2.9-3.3-4.4-4.9L81.8,195c-.9-1.1-2.1-1.3-3.6-1.4l7.9,9.4-.3.3-1-.8-2-2.4c-1.5-1.7-3.1-3.3-4.5-5a8.1,8.1,0,0,0-3.1-2.1H73.8l2.8,3.2,2.5,3a22.6,22.6,0,0,1,2.3,3.1c.6,1.1,1.9,1.8,2,3.2-1.1-1.2-2.2-2.5-3.2-3.8l-3.1-3.8a17.9,17.9,0,0,0-5.2-4.7,4.3,4.3,0,0,0-3.4-.4l2.7,2.4,2.3,2.7c.7.9,1.6,1.7,2.2,2.6s1.8,1.5,2.1,3a5.7,5.7,0,0,1-1.4-1.1l-3.5-4.2a18.4,18.4,0,0,0-4.5-4.3l-2.2-1.2-1.6.4,6.2,6.8a2.1,2.1,0,0,1-1.8-1.1,18.2,18.2,0,0,0-5-4.6c-.8-.6-2.1-.6-3.1-.8l-.6.3c.8.9,1.4,1.7,2.2,2.5s1.6,1.4,1.7,2.6c-2-1.9-3.8-4-6.3-5.1.1-.4.1-.7.2-1.2-4.5,1.2-7.8,4.1-11.3,6.9a5.6,5.6,0,0,0-.4-1.2l1.5-1.4a29,29,0,0,1,2.9-1.9,26.1,26.1,0,0,1,2.8-1.7,10.1,10.1,0,0,1,4.8-1l.7.9Zm159.8,90.1q-.7,3.8-1.5,7.8h1.7a9.8,9.8,0,0,0,2.3-.6c1.7-.6,3.6-.3,5-1.6s1.1-.3,1.4.7c-3.5,1.4-7.2,1.9-10.6,3.1a26.8,26.8,0,0,0-1.3,7.2h.4a21.7,21.7,0,0,0,5.6-1.3c.5-.2,1-.5,1.5,0s-.6.8-1.5,1l-5,1.2-1.4.5a46.7,46.7,0,0,0-1.3,6.7l1.7-.2c.8-1.2.5-2.8,1.9-3.6.8,1-.2,2,.2,2.9h.2c2.5-.6,5.2-.8,7.6-1.8.3-.1.7-.3,1,.3-2.9,1.3-6.1,1.8-9.2,2.8-.3,1.6-.7,3.2-1,5a2.6,2.6,0,0,0,1.2.1l5-1.1c.4-.1.6-.2,1,.2-2.3,1.3-4.8,1.4-7.3,2.1a28.7,28.7,0,0,0-1.1,7.4l2.7-.5,2.4-.5a5.5,5.5,0,0,1,2.2-.6c0,.1.1.2.1.4l-7.7,2.5a26.4,26.4,0,0,1-.7,3,4,4,0,0,1-1.4,2.9c.2-1.9.3-3.6.4-5.4l-1.4.5c-.2,2.5-1,4.9-1,7.5a11.2,11.2,0,0,0,2-.2c2.5-1,5.3-1.3,7.7-2.6.2-.1.5.1,1.1.2l-1.3.8-5.7,1.9-4.1,1.3c-.4,2.7-1.2,5.1-1.2,7.9,3.3-.7,6.3-1.8,9.5-2.6a46.9,46.9,0,0,1-9.9,3.7c-.2,1.4-.3,2.9-.5,4.5a12.5,12.5,0,0,0,2.1-.2l3.7-1.3c.4-.1.8-.4,1.2.2s-.5.5-.8.6l-3.3,1.1-3.1,1.1a32.2,32.2,0,0,0-.8,7.6l4.2-1.1,4-1.2c0,.1.1.3.1.4l-8.9,3.2c-.2,1.8-.4,3.5-.5,5.3l3.2-.4c0,.1,0,.2.1.2l-3.4,1.4a13.2,13.2,0,0,0-.6,4.8c1.2.6,2-.5,3.1-.4s1.9-.8,3.3-.4l-6.7,2.3c-.9,2.1.1,3.5,1.3,4.9l2.3-.2c.7-.1,1.4-.7,2.3-.4-1,1.5-3,.9-4,2.2,1.1,1.7,1.7,3.7,3.1,5.2l1.6-.2-.7,1c.6,1.3,1.9,1.7,3.2,2.4a9.9,9.9,0,0,0,.3-1.5c.6-3.9,1.2-7.8,1.9-11.6.3-2.2.8-4.3,1.1-6.5s.6-4.7,1-7,1.4-6.2,2.1-9.4c0-.2.1-.4.1-.6.3-2,.6-4,1-6,.7-3.8,1.4-7.6,2.2-11.4s1.3-6,1.8-9.1,1.1-6.7,1.6-10.1.7-6.2,1-9.4.4-4.7.5-7,.8-5.2,1.1-7.8.4-5.5.6-8.2h-.3a44.3,44.3,0,0,0-.6,5.1c0,1.5-.9,2.9-.6,4.5l-.5.5a2.7,2.7,0,0,1-.2-2.1,20.4,20.4,0,0,0,.3-5.5,10,10,0,0,1,.2-1.6c.2-1,.5-1.9.7-2.9.4-3.3.7-6.5,1-9.8l.2-.3h1.1c.1,1.8-.7,3.4-.8,5.1s-.3,3.3-.4,5c2-7.5,3.3-15.1,4.8-22.6l-1.5-1.9a17.9,17.9,0,0,0-4.7-1,4.5,4.5,0,0,0-4.5,2v2.1h1.8l.7-1.2.6.8,2.9-.7,3.1-.7c-2.1,1.6-4.5,1.6-6.4,2.4a19.8,19.8,0,0,0-1.2,7l3.1-.7c-1,1-2.3,1.1-3.4,1.6a7.2,7.2,0,0,0-1.3,3.3c0,1.2-1,2.2-.3,3.5l2.3-.5c.7-.1,1.4-.8,2.3-.4-1.6,1.3-3.5,1.1-5.1,2.2a27.3,27.3,0,0,1-.8,3.4c-.3,1.1.1,2.4-1,3.8a9.2,9.2,0,0,1-.1-1.5c.1-.9.3-1.8.4-2.6s.5-1.8-.3-2.6l-1.9.4c-.3,2.8-.5,5.5-.8,8.3,1.4,0,2.6-.7,3.9-.9s2.3-1,3.7-.7c-2.9,1.5-5.7,1.9-8.4,3.1ZM203.5,442.9a36.1,36.1,0,0,0-3.8.8,18.6,18.6,0,0,1-5.2.7c-3,.2-6.1,0-9.1,0l-9.7.2H156.9L148,444H132.5c-1,0-2.1.1-3.1,0l-8-.4H109.2l-13.3-.2c-.3,0-.6-.2-.9-.1a23.7,23.7,0,0,1-7.5.4H86.4l-5.2.2H76.7a12.3,12.3,0,0,1-2.7-.2c-2.9-.4-5.6-1.7-8.4-2.5a5.9,5.9,0,0,1-3.8-3.9c-.5-1.1-1-2.2-1.4-3.3s-.7-2.3-1-3.5l-2.7-12.7c-.4-2.1-.7-4.2-1.3-6.3-1-3.9-1.6-7.8-2.2-11.7l-1.2-7a10.6,10.6,0,0,1-.5-3.1,7.1,7.1,0,0,0-.4-2c-.2-1.1-.5-2.2-.7-3.4l-.9-5.7-1.9-1,1.5-.2v-1.8l.9-1.1,1,.3.6,3.6c3.3,1.1,6.4,2,9.9,1.5-.2-1.7-.4-3.3-.6-5.2l-.7-.7a6.5,6.5,0,0,1-3.5-1.1,1.8,1.8,0,0,1-.8-1.9,7.1,7.1,0,0,0,.1-1.5c-1.5-.3-3.1-.5-4.5-.9a14,14,0,0,1-4.6-1.6l1.4-.2a5.4,5.4,0,0,1,.9-1.7c1.4-1.6,2.8-3.2,4.4-4.7a13,13,0,0,0,2.5-3.9l-1.9-.3H52.5l-6.6-1.2c-.2,0-.3-.3-.5-.4,4,.1,7.8,1.3,11.9.7-.3-2.9-.7-5.6-1.1-8.3l-10-2.6c-.8,1.8-.2,3.6-.9,5.4l-1.2-5.9-1-.6.8-.4c-.4-3.4-.7-6.8-1.1-10.2l-2.4-.9v-.3l2.3.2c-.5-3.7-1.3-7.2-1.8-10.7l-1.7-.6,1.4-.5c-.2-1.2-.3-2.3-.5-3.3s-.9-4.6-1.4-6.9a15.2,15.2,0,0,0-.6-2h.1L36.5,297a3.6,3.6,0,0,0-2.5-.7v.9l1.5,9.1c.2,1,.3,1.9.5,2.9s.5,2,.7,3l.9,6.8c.2,1.5.5,2.9.6,4.4a55.4,55.4,0,0,0,.7,8.1c.6,3.2,1.4,6.3,1.8,9.5a101.1,101.1,0,0,0,2.7,13.3q1.1,4.3,1.8,8.7c.6,3.6,1.3,7.1,1.8,10.7s.4,4.2.6,6.3a65.3,65.3,0,0,0,1.3,8.7c.7,2.7,1.3,5.5,1.9,8.2a16.1,16.1,0,0,1,.7,3.7,17.7,17.7,0,0,0,.8,5.2c.4,1.8.6,3.7.9,5.5s.8,4,1.1,6,1,2.2.7,3.5.5,4.1.9,6.1l1.2,6.6c.2,1.1.5,2.2.8,3.4a8.8,8.8,0,0,0,.2,1.6,16.1,16.1,0,0,1,.7,4.9c0,.6.1,1.1.1,1.6s2.1,2.2,3.9,2.2,4.6.1,6.9.2a40.1,40.1,0,0,0,9.8-.2h.8a13.3,13.3,0,0,0,2,0l6.4-.2c3.2-.1,6.3.3,9.5.5s4.7.1,7,.1a12.8,12.8,0,0,1,3.4.1,7.6,7.6,0,0,0,2.6.1l1.9-.2H136c3.1-.5,6.3-.2,9.4-.2h9.5c1.5,0,3-.2,4.5-.1l6.7.2c.9,0,1.7.3,2.6.3l5.6-.2h8.5l5.8.2,7.5-.5c2.1-.1,4.1-.7,6.1.1.3-.2.5-.5.8-.6a3.1,3.1,0,0,0,2.3-3c.5-3.1,1.1-6.2,1.7-9.3s1.1-6,1.7-9a10.3,10.3,0,0,0,.1-1.8h-1.1c-.4,2.8-.7,5.5-1.1,8.2l-.9,5.1c-.3,1.3-.7,2.6-.9,4a4.8,4.8,0,0,1-1.3,2.3ZM170.2,143.4c-.3-1.7-.6-2.9-.9-4.2a3,3,0,0,1,.2-2.3,8.2,8.2,0,0,1,4.6-4c3.6-1.1,6.7.3,9.7,1.9a52.5,52.5,0,0,1,4.9,3.3,8.3,8.3,0,0,0,.8-6.5,2.7,2.7,0,0,0-.9-1.2,10.7,10.7,0,0,0-2.2-1.5,75.2,75.2,0,0,0-13.3-4.8,16.8,16.8,0,0,1-3.2-.9c-2.7-1.4-5.7-1.7-8.7-2l-1.8-.3-6.9-1.8a13.1,13.1,0,0,1-.5,1.5,16.6,16.6,0,0,0-1.9,4.8,11.9,11.9,0,0,1-.8,2l-.4-.2a20.4,20.4,0,0,1,2.7-8.2l-1.3-.4c-1.2,2.4-1.5,4.9-2.2,7.5h-.7c1-5.7,1-5.7,2.1-7.4l-.4-.2h-.6c-1.4,2.3-1.5,2.6-2.1,7.7-1.9-.5-2.5-2.5-4.1-3.2s-.4-2.4-1.9-2.7l-1.7,2.7a3.3,3.3,0,0,0,1,1.5c.8-.2.6-1.7,1.8-1.1s-1,1.7-1.3,2.8l.9,1.5c1-.5.9-1.3,1-2.2l1.1-.2a1.1,1.1,0,0,1,0,1.5,7.5,7.5,0,0,0-1,1.7,1.7,1.7,0,0,0,0,1,2.2,2.2,0,0,0,.7.6l1.4-2.1c.8.2.7.6.4,1l-1.4,2.2,1,1c1-.5,1.1-1.8,2.3-2-.2,1.6-1.8,2.4-1.8,3.8s-3.1,2.3-3.6,4.2l2.5,2.1a1.6,1.6,0,0,0,2.2.1,11.7,11.7,0,0,1,.5-1.1c.2,0,.4-.1.6,0a5.6,5.6,0,0,0,3.4.3,13.5,13.5,0,0,1,6,.4,16.7,16.7,0,0,0,2.6.6l.8-1c1.8-1.9,3.7-3.7,5.6-5.5l4.8-4.2a3.4,3.4,0,0,1,2.7-1c-.1.7-.6,1-1,1.4l-3.7,3.2-6,5.8a14.1,14.1,0,0,0-1.4,1.8c3.2,1.7,6.1,1.9,9.4,2.3Zm-9,164.9c-.1-.7.3-.7.7-.7l4.7-.3a5.1,5.1,0,0,0,2.5-.5c.2-2.7.5-4.4-.2-6.3H168l-5.5.6a1.8,1.8,0,0,1-2-.9c3-.1,5.7,0,8.3-.7v-7.2c-3.8-.1-7.5.5-11.1.3a1.4,1.4,0,0,1,.9-.5l6.6-.3,3.5-.4c0-2.8.1-5.5,0-8.1h-1.2l-4.8.5a1.5,1.5,0,0,1-1.4-.5c2.5-1,5.1-.3,7.5-1,0-1.6.3-3.1-.1-4.6h-.4l-8.7,4.7a3.6,3.6,0,0,0-1,1.1c-.8-.4-1.5.3-2.1.6s-3.9,2.2-5.8,3.5-2.6,1.3-3.7,2.5l.9,1.3,6.1,8.3,8.4,11.6,3.1,3.8,19.7-2.3a34.8,34.8,0,0,0,.5-6.3,1.3,1.3,0,0,0-1.8.4c-.3-.2-.5-.4-.7-.4-4.4.3-8.8.8-13.2,1.3-.1.9-.2,1.6-.3,2.3h-.3V308c-2.9-.4-5.5.2-8.2.3Zm39.5,88.5c3.1-.2,5.8-1.2,8.7-1.3-2.8,1.5-5.9,1.9-8.9,2.8-.3,1.3-.5,2.4-.8,3.8l2.3-.4h.8v.2l-3.4,1.4c-.4,2.1-.9,4.2-1.4,6.4h2l3.2-.8,3.9-.7a1.8,1.8,0,0,1,.1.5l-9.4,2.8c-.2.9-.5,1.8-.7,2.8s-.3,2.1-.4,3.1a3.4,3.4,0,0,0,3.1-.1,3.6,3.6,0,0,1,2.5-.2c-.8,1-1.9.9-2.8,1.1l-3,.8c-.3,2.2-.6,4.3-1,6.6h1.7c.5,0,1-.2,1.5.3-1.1.6-2.5.4-3.4,1.4s-.5,2.2.1,3.4,3.4-.7,5.2-.8c0,.1.1.2.1.3l-5.4,1.9a23.9,23.9,0,0,0,.9,6.6,3,3,0,0,0,1.1,1.4,9.6,9.6,0,0,0,3,1,3.4,3.4,0,0,1,2.5,1.1,98,98,0,0,0,3.3-19.1c-1.4-.4-2.7.1-3.9-.3v-.3l4.2-.7a4.4,4.4,0,0,0,.2-1c.6-3.9,1.1-7.8,1.7-11.7.3-2.1.7-4.1,1-6.2s.6-6.9,1.1-10.3a7.4,7.4,0,0,0-1.2-5.8c-.8-1.1-1.4-2.3-2.1-3.4a10.7,10.7,0,0,0-4.1.9,16.4,16.4,0,0,0-.8,5,4.9,4.9,0,0,0,4.9-1.7l1.1,1a3.8,3.8,0,0,0-1.3,3.4l-.9.3c-.4.7-.4,1.5-1.5,1.8l-1.1-.7v-3h-1.5l-1.2,6.3ZM84.5,454.5c0,.1-.1.2-.1.3l2.6.9,1.1.3c3.5,1.3,7.1,2.5,10.6,3.9s7.1,1.2,10.7,1.1,5-.3,7.5-.3c5.4,0,10.9.3,16.3,0h5.5l7.4-.2a79.1,79.1,0,0,0,9.7-.7l.2-.4h-3.8c-1.3-.1-2.6.1-3.8-.5h4l10.7-.2a2,2,0,0,0,2.1-1.7l-7-.3H140.5c-.1,0-.1-.1-.2-.3s.8-.4,1.2-.4h20.8l2.8-.2c-.8-1.4-.8-1.6-2.2-1.6-3-.1-6-.2-9-.1a72.4,72.4,0,0,1-14.7-.6H117.9c-2.9,0-5.8.2-8.6.1a82.9,82.9,0,0,0-10,.3,5.4,5.4,0,0,0-1.2.4c1.3.5,2.3.7,3.3,1.2a14.2,14.2,0,0,0,7.6,1.2,72,72,0,0,1,10.4-.2c1.8.1,3.7,0,5.5,0h2.7c.3,0,.5.3.8.5v.3h-2.1l-8-.2h-7.7l-.8.2a5.9,5.9,0,0,1,.4.8c-1.6,1.2-3.3,2.3-5.6,1.8a3.8,3.8,0,0,0,.1-1,3,3,0,0,0,3.2-.8h-2.2a5.4,5.4,0,0,0-3.1.2,4.2,4.2,0,0,1-2.7,0l4.6-.9a8.5,8.5,0,0,0-2.5-1.3c-3.3-1.1-6.4-2.6-10-2s-5.1.5-7.4.7Zm-20.8,4a14.9,14.9,0,0,0,1.2,4.6,3.6,3.6,0,0,0,2.7,2.1,7.8,7.8,0,0,0,2.2.2h6.1l13.5.3h8.3l3.4-.2h6.1l6-.2,7.1.2,12.8-.2,4.8-.2c2.7-.1,5.3-.3,8-.2s5.8.2,8.7,0h.5l9.7.3,5.9-.2h10.2c2.6.7,5.3.2,7.9.4h.8l3.1-.3,4.2-.4a2.1,2.1,0,0,0,1.9-1.7c.3-1,.7-2,1-3a6.1,6.1,0,0,0,.6-2.9l-11.6-2.1-.5,1.3c.6,1.6,1.5,2.2,3.1,2a17,17,0,0,1,3.9,0,2.9,2.9,0,0,1,1,.5c-2,.3-3.8-.3-5.6.2a3.6,3.6,0,0,0,3.3,1.4,24.8,24.8,0,0,0,2.7-.3c.5,0,1-.1,1.2.4s-.8,1.7-1.7,2a14.9,14.9,0,0,1-5.1.6l-8.5-.2-9.7-.3-8.3-.2c-4.5-.1-8.9.1-13.3.4l-3.8.3h-29l-7.4.2c-4.7.1-9.4-.2-14.1,0s-7.4,0-11.1,0H81.7a2.6,2.6,0,0,0-.1.7,12.3,12.3,0,0,0-2.5-.5,40,40,0,0,1-7.7-.6,9.1,9.1,0,0,1-3.3-1.5c-.2-1.4.9-1.5,1.6-2s3,1,4.5-.2l2.1,1,1.3.5H87l.9-.2-1.3-.7-8.1-3.4a5.8,5.8,0,0,0-5-.5h-.6c-2.9,0-5.6,1.2-8.4,1.7-.4-.1-.5.1-.8.3ZM162,170.4c0-.2-.1-.3-.1-.4s1.8-.3,2.5-1.3l-.6-1.1h-1.4c0-.2-.1-.3-.1-.4l.4-.9c-4-4.8-8-9.5-12.4-14.2-2.1,2.6-4.4,4.7-6,7.4a4.9,4.9,0,0,0-.3,5.2l-.6,1.1c.6,2.8-.8,5.4-.8,7.9l-3.7,3.8c-.5.6-1.2,1.1-1.1,2.2l1.5-1.2,2-1.8c.2-.2.5-.2.9-.3-.8,1.6-2.5,2.2-3,3.9h2.6a6.2,6.2,0,0,0,3.6-1.4,45.6,45.6,0,0,1,10.8-6.5,7,7,0,0,1,1.9-.6l6.5-1c.4-.1.9,0,1.3-.7-1.2-.1-2.5.6-3.9.3Zm8.7,2.1-2.1-.3h-3a18.7,18.7,0,0,0-8.8,1.3,36.3,36.3,0,0,0-10.5,5.9A7.4,7.4,0,0,1,142,181l-5.3.3-.4.3c.3.2.4.5.7.6l4.2,2.7,6.9,4.3a7.6,7.6,0,0,0,1.6.6l1.6.5a31.1,31.1,0,0,1,3.3,1.5,22.8,22.8,0,0,0,5.9-2.8,3.1,3.1,0,0,0-.1-1,22.8,22.8,0,0,0,8.2-4.2h-1.7l-7.7,2.3h-1.1c.5-1.1,1.4-1.1,2-1.3l5.8-1.6a7.2,7.2,0,0,1,4.1-.3c2.2-1.1,3.9-2.2,4.5-3.1-1.1-.4-1.9,1-3,.3l-7,1.7-5.2,1.7-2.3.9c-.6.2-1.1.5-1.9-.1a23,23,0,0,1,4.8-1.7c1.6-.5,3.2-1.1,4.8-1.5s3.2-.8,4.9-1.2a5.7,5.7,0,0,0,.1-1.3l-1.5.3c-2.9.8-5.8,1.5-8.6,2.5s-3.8.9-5.4,2.1-.7.1-1.1.1a1.4,1.4,0,0,1,.6-.7,78.6,78.6,0,0,1,11.6-3.8,30.9,30.9,0,0,0,4.3-1.4c0-.6-.1-1.1-.1-1.6l-1.5.3.9.3c-2.7.7-5.3,1.3-7.8,2.1a62,62,0,0,0-9.4,3.4,14.5,14.5,0,0,1-2.2.9c-.2.1-.5-.1-.7-.2v-.3l5.1-2,5-1.7c1.7-.7,3.5-.8,5.1-1.8a1.1,1.1,0,0,0-.8,0l-5.7,1-1.3.4-3,1a9.2,9.2,0,0,0-3.5,1.9,3.3,3.3,0,0,1-3.2.9l.7-1.2c-2.8.9-5.2,2.4-8,1.3a3.9,3.9,0,0,1,1.8-.4,7.1,7.1,0,0,0,3.2-.7c1.3-.6,2.7-1,4.1-1.5l5.8-2,3.4-1,2.8-.5a35.8,35.8,0,0,1,7.3-1.1,11.9,11.9,0,0,0,2.6-.5,12.5,12.5,0,0,0,.5-2.4ZM72.3,125.2c1,1.7,2.2,2.9,4.2,2.8.1.3.1.6.2.8l.5.7,1.7-1.2c1.4-1,2.8-2,4.3-2.9s2.7-1.4,4-2.1a7.3,7.3,0,0,1,2.5-.8l6.6-1.2a1.7,1.7,0,0,0,1.4-.8,2.9,2.9,0,0,1,2-1.6,7.4,7.4,0,0,0,3.1-2.1l1.9-1.6a2.4,2.4,0,0,0,1-1.9,19.1,19.1,0,0,0-1.2-5l-3.7.8a47.9,47.9,0,0,0-9.7,3.2c-3.3,1.4-6.3,3.3-9.5,4.8a41.3,41.3,0,0,0-8.9,6.1l-3.3,2.7c.3.5.6.8.9,1.4l2-2.1Zm93.6,29.6c-.3-.7-1.5-.1-1.3-1.3l1.8-.3c.1-.3.1-.5.2-.8s-2.3-.1-3.5-1.2c1.5-.2,2.8.1,4.1,0a3.6,3.6,0,0,0,.2-1c-2.4-1-2.4-1-2.5-1.7s2.1.5,3.2-.1l-.5-.4-6-1.9-3.4-.8a2.7,2.7,0,0,0-1.8.2,12.8,12.8,0,0,0-2.9,3.2c2.8,3.3,6,6.3,8.7,9.8l-1.1.7-2.1-2-6-6.4c-.3-.3-.5-.7-1.2-.4l1.7,2.2,8.2,9.7a11.4,11.4,0,0,0,1.5,1.6,1.6,1.6,0,0,0,1.2.1c.1,0,.2-.5.3-.8l-1.9-.6c.4-1.2,1.6-.3,2.1-1.1s-1.5-.2-1.7-1.1,1.2-.3,1.8-.7a2.4,2.4,0,0,0,.1-2.2l.5-1-1.7-1c.4-.7,1.7.4,2-.7Zm-61.3-1.6c-.8-1-1.4.2-2.2,0s-.3-.8-.5-1.4l-1.4,1.5,2.7,5.7c1.5,2.9,2.8,4.4,4.1,4.8-.3-1.3-1.8-1.9-2.3-3.5a10.9,10.9,0,0,1,2.8,2.2,19.3,19.3,0,0,0,3.5,3.5,22,22,0,0,0,2.6,1.5,3.8,3.8,0,0,0,3.4.8c1.7,1.6,3.8,1.9,6,2l2.3-.2c.6-.1,1,.1,1,1l-2.8.6c1.2.7,2.6,0,3.7,1.1-1.2.8-2.4.4-3.8.6l1.2,1,1.3-.3,2.8,2.1,2.2-2.4,2-2.4c.7-.9,1.4-1.7,2-2.6s1.6-1.5,1.5-3l-1.6,1.7a6.2,6.2,0,0,1-1.7,1.1,19,19,0,0,1-7.5.3l-2.6-.5a27.8,27.8,0,0,1-10.8-4.1,6.7,6.7,0,0,1-1.6-1.2c-1.9-2-4-3.9-5.3-6.3a15.9,15.9,0,0,0-1.5-2.1,5.3,5.3,0,0,1,.5-1.5ZM52,310.5c-3.9.3-7.3-.8-10.9-1.7,0,3.6,1,6.8,1.2,10.1,0,.5.4.9.6,1.4a33.9,33.9,0,0,0,8.9,1.1,7.2,7.2,0,0,0,1.9-.4c-.6-3.6-1.1-7-1.7-10.5Zm119,12.1,13.2-1.9c.3-2.4.5-4.7.8-7.1-6.4.7-12.7.9-18.8,2.3,0,1.1.7,1.6,1.2,2.3s1.7,2.1,2.6,3.2l1,1.2Zm-126.5,9c2.4,1.1,6.7,1.6,10.2,1.3.2-2.9-.7-5.8-.5-8.8a6,6,0,0,0-.5-1.6l-10.8-1.4a52.2,52.2,0,0,0,1.6,10.5Zm.1,1.4a12.6,12.6,0,0,0,.3,5.1c.3,1.7.7,3.4,1,5.2a45.1,45.1,0,0,0,8.8,2.1l.9-.3c.3-1.8-.7-9.4-1.2-11L44.6,333Zm128-178.8v.2h-2.9a4.4,4.4,0,0,0-.2,1c.7.7,1.8.3,2.4,1.3l-2.6-.2-.3,1,1.8.8v.2h-2.1c0,.6-.1,1-.1,1.4l1.6,1-1.8.2c0,.4-.1.7-.1,1l1.4.6a.4.4,0,0,1-.1.3h-3.4l-.3.8c.7,1,2.3-.2,2.9,1.2l-3,.2v.9c.9.5,2.1.2,2.7,1.5s-1.4-.7-2.1.2l2.5,2.9a3.3,3.3,0,0,0,2.6-.4,35.6,35.6,0,0,1,2.9-8.3,50.5,50.5,0,0,0,2-4.9,3.3,3.3,0,0,0,.2-1.7,17.2,17.2,0,0,0-2.7-5l-3.1-.2a3.8,3.8,0,0,0-.1,1c.6.4,1.4,0,1.8.9h-2.2c-.1.4-.1.6-.2,1l2.5,1Zm-3.8,32.3h-1l-2.1,1c-3,1.7-5.7,3.7-8.9,4.9l-.6.5,2.4,1,4.4-1.5.9.2,3.1-2.2a47.7,47.7,0,0,1,7.7-4.9,8.9,8.9,0,0,1,4.8-1,47,47,0,0,0-9.2,4.7,80,80,0,0,0-8.4,6.3l1.7.9,5.9-4.1c3.9-2.5,7.7-5.2,12.2-6.7.6-1.2.1-2.3-.3-3.6l-1.6.6c-.8-.7-1.6-.2-2.3.2a59.3,59.3,0,0,0-5.6,2.9c-2.3,1.4-4.5,2.9-6.7,4.4h-.5v-.2l4.2-3.4ZM60.9,425.1c3.6.4,7.1,1.2,10.6,1-.7-2.9-1.4-5.6-2.1-8.3l-5.5-1.1c-1.8-.3-3.4-1.2-5.4-1a71.9,71.9,0,0,0,2.4,9.4Zm-4-19.3c.2,1.6.3,3.1.5,4.5s.6,2.8.9,4.1c3.2,1.3,9.3,2.4,11,1.9l-2.1-8.8c-3.7.4-6.9-1.1-10.3-1.7Zm127.3-84.1a60.7,60.7,0,0,0-12.5,1.8c.4.6.6,1.2,1,1.7l3.3,4.2,1.3,1.7,1.5-.3c.1-.9.2-1.6.3-2.3h.3l.3,2.3,4.3-.9c0-2.8.1-5.5.2-8.2Zm-8-16.3-.3-.2c.4-1.9,1.2-3.7.4-5.7a30.8,30.8,0,0,0-6.6.9c.2,2.2-.4,4.4.3,6.7l4.6-.5,4.4-.5c1.5-.3,3,0,4.4-.7.1-2.3,0-4.5-.1-6.7a4.9,4.9,0,0,0-3,.5c.3,1.2.6,2.2.8,3.3a2.2,2.2,0,0,1-.8,2.4c-.2-.7-.3-1.2-.4-1.6l-2.4-.4-1.3,2.5Zm36.5-128.8c2.4-1.1,3.8-2.6,3.9-5.1a8.3,8.3,0,0,0-3.3-6.8,13.5,13.5,0,0,0-6.8-2.6l-.4.2c.8,1.6,1.5,3.1,2.3,4.6s1.6,3.2,2.3,4.8l2,4.9ZM114,150.2c-3-.6-6-1.1-8.7-3a14,14,0,0,1-1,1.6,3,3,0,0,0,1.3.6,4.7,4.7,0,0,1,2.4,1l1.3.8,7.2,2.7a7.3,7.3,0,0,0,3.9.2,1.6,1.6,0,0,0-1.3-1.4,3.1,3.1,0,0,1-2.1-1.1l2.1-.4c-.6-1.5-1.1-2.9-1.7-4.3l-3.3-1.5a29.6,29.6,0,0,0-3.1-1.5c-1-.4-1.8-1.4-3-1.4s-.1.2-.1.3l5,4c-2.2-.4-4-1.9-6.1-2.7l-.6,1.4a3.7,3.7,0,0,1,3.2,1.4,17.9,17.9,0,0,1,2.5,2.3c.5.5,1.4.6,2.1,1Zm45.3,112.1c-.7.4-.7,1-.7,1.7.1,2.4.1,4.8.2,7.2,0,.8.1,1.6.1,2.5a68.5,68.5,0,0,0,10.1-.6v-3.3l-2.3-1-1.1.3a4.9,4.9,0,0,0-.4,1.1c-.7-1.2.1-2.5-.6-3.7l-1.8.6-1.3-.3h-1.6c.9-.9,2.3-.6,2.6-1.9a10.7,10.7,0,0,1-.7-1.5l-2.5-1Zm-36.1-77.8c.1-.2.2-.3.2-.5l-1.2-.9-5.4-3.5c-3.4-2.3-6.8-4.5-10.1-6.9s-3.7-3-5.5-4.4l-1.2-1c-1.3,2.4-2.2,6.8-1.7,8.4,1.3,0,2.6.1,3.9,0,3.1-.2,6.1.7,9.1,1.4l.6.2,5.1,3.1,5.3,3.7c.3.2.7.2.9.4Zm19.7-26.1a55.1,55.1,0,0,0,5.9-7.5,10.7,10.7,0,0,0-3.7-3.3l-1.1,1.2c-.3.4-.2,1.2-1,1.2s0-2.5.7-3.8l-1.4-1.1a9.1,9.1,0,0,0-2.7,6.7v1.7c0,1.1-.1,2.3-.2,3.4a2.6,2.6,0,0,0,.3,1c1.2-1.5,2.4-2.6,2.3-4.5a1.2,1.2,0,0,1,1.9.4c-.3.5-.5,1-.8,1.6a3.4,3.4,0,0,0-.2,3ZM43,274.7c-.5-3.4-1.3-6.5-2-9.8l-2.7-.5-.8,1.1c-.6-1-1.2-1.6-2.4-1s.1,2,.2,3.1a17,17,0,0,0,.6,3.1c.3,1-.1,2.1.9,3a16.8,16.8,0,0,0,6.2,1Zm89.7-89c1.1.8,2.3,1.8,3.6,2.6l8,4.7c1.9,1.1,4,.8,6,.5,0-.1.1-.2.1-.3l-19-11.4c-.2.9-.3,1.6-.5,2.4l1.7-.4a13.4,13.4,0,0,0,.1,1.9Zm43.8,112.8a2.8,2.8,0,0,0,1.1-2.2c0-.8.1-1.7.1-2.5s-.1-1.8-.1-2.9l-6.8,1c0,1.1.1,2,.1,2.8a3.9,3.9,0,0,0-.9,4.8l6.5-1ZM112,109.6a14.7,14.7,0,0,0-5.1,4.8c.2.5,0,1.2.7,1.8s1.5-1.3,2.1-2l.6-2,1,.3,1.5-1.1,1.7-1.6c.5-.4,1-.6,1.5.1s-1,1.4-1.6,1.8a13.8,13.8,0,0,0-3,2.9c.1,1,.2,1.9.4,3a15.5,15.5,0,0,0,2.6-2.5,22.6,22.6,0,0,1,2.5-2.8c1.4-1.4,1.5-2,.8-3.8a52.3,52.3,0,0,0-5.6,0c-1.9.2-3.7-.5-5.7.1.1,1.3.3,2.5.4,4.1l1.5-1.3,1.8-1.8c.5-1,.7-1,1.9,0ZM212.1,391.8c-.2.3-.3.4-.3.5a33.9,33.9,0,0,0-1.1,7.1,20.9,20.9,0,0,1-.1,2.5c-.3,2.2-.9,4.4-1,6.6a87.7,87.7,0,0,1-1.2,10.3,33.1,33.1,0,0,0-.4,3.3l1,.2c1.2-2.7,4.1-22.5,4.4-29.1a5.7,5.7,0,0,1-1.3-1.4Zm-54,11.2c0,.1.1.3.1.4,7-.5,14-1.2,20.9-2.3.8-2.2.8-3.5.2-4.3-.2,1-.4,1.9-.7,2.9l-1.9-2.1-17.3,5-1.3.4ZM57.9,359.2c-2.9,2.4-7.5,7-7.9,8,3.1,1.3,6.3,1.2,9.8,1.4-.6-3.2-1.3-6.2-1.9-9.4ZM36.1,295.9c-.2-1.2-.3-2.2-.4-3.1s-.6-4.2-1-6.3c-.1-.6-.2-1.3-1-1.4s-.1-.1-.2-.2l.8-.7-1.8-10.4-2-.2c.3,2.6.4,5.1.9,7.4s.5,5,1.3,7.3.2,4.9,1.3,7.3l2.1.3ZM77.8,455.6l.4.5,9.7,4.1a11.7,11.7,0,0,0,3.2.9c2.4.2,4.8.1,7.2.2l.9-.2-.2-.2-16-5.6a7.8,7.8,0,0,0-2.2-.2,20.7,20.7,0,0,0-3,.5ZM184.1,289.1c-.2-2.8.6-5.4.3-8.3-1.8.8-3.8,0-5.5,1.2.1,2.6-.4,5.2-.2,8l5.4-.9Zm-2.8-101.9a2.6,2.6,0,0,0-2.3.2l-5.2,2.9-8,5.2a4.3,4.3,0,0,0-1,.9c1.7,1.2,2.3,1.1,3.9,0s3.1-2.1,4.7-3.1a15.4,15.4,0,0,1,1.9-.8l5.2-2.7c.2-.5.5-1.5.8-2.6Zm-1.6,85.3-.6,5.9c1.8.8,3.1,2.5,5.5,1.3,0-1.2.1-2.5.2-4.3a7.1,7.1,0,0,0,.2-3.7l-5.3.8Zm-1.6,24.7a5.1,5.1,0,0,0,5.2.1c.6-2.2.8-5.9.4-7.2a12.3,12.3,0,0,0-5.2,1c-.1,2-.2,4-.4,6.1ZM80,191.5a14.2,14.2,0,0,0,1.1,1.6,43.8,43.8,0,0,1,4.1,4.5c1.7,2.3,3.5,4.5,5.3,6.7l4,4.4,2.2-.3c-.4-1.2-5.1-6.5-7-8.1l-1,.4L89,199l-2.2-.9.3-1-5.8-5.5Zm100.5,64.8c.4,1.3,0,2.4,0,3.5v3.6a32.4,32.4,0,0,0,5.2-.7c.1-2.3.3-4.6.2-7l-5.4.6Zm-73-138.6c-.3,2.6-.3,2.6-1.1,2.8-.1-1.5-.3-3-.4-4.8l-5.2,4.8-.6.8c2.7,1.1,5.3.8,8,.4.2-1.5,1.7-1.9,2.4-3.1a5.2,5.2,0,0,0-.6-3.1c-1,.9-1.7,1.6-2.5,2.2ZM174,290.6v-8.2l-4.3.6a40.9,40.9,0,0,0,0,7l1.3,1,3-.4Zm1-111c.5.1.8.2,1,.1l5.5-2.4c.4-1.6-.2-3.1-.3-4.8l-4.8.2h-4.7l-.3,1.8h.9l3.7.2a8.7,8.7,0,0,0,4.2-.5h.8a1.4,1.4,0,0,1-.7,1.4l-1.5.8a14.3,14.3,0,0,0-3.8,3.1ZM169.9,282a8.5,8.5,0,0,0,4.3-.6,17.7,17.7,0,0,0,.2-3.3c0-1.1.5-2.3-.1-3.6l-4.5,2.3c.1,1.7.1,3.4.1,5.2Zm1.4-83.1,4.1-2.5,3.9-2.7c0-.7.6-1.3.2-2-3,.4-10,4.6-10.9,6.4l2.7.8Zm.3,65.9,3.7-.6a25.3,25.3,0,0,0,.2-5.5c-1.8.3-3.6-.2-5.3.9v3.2l1.4,2ZM85.9,439l-1.2-.3-9.8-2.2-6.6-1.4a2,2,0,0,0-1.5.1,10.7,10.7,0,0,0,6.4,3,59.8,59.8,0,0,0,12.7.8Zm91.8-149.1c.1-1.4.2-2.7.2-4a29.4,29.4,0,0,0,0-4.2l-2.9.5a24,24,0,0,0-.2,8c1.2.3,1.4.2,2.9-.3Zm-2.2-15.7c-.2,2.5-.7,4.8-.4,7.1a5.6,5.6,0,0,0,2.9-.4c.3-1.6.3-1.6-.5-2.8s-.6-.9-.2-1.5l1.1.4c.1-1.5.6-2.9.2-4.4a5.5,5.5,0,0,0-3.1,1.6Zm-1-8.2.2.4a4.1,4.1,0,0,1-1.7,1.5c-1.2.8-2.2,1.7-2.3,3.2l-1.1-.2.3,2,4.9-2.6v-5.2a12.7,12.7,0,0,0-4.8.8v2a38.1,38.1,0,0,0,4.5-1.9ZM130.8,104.7a9.1,9.1,0,0,1-.7,1.4h3.6c1.2-1.6,3.1-2.5,3.8-4.4s-.7-1.8-1.1-2.9l-1.7.2,1.5,3.6c-1.5-.4-1.3-2.3-2.8-2.4l-.4.5c-.4,1.6,1.1,2.4.8,3.8-.7-.7-1-1.6-1.9-2.1-1.2,1.2.2,2.3,0,3.7a11,11,0,0,0-1.1-1.4Zm91.7,152.9c-.7,2.1-1.3,5.9-1,7l2.2-.6.9-2.8,1.4-.4c.2-1.3.4-2.6.6-4.2l-1.7.4c-.8,1-.2,2.3-1.2,3.4v-3.1l-1.2.3ZM163.2,408.4a.4.4,0,0,0,.1.3l13.8-1.8,1.5-.4a2.7,2.7,0,0,0,.2-2.6l-15.6,4.5ZM150.9,141.6c.3,1.4,1.4,1.8,2.3,2.5l-.4.6c-1,.3-2.2-.3-2.9,1.1l2.2,1.9c1.7-1.2,2.4-2.1,2.6-3.3a3.5,3.5,0,0,0,2.5-2.2,13.3,13.3,0,0,0-6.3-.6ZM179.3,332c-.4,2.4,1,3.8,2.4,5.3l1.6-.3c.1-1.1.1-2.1.2-3.1s.2-1.9.3-3.1c-1.7.4-3.3,0-4.5,1.2Zm10.5-70.1c0-2.2,1-4.4-.6-6.6l-2.2.3c-.1,2.3-.3,4.6-.4,6.8a5.3,5.3,0,0,0,3.2-.5ZM158.7,143.7c3.1,1.5,6.4,1.9,9.5,2.7l1.1-.5,1.4.6c.4-1-.2-1.5-.6-2.3l-6.5-.4-1.1-.2-2.9-.9-.9,1Zm28.9,144.9c.2-2.6.3-5.2.4-7.6-1.2-.7-1.2-.7-2.5-.1-.2,2.3-.3,4.6-.4,6.9a3,3,0,0,0,.4,1.1l2.1-.3ZM93.8,197.9c.7,0,.9.5,1.3.8s.3.6.6.7,1.9,1.6,2.7,2.4l5.9,6c.4.4.9,1.1,1.7.8a1.7,1.7,0,0,0-.6-1.8,13.7,13.7,0,0,1-2.5-2.3c-1-1-2.1-1.8-3.2-2.8l-4.9-4.4-.7-.4L92.7,198c.8.7,1.2,1.7,2.3,2.1s-1.3-1.2-1.2-2.2ZM112.4,20.4c-.5-1.4-.6-2.9-1.5-4.3l-2.7.6c-.1,1.8-1.9,2-2.7,3.5s-.5,1.1.3,1.6,0-1.7.7-2.4l1.3-.8,1.1.2c1.4-1,1.4-1,2.3-.3l-1.8,1.9A3.6,3.6,0,0,0,110,23a12,12,0,0,0,2.4-2.6Zm63.7,243.7,3.3-.6a30.5,30.5,0,0,0,.2-5.2l-3.4.4a32.7,32.7,0,0,0-.1,5.4Zm-38.8-9.8h6.2c.9-.1,1.9.4,2.9-.2-1.4-2.6-6.7-2.7-9.2-1a5.7,5.7,0,0,0,.1,1.2ZM110.2,57c-1.6.2-1.5,2.3-3,2.4l-2.4,3.1c.1.7.1,1.3.2,2.2,2.7-1.3,3.7-3.8,5.8-5.3l-.6-2.4Zm-9.9-24.7c1.8-1.6,3.4-3.4,5.2-5a3.9,3.9,0,0,0-.7-2.6l-.4.2c-1.3,1.2-2.7,2.5-3.9,3.8a2.5,2.5,0,0,0-.2,3.6Zm1.9,10.1c2.5-2.1,4.4-4.6,6.6-6.9-.1-.6.1-1.2-.6-1.8-2.1,2-4.1,4-6.1,6.1s-.7,1.6.1,2.6ZM222.9,271.7c-.2-2.4.9-4.4.5-6.7l-2.5.6a17.2,17.2,0,0,0-.4,6.6l2.4-.5Zm-105-98-.2.3,4,3c.8,1.3,2.4,1.9,3.7,3.2l1.1-1.7c-.3-.3-.4-.6-.7-.8s-2.7-2.7-4.8-2.9l-1.5-.5a5.9,5.9,0,0,0-1.6-.6ZM37.3,263.6a31.7,31.7,0,0,0-.4-4.7c-.2-1.3.1-2.9-1.1-4.1a12.5,12.5,0,0,0-.9,8.3,11.1,11.1,0,0,0,2.4.5Zm147.9,57.8a45.2,45.2,0,0,0-.2,8.2c.8.3,1.3-.2,2-.6-.3-2.6.5-5.1,0-7.9l-1.8.3ZM107.8,30.6l-1.2.9-3.1,2.8a20.8,20.8,0,0,0-2.1,2.1c-.7.8-.6,1.4.2,2.3l.4-.2,5.8-5.7c.6-.6.5-1.3,0-2.2Zm-78.5,233c.4,3,.6,6,1.3,9l.8.2h.8a63.6,63.6,0,0,0-1.4-8.9c-.4-.4-.8-.9-1.5-.3Zm155.6,26.2c.1,2.6-.6,5-.3,7.6l1.8-.4c.7-2.8,1-6.4.7-7.5a13,13,0,0,1-2.2.3ZM111.8,69.3c-1.8,1.8-3.7,3-4.8,5s0,1.5.7,2.5c1.6-1.7,3.1-3.5,4.6-5.2-.1-.7-.3-1.4-.5-2.3Zm27.7,58c-1.4,2-3.3,3.2-4.4,5.2l1.7,2a37.9,37.9,0,0,0,3.9-5.3,12.8,12.8,0,0,1-1.2-1.9ZM252.1,231.6c1.3-.5,1.1-1.3.9-2-.7-2.6-1.3-5.2-2.1-7.7s-.9-2.5-1.4-3.7a4.2,4.2,0,0,0-.1,3.1c.4,1.3.9,2.6,1.3,3.9s.7,2.6,1,3.9a11.8,11.8,0,0,0,.4,2.5ZM107,39.2a30.9,30.9,0,0,0-4.7,4.9c.1.8.2,1.5.4,2.5,1.8-2,3.7-3.3,5-5.2a18.7,18.7,0,0,1-.7-2.2Zm-2.8-18.4c-1.7,2.2-4,3.4-5.2,5.8,0,.6-.2,1.3.5,1.9,2-1.6,3.3-3.7,5.2-5.4-.1-.7-.3-1.4-.5-2.3ZM119.7,173c0-.1.1-.2.1-.3l-1.6-1.6a5.1,5.1,0,0,0-2.3-1.5,25.8,25.8,0,0,1-3.7-1.9l-2.5-1.6a1,1,0,0,0,.3.8l3.3,3.3a10.9,10.9,0,0,0,1.7,1.3c.3.2.8.5,1.1.4a2.6,2.6,0,0,1,2.1.7l1.5.4Zm59.6,91.4-3.4.5a13.4,13.4,0,0,0-.1,4.9l3.2-1.7a21.3,21.3,0,0,0,.3-3.7ZM189.9,288c.2-2.8.4-5.4.7-8.2l-1.8.2c-.5,3.2-.6,7.8-.1,8.2l1.2-.2ZM106.3,17.4v-.3a6.2,6.2,0,0,0-2.3.7,7.7,7.7,0,0,0-2.3,2.1L98.5,23c.1.5.2,1,.4,1.7,2.5-2.6,5-4.9,7.4-7.3ZM45.5,274.6l-1-3.7c-.4-1.6-.6-3.2-1-4.7s-.3-1-1.5-.9a52.6,52.6,0,0,0,1.9,9.6,3.8,3.8,0,0,1,1.6-.3Zm96.8-104.5-.4-.2c-3.5,2.7-6.7,5.8-10,8.8l.9.7c3-2.8,5.9-5.6,9.2-8.4.1,0,.2-.4.3-.9ZM106,68.3a31.7,31.7,0,0,0,5-4.6c.6-.6.4-1.4-.2-2.3l-4.4,3.9a9.7,9.7,0,0,0-1,1.5,5.8,5.8,0,0,0,.6,1.5Zm75.6,110.5c-4.3.7-7.4,3.5-10.9,5.4-.3.1-.4.4-.6.7l.2.3,5.5-2.8,5.7-2.5a3.4,3.4,0,0,0,.1-1.1Zm7.1,100.1h2.1c.1-2.6.2-5.1.2-7.8l-1.5.2c-.3,2.6-.5,5-.8,7.7ZM113.6,81.6l-.8.3-4.2,4.6a18,18,0,0,0,.5,1.9,27.7,27.7,0,0,0,4.8-4.9c-.1-.6-.2-1.1-.3-1.9Zm72.2,231.9c.2,2.4-1,4.5-.3,7l1.7-.5c.1-1.2.1-2.3.2-3.4s.2-2.1.4-3.4l-2,.3ZM96.5,203.3l-1.2,1.4a9.2,9.2,0,0,0,2.6,3.7,17.9,17.9,0,0,0,3.3.1L99,205.8l-2.5-2.5Zm87.8,95v7.1h1.4c.2-2.4.6-4.6.6-7.1ZM100.7,35.4c2.1-1.3,3.5-3.1,5.1-4.7a1.6,1.6,0,0,0,0-2.1l-.9.5-4,4.4c-.6.5-.5,1.1-.2,1.9Zm87.6,254.1c-.3,2.5-1.1,4.9-.7,7.5l1.6-.4.6-7a1.7,1.7,0,0,0-.2-.5l-1.3.4Zm-3.6,41.2c-.1,2.1-.6,4.1-.2,6.2l1.6-.2a22.5,22.5,0,0,0,.5-6.4l-1.9.4ZM180,267.6a32.5,32.5,0,0,0,5.6-2.9c-.1-.4-.1-.7-.2-1.1l-2.5.3-2.7.5c-.1,1-.1,1.9-.2,3.2ZM90.4,199.7a42.9,42.9,0,0,0,4.5,4.9c1.1-1.4,1.1-1.5.2-2.6H93.9a13.4,13.4,0,0,1,.6-1.2c-1-.7-1.4-2-2.8-2.4l-1.3,1.2ZM113.3,78.2a1.6,1.6,0,0,0-1.9.9,4.1,4.1,0,0,1-1.6,1.6,2.9,2.9,0,0,0-1.1,3.5l4.7-4.6a5.3,5.3,0,0,1-.1-1.4Zm-1.7-10.8c-.1-.6-.2-1.1-.3-2-1.8,1.8-3.7,3-5.1,4.8.2.6.3,1.2.5,2,1.8-1.6,3.3-3.2,4.9-4.8Zm28.3,38.4c.7-2.6.7-4.8,0-6.1a5.5,5.5,0,0,1-1.6,3.2,10.1,10.1,0,0,0-1.3,1.6c-.3.4-.8.7-.7,1.3ZM187.4,298c-.1,2.5-.8,4.7-.6,7.1l1.4-.3a41.9,41.9,0,0,0,.9-7l-1.7.2Zm-84-248.1,5.1-4.9-.6-1.6-4.4,4c-.7.5-.9,1.4-.1,2.5Zm12.3,46c-2.2.7-3.6,2.5-5.2,4,.1.6-.1,1.2.4,1.9a20.6,20.6,0,0,0,4.8-4.5,1.1,1.1,0,0,0,0-1.4Zm70.1,178.9a5.9,5.9,0,0,1,1.1.9l.5,1c.1.3,0,.8.7,1-.1-2.1.8-4.1.3-6.3l-2.2.2c-.1,1.2-.3,2.2-.4,3.2ZM114.5,89.1c-1.7,1.6-3.6,2.7-5,4.1.1.8.1,1.4.2,2.4a43.1,43.1,0,0,0,5.3-5.1l-.5-1.4Zm54.7,173.3v-3.2l-2.9-.2a8,8,0,0,0-.5,3.4ZM104,56.5h.5L109,52a1.5,1.5,0,0,0,.1-2.1c-1.7,1.8-3.8,3-5.2,5.2,0,.4.1.9.1,1.4Zm82.6,249.6c-.2,2.2-.4,4.3-.5,6.3,1.4.1,1.7-.1,1.8-1.2l.3-3.9c0-.4-.1-.8-.1-1.3Zm-77-252.6-4.4,4a7.1,7.1,0,0,0-1,1.4,10.4,10.4,0,0,1,.4,1.3,45.2,45.2,0,0,0,5.4-5.3c-.1-.4-.2-.8-.4-1.4Zm.4,44.8.4.2,4.9-4.7c0-.7.1-1.3.1-2.2L114,93.1a5.2,5.2,0,0,1-1.7,1.6c-1.1.5-1.5,1.4-2.1,2.2a5.9,5.9,0,0,0-.2,1.4Zm76,154.2c-2-.3-3.4.8-4.9,1.6s-.4.8-.2,1.3a16.4,16.4,0,0,0,5-.8,14.8,14.8,0,0,0,.1-2.1ZM108.2,80.6c1.6-1.3,3-3,4.6-4.4-.1-.7-.2-1.2-.3-1.8h-.4c-1.3,1.5-2.7,3-4,4.6s-.5.9.1,1.5Zm.6-32.3c-.3-.4.2-1-.6-1.3l-4.9,4.7c0,.3.1.8.2,1.6a31.6,31.6,0,0,0,5.3-5Zm7.3,50.9-.8.3a15.4,15.4,0,0,1-3.4,2.8c-.9.5-1,1.3-.4,2.5a28,28,0,0,0,4.5-3.9,1.5,1.5,0,0,0,.1-1.7ZM89.2,195.9a5.9,5.9,0,0,0-5.7-3.6l4.5,4.5,1.2-.9ZM29.5,257.1l-1.5-.7c.2,2,.4,3.8.7,5.7l1.9.5a31.5,31.5,0,0,0-1.1-5.5Zm183.7,58.7c-.3,2.4-.7,4.7-1,7.1l1.4-.2c.3-2.5.6-4.8.9-7.4l-1.3.5ZM104.6,208.7l-3.7-3.3c-1.2-1-2-2.4-3.3-3.1s-.2.8,0,1.1l4.8,5.3Zm5.6-88a1.3,1.3,0,0,0,1.7-.5l3.5-3.7,2.6-2.7c.3-.3.6-.6,0-1.1-3,2.3-5,5.5-7.8,8Zm20.5,132.4c-1.7.7-3.2-.5-4.8.2l.3,2,4.5-.4v-1.8Zm75.7,129.2a8.8,8.8,0,0,0-2.3-4c-.3,1.6-1,3-.5,4.6.9-.2,2,.2,2.8-.6ZM142.8,132.6a21.6,21.6,0,0,0-3.6,3.8l1.1,1.2a12.3,12.3,0,0,0,3.3-3.9c-.1-.4-.4-.6-.8-1.1Zm35.6,62.8c-2.2,1-3.7,2.5-5.5,3.8.7.2,1.4.5,1.9.3s3.3-1.7,3.6-4.1ZM114.3,32.1c-2.7,1.6-3.3,2.5-2.2,4.4l2.6-2.2a10.9,10.9,0,0,1-.4-2.2ZM114,85.6c-1.7,1.5-3.1,2.9-4.5,4.4a1,1,0,0,0-.2.7,3.1,3.1,0,0,0,.4.9l4.7-4.9-.4-1.1Zm58.2,85.6c3.1.3,6,1.4,8.9-.3l-.4-.9-3.5,1.1-.9-.6c-1.2.2-2.5,1.4-3.5-.4a10.9,10.9,0,0,0-.6,1.1Zm-33.9-35.4a30,30,0,0,0,3.8-4.3l-.9-1.1c-1.2,1.7-2.8,3-3.9,4.8l1,.6Zm-25.4-29.3h2l2-2.4c0-.7.1-1.3-.8-1.6-.7,1.5-2.9,1.9-3.2,4.1ZM214.1,309.1c-.2,1.8-.4,3.5-.5,5.2,1.2-.1,1.2-.1,1.4-1s.5-2.8.7-4.1l-.2-.3-1.4.2ZM118.6,115.2c-1.5,1.3-3.2,2.3-4.2,4.1a5.6,5.6,0,0,0,4.8-2.9,2.7,2.7,0,0,1-.6-1.2Zm-5.9-74.3,2.9-2.3-.6-2.1c-1.1.2-1.4,1.1-2.1,1.7s-.8,1.6-.2,2.7Zm5.8,124.5c1.5,1.1,3.3,1.2,5,1.4l-4.6-3.7c-.1.8-.3,1.5-.4,2.3ZM148.4,195a7.6,7.6,0,0,1,1.8.9c1.5,1,2.7.4,4.2-.4l-2-1.3-4,.8Zm29.5-18.7-5-.2-1.1.2a1,1,0,0,0-.7,1.5l6.1-.9.7-.6Zm8.2,161.4-2,.3c.1,1.7-.3,3.3,1.3,4.8.3-1.8.5-3.3.7-5.1ZM117.3,67.9c-.1,1.2-.4,2.3.1,3.2l1.4-1.8.5.4c-.1-.9-.2-1.8-.3-3l-1.7,1.2Zm62.3,95.7a6,6,0,0,0-1.4.7c-1.4,1.5-3.3,2.5-4.6,4.6a15,15,0,0,0,5.7-4c.1-.3.1-.7.3-1.3ZM136,252.7l-4.4.8a6.5,6.5,0,0,1,.2,1.1c2.8.1,3.1.1,4.3-.4a9.2,9.2,0,0,0-.1-1.5Zm40.4,168.4c.9-.6.9-.6,1.4-5.6a2.5,2.5,0,0,0-.1-.8l-1,.4c.3,2-.7,3.9-.3,6Zm-61-366.6,1.9-1.8a4.5,4.5,0,0,0-.1-1.2,5,5,0,0,1-.2-1.2c-2.3,1.4-2.5,1.8-1.6,4.2Zm.6-11.1-2.7,2c.1.6.3,1.1.4,1.6,2.5-.8,3.2-1.9,2.3-3.6ZM186.3,269c0,.5.1,1.1.1,1.7l2.4-.5.3-2.5a4.6,4.6,0,0,0-2.8,1.3ZM110.9,29.7l2.6-2c-.1-.6-.2-1.2-.3-2L110.6,28c.1.5.1.8.2,1.1s0,.2.1.6Zm64.5,148.4a8.1,8.1,0,0,0-4.6.7,4.9,4.9,0,0,0,.1,1.2c1.8-.1,3.4-.4,4.5-1.9ZM151.6,377.7l1.3.3c.9.2,1.7.3,2.2,1.2s1.1.6,2,.5a3.8,3.8,0,0,0-1.5-2.2c-1.3.4-2.7-.5-4,.2ZM117.8,57.2a4,4,0,0,0-.6-2.5l-1.8,1.6c.2.8.3,1.5.5,2.5l1.9-1.6ZM102,17.6c-1,0-1.6,0-2,.6a1.5,1.5,0,0,1-.6.5,4.7,4.7,0,0,0-2.1,1.6c-.1.1,0,.2-.1.4l1,.6c1.2-1.3,2.4-2.4,3.8-3.7Zm-8.7,2.3c.1.6.3,1.1.4,1.7a9.6,9.6,0,0,0,3.8-3.4l-4.2,1.7Zm22.4,20.6a4,4,0,0,0-2.8,2.1c.1.4.2.8.4,1.4a7.7,7.7,0,0,0,2.7-2.3c-.1-.5-.2-.8-.3-1.2Zm65.1,340.9c.4-.3.6-.4.6-.6.2-1.9.4-3.8.5-5.8,0-.2-.2-.3-.5-.6a20.6,20.6,0,0,0-.6,7ZM110.4,26.3l2.4-2a2.2,2.2,0,0,0-.5-1.7l-2.4,2,.5,1.7Zm11.8,66.8c-1.2.6-.8,1.5-.7,2.4s.4,1.7.7,2.6l.9-.3c-.4-1.6-.3-3.2-.9-4.7Zm-8.5-64.2c-.9.7-1.6,1.1-2.1,1.6a1.8,1.8,0,0,0-.5,1.2,1.8,1.8,0,0,0,.4.9l2.4-1.9a6.5,6.5,0,0,0-.2-1.8Zm25,134.8,3.2-3.7a.8.8,0,0,0-.1-1.2l-2.1,3-1-.3a10.9,10.9,0,0,0-.5,1.7l.5.5Zm-23.8-116c0,.7-1.5,1.4-.2,2.5l2.2-1.9a8.3,8.3,0,0,0-.4-1.5l-1.6.9Zm64.9,340.4c1.2-.4.9-1.3,1-1.9l.3-2c.1-.7.5-1.3-.1-2.1s-.6.6-.6.8-.4,3.3-.6,5.2ZM150,142.6c-1-.1-2-1-3,.2l1,1.2,2.4-.3a4.9,4.9,0,0,1-.4-1.1Zm29.7,251.7a11.7,11.7,0,0,0,.6-5.4c-.2.1-.5.1-.5.2s-.3,3-.4,4.5a1.5,1.5,0,0,0,.3.7ZM130.4,189.6l5.8,2.3a15.1,15.1,0,0,0-2.6-1.8,7.4,7.4,0,0,0-2.8-1.4,1.4,1.4,0,0,1-.4.9ZM60.2,372.5c-.4-.8-.7-1.5-1.2-2.4a4.3,4.3,0,0,0-.3,1,4.1,4.1,0,0,0-.2.9l-1.3-1.2a1.4,1.4,0,0,0,.6,1.8,2,2,0,0,0,2.4-.1ZM170.3,202.4a1.5,1.5,0,0,0-2-.4c-.6.4-1.5.5-1.5,1.5,1.6.7,2.6,0,3.5-1.1ZM118.6,63.3l-2,1.3c.1.7.1,1.3.2,2.2,1.2-1,2.2-1.8,1.8-3.5ZM135,179.4l.2.2c2.4-1.4,4.9-3.8,5.4-5.3-2.1,1.8-3.9,3.5-5.6,5.1Zm12.4-61.6c-.4.2-.8.3-.8.5-.3,1.9-2,3.5-1.3,6,.8-2.2,1.4-4.2,2.1-6.5ZM118.1,59.1l-1.9,1.8c.1.6.2,1.1.3,1.8l1.9-1.9c-.1-.5-.2-.9-.3-1.7Zm73,207.7c-.9,0-1.1.3-1.2.9s-.1,1.5-.1,2.4l1.3-.3v-3Zm-9.5,107c.9-1,.6-2.1.8-3s.3-1.9-.2-2.8c-.3,1.9-.9,3.6-.6,5.8ZM143.8,122.2c1-1.6,1.6-4,1.2-4.9a7.2,7.2,0,0,0-1.2,4.9Zm-5.5,46.2.3.3,2.2-1.9c.7-.6,1.6-1.1,1.3-2.3-1.3,1.4-2.8,2.4-3.8,3.9ZM119.5,71.6l-1.9,2.1.5,1.4,1.6-1.2c-.1-.7-.1-1.3-.2-2.3Zm58.9,89.3a3.8,3.8,0,0,0-1.1-2.6c-.1,1.2-1,1.9-.7,3.1l1.8-.5Zm-35.7,5.5-2.4,2,.2.2,1.1-.6a1.8,1.8,0,0,1-.4,1c-.1.1,0,.3-.1.5l1.5-.2a27.1,27.1,0,0,0,.1-2.9Zm41.2,185.3h.5c.2-1.5.3-2.9.4-4.4s-.2-.3-.5-.8a24.1,24.1,0,0,0-.4,5.2Zm-.5-226.9-1.8.6c1.7.4,2.9,1.5,4.6,1.3l-2.8-1.9Zm-59.1-21.4c-.6.2-.9.5-.8,1.1a8.2,8.2,0,0,0,.6,1.9l.9-.4a2.9,2.9,0,0,0-.7-2.6Zm-17,.5h-.4l-1.2,2.7h2c-.2-.9-.3-1.8-.4-2.6Zm-4.5-25.3c-.2.1-.5.2-.5.3a7.2,7.2,0,0,0,.6,3.4c.8-1.3.2-2.4-.1-3.7Zm76.9,178.2c-1.6-.5-2.4-.3-2.9.9H179c.5,0,.9-.3.7-1Zm4.5,96.4h-.3a19.8,19.8,0,0,0-.5,6.5c.2-2.1.5-4.3.8-6.5ZM120.7,81.9c-.2-.9-.3-1.6-.5-2.5l-1.4,1.2.6,1.5,1.3-.2Zm61,189.1c0,.1.1.2.1.3l3.3-.6c.1-.5.1-.8.2-1.5a30.1,30.1,0,0,1-3.6,1.8Zm7.2-16.7c-.4-.9-.7-1.6-1.5-1.9a2.4,2.4,0,0,0,0,2.3l1.5-.4ZM89.7,198.9c.7-.3,1.3-.5,1.5-1.3l-.9-.8-1.5.9.9,1.2Zm89.4-36.5c-.4-.6-.8-.5-1.3-.1l-2,2.1-.6.8h.1l3.8-2.9Zm-73.8-83c.8-.8.7-1.6-.1-2.9-.8.7-.8,1.1.1,2.9Zm-4.5-33.7c-1.2,1.1-1.2,1.5-.3,2.8,1.2-.8.4-1.8.3-2.8Zm41.8,74.2a9.3,9.3,0,0,0,1.3-3.3c0-.2-.2-.3-.4-.7-.4,1.4-1.1,2.4-.9,4ZM119.9,85.6l1.4-.3c-.2-.7-.3-1.3-.5-2l-1.1.4c.1.6.1,1.1.2,1.9ZM170.8,149c1,.4,1.7.8,2.7.3l-1.3-1.7-1.4,1.4Zm2.9,194.3a2.1,2.1,0,0,0,.4,1.9c.9-.4,1.3-1.1.9-1.6l-.7-.2ZM102.9,67.2c.9-.8,1-1.2.4-2.7-.9.3-.9.3-.4,2.7ZM136,120.6a5.9,5.9,0,0,0,.9,3.1c.7-.8.5-1.5-.9-3.1ZM104.3,71.7c-.2.5-.5.7-.4.9s-.4,1.5.4,2,.9-1.2,0-2.9Zm46,77.6.3-.2a6,6,0,0,0-3.1-2.5l2.8,2.7Zm26.6,18.8c.1.1.1.2.2.4l3-2-.3-.7-2.9,2.3ZM96.2,34.8c-1.3,1-1.3,1.4-.2,2.3a2.4,2.4,0,0,0,.2-2.3ZM123.5,100l-1.2.9.2.3c.2.4.5.8.7,1.3.9-1.1.9-1.1.3-2.5Zm62.3,177.1c-.1.8-.1,1.5-.2,2.4h1.2a3.4,3.4,0,0,0-1-2.3Zm-3.6,89.4h.5c.1-1.5.2-3,.2-4.5h-.3c-.1,1.5-.2,3-.4,4.5ZM104.1,204.8l2.4,1.9c.1.1.5-.1,1-.2l-3-1.8ZM100.4,42c-1.2.8-.7,1.6-.6,2.6,1.1-.7.7-1.6.6-2.6Zm18,58.6c-1,1.2-1,1.4-.2,2.1.9-.9.9-.9.2-2.1Zm.4-22.3c1.4-.9,1.4-.9,1-2-1.2.7-1.3.7-1,2Zm-8.7,79.2a7.3,7.3,0,0,0,.5-3.7,4.6,4.6,0,0,0-.5,3.7Zm9.2-53.5c-.8-.1-.9.3-.9.8a1.3,1.3,0,0,0,1.1,1.5c-.1-.8-.1-1.6-.2-2.3Zm9.8,83.6-1,.8v.3l1.3.6c.6-1,.6-1-.3-1.7Zm-8.4-72.8c1.1-1.1,1.1-1.1.5-2.1-1,.7-1,.7-.5,2.1Zm57.8,184.3-.4.2c-.1.4-.1.7-.2,1.3h1.8a10.1,10.1,0,0,0-1.2-1.4ZM95.4,30.9c-.9.9-.9,1.1-.1,2.1.7-.6.3-1.3.1-2.1Zm26.2,57.5-.3-1.6c-.9.7-.9.7-.9,1.6Zm-19-27.8c-.8.6-.6,1.3-.4,2.1,1-.7,1-.7.4-2.1ZM99.4,41.1c.6-.6.4-1.3.2-2s-.9.7-.2,2ZM122,91.3a10.5,10.5,0,0,1-.4-1.7c-.8.5-1.1,1-.6,1.8Zm44.3,68.8h1.2c0-.5-.1-1-.1-1.4s-1,.2-1.1,1.5ZM100.8,52c1-1,1-1,.5-1.9-.9.6-.9.6-.5,1.9Zm21.1,104.7c-.4-1.1-.4-1.1-1.7-.8.6.8.6.8,1.7.8ZM103.8,89.6a1.6,1.6,0,0,0,.1-2.3c-1,.8,0,1.6-.1,2.3Zm.4,1a3,3,0,0,0,.6,2.5c.3-1.2.3-1.2-.6-2.5Zm17.9,95.2c-.8-1.2-.9-1.2-2.2-1.3.6.7,1.1,1.4,2.2,1.3ZM106.5,23.2a3.3,3.3,0,0,0,.3,2.6,2,2,0,0,0-.3-2.6ZM116.7,96c1.2-.7,1.2-.7.5-1.8s-.8,1-.5,1.8Zm-.3-8.9a1.9,1.9,0,0,0-.5,2.4c1.1-.7.6-1.5.5-2.4Zm-9.3,1.3a1.4,1.4,0,0,0-.2,2c.8-.6.5-1.2.2-2Zm-6.2-19.1a1.8,1.8,0,0,0-.2-2.2c-.7.9-.1,1.5.2,2.2Zm8.9,90.6c.1-.5.1-.9.2-1.2l-1.6-.5-.2.3,1.6,1.4Zm-8-106.1c-1,.7-1,.7-.5,1.8s.9-1,.5-1.8Zm19.3,62.5a2.7,2.7,0,0,0,2-1.3c-1.2-.2-1.6.6-2,1.3Zm44.8,147.6a2.8,2.8,0,0,0,2.8,0c-1.1-.4-1.8-.6-2.8,0Zm.1-101.5,1.2-.3c.1-.9-.3-1.1-1.1-1a4.9,4.9,0,0,0-.1,1.3ZM103.4,84c-.4,1.4-.4,1.4.4,1.9a1.7,1.7,0,0,0-.4-1.9Zm66.1,66.1c-.8,0-1.2.4-1.1,1.1s1.1.2,1.1-1.1ZM109.4,43.7h.3c.2-1.4.2-1.4-.7-2.1.2.9.3,1.5.4,2.2Zm5.9,38.6c0-.6.5-1.3-.3-2-.5.8-.5,1.5.3,2ZM96.9,43.6c.6-1.3.6-1.5-.3-2l.3,2Zm7,25c-.8.6-.6,1.2-.2,1.9s.8-1.1.2-1.9Zm64.8,85.8c-.7-.1-1.3-.2-1.3.5s.5.6,1,.6a8.1,8.1,0,0,0,.3-1.1ZM107.3,29.1c.7-.9.7-.9,0-1.6s-.5.7,0,1.6Zm1.8,10.8a2,2,0,0,0-.4-2.4,2.3,2.3,0,0,0,.4,2.4ZM102,75.1a1.5,1.5,0,0,0,.2,2,1.8,1.8,0,0,0-.2-2Zm65.8,78.1H169a4.1,4.1,0,0,0-.1-1.1c-.7.2-.7.2-1.1,1ZM106.6,84.7c-.8.8-.8.8-.1,1.8a1.9,1.9,0,0,0,.1-1.8Zm-4.8-25.6a1.1,1.1,0,0,0,.5-1.7c-.7.6-.7.6-.5,1.7Zm42.4,84.5c.6.8.9,1.4,1.9,1.1s-.8-1.1-1.9-1.1ZM96.3,40.3c.9-.8.4-1.3.2-1.9s-.3,1.2-.2,1.9Zm82.8,240.5,1.4-.4v-.3l-1.3-.5a5.3,5.3,0,0,1-.1,1.2ZM98.5,34.1A2.5,2.5,0,0,0,98,32c-.1.8-.3,1.5.5,2.1Zm68.7,223.5v.4c.6,0,1.3.5,2.1-.4ZM118,97.4c-1,.4-1,1-.6,1.7s.8-.8.6-1.7ZM223.9,254.9c-.5.4-1,.7-.9,1.5l.8-.2a5.3,5.3,0,0,1,.1-1.3ZM99,36.3c-.8.4-.8.4-.2,1.3s.5-.8.2-1.3Zm79.6,133.3.2.3c.5-.4,1.4-.3,1.9-1.3l-2.1,1ZM97.2,30.3h.4c-.1-.5-.1-1-.2-1.5h-.3a7.6,7.6,0,0,1,.1,1.5Zm90.7,233.4a.6.6,0,0,0-.1-.4c-.5,0-1-.1-1.4.9l1.5-.5ZM109.6,47c.9-.6.9-.6.6-1.3h-.3a8.6,8.6,0,0,0-.3,1.3Zm57.2,219.5c-.9-.2-.9-.2-1.2.6a3.4,3.4,0,0,1,1.2-.6Zm1.3-109.1c-.4-.8-.4-.9-.9-.8s-.2.2-.3.6l1.2.2ZM98.3,54.6a.9.9,0,0,0,.5-1.2c0-.1-.2-.1-.5-.2v1.4Zm8.1,47.6q.8-.6,0-1.2t0,1.2ZM98.2,49.3h-.4a1.6,1.6,0,0,0,.5,1.7c0-.7-.1-1.2-.1-1.7Zm7.4,33.6c.9-.5.8-.9.3-1.4s-.3.3-.3.4v1ZM97.4,45.4c-.4.6-.1,1.1.2,1.7a1.5,1.5,0,0,0-.2-1.7Zm77,212V257h-1.2v.3ZM116.9,91.1c-.7.3-.7.7-.5,1.2s.9-.4.5-1.2ZM99,57c-.4.5-.3.8.1,1.2s.3-.9-.1-1.2Zm15.4,21.5c.5-.8.5-.8-.1-1.6s.1,1,.1,1.6Zm-4,48.7h.3v-1.1h-.3v1.1Zm28.9,32.7c.5-.3.8-.7.2-1.3s-.1.9-.2,1.3ZM115.5,85.6a1.1,1.1,0,0,0,.1-1.5c-.5.5-.3.9-.1,1.5Zm62.3,246.3.6,1.1.5-1.1ZM99.7,60.5h-.2v1h.2v-1ZM96.4,202c.1-.8.1-.8-.6-.8l.6.8Zm5.2-130.3h-.4c0,.4.1.7.1,1.1h.3V71.7Zm-7-43c.5-.3.6-.7,0-1.2v1.2Zm11,70.3h.4c.1-.4.3-.8-.4-1.1V99Zm27.2,76.6-.2-.2-.8.9.2.2.8-.9ZM105.4,94.7H105c0,.3.1.6.1.8h.2a2.2,2.2,0,0,0,.1-.8ZM96.9,25.4h-.4c.1.3.1.6.2.9H97a1.9,1.9,0,0,1-.1-.8Zm3.3,39.5c.2-.7.2-.7-.2-1.1a3.1,3.1,0,0,0,.2,1.1Zm7.5,31.7h.2c0-.3-.1-.5-.1-.8h-.3a1.4,1.4,0,0,1,.2.7Zm65.5,149v.2l.8-.2a.4.4,0,0,0-.1-.3c-.2.2-.5.2-.8.3Zm9.8,93.6v-.9h-.7a4.4,4.4,0,0,0,.7.9ZM107.6,92.6h-.3c0,.3-.1.5-.1.8h.3a2.2,2.2,0,0,1,.1-.8ZM191,261h-.3a1.3,1.3,0,0,1-.1.6h.2a1.4,1.4,0,0,0,.2-.6ZM94.4,24.5h-.2a6.4,6.4,0,0,1,.2.7h.2a1,1,0,0,1-.2-.7Zm29.9,131.2Zm80.4,236.5h.3l.3-.7H205l-.3.7ZM170.2,257.6l-.2.3.6.2c0-.1,0-.1.1-.2l-.5-.3Zm.2,11.2c-.1,0-.2,0-.2-.1s-.1.4-.1.6h.2a4.3,4.3,0,0,0,.1-.5ZM113,64.5h-.2c0,.2.1.3.1.5h.2a4.3,4.3,0,0,1-.1-.5Zm-1.7,67.7c0-.1.1-.3,0-.4h-.2c0,.1-.1.3-.1.4Zm29.6-18h.3c0-.2-.1-.4-.1-.6h-.2Z" transform="translate(-8.7 -13.1)" style="fill:#e25a5f;fill-rule:evenodd"/><path d="M142.1,394.2a5.2,5.2,0,0,1-4,1.7l-9.7.4a23.8,23.8,0,0,1-3.8.1l.7-.3,3.4-.4a31.9,31.9,0,0,0,6.2-.8,4.8,4.8,0,0,1,1.7,0l3.4-.4.4-.3c-5.1-5.3-9.8-11-15.2-16.2l-3.1,3.6c-.5.5-.8,1.3-1.9,1.1.4-2.4,2.4-3.6,3.7-5.5l-.8-.8-2,2.1c-1.5,1.6-2.8,3.3-4.4,4.7a70.7,70.7,0,0,0-5.4,5.6,1,1,0,0,1-1.3.4,1.8,1.8,0,0,1,.7-2c1.7-1.7,3.5-3.4,5.2-5.2l4.5-4.8,1.6-1.8c-2.1-3-5.4-4.6-7.5-7.3a1.3,1.3,0,0,1,1.4-1l3.6,3.6,3.8,3.4.9-1.1-3.5-3.7c-.9-.9-1.8-1.9-2.8-2.8a1.5,1.5,0,0,1-.2-2.2l1-.2,3,4.2c1,1.3,2.2,2.5,3.4,3.9l6.1-6.2c-3.4-.4-6.4.5-9.8.1l1.2-.3c2.7-.3,5.4-.7,8.1-.8a4.2,4.2,0,0,0,3.1-1.5l4.7-4.8a15.3,15.3,0,0,1,2.1-1.4l1.6-1.1.6.4c-6.1,5.2-11.3,11-16.8,16.7l.6.8.6-.3,4.3-4.3,3.7-3.4a34.9,34.9,0,0,0,4.3-4.3c1.2-1.3,2.2-2.8,3.8-3.7a11.4,11.4,0,0,0,1.5-1.6l6.8-6.5c1.6-1.5,3.1-3,4.9-4.4-2.5,2.7-5,5.5-7.5,8.1l-7.3,7.4c-2.2,2.2-4.4,4.5-6.5,6.8l-1.5,1.8-5.1,5.3a1.6,1.6,0,0,0-.3.6c2.1,2.2,4.4,4.4,6.4,6.8l-.2.3-.8-.4-6-5.5-.5-.3-.8.7c5.2,5.5,10.4,11.3,15.7,17Zm-16.9-19.9c-.6.4-1.1.8-.2,1.5l.8-.7Z" transform="translate(-8.7 -13.1)" style="fill:#e25a5f;fill-rule:evenodd"/><path d="M152.3,256.9c.5,3.2-.2,6.5.2,9.9l2.1.7-2.2.6c-.1.6-.1,1.3-.2,1.9l1.2,1.1-1.4.3c-.1,2.4-.3,4.7-.4,7-.7-2.4,0-4.9-.4-7.4l-1.1-.7-2.5.8a2.5,2.5,0,0,1-.9-2.6c1.1-1,2.2-.4,3.5-.1l.6-.7-1.5-1.2-.9.5-.3-.4a23.5,23.5,0,0,1,1-2.2c1.4-.5,1.7.7,2.6,1.2s.1-1.2.1-1.8-.2-3.5-.2-5.3a7.7,7.7,0,0,1,.2-1.5Z" transform="translate(-8.7 -13.1)" style="fill:#e25a5f;fill-rule:evenodd"/><path d="M100,286.9a16.6,16.6,0,0,1-2.4-.2,7.6,7.6,0,0,1-3.9-2.4,1.7,1.7,0,0,1-.5-1.9,1.8,1.8,0,0,1,1.6-1.1l4.1-.3a2.9,2.9,0,0,1,1.8,5.3l-.7.6Zm-2.3-3.1,2.7,1c.5-1.6.1-2.3-1.6-2.4a13.4,13.4,0,0,1-1.1,1.4Zm-.6,1.6a1.5,1.5,0,0,0,2,.2,1.8,1.8,0,0,0-2-.2Zm-1.3-1.9-.7.7,1,.9A11,11,0,0,1,95.8,283.5Z" transform="translate(-8.7 -13.1)" style="fill:#e25a5f;fill-rule:evenodd"/><path d="M105,283.3c.1-1.1.7-1.2,1.5-1.1a44.7,44.7,0,0,0,5.2.1l13.8-.3a4.1,4.1,0,0,1,2.1.4,11.6,11.6,0,0,1-4,.7C117.4,283.4,111.2,284.1,105,283.3Z" transform="translate(-8.7 -13.1)" style="fill:#e25a5f;fill-rule:evenodd"/><path d="M139.9,334.1c-.9-.7-.9-1.7-1.2-2.5a1.6,1.6,0,0,1,1.4-1.7l4.4-1.1a5,5,0,0,1,.4,1.3l1.3.9c.1,1.9-1.1,2.7-2.5,3.3s-.8.1-1.2.1l-2.6-.3Zm1-1.3a2.9,2.9,0,0,0,4,.1c.3-.3.7-.7.4-1.3l-.6-.2-2.7,1.7Z" transform="translate(-8.7 -13.1)" style="fill:#e25a5f;fill-rule:evenodd"/><path d="M98.9,359.3c.4-.5,1-.4,1.6-.2s2.7.5,3.4,1.9a4.8,4.8,0,0,1-2.5,2.9,2.1,2.1,0,0,1-3.2-1.1,1.4,1.4,0,0,1,0-.9c.2-.8.4-1.6.7-2.6Zm2.6,3.4.6-.7h-.2l-.4.8-1.6-1-.4.6C100.4,363.4,100.4,363.4,101.5,362.7Z" transform="translate(-8.7 -13.1)" style="fill:#e25a5f;fill-rule:evenodd"/><path d="M152.4,359.7l19.3-2.4.3.2c.1.7-.4.7-.9.8l-3.9.6a112.2,112.2,0,0,1-12.9,1.1h-.9Z" transform="translate(-8.7 -13.1)" style="fill:#e25a5f;fill-rule:evenodd"/><path d="M140.7,435.5c1.2-1.2,1.6-1.1,3.1.3l1-.5c-.2-.2-.3-.5-.5-.5l-4.1-1.1-3.1,1.1a3.9,3.9,0,0,1,3.2-1.6c2.7,0,4.4.2,5.9,2.3a2.2,2.2,0,0,1-2.7,1.5C142.5,436.6,141,437.3,140.7,435.5Z" transform="translate(-8.7 -13.1)" style="fill:#e25a5f;fill-rule:evenodd"/><path d="M78.5,252.3l2.6-.8,2-1.6c1.5-.3,2.3.6,3.2,1.2l1.5-.3v.3l-1.2.9c-.2.3.3,1.2-.8,1.5l-.3-1.3H83.7l1.2,1c-1.5.7-2.4-.1-3.4-.8a10.1,10.1,0,0,0-3-.1Zm4.7-1.2h1.6C84.1,250.7,83.7,250.5,83.2,251.1Z" transform="translate(-8.7 -13.1)" style="fill:#e25a5f;fill-rule:evenodd"/><path d="M139.3,428.5a85.9,85.9,0,0,1-16.8.6v-.4a19.7,19.7,0,0,1,2.4-.3,120.1,120.1,0,0,0,13.4-.5C138.6,427.9,139,427.7,139.3,428.5Z" transform="translate(-8.7 -13.1)" style="fill:#e25a5f;fill-rule:evenodd"/><path d="M102.4,323.2h.8a31.5,31.5,0,0,0,9.2-.6l3.1-.4c.5-.1.9,0,1,.8C111.9,323.7,107.2,324.6,102.4,323.2Z" transform="translate(-8.7 -13.1)" style="fill:#e25a5f;fill-rule:evenodd"/><path d="M97.5,372.4l-11.2.8c.5-.3.7-.5.9-.5l7.9-1.2A2,2,0,0,1,97.5,372.4Z" transform="translate(-8.7 -13.1)" style="fill:#e25a5f;fill-rule:evenodd"/><path d="M115.3,434.8l12,1.1c-.9.9-1.9.3-2.9.4l-3.1-.2-2.9-.4-3-.4A.9.9,0,0,1,115.3,434.8Z" transform="translate(-8.7 -13.1)" style="fill:#e25a5f;fill-rule:evenodd"/><path d="M143.5,345.3c.1.8-.5.9-.9,1a24.4,24.4,0,0,1-7.1,1,26.8,26.8,0,0,1-4-.2c2-.2,4.1-.3,6.1-.6Z" transform="translate(-8.7 -13.1)" style="fill:#e25a5f;fill-rule:evenodd"/><path d="M92.2,425.2a23,23,0,0,1,2.6-.3l5.3-.3a2,2,0,0,1,2,.8l-9.9.3C92.3,425.5,92.2,425.4,92.2,425.2Z" transform="translate(-8.7 -13.1)" style="fill:#e25a5f;fill-rule:evenodd"/><path d="M80.5,307a37.1,37.1,0,0,1,13.7-.3c-1.5.5-3,.1-4.5.1s-3.1-.1-4.7-.1S82,307.3,80.5,307Z" transform="translate(-8.7 -13.1)" style="fill:#e25a5f;fill-rule:evenodd"/><path d="M90.5,346.9,88.8,348c-3.8.3-3.8.3-4.4-.6S89.2,346.7,90.5,346.9Z" transform="translate(-8.7 -13.1)" style="fill:#e25a5f;fill-rule:evenodd"/><path d="M105.7,424.9h1.5l9.1.3a2.5,2.5,0,0,1,2.1.9C114.2,424.9,110,425.3,105.7,424.9Z" transform="translate(-8.7 -13.1)" style="fill:#e25a5f;fill-rule:evenodd"/><path d="M128.5,324.5l-2-.7c.1.5.1.8.2,1.1h-.2c-.4-.6-1.5-.7-1.4-1.9a3.9,3.9,0,0,1,3.9.3A5.1,5.1,0,0,0,128.5,324.5Z" transform="translate(-8.7 -13.1)" style="fill:#e25a5f;fill-rule:evenodd"/><path d="M78.5,252.2l-1.6.3-.5.8-1.7-.3c0-.3.1-.6.1-1.1l3.7.3Z" transform="translate(-8.7 -13.1)" style="fill:#e25a5f;fill-rule:evenodd"/><path d="M42.8,298.3a2,2,0,0,1,.5,1.8,12.1,12.1,0,0,0,.1,1.9c-1.3-.5-1.5-1.9-.6-3.7Z" transform="translate(-8.7 -13.1)" style="fill:#e25a5f;fill-rule:evenodd"/><path d="M137.5,259.3c-.1,1.5.7,2.8.1,4.3-.2-1.4-.3-2.9-.5-4.3Z" transform="translate(-8.7 -13.1)" style="fill:#e25a5f;fill-rule:evenodd"/><path d="M151.4,282.4v-2.9C151.9,280.2,151.9,280.4,151.4,282.4Z" transform="translate(-8.7 -13.1)" style="fill:#e25a5f;fill-rule:evenodd"/><path d="M145.9,411h-1.2C145.2,410.4,145.5,410.3,145.9,411Z" transform="translate(-8.7 -13.1)" style="fill:#e25a5f;fill-rule:evenodd"/><path d="M105.2,261.8h0Z" transform="translate(-8.7 -13.1)" style="fill:#e25a5f;fill-rule:evenodd"/><path d="M91.6,346.5h1.8l-1.8.3Z" transform="translate(-8.7 -13.1)" style="fill:#e25a5f;fill-rule:evenodd"/><path d="M141.3,316.9h0Z" transform="translate(-8.7 -13.1)" style="fill:#e25a5f;fill-rule:evenodd"/><path d="M149.2,263.1c0-.4.1-.8.1-1.2h.2a4.9,4.9,0,0,1-.1,1.2C149.4,263,149.3,263.1,149.2,263.1Z" transform="translate(-8.7 -13.1)" style="fill:#e25a5f;fill-rule:evenodd"/><path d="M101.2,261.8h0Z" transform="translate(-8.7 -13.1)" style="fill:#e25a5f;fill-rule:evenodd"/><path d="M126,340.1h0Z" transform="translate(-8.7 -13.1)" style="fill:#e25a5f;fill-rule:evenodd"/><path d="M149.5,259c0,.4.1.9.1,1.3h-.2a6.2,6.2,0,0,1,.1-1.3Z" transform="translate(-8.7 -13.1)" style="fill:#e25a5f;fill-rule:evenodd"/><path d="M129,276.1c0,.3.1.5.1.8h-.2c-.1-.3-.1-.5-.2-.8Z" transform="translate(-8.7 -13.1)" style="fill:#e25a5f;fill-rule:evenodd"/><path d="M158.8,277.3v.7h-.2c0-.2-.1-.5-.1-.7Z" transform="translate(-8.7 -13.1)" style="fill:#e25a5f;fill-rule:evenodd"/><path d="M137.9,265.5v.8h-.2v-.8Z" transform="translate(-8.7 -13.1)" style="fill:#e25a5f;fill-rule:evenodd"/><path d="M132,264.3v-.6h.1v.6Z" transform="translate(-8.7 -13.1)" style="fill:#e25a5f;fill-rule:evenodd"/><path d="M130.9,339.9h-.5a.1.1,0,0,1,.1-.1h.5Z" transform="translate(-8.7 -13.1)" style="fill:#e25a5f;fill-rule:evenodd"/><path d="M234.9,225.2c-.1,1.8-.2,3.7-.4,5.5a10.8,10.8,0,0,1-.8,1.9l-.4.2-8,.3h-.6c-2.3.8-4.6.2-6.8.2l-5.1.3q-3.3.3-6.6.3a76.8,76.8,0,0,1-8.3-.3c-3-.3-5.9.3-8.9.3-.7,0-1.5.2-2-.3a1,1,0,0,1,.8-1.2h.8l6.4-.3h.6v-.3a7.8,7.8,0,0,1-1.5-4.4c-.6-3.5-1.2-7-1.9-10.5-.2-1.1-.5-2.2-.8-3.3s-.1-.8-.2-1.2c1.5-1,3.1-.4,4.6-.6s2.4,1.8,4.1,1.9.7,2.2,1.1,3.2.4,2,1.2,2.7.8,2.1,1.2,3.2a21.1,21.1,0,0,0,4.8,6.3c.2.3.6.4,1,.6s.2-.2.2-.3-.4-.8-.8-1-2.5-3.2-3.7-4.9-1.5-2.8-2.7-3.8-.6-4.4-1-6.6a5.1,5.1,0,0,1,3.8-1,37.3,37.3,0,0,0,4.7-.1l1.5.2,1,2.2h.2a18.2,18.2,0,0,0,0,3.3,33.4,33.4,0,0,0,1.8,6.9,9.5,9.5,0,0,1,1.2,5l-1.2,1.2-1.9.5v.2l1.3.2a2.5,2.5,0,0,0,2.4-.9,20.6,20.6,0,0,0,3.5-5.2c1.9-3.5,2.3-7.2,2.2-11.1a10.9,10.9,0,0,1,.1-1.8c1.1-.5,6.3-.7,8.1-.3a4.9,4.9,0,0,0,.6,3.7c.1-.7-.5-1.5.3-2.4s4.2.2,6.4-.2l.9,1v.4c-.8,1.9-.4,3.8,0,5.7s.7,1.5.3,2.4.1.7.4,1,1.9,2.3,3,3.4,1.9,1.5,2.6,2.6l-1.2,1a6.6,6.6,0,0,1-6.1-2.9,17.5,17.5,0,0,0-2.3-2.7l-.5-1.4c-.8-1.8-1.6-3.6-2.5-5.4a3.9,3.9,0,0,0-.8-1,11.3,11.3,0,0,1-.2-1.4c-.4.8-.1,1.1.3,1.3v.2a25,25,0,0,0,2.7,6l.5.3A1.1,1.1,0,0,0,234.9,225.2Z" transform="translate(-8.7 -13.1)" style="fill:#e25a5f;fill-rule:evenodd"/><path d="M73.4,212.9a4.3,4.3,0,0,1,2.8-.7l8.8.6,3.4.4c.2,0,.4.2.8.5l-3.5,1.6a8.7,8.7,0,0,0,.5,4.5,19.3,19.3,0,0,0,3.8,5.9,8.6,8.6,0,0,0,4.2,2,2.3,2.3,0,0,0,2.3-1,17.3,17.3,0,0,0,3-5.3c.4-1.1.7-2.3,1.1-3.4l.4-.8a.9.9,0,0,1,.6,1.3,32.9,32.9,0,0,1-2.1,6c-.4.8-.7,1.6-1.2,2.4a16.9,16.9,0,0,1-5.5,4.8,5.1,5.1,0,0,1-3.6.7l-6.8-1-1.1-.5a26.1,26.1,0,0,1-2.3-2.4,28.6,28.6,0,0,1-3.7-6.9h0C74.6,218.6,74,215.8,73.4,212.9Z" transform="translate(-8.7 -13.1)" style="fill:#e25a5f;fill-rule:evenodd"/><path d="M42.7,214l-.7-1.2a2,2,0,0,1,2.3-.9c1.6.3,3.2.2,4.8.9a5.3,5.3,0,0,0,2.2.1c1.2,0,1.4.1,2.2,1.1.2,2.9.3,5.8,1.4,8.5l2.2,2.1a2.3,2.3,0,0,0,1.1-.2,6.5,6.5,0,0,0,1.8-1.9c1.1-1.7,2-3.5,3-5.3a3.8,3.8,0,0,0,.3-1l.6-1.8c.7,0,.9.3.8.8a26.8,26.8,0,0,1-.7,2.7,44,44,0,0,1-4,8.5,18.7,18.7,0,0,1-3.6,4.3,5.6,5.6,0,0,1-4.9,1.1l-2.4-.5a4.6,4.6,0,0,1-3.6-3.8,3.8,3.8,0,0,0-.3-1,16.6,16.6,0,0,1-1.8-5.3C43.3,218.8,43,216.5,42.7,214Z" transform="translate(-8.7 -13.1)" style="fill:#e25a5f;fill-rule:evenodd"/><path d="M18.9,213.2a2.9,2.9,0,0,1,2-.7l5.2.3a18,18,0,0,1,2.7.7l-.7,1.3c.6,0,1.1-.8,1.8,0a18.7,18.7,0,0,1-.7,2.2,16.7,16.7,0,0,0-.9,5.8,6.2,6.2,0,0,0,.2,1.9c.1.5.4,1,.6,1.7a21.2,21.2,0,0,0,3.9-4.6c0,.3.1.6,0,.8l-3,5.5c-1.6.8-2.4,2.8-4.3,3.2l-.4.2c-1.4.9-2.1.8-3.3-.3a11.3,11.3,0,0,1-3.2-5.6,18,18,0,0,1-.5-7.3,11.6,11.6,0,0,1,.9-4.1c.1-.3-.2-.7-.3-1Z" transform="translate(-8.7 -13.1)" style="fill:#e25a5f;fill-rule:evenodd"/><path d="M99.9,232.9c0-.9.4-1,.9-1l3.1-.2,7.6.3h5a40,40,0,0,1,4.8.8c-.1.8-.5.7-.9.7l-4.1-.2-9.7-.3H99.9Z" transform="translate(-8.7 -13.1)" style="fill:#e25a5f;fill-rule:evenodd"/><path d="M111.6,218l-1.8-.9c1-1,1.7,0,2.4.1a14,14,0,0,1,1.8,4.2c.5,1.3.9,2.7,1.3,4s.7,1.5,1.7,1.6c.3,1.8,2,1.7,3.1,2.8a8.6,8.6,0,0,1-3.4-1.3l-.5-.4c-1.7-.6-2.2-2-2.6-3.6S112.3,220.1,111.6,218Z" transform="translate(-8.7 -13.1)" style="fill:#e25a5f;fill-rule:evenodd"/><path d="M69.7,226q-2.1,2.5-4.8,1.5c-.5-1.2-.5-1.2,0-3l-.8-.5.9-.7a10.3,10.3,0,0,0,2.2.4,2,2,0,0,1,2.3,1.6,1.9,1.9,0,0,0,.2.7Zm-4,1c.7.6,1.3.4,2,0l1.1-.9-.8-1.2C66,224.8,65.4,225.4,65.7,227Z" transform="translate(-8.7 -13.1)" style="fill:#e25a5f;fill-rule:evenodd"/><path d="M123.1,230.6a8.5,8.5,0,0,1-2.7-3.5A7.1,7.1,0,0,1,123.1,230.6Z" transform="translate(-8.7 -13.1)" style="fill:#e25a5f;fill-rule:evenodd"/><path d="M33.9,216.1a2.1,2.1,0,0,1,.7-2.4C35,215.2,34.9,215.6,33.9,216.1Z" transform="translate(-8.7 -13.1)" style="fill:#e25a5f;fill-rule:evenodd"/><path d="M135,213.9l1.9.5a.4.4,0,0,1-.1.3l-1.9-.5A.4.4,0,0,1,135,213.9Z" transform="translate(-8.7 -13.1)" style="fill:#e25a5f;fill-rule:evenodd"/><path d="M179.7,118.5l-1.3-.4-6.9-3.6c-.6-.3-1.3-.5-1.1-1.5a2.9,2.9,0,0,1,2.4.4l6.3,3.4A1.2,1.2,0,0,1,179.7,118.5Z" transform="translate(-8.7 -13.1)" style="fill:#e25a5f;fill-rule:evenodd"/><path d="M115.6,133.9a9.5,9.5,0,0,1-.6-4.1c.1-2,0-4.1,0-6.1s-.1-1.3.7-1.6.3,1.1.3,1.6v9.2c0,.3.1.6.1.9h-.5Z" transform="translate(-8.7 -13.1)" style="fill:#e25a5f;fill-rule:evenodd"/><path d="M118,134l-.3-11.6.5-.2.3.3c.1,1.8.1,3.5.1,5.3s.1,2.6.2,3.9.2,1.7-.4,2.4Z" transform="translate(-8.7 -13.1)" style="fill:#e25a5f;fill-rule:evenodd"/><path d="M123,122.1a47.1,47.1,0,0,1,.3,8.3h-.4c-.2-1.6-.3-3.3-.5-4.9A7,7,0,0,1,123,122.1Z" transform="translate(-8.7 -13.1)" style="fill:#e25a5f;fill-rule:evenodd"/><path d="M120,123.1c.7,1.3.9,6.8.4,8.9-.6-1-.3-2-.4-2.9s0-2.1,0-3.1Z" transform="translate(-8.7 -13.1)" style="fill:#e25a5f;fill-rule:evenodd"/><path d="M116.2,133.9l2.9,1.4a3.7,3.7,0,0,1-2.9-1.4Z" transform="translate(-8.7 -13.1)" style="fill:#e25a5f;fill-rule:evenodd"/><path d="M123,136.5l-2.4-.3c.9-.1,1.7-.3,2.4.3Z" transform="translate(-8.7 -13.1)" style="fill:#e25a5f;fill-rule:evenodd"/><path d="M123,136.5h0Z" transform="translate(-8.7 -13.1)" style="fill:#e25a5f;fill-rule:evenodd"/><path d="M85.5,178.7l.7,1.6c.7,1.3,1.4,2.6,2,3.9a2.2,2.2,0,0,1,.1,2.6c-2,0-3.6-1.6-5.7-1.5,0-.8.3-1.2,1.1-1.1s.9.5,1.7,0l-2.2-.6,1-1.2c-.2-1.2-1.7-.2-1.9-1.4l.9-.6L83,180a4.9,4.9,0,0,1-1-1.5,16.3,16.3,0,0,0-2.3-2.9l-2.1-2.3a1.5,1.5,0,0,1-.4-1.4c.6-.4.8.1,1.2.4a19,19,0,0,0,1.9,2.1c.7.6,1.5.9,2.2,1.4l.4.2a29.8,29.8,0,0,0,7.4,3.6c-1.6.3-2.9-1-4.8-.9Zm-.9,1.1c.2-.7.4-1.5-.8-1.9C84.1,178.7,84.4,179.2,84.6,179.8Z" transform="translate(-8.7 -13.1)" style="fill:#e25a5f;fill-rule:evenodd"/><path d="M96.7,180.1c2.9-.9,6-.9,8.1.2h-2.6a16.7,16.7,0,0,0-3.2.2A5.6,5.6,0,0,1,96.7,180.1Z" transform="translate(-8.7 -13.1)" style="fill:#e25a5f;fill-rule:evenodd"/><path d="M54.3,194.3a1.5,1.5,0,0,1,2,.1l2.9,2.8c-.7.1-.6.1-2.4-1.2A18,18,0,0,0,54.3,194.3Z" transform="translate(-8.7 -13.1)" style="fill:#e25a5f;fill-rule:evenodd"/><path d="M90.6,183.9c.1,1.4.7,2.9,0,4.6-.2-.3-.4-.4-.4-.6A6.8,6.8,0,0,1,90.6,183.9Z" transform="translate(-8.7 -13.1)" style="fill:#e25a5f;fill-rule:evenodd"/><path d="M86.4,204c.6.8,1.5,1.3,1.9,2.3A3.4,3.4,0,0,1,86.4,204Z" transform="translate(-8.7 -13.1)" style="fill:#e25a5f;fill-rule:evenodd"/><path d="M71.5,200.8c.1.2.1.4.2.5h-.3c-.1-.2-.1-.4-.2-.5Z" transform="translate(-8.7 -13.1)" style="fill:#e25a5f;fill-rule:evenodd"/><path d="M215,370.6c0-.7-.1-1.1-.1-1.5s.3-2.5.5-3.7.6-4.9,1-7.3.8-3.9,1.1-5.8c.7-3.9,1.7-7.7,2.2-11.7s1-6.4,1.6-9.6,1-5.7,1.6-8.5a55,55,0,0,1,1.6-5.8c0-.2.4-.2.7-.4a2.8,2.8,0,0,1,.1,2.2l-2.1,11.1c-.4,1.9-.9,3.9-1.2,5.8s-.5,4.8-.9,7.1c-.7,3.8-1.5,7.5-2.2,11.2s-1.3,7.3-1.9,10.9c-.3,1.5-.7,3.1-1.1,4.6A3.3,3.3,0,0,1,215,370.6Z" transform="translate(-8.7 -13.1)" style="fill:#e25a5f;fill-rule:evenodd"/><path d="M211.7,361.6h0Z" transform="translate(-8.7 -13.1)" style="fill:#e25a5f;fill-rule:evenodd"/><path d="M66.9,442.9a11.9,11.9,0,0,1,4.7.9,12.5,12.5,0,0,0,2.9.5c2.4.4,4.7.9,7.1,1.2a29.3,29.3,0,0,1,2.9.5,5.5,5.5,0,0,1-1.8.2c-2.8-.4-5.6-.9-8.3-1.5l-6.9-1.6Z" transform="translate(-8.7 -13.1)" style="fill:#e25a5f;fill-rule:evenodd"/><path d="M149.1,128.2a12.8,12.8,0,0,1,.2,1.7c.7.1.7-.3.8-.8a35.5,35.5,0,0,1,2.2-7,3.1,3.1,0,0,1,1-1.3,2.2,2.2,0,0,1,0,.8c-.4,1.1-.9,2.1-1.3,3.2s-1,3.1-1.4,4.6-.3.9-.4,1.4l1,1.8V136c-.4-.5-.7-.6-.9-.9a1.3,1.3,0,0,1-.1-.6,4.4,4.4,0,0,0-1.2-3.4,3.3,3.3,0,0,1-.7-1.7C148.1,128.8,148.4,128.4,149.1,128.2Z" transform="translate(-8.7 -13.1)" style="fill:#e25a5f;fill-rule:evenodd"/><path d="M157.4,123c-1.4,4.6-2.8,9.2-4.7,14a4.3,4.3,0,0,1,.6-3.3,7.6,7.6,0,0,0,1.1-3.2,49.1,49.1,0,0,1,2.4-7.4l.2-.2Z" transform="translate(-8.7 -13.1)" style="fill:#e25a5f;fill-rule:evenodd"/><path d="M159.5,124.2a66.2,66.2,0,0,1-2.4,6.2,26.3,26.3,0,0,0-.9,3,23,23,0,0,1-1.2,3.4,32.8,32.8,0,0,1,2.2-8,25.5,25.5,0,0,0,1.3-3.9c.2-.3.4-.8,1-.7Z" transform="translate(-8.7 -13.1)" style="fill:#e25a5f;fill-rule:evenodd"/><path d="M149.4,133.5a5.5,5.5,0,0,1-1.5,1.8c-.9,1-2.2,1.7-2.6,3.2s-.6.4-.9.6a1.2,1.2,0,0,1,0-1.6C145.8,135.8,148.2,133.7,149.4,133.5Z" transform="translate(-8.7 -13.1)" style="fill:#e25a5f;fill-rule:evenodd"/><path d="M154.9,122.4l-2.6,7.4C152.8,127.2,153,124.5,154.9,122.4Z" transform="translate(-8.7 -13.1)" style="fill:#e25a5f;fill-rule:evenodd"/><path d="M158.6,133.2c.4-2.1,1.8-5.7,2.6-6.5-.2.8-.2,1.3-.4,1.9l-1.5,4a3.2,3.2,0,0,0-.7.6Z" transform="translate(-8.7 -13.1)" style="fill:#e25a5f;fill-rule:evenodd"/><path d="M148.6,139.2l1.6-2.2C150.4,138.1,150,138.7,148.6,139.2Z" transform="translate(-8.7 -13.1)" style="fill:#e25a5f;fill-rule:evenodd"/><path d="M158.6,133.1c.2.5.8,1.1-.1,1.7s.1-1.1.1-1.7Z" transform="translate(-8.7 -13.1)" style="fill:#e25a5f;fill-rule:evenodd"/><path d="M159.5,124.3c-.4-.5-.5-1,.3-1.5l-.3,1.5Z" transform="translate(-8.7 -13.1)" style="fill:#e25a5f;fill-rule:evenodd"/><path d="M154.7,138.1v.4h-.1v-.4Z" transform="translate(-8.7 -13.1)" style="fill:#e25a5f;fill-rule:evenodd"/><path d="M169.1,312.4c0-.5.1-.9.1-1.4h.2c0,.5-.1.9-.1,1.4Z" transform="translate(-8.7 -13.1)" style="fill:#e25a5f;fill-rule:evenodd"/><path d="M158.3,208.8c-3.1-.2-6.2-.1-9.2-.6s-5.2-.4-7.8-.9l-3.7-.5c1-.5,2.1-.2,3.1-.2l3.3.3h3.3c1.1,0,2.2.2,3.2.1l3-.6,4.1-.4a11.7,11.7,0,0,0,2-.6q.6.6,0,.9l-1.8.6-3.3.4a15.5,15.5,0,0,0,6.4.2v.4l-2.6.9Z" transform="translate(-8.7 -13.1)" style="fill:#e25a5f;fill-rule:evenodd"/><path d="M154,250.5l.8,1.3c-.6,1.1-.9,1.3-1.9,1l-2-.8c0-.3-.1-.7-.1-1.1l-1.5-.4c.6-1.2,1.5-.5,2.2-.5l2.5.5Zm-.2,1.2a1.7,1.7,0,0,0-2-.3C152.5,251.8,152.9,252.3,153.8,251.7Z" transform="translate(-8.7 -13.1)" style="fill:#e25a5f;fill-rule:evenodd"/><path d="M174.2,252.5c.7-.9,1.6-.5,2.3-.8l1.9-1.7c.4,1.3-.6,1.7-1.1,2.3S175.4,252.9,174.2,252.5Z" transform="translate(-8.7 -13.1)" style="fill:#e25a5f;fill-rule:evenodd"/><path d="M160.7,248.2l-2.6.4c.8-.5,1.7-1,2.6-.4Z" transform="translate(-8.7 -13.1)" style="fill:#e25a5f;fill-rule:evenodd"/><path d="M165.5,256.1l-1.8-.2C164.8,255.2,164.8,255.2,165.5,256.1Z" transform="translate(-8.7 -13.1)" style="fill:#e25a5f;fill-rule:evenodd"/><path d="M164.9,254.9l-.2-.2v-.5l.4.6Z" transform="translate(-8.7 -13.1)" style="fill:#e25a5f;fill-rule:evenodd"/><path d="M201.3,434.8c.2,1.7.3,3.3-1.1,4.5A8.8,8.8,0,0,1,201.3,434.8Z" transform="translate(-8.7 -13.1)" style="fill:#e25a5f;fill-rule:evenodd"/><path d="M163.4,191.2l-1,.7-.2-.3,1-.7Z" transform="translate(-8.7 -13.1)" style="fill:#e25a5f;fill-rule:evenodd"/><path d="M114.8,147.6c-.2-.2-.4-.3-.5-.5v-.2l.6.4Z" transform="translate(-8.7 -13.1)" style="fill:#e25a5f;fill-rule:evenodd"/></svg>