<svg id="a4979f60-d91e-46e9-b08a-79ce17e3e04f" data-name="—ÎÓÈ_1" xmlns="http://www.w3.org/2000/svg" viewBox="0 0 242.9 257.6"><title>cookies</title><path d="M245.3,158.6c1.1.8.4,1.8.5,2.6.4,2.9-.6,5.5-1.5,8.1s-1.3,3.7-2,5.4-1.7,3.7-2.6,5.5l-2.8,5.7c-1.8.3-2.9,1.7-4.2,2.8a14.9,14.9,0,0,1-7.7,3.6c-3.5.6-7.1.4-10.6.6a68.3,68.3,0,0,1-7.9-.6,14.8,14.8,0,0,1-5-1.3c-1.6-.8-3.6-.9-5.4-1.5s-6.5-2.4-9.9-3.3a74,74,0,0,0-9.4-1.7,68.7,68.7,0,0,0-10.1-.8,11,11,0,0,0-7,2.6c-.7.6-1.8.8-2.3,1.5s-3.3,3.7-4.1,6.2-1.4,2.9-2,4.4a69.7,69.7,0,0,0-2.6,7.7c-.5,1.7-.7,3.7-2.1,5.2a2,2,0,0,1-.3,2.2c-1.1,1.6-1.2,3.4-1.7,5.1s-.9,3.9-1.4,5.7c-1.1,3.8-.9,7.8-1.9,11.5a42.9,42.9,0,0,1-2.6,5.8c-.2.3.1,1-.6,1.1s.1.3,0,.2-.9,2.4-1.9,2.9a10.3,10.3,0,0,1-1.9,3.6c-1.9,3-4.5,5.4-6.9,7.9l-1.9,1.6a9.6,9.6,0,0,1-4,1.4c-3.6.4-7.3.5-10.9.8a45,45,0,0,1-11-.8c-4.7-.7-9.5-1.3-13.9-3.3-2.2-1-3.5-3-5-4.7a17,17,0,0,1-3.4-5.4,9.2,9.2,0,0,1-.4-5.2,12.8,12.8,0,0,1,.7-2.8c1.4-2.7,3-5.2,6-6.7s3.7-1.4,5.5-2.2,2.2-2.6,2.7-4.1c1.2-4,.7-8.1.7-12.2s.4-8.7.5-13,.5-7.8.6-11.8A42.3,42.3,0,0,1,95,178.3a33,33,0,0,0,.7-10.4c-.4-3.7-.6-7.5-1.7-11.1a18.9,18.9,0,0,0-2.4-5.4,8,8,0,0,0-4.4-2.4,54.3,54.3,0,0,0-5.8-1.3,20,20,0,0,0-6.9.5,40.7,40.7,0,0,0-7,2.2,33.1,33.1,0,0,0-4.7,2.9,33,33,0,0,0-5.1,3.1,12.6,12.6,0,0,0-3.1,3v.2C51,161.3,48,164,44,164.4a34.9,34.9,0,0,1-7.9-.1c-1.5-.2-3.1.3-4.7-.1s-3.3-1.2-5-1.6a64.5,64.5,0,0,0-6.3-1.6,22.3,22.3,0,0,1-9.7-4.6c-2.5-2-4.4-4.6-6.5-7l-.2-.2a8.3,8.3,0,0,1-.6-3.2,18.7,18.7,0,0,1,1.1-7.8c.6-2.2,2-4,3.3-5.9s4.8-5.3,7.3-7.9a38.1,38.1,0,0,1,8.9-6.6,68.9,68.9,0,0,0,8.2-6l6.6-5c2.4-1.9,4.8-3.8,7.4-5.5a57.8,57.8,0,0,0,8.2-6.6,6.9,6.9,0,0,0,1.8-1.6c1-1.6.8-2.2-.9-2.9l-6.7-2.7a28.3,28.3,0,0,1-8.8-5.7,74,74,0,0,1-5.6-5.6c-2.2-2.4-3.1-5.3-4.6-8s-1.7-4.7-2.3-7.1a49.3,49.3,0,0,1-1.2-8.7,48.1,48.1,0,0,1,.2-8.5c.2-1.6.9-3.1,1.2-4.7s0-2.4.3-3.6.3-2.1.4-3.1.6-1.8,1-2.7a22.3,22.3,0,0,1,4.6-7.1c1.9-2.1,3.6-4.3,5.6-6.3s5-5.3,8.1-7.3l.2-.2h.2a31,31,0,0,1,9.2-3.4c1.8-.4,3.4-1.3,5.3-1.6a15.3,15.3,0,0,1,6.4.3c2.1.4,4.3.2,6.5.4a47.4,47.4,0,0,1,9.8,2c1.5.5,3,1.3,4.5,1.9a63.2,63.2,0,0,1,6,2.5,45.3,45.3,0,0,1,5.5,3.4,29.9,29.9,0,0,1,5.4,4.7,22.8,22.8,0,0,1,5.6,10.2,28.2,28.2,0,0,0,2.4,6.3,15.7,15.7,0,0,1,1.3,7.4c0,3.4-.9,6.8-.3,10.3a1.7,1.7,0,0,0,1.4,1.5c4.5.8,8.3-1.2,11.9-3.4s4.3-2.9,6.5-4.2,3.9-1.6,5.6-2.7,3.1-1.7,4.7-2.7a23.2,23.2,0,0,1,5.9-2.2,10.9,10.9,0,0,0,2.5-1,81.2,81.2,0,0,1,12.4-5.6,42.1,42.1,0,0,1,6.1-1.6,27.5,27.5,0,0,0,3.6-1.5c2.9-1.2,7.6-.4,10.2,1.4a11.4,11.4,0,0,1,3.8,4.1,43.5,43.5,0,0,1,2.5,5.9,57.6,57.6,0,0,1,1.9,6.8c.5,2.8,1.4,5.5,1.2,8.5a39.5,39.5,0,0,1-.9,6.9,10.4,10.4,0,0,1-3,4.9c-1.8,1.7-3.1,3.8-4.9,5.4a26.6,26.6,0,0,1-4.6,3.5c-2,1.3-3.7,2.9-5.6,4.3S174.9,83,174,83c-8.2,6.5-16.6,12.5-19.8,23.4a3.9,3.9,0,0,1-.5,2.8h.5l-.3,1c.8.7.4,1.9.8,2.6s1.1,2.7,2.1,3.8a32.1,32.1,0,0,0,11.2,8.4l5.5,2.5c.5.2,1.3,0,1.5.8a5.4,5.4,0,0,1,2.2.5c3.4,1.4,7,1.5,10.4,2.6s6.2,1.7,9.2,2.7,4.4.9,6.5,1.7,6,2,9,2.9,6,.1,8.8-1.6a16.5,16.5,0,0,1,7.2-2.3,29.1,29.1,0,0,1,7.2,1c3.7.7,5.1,3.7,6.7,6.6s2.1,6.3,2.8,9.5.5,4.5.8,6.7Zm-36.7-4.5c-1.1.7-1.2,1.5-.3,2.5s.9.3,1.3-.1a2.5,2.5,0,0,0-1-2.4c1.1-.4,1.9-.8.6-2l-.6,2ZM173.9,43.2a5.4,5.4,0,0,0-.4-3.5,2.2,2.2,0,0,0-1.6,0,6.7,6.7,0,0,0,.4,3.2h.7v.5h-.9c.2.9.3,1.9.5,3,.8-.5,1.8.4,2.3-.7l.3.6h2.4a1.5,1.5,0,0,1-.1-1.1c-.3-2.1-.6-3.9-.8-5.7s-1.2.2-2,.1-.3,2.6.6,3.7-.4.5-.4.9a2,2,0,0,1-.1,1.5l-.3-.7c-.1-.4.2-1.2-.6-1.5ZM34.2,159.1l1.4.2a17.2,17.2,0,0,0,.3-6.8c-1,.7-.9,1.6-1.1,2.4s.3,2.9-.6,4.2a2.2,2.2,0,0,1-.7-1.9l.3-5-1.7-.5c.5,2.6-.6,4.9-.5,7.3ZM170.6,43.2l.7-.4c0-.9,0-1.9.1-3l-3,.3c2-1.3,4.4,0,6-1.9l.5.6c3.8-.9,8.4,2,11.3,6.6.6-.4,1.2.4,1.7.2.4-4.4-3.6-4.3-6.1-5.9,1.6-.3,2.8.8,4.3.7a8.3,8.3,0,0,0-4.6-4.2c.2-.1.3,0,.3,0l.7-.2c-7-2.7-12.8-.2-18.9,2.5,2.4.9,2.8,2.9,3.2,4.9a12.2,12.2,0,0,1,3.8-.2c-1,.9-2.3.5-3.5.9a4.9,4.9,0,0,0,1.4,2.4l3.2-.3c-.3-1.2.3-2.4-1.1-3ZM62.2,65.8c-.2-.4.5-.9,0-1.3a5.1,5.1,0,0,0-1.3.2c-.8.3-1.6.8-1.4,1.7a4.6,4.6,0,0,0,2.8,3.4,12.9,12.9,0,0,0,10.2-.7c2.7-1.3,5.3-2.8,7.9-4.2s1.6-.9,1.8-1.4c-2.3.8-4.2,2.5-6.9,2.6-.1-.4-.1-.8-.2-1.2l4.2-2.1A28.5,28.5,0,0,0,84.8,59c2.2-2,3.8-4.1,3.6-7.3.6.2.2-1,.9-.8s1.8,1.8,1.1,3.4-.8,2.9-1.9,4l-2.3,2.5a14.1,14.1,0,0,0,4-3.5c1-1.2,2.3-2.3,2.5-4.6a4.6,4.6,0,0,0-5.8-3.4c-2,.6-3.3,2.4-4.2,4.1A23.2,23.2,0,0,1,76.1,61c-2.8,2.1-6.1,2.8-9.4,3.4a24.1,24.1,0,0,1-3.8.1c-.2.5,0,1.1-.6,1.3s0,0-.1,0Zm81.6,15.6h0l.4.8,10-.7c2-.1,3.8-.3,5-2.2s0-1.5,1-1.7l-.2-.4c.5-1,1.6-1.4,2.4-2.5l-2.1.3c-.7,0-1.4-.3-1.9,0s-1.2-.1-1.8.2a1.5,1.5,0,0,1-1.6-.3c3.4-1.2,7.6.3,10.8-2.5a1.8,1.8,0,0,1-.1-.5c2.5-.6,3.7-2.8,5.8-3.8-8.5.2-17,.4-25.5,1.3-.6,1.3-.2,2.9-1,4.2a23.4,23.4,0,0,1-.6,5.2c-.6-.3-.2-5.7.5-6.3s.2-2,.2-3.2h-2.7c-.6,0-1.3.2-1.4.9l-.9,5.5c.2.2.6-.1.6.4h-.8c-.4,2.1-.8,4.2-1.1,6.3,1.9-.3,3.6,0,5.3-.6l-.5-.5a.3.3,0,0,1,.1-.2c-.1,0,0,.1.1.2ZM87.2,95.9a5,5,0,0,1-1.2.2c-2.1.6-4.5-.7-6.3,1.3l.4-1.1-2.6.4c-.5-.5-1.2.2-2.1-.1l4.3-.5c.9-1.1.5-2.6,1.3-3.5a15.6,15.6,0,0,1,.8-4.4c-1-.3-2,.3-3-.6a3.2,3.2,0,0,0,1.4-.1c.7-.2,1.8.4,2-.7.8-3,1.5-6.1,2.1-9.1l1.5-7.5a5.6,5.6,0,0,0-4.7.6l-.5-.7-1.8.4c.2.4.9.7.3,1.3l-.7-.2c-.5,3-2,5.8-2.3,8.8-.4-3.4,1.4-6.5,1.6-9.9l-3.4.4c-.2,1.3,1.9,1.6,1.2,3.4A3.3,3.3,0,0,0,73,72.6l-1.1.3c-.4.7-.1,1.3,0,2s1.1.8,1.6,1.2l-.5.4c-2.4-1.1-2.7-4.8-6.2-4,.6.7,1.2,1.3,1.7,2s.4.4.1.7a.4.4,0,0,1-.7-.1c-.4-.8-1.2-1-1.7-1.7a2.6,2.6,0,0,0,.5,2.8c-.3.5-.6.1-1.1.2.5,1.9-1.9,4.2,1.1,5.8.2-.1.4-.3.7,0l-.3.6.7.6h.6c1.3,2.2.7,4.5.5,6.7,2.5,1.2,2.5,1.2,2.6,2s.9.2,1.2.7a2,2,0,0,1-1.3-.4c-.8-.4-1.8-1.6-2.5-1a3.2,3.2,0,0,0-1,2.8c.1.9.6,1.7.1,2.8-.3-1-.5-1.7-.8-2.5l-.8.4a32.2,32.2,0,0,1-6.5,8c6.6-.6,12.6-1.5,19-1.7.1-.5.1-1,.2-1.6h.1l-.3,1.6,8.9-1.2c.3,0,.6,0,.7-.5s.4-2.3.7-3.5h-2a1.2,1.2,0,0,1,1-.3c.7,0,1.4.1,1.5-1.1s.9-4.8,1.4-7.3h-.3c-1.4.3-2.9.2-4.3.4s-3.7-.8-4.2,2a49.7,49.7,0,0,1-1.8,6.3l6.3-.4.4.5Zm86.9,57.5c.4,0,.1.5.3.6l5.2.3c.4-4.2.9-8.4,1.4-12.7-1.7,0-3-.8-4.5-1.4a70.2,70.2,0,0,0-1.3,8c-.3,1.8-.3,3.6-1.1,5.2-.2-1.6.3-3.2.4-4.8s.8-5.7,1.2-8.7l-2.3-.9c-.8,2.6-.6,5.4-1.7,8.2-.1-.5-.3-.7-.2-.9a18.5,18.5,0,0,0,.8-4.7c.3-3.1.1-3.5-1.9-3.6-.2,2,.1,4-.8,5.9.3-2.1.2-4.2.3-6.2-2.9-1.9-6.1-3.1-9.2-4.6a57,57,0,0,1-6.8-3.9c-1.2-.7-1.9-2.2-3.1-3s-2.2-2.9-4.5-2.9a25.2,25.2,0,0,1-.8,8.2c1,.3,1.9.1,3.1.9l-3.2-.3c0,1-.3,2.2.1,2.9s1.7.2,2.7,0a1.7,1.7,0,0,1-1.5.9H145c-.4,6.2-1.6,12.1-2.2,18.2l36.5,2.9c.1-.6.6-1.2.3-1.8L166.1,154c.3-.4.5-.5.8-.5l6.1.5c.3-.1.9.1,1.1-.6Zm-67.7,83.5a41.3,41.3,0,0,0-6.9-1.1L97.7,238l.2.5,4.2,1v.2l-6.1-.8c0,.2-.1.4-.1.7a40.5,40.5,0,0,1,9,1.6c.5-1.4.6-3,1.5-4.3a11.9,11.9,0,0,1-.6,3.7c-.3.8,0,.9.6.9s4,.6,6,.7c-2.3.6-4.7,0-6.9.1-.5,1.1-.3,2.6-1.6,3.5.4-1.2.8-2.3,1.2-3.7-4.8-.4-8.9-2.1-13.3-1.3,0,.4.4.5.1.8s-.7-.1-1,.2a3.8,3.8,0,0,0-.9,3.5c.3,1.1.8,2.1,2.2,2.3l2.3.3c3.8.5,7.5,1.6,11.4,1.8.7,0,1.5.4,2.3-.1a.9.9,0,0,1,.3-1.2c.4.3-.2.9.4,1.2,3-.8,6.2-.4,8.8-1.3s5.7-3.6,7-6.7l1.7,1.6c.3,2,1.8,3.2,2.7,4.8-.9.8-1.2-.2-1.7-.6s-.2,1.6.4,2.5l3.7-4.3c-1.5-1.7-2.6-3.5-4.3-4.9s-2-1.1-1.1-2.4l-4-1.2c0-.1.1-.2.1-.4l7.7,1.5c-3.5-2.2-.2-4.6-.3-6.8l-.6-.5c.2-.7.7-.5,1.1-.5s.3-1.1.4-1.5,2.3-1.7,1-3.1c1.2-2.4,1.3-5.2,2.6-8.1.1.9.2,1.3.2,1.6l5.1,2.6c.4-.8.7-1.6,1-2.3a20.1,20.1,0,0,0-3.2-1.7c-1-.4-2.1-1.8-3,.1l-3.8-.3c-.6,1.6-2.6,1.2-3.2,2.5s-.2,2.9-1.1,4.6c.2-2,.3-3.5.5-5.1l-3.1.6c-.2,2.5-.3,4.9-.5,7.4a40.1,40.1,0,0,1-.3-8.5c-2.4-.1-4-1.8-6-2.9a3.8,3.8,0,0,0-.1,1h-.7c.3-2.3-1.9-1.7-3-2.6-.4,4.1-.8,8-1.2,11.8l6.5.4v.4l-6.5-.3a3.6,3.6,0,0,1-.4,1.1,8.7,8.7,0,0,0-.2-1c-2.5-.4-5,0-7.4-.9l7.5.2A113.1,113.1,0,0,0,112,215l-1.6-.5.9-.4a.8.8,0,0,1,.2-.9h.6l.3-1.2c-1.2.3-3.1-.4-2.6,2l.6.2c-.2.4-.6.7-.2,1.3h-.9c0-.3.1-.5.1-.8h-1.9v-.3l1.8-.2c0-.5,0-.9-.5-1.1s.8-1.4.6-2.3c-1.8,0-3.4.9-5.2,1.2.3-1.6-.8-1.3-1.6-1.3-.2,1.6-.1,1.7.5,2.1,0,7.6-2.1,14.9-3,22.2l9.9,1.8h0l5,.8a5.9,5.9,0,0,1-2.3,0l-6.3-.6Zm90-91.7c.8-.4.7-1,.6-1.8a2.2,2.2,0,0,1,1.4-2.6,15.9,15.9,0,0,1,3.4-.6L198,139l-14.5-3.7c-3.1-.9-6.2-2-9.2-3.2-4.6-1.9-9.3-3.4-13.5-6.2a75.1,75.1,0,0,1-8.3-6.6c-1.2-1-1.4-3.2-3.6-3.1h1.6c.1-2.8-2.3-2.5-4.4-3a4.9,4.9,0,0,1,3.5-.3,1.9,1.9,0,0,0-1.6-2.2l-2.5-.4c-.4-.1-.8-.2-.7-.7s.6-.1.7-.4l3.3,1c-.4-4.1-4.2-3.5-6.5-5.5.5,2.7-1,4.9-.9,7.3-.3-1.1.2-2.1-.3-3.2l.7-.9c-.5-1.4.7-2.8-.1-4.2h.7l-.6-.6h.4a1.7,1.7,0,0,1,0-1.9c.2.4-.1,1.1.6,1.2s3.3,1.4,5.1,2.1c.2-.6.3-1.2.5-1.8a6.4,6.4,0,0,0-6.3-1.6l-.6-.3L130,101c-.9,0-1.8.5-3-.2,5.3-.8,10.2-.7,15.2-1.1a1,1,0,0,1,.6-1c-.2-.7.5-1.4-.1-2.1l-7.7.7c-.1-.4-.2-.8.3-.9l6.3-.5c.5,0,1.1.3,1.6-.4s.7.2,1.1.2.7-.8.2-1.4.1-.5.3-.5,1.4-1.2,2-1.9a31.3,31.3,0,0,0,2-3l.3.2c-.7,1.1-1.4,2.1-2.1,3.3l1.9.3c1.4-1,.4-1.8-.2-2.5s1.2.3,1.8.4l1.2-1.4c-.8-.7-1.6-.8-2.8.1l.9-1-.5-.4c2.3,1,1.7-2.2,3.2-2.3l.9-1c.3.5-1,1,0,1.4s1.3-.9,2.1-1.3-1.1-.9-1.9-.4l.7-1.1c.6.1.8-.5,1.3-.8s-.3.6-.4.8c1.7,1.2,2.2-.4,3.2-1.5l-20,1.5-.5,1.2c0-.5-.1-.8-.1-1.2-14.5.7-28.9,2.6-43.3,3.5-1.1,2.6-.6,5.6-1.4,8.3a22.7,22.7,0,0,1,.5-8.2c-1,.1-2.1-.3-2.1,1.4a23.8,23.8,0,0,1-.6,3.7c-.5,2.5-.9,5-1.4,7.7l7.1-.2c-2.4.9-4.9.8-7.3,1-.9,4.1-.7,8.3-1.9,12.4,1.1,0,2-.2,2.9-.1,4.9.4,9.9-.4,14.8,0,1.4.1,2.9-.1,4.4.1l14.2,1c4.8.3,9.6.4,14.3.5,1,0,2,.5,3-.3,1.2,1.2,2.1-1.1,3.5-.5-1.4.8-.7,1.9-.4,2.6a26.8,26.8,0,0,0,6.2,9,39.2,39.2,0,0,0,3.2,2.5c1.6,1.2,3.4,2,5.1,3.1.2-.5.4-.8.9-.8s.9.8-.1,1.2c.9,1,2.3.8,3.2,1.8s0-.4.3-.2l4.5,2.3c1.9.9,3.6,2.3,5.8,2.3,0,.6.4.7.9.7v.3l4.9,1.9c.1-.1.4,0,.8.1l6.2,1.5a27.4,27.4,0,0,0,3.9.9c1.6.1,2.9,2.1,5,.9l-.6.8c1.2.2,1.9.1,2.1.8h-1.9c-.3,1.6-.6,3.3-1,4.9s-.8,3.2-1.3,4.7c1.7.4,3.2-.2,3.2-1.1s.3-2.3.4-3.5.9-3.3.6-5ZM71.5,50.6c-1.2.1-2.5.4-3.7-.3s-1.9-.1-3-.1-.6,1.9-.2,2.5a88.1,88.1,0,0,0-1.5,9.7,8.3,8.3,0,0,0,3.5,0c.5-1,.5-2.2,1.5-3-.2,1-.3,1.9-.5,2.8,3.8-.2,6.7-2.3,9.5-4.4s3.3-4.1,4.8-6.4,1.8-3.2,3.8-3.7c.1-.2.1-.4.2-.5,3.9-.7,6.7,1,9,4.8a4.8,4.8,0,0,0,2,3.8c.5-2.8.9-5.5,1.3-8.2s.7-4.6,1.1-6.9.9-6,1.3-9a6.3,6.3,0,0,0-2.1-5.9l.7-.6a5.8,5.8,0,0,1,1.6,1.9c1-.2,1.3.2,1.1,1.1a1,1,0,0,0,.2.9,19.7,19.7,0,0,1,2.8,5.1l2.4,1,1.8.8c.2-3.5-2.5-4-5-4.6a4.5,4.5,0,0,1,.2-.8c1.3-.2,2.2.7,3.5.7-3.9-7.3-8.9-13.6-16.3-17.4A53.8,53.8,0,0,0,73.6,8.5a2,2,0,0,0-1.4-.4,29,29,0,0,0-5.9.9l-7.8,1.6c-2.2.5-4.1,1.6-6.3,2.3a16,16,0,0,0-6.8,3.9c-1.9,2-4.3,3.4-5.8,5.8s-3.2,4.7-4.6,7.1-2.7,6.6-3.7,10.1a13.9,13.9,0,0,0-.5,6.4,36.2,36.2,0,0,1,0,5.7c0,1.5.2,2.9-.2,3.9.5,9.7,4.6,17.1,12.3,22.5.1-1,1.7-1.1,1.7-2.4h.6a2.5,2.5,0,0,0-.2.7l.4.2-1.9,2.1,1.7.9a19.9,19.9,0,0,1,2.9-4.2c-.2,1-.4,1.6-1.1,1.9s-.8,1.7-.8,2.6l-1.1.2a9.4,9.4,0,0,1,3,1.2c1.2-1.9,1.6-4.4,3.9-5.5.2.5-.2.7-.4,1l-2.3,5,2,1c.7-2.3,2.5-4,3-6.4-1,.4-1.4-.8-2.3-.6l-.4-.4a30.8,30.8,0,0,1-6.9-5.7c-1.4.8-1.1,3.3-3.6,3.4.7-1.9,2.3-2.8,2.8-4.4a17.4,17.4,0,0,1-3.3-3.8,15.9,15.9,0,0,1-.8,1.8c-.3.7-1,.6-1.1-.1s.9-1.4,1.7-1.9A22.1,22.1,0,0,1,35.9,56a30.9,30.9,0,0,0-1.8-5.9c-1.2-3.2-.3-6.5-.5-9.8l.5.3c1.2-1,1-2.5,1.8-3.9a3,3,0,0,1-.2,2.8,16,16,0,0,0-1.2,7.8,40.5,40.5,0,0,0,1.5,6,42.8,42.8,0,0,0,1.7,4.6,38.3,38.3,0,0,0,4,6.7l3.1,3.8A20.8,20.8,0,0,0,48,71.8a37.2,37.2,0,0,0,4.5,3.3c.7.4,1.3,1.2,2.2,1.4s.7-1.3,1.5-1.5l-.9,1.9,1.1.7,2-1.3c.2.8-.8.8-.8,1.5s.8.9,1.5.1.5-1.3,1.5-1-1.3,1-1,1.9,2.3.6,2.1-1.3h0c1.2-3.7.8-4.7-2.4-6.8a4.5,4.5,0,0,1-2-4.6c.2-1.8,1.5-2.7,3.3-3s1.5.1,1.6-.8a7.5,7.5,0,0,1,.5-1.6c-.4-.4-.4-.6.1-.8s-.3-.3-.3-.4a43.8,43.8,0,0,0,.8-6.2l-.4.2-5.2-.2c-1.4,0-2.8-.1-3,1.8-.2.1-.3.1-.3-.2a1.1,1.1,0,0,1,.6-1.1l-.3-.8c-.6.5-1.3-.6-1.9.1s.9.9,1,1.5l-.6.4c-.2-.4-.2-1-.8-.9a1.5,1.5,0,0,0,.1,1.3c-.6.1-.4.7-.9,1.6.1-1.8-.8-2.5-2-3.3-.3,1.9-.5,3.7-.7,5.5.1-2-.6-4,.3-6-.5-.3-.8-1-1.5-.6A2.6,2.6,0,0,1,46.6,54c.2-1.1.4-2,.5-3a6.6,6.6,0,0,1-3.5-7.6c.8-3.5,2.8-5.8,7-4.8s5.2,3,5.8,6.4l.6-.2c2.6,1.4,3.6,5.1,7.3,4.6,1.3-5.5,1.7-11.3,3.2-17,0,0-.2-.2-.1-.3a13.1,13.1,0,0,0,.8-4.8c-.1-2,2-4.1-.2-6.1v.2c-4.6-.9-9-1.4-13.4-2.4-1.2,0-2.4-.2-3.6-.1S48,21,46.6,22.3s-.9,1-1.6,1-1.4.6-1.8,1.3-1.1,1.9-1.7,2.9a.5.5,0,0,1-.1.5c-.1.1-.3,0-.4,0,.4-5,5.4-7.4,6.4-12h.8c.1.2.1.4.2.6l.7-.5c-.6-.5-.2-.9,0-1.2s1.5.6,1.7,1.4c6.8-1.2,13.4-2.9,18.9-4.2,9.1,1.3,16.8,3.5,23,9.4C87,19.3,82.1,15,75.6,15.4c-.1.9-.2,1.9-.4,3.1l12.5,2.2v.6l-12.6-2a16,16,0,0,0-.5,2.1c-.1.4.1.6.5.7l11,2.1c1.3.2,2.5.6,3.7.9S78.3,24,77.4,23.3s-2-.9-3.2-.4a35.8,35.8,0,0,1-2,7.8,75.8,75.8,0,0,0,1.3-8.1l-1.8-.2-.6,4.1c-.7-.2-.7-2.7-.1-4s-.6-.5-1.3-.6L64.9,49.6h.9c2,.2,3.9.1,5.7.9ZM125.3,173l.5-.2c2.4-.4,4.8-.2,7.2-.4.6-.1,1.9.9,2.1-.7s.3-.8.8-.8a7.6,7.6,0,0,1-.1,1.5l9.8.2a36.7,36.7,0,0,1-6.6.5c-3-.2-3.4,0-3.4,2.4,3.7-.1,7.5.3,11.2-.2-3.8.9-7.6.8-11.5.8-1,5.9-1.9,11.7-2.9,17.5,0-5.9,1.3-11.5,2-17.4H124.3L121.9,196h-.5c.7-6.6,1.5-13.2,2.2-19.9l-.9.3c-.4,3-.7,5.9-1.2,8.9s-1.4,8-2.2,12c-.1.3,0,1.1-.8,1,1.2-7.3,2.3-14.6,3.5-22.1l-15.7.8c-.3,5.2-.5,10.1-.7,15.1l-.8.5c-.5,1.2.5,2.5-.7,3.6a8.3,8.3,0,0,1-.2-1.3c.2-3.1.5-6.2.5-9.3s.3-5.3.2-7.9a23.9,23.9,0,0,1,.5-5.9,14.3,14.3,0,0,0-.2-6.8c-1.3-4.9-2-9.9-4.7-14.3l-1.1-1.8c-.2,2.2-.4,4.1-.6,6-.1-.2-.3-.4-.4-.4a15.7,15.7,0,0,1,.2-5.3c.7-2-1.4-3.1-1.6-4.8a3.9,3.9,0,0,0-.6,1.7c0,2.2-.4,4.4.6,6.7a30.9,30.9,0,0,1,1.9,8.1,33.6,33.6,0,0,1,.6,11.4c-.6,3.9-1.2,7.9-1.6,11.8s-.8,6.3-.9,9.5-.1,8.9.1,13.4a154.9,154.9,0,0,1,.1,16.7h.6c.6,1.3-.5,1.9-.8,2.8a16.9,16.9,0,0,1-4,6.7.7.7,0,0,0-.2.7c.2.7-.2.9-.7,1.1s-2.2.3-2.8.8-4.4,1.1-5.9,2.9a6.7,6.7,0,0,0-1.9,5.7,12,12,0,0,0,2.6,5.6c.4-.1.6.5,1,.8s-2.6-1.9-.4-3.2c.4.8.6,1.5,1,2.2s.5-1,1.2-.7c-.2-1.5,1.8-.7,1.8-1.8s-1.8-2.4-1-3.6a23.7,23.7,0,0,1,2.2-3.3c.5-.5,1-1.3,1.6-1.3s3.1-2.2,5.1-2.5c0-.2-.1-.3-.1-.5l.7-.3c-.6-.3-.4-.8-.5-1.2s2,.7,2.4-.7.2-2.3.6-3.4a30.1,30.1,0,0,0,1-6c.3-2.9,1.1-5.6,1.1-8.5a30.9,30.9,0,0,1,.1-4.3,3.4,3.4,0,0,0-.8-2.9,2.9,2.9,0,0,1,1.5-4.6c1.4-.5,2.9,0,4.3-.7s3.8-.5,5.8-.8,3.7.5,5.4,1.2,3.2,1.8,5.2,1.7a34.7,34.7,0,0,1,5.6-.1c3.8.5,5.8,5,3.7,7.9.4.4,1.2-.1,1.3.7-1.6,1.4-4.1.2-5.8,2,2.4.6,4.1-.8,6.3-1.8a8,8,0,0,1-4.4,2.6,13.3,13.3,0,0,0,4.3.4c-.4-1.1,1-1.2,1.2-2s-.1.6-.2,1c2,.2,3.7,1.4,5.5,2.4.1-.7.3-1.4.4-2.2l-5.1-2.6-.4.7c-.5-.2-.2-.6-.3-.9s-1-.2-.5-.9l.8.4c.2-1,1.5-1.8,0-2.8s0-.5.4-.6a1.3,1.3,0,0,0,.8-1.9c-.7-1.1-.3-1.1.6-1.1a1.9,1.9,0,0,1,.5-1.4l-1.3-.6a.7.7,0,0,1,1.1-.4c.8-.6.4-1.7,1-2.4a17.2,17.2,0,0,1,4.3,2.1c.4.2,1.1.6,1.3,0s1.1-1.6-.1-2.1-2.9-1.4-4.6-1.2-.2,1.1-.8,1.2l.6-3c.7.2.3.8.6,1,1.9-.3,3.3,1,5,1.6a14.2,14.2,0,0,1,.8-1.8,27.3,27.3,0,0,0-5.5-2.5l.4-.7a24.9,24.9,0,0,1,5.2,2.5,12.2,12.2,0,0,1,.7-1.7c-2-.9-3.9-2-6.2-2.2-.2,1.3-.3,2.4-.5,3.9-.5-.7.2-1.4-.3-1.7.6-2.1-.1-4.4,1.1-6.3a1.8,1.8,0,0,1,.3-1.7,6.7,6.7,0,0,1,1.8-4c-.1-.2,0-.5.2-.9s1.7-2,2.1-3.1a8.3,8.3,0,0,1,2.5-3.3,23.1,23.1,0,0,1,6-3.7,20.3,20.3,0,0,1,5.5-1.5c1.4-.1,2.9.5,4.1-.8s.5,0,.6.1,1.1.5,1.5.7.4-1.5,1.8-1.8l-1.2,1.9a47.5,47.5,0,0,1,9,1.3,1.3,1.3,0,0,1,.4-1.2c.6.4-.2,1,.3,1.5s1,0,1.5.3c.5-1.6.5-1.6,1-1.4a7.8,7.8,0,0,0-.2,1.4c2.2,1.1,1.6-1.6,2.8-2.1s-.6,1.5-.3,2.2a2,2,0,0,0,2.2-2.1,20.3,20.3,0,0,1,.3-4.3c.1-1.1.7-2,1.2-2-.9,2.8-.8,5.8-1.3,8.7l1.1.2.4-.9c.7.3.5.7.1,1.1h1.1c.1-.2,0-.5.3-.5s.1.6.4.7c2.8,1,2.8,1,3.4-.2.1.4.1.8.2,1.2s1.7.8,2.8.2c-1.2-2.6-.4-4.9.7-7.3a11.1,11.1,0,0,0,1.4-2.9c.6-2.6-.1-3.6-3.1-4.2-.4,2.5-.7,5.1-1.1,7.6H190c.1-2.5.3-5,.4-7.6l-9.4-.8-.9,6.8h-.3c.1-2.3.3-4.6.4-7.1-12.8-1.6-25.5-2.3-38.3-3.7.4,1.6-.3,3.2-.3,4.7s-.8,0-.7-.5a11.1,11.1,0,0,0,.2-1.7c-.1-1.3,1-3.1-1.4-3.3-.1,0-.1-.3-.2-.6s1.3.1,1.8.4.1-1.6.2-2.4h-3.2c-.7,5.1-1.4,10.2-2.5,15.3l-.7-.5c1-5,1.7-9.9,2.2-14.8l-.4-.2c-2.9,0-5.7-.5-8.5-.7-.6,0-1.5-.5-2,.1s-.4,2.1-.7,3.2h1.9v.2l-2,.2-3,17.9c.7.3.9,0,1-.4s.3-2.2.5-3.2.7-4.1,1.2-6.2a53.6,53.6,0,0,1,1.4-5.4c.8.6.1,1.2,0,1.7-.5,2.4-1.1,4.9-1.5,7.3s-.8,2.6.1,4c-1.1.5-.5,1.5-.7,2.3l10,.2c0-.9.1-1.6.1-2.1l-9.4-.4ZM59.9,133.9l-1.2.3c-2-.3-3.9-.7-5.9-.9s-1.9-.9-1.8.9a52.4,52.4,0,0,0,7.9,1.5c0,.2.1.4.1.6-2.8.3-5.4-1-8.5-.7-.1.6-.2,1.5-.4,2.4s.1.9.7,1c3.1.5,5.6,1.8,7.2,4.7.6-.3.4-.9.7-1.3a1.1,1.1,0,0,1,1.5-.4c-1.9,2.4-.6,4.1,1.3,5.8.2-1.4.3-2.7.6-4s.3-2.7,1.7-3.7c-.5,3-1,5.9-1.5,9.1l3.1-1.5c.2-.1.2-.4.2-.6s-.1-3.3-.1-4.9-.4-2.6,1.6-3.2a57.1,57.1,0,0,0-.9,8.2,1,1,0,0,0,1.1-.7,16.8,16.8,0,0,0,.4-5.5,1.9,1.9,0,0,1,.7-1.4c.4-.4.8,0,1,.2s1.4-1.4,1.6-2.4,1.5-.2,1.1.9.8-2.2,1.9-.4h1.5a5.9,5.9,0,0,0-.1-1.1c2.8,1.2,5.2-1.1,8-.3,0-.2.1-.3.1-.5l-4.1-.7a24.2,24.2,0,0,1,14.4,3.1,1.7,1.7,0,0,0-.2.5c-2.1-.7-3.9-1.8-6.2-2.1a2.8,2.8,0,0,0,1.2,1.2l.8-.3c.8,1.1-1.8,2.2.4,3.1H88.7c-.1,1.1-.3,2.2-.4,3.2l2.1,1.2c.2-1.8.5-3.5.7-5.4l-1.1-1c1,0,1.3,1.3,2.4.8a2.2,2.2,0,0,0,1.6,1.9c9,8.9,12.1,20,13.2,32,2.5.2,5.5-.3,8.5.5-.2.1-.3.3-.5.3a32.3,32.3,0,0,1-7.6.3c-1,0-1.4.5-1.1,1.6,5.3-.5,10.6-.6,15.8-.7.2-1.3.3-2.4.5-3.5s.7-3.7,1-5.6.9-5.3,1.4-7.9c.1-.8-.2-1-.7-1h-4.9a2.7,2.7,0,0,1-2.6-.8l8.3.3a8.3,8.3,0,0,0,.6-3.2c-3.4-.7-7.1.1-10.6-1.5,1-.7,1.4.2,2,.2s3.8.4,5.6.3,3.5,1.3,3.8-1.7c.9.6-.2,1.3.3,1.9l10.7.9c1.6-6,2.3-12.1,3.5-18.2l-13.3-1.5-.3.7c.1.5.8.5.6,1s-.6,0-.8.1a1,1,0,0,0-.2.8c-1.1,4.5-1.4,8.9-2.4,13.2,0-1.2.2-2.4.2-3.6a73.7,73.7,0,0,1,1.1-9.3c.3-2-.5-3.3-2.2-2.9a3.2,3.2,0,0,0,1,2l-.4.6c-.5-.1-.2-.9-.8-.9a8.4,8.4,0,0,0-.8,5.3c-1.6-1.2-.1-3.1-1.3-4.4a8.3,8.3,0,0,0-.2,1.3c-.7,0-1-.1-.8-.8s.4-1.1.2-1.3-1.7-2.7-3.2-3.3a5.5,5.5,0,0,1-3.2-3.6c-.8-2.1-1.6-4.1-.5-6.4a15.6,15.6,0,0,1,2.3-2.8c1.2-1.3,3.6-2,4.6-1.4a6.6,6.6,0,0,1,2.8.1c3.4.9,4.8,4.1,7.1,6.2s1.4,1.7,2.2,2.5l-.4.2-2.6-2.5c-.3,3.3,1,4.8,3.9,5.2l7.3,1.1c1,.2,1.1-.4,1.1-1.1a22.2,22.2,0,0,1,.7-5.7c.2-.7.3-1.5-1-1.3h-2.4v-.2h.3c2.1.1,3.6-.2,3.2-3s1-3.2-.1-4.8l-4.4.2c-2.7,0-5.4.2-8.1,0s-7.3-.6-11-.9l-10.1-.7a18.4,18.4,0,0,0-3.3-.3l-9.5.4h-9c-.8,6-2.6,12-3.6,18.2-.4,0-1,.1-.8-.6l1.2-6.2,2.1-11.6-31.4-.3-.3,2.9c9.4.3,18.6,1.4,28,1.3a1.6,1.6,0,0,1-1.5.9l-8.5-.2-17.5-1.1c-.6,0-.8.1-.9.7-.7,3.1-1.4,6.1-2,9.2s-.7,3.3-1,5l5.3,1,3.2.7Zm45.5-54c9.5-1.3,19-3,28.6-3.6h-.5c.7-1.9.8-5.9.2-6.2a32.6,32.6,0,0,1-7.6.4c2.6-.4,5.1-.6,7.7-.8.4,0,.8-.2.8-.6s.3-2.7.5-4.4l-24.5,1.6c-.5.5-1.3-.2-2.1-.4l1.7-.3-1.6-.8V63.7a11.3,11.3,0,0,0,7.2.9,37.9,37.9,0,0,0,6.8-2.6c0,.1,0-.1.1-.3s2.3-1.8,3.9-1.7L125,61c5.2-2.4,10.2-5.2,15.8-6.6a7.5,7.5,0,0,0,.2,1.1,3.7,3.7,0,0,0,1.8.1c.1-.9.3-1.8.4-2.7s-.7.1-.8-.2c1.6-2,4.6-1.8,6-4.2a.9.9,0,0,1,1.1.2l.7-.3a6,6,0,0,0-1,3.1l5.7-.2c-.1.3-.1.4-.2.4a40.7,40.7,0,0,1-4.9.5c-.7,0-1,.3-1.1.8a5.2,5.2,0,0,1-.4,2.1c-.2.3.2.5.5.4a10.2,10.2,0,0,1,3.9-.1c.4,0,.9-.3,1.4.2-1.3.5-2.5.3-3.7.5s-2.6-.6-2.3,1.6c5.5-.4,11-.1,16.6,0a1.5,1.5,0,0,0-.6-1.1,10.1,10.1,0,0,1-1.9-1.7c-2.3-2.5-2.9-5.7-3.3-9-.2-1.8-.3-3.6.8-5.2a24.5,24.5,0,0,1,1.8-2L159.2,40c-4.4,1.7-8.7,3.6-13,5.6a143.5,143.5,0,0,0-16,8.4c-3.8,2.4-7.7,4.7-12.2,5.7-1.4.3-2.8,1.2-4.3.9a11.2,11.2,0,0,1-3.5-1.2l.7.9c-.3,1.1-1,.7-1.7.3-.9,1.1-2-.9-3,.3a2.5,2.5,0,0,1-2.1-1.6,14.2,14.2,0,0,1-.6-4.6c.2-2.3-.1-4.6.8-6.8s0-4.2,0-6.1.3-1.6-.1-2.3.1-1.8-.9-2.2a10.8,10.8,0,0,0-1.9-6.4L95.7,69c.3-.1.9.4,1.2-.3l.7.4a.7.7,0,0,1-.8.5c-1.3-.4-1.7.2-1.9,1.4-.5,2.7-1.2,5.3-1.8,8s-.8,4.5-1.1,6.8h1.6c1.5-4.1,1.8-8.4,3.7-12.3-.4,4.1-1.6,8.1-2.5,12.2L138,81.9l.9-5.8a16.3,16.3,0,0,0-4.8.7c-9.8,1-19.2,2.5-28.7,3.1ZM78.6,101.7a37.1,37.1,0,0,0-5.8.2l-5.9.7-6.1.7c-.3,0-1,.3-1-.7-.6,1-1.6.8-2.6,1s.5-.3.3-.6H57c2.2-1.8,4.6-3.2,6.2-5.5S66.4,93.2,68,91c-.7-.3-.3.5-.6.5s-.6-.3-1-.4a2.5,2.5,0,0,1-3.1.1c.4-.3.7-.6.2-.9a2.3,2.3,0,0,0-1.9,2.6,3.7,3.7,0,0,1-2.2,3.2c-.3.2-1-.1-1.2.2A48.3,48.3,0,0,1,54,100c-1.6,1.4-3.2,2.9-4.9,4.2a39.5,39.5,0,0,0-3.7,3.3c-1.7.7-2.7,2.5-4.4,2.9a30.3,30.3,0,0,1-6.2,4.4c.1,1-1.3,1.2-1.6,2.4,1.5.2,1.5,1.6,1.9,2.6l4.2-2.6c2.2-.9,3.7-2.8,5.7-3.8.4-.2.1-.5.1-.9s1.3-1,2.3-.8a6.4,6.4,0,0,1,.2.7l3.3.3a1.3,1.3,0,0,0,.1.5c1.5-1.6,1.1-3.5,1.6-5.4a1.8,1.8,0,0,1-1.5.8c.5-1.2,1.7-1.6,2.5-2.9.1,1,0,1.5-.3,1.8-.3,1.9-.6,3.5-.9,5.3.6-.1,1.6.5,1.9-.2s.7-3.2,1.2-4.8-.4-2,1.1-2.1c-.5,2.4-.9,4.8-1.4,7.3H86.5c.6-4.2,1.1-8.3,1.7-12.3-1.9.2-3.9.3-5.7.6s-3-.3-4,1.1a2.5,2.5,0,0,0,.1-.8ZM18,146.2c-1.7-1.4-3.2-2.7-2.8-5.2.5-.2,1.2-.3,1.2.4s.8,2.1,1.5,3,.9-.7,1.2.1.3.7.8.8l3.3,1.2c1.5.5,2.6,1.7,4.2,1.6s1.7.7,2.5.9a6.6,6.6,0,0,0,5.3,1.2l.3.5c3.2.2,6.4.3,9.4-1.2a5.2,5.2,0,0,1-1.2-1.8c-.3-1-2.1-1-1.7-2.6-2.7-2.2-3.8-5.2-4.4-8.6a5.6,5.6,0,0,0-2-3.5,2.6,2.6,0,0,1,.4,1.9l.9.9c-.1.4-.2.5-.6.5l-.6-.5c0,4.6-1.4,8.8-1.9,13.1-.6-1.6-.3-3.1-.2-4.7s.7-4.6,1.1-6.9.2-3.3-1.2-4.4c-.8,1,.5,1.4.6,2.2h-.9a2,2,0,0,1-.5,1.5c-.5-.3.3-.7,0-1l-.9.3a24.8,24.8,0,0,1-4.8-6.7c-.7,1.3-.1,2.5-.6,3.7-1-.6-.6-1.8-1.2-2.7-2.9,2.1-6.6,3-8.9,6.1-.3-2.8,2.3-3.5,3.7-5a9.4,9.4,0,0,1,5.4-3.2c-1.1-1.6-1.1-3.2-1.3-4.8l-.7.9c-2.6,1.9-5.3,3.7-7.7,5.8s-4.9,3.3-5.6,6.6C9.8,137.8,9,139,9,140.4s-.4,3.3,0,4.8a14.9,14.9,0,0,0,6.7,8.3,10.6,10.6,0,0,0,4.1,1.5c-.3-2,1.7-4.3-.8-6.1-.4.4-.7.6-1.2.4a4.9,4.9,0,0,0-.1-1.1c-.7-.1-.9-1.2-1.9-.9a3.9,3.9,0,0,0,2.3,2.7l-.2.8a8.3,8.3,0,0,1-3.3-2.2c-.6.4-1.1.2-1.7-.2l1.1-.6-1.1-2c-.8.6-1.4,1.6-3,1.2,2.9-1,2.4-3.7,3.1-5.7h1.3c-1.8,2.2-.3,3.7,1.1,5.6-.1-.9-.1-1.4-.2-2s1.5,1.4,2.5,1.7l.3-.5Zm185.8-5.4a37.3,37.3,0,0,0,3,2.6c1.9,1.7,3.6,4.3,2.8,7.1,0,.2,0,.5.1.5,1.6.7,1.1,2.5,2,3.5a.8.8,0,0,1,.1,1.3l-1.4-1.8c-.2,1.6.7,3.1,1.8,2.8l.6-5.5a9,9,0,0,0-3-1.2c.5-.2.7-.4,1-.3a16.8,16.8,0,0,0,5.5.3c1.4-.2,2.7-.3,3.6-1.4s.3-.5.6-.4.6.2.7.6a6.9,6.9,0,0,1-.1,2.5c-.2,2-.5,4.1-.7,6.1l6.5.6a85,85,0,0,0,.6-11.2c-1.1.2-1.8.5-1.6,1.7a10.5,10.5,0,0,1-.1,2.5,23.2,23.2,0,0,1-.6,2.7c-.7-2.2-.2-3.9-.6-5.6l-2.7.6c-.1-.2-.1-.5-.2-.6,4.1-1.9,7.9-4.9,12.8-2.7l-.6-.6c1.7.5,2.4-1.3,3.7-1.5s.6,1.5,1.2,1.3l-.4-.5c-1-1.5-1.8-3.2-3.5-4.1-3.8-1.9-7.5-1.1-11,1-5.1,3-10.5,3.8-16.1,1.4l-4-1.7Zm3,12.3c2.1-3.2,1.9-5.8-.3-8.1s-3.9-3.4-6.8-2.8c-.5.1-.9.3-1,.8a1.5,1.5,0,0,0,.4,1.4c1.7,1.6,3.7,3,3.3,5.2s-3.3,4.1-5.1,5.9c-.6-.6-.9.4-1.4.6s-3.4,2.8-1.5,4.8,3.1,5.8,1,9.1l-.8,1.3c-1.1,1.8-.6,3.5.2,5.3a4.1,4.1,0,0,0,4.7,2.5l.4.5a15.1,15.1,0,0,0,2.9-1.3c1.2-.9,1.4-2.3,2.1-3.5,1.7-2.9,1.7-5.7-.8-8.5a8.4,8.4,0,0,1-2.1-3.8c-.4-1.9.7-3.5,1.7-5s1.5-1.3,1.6-2.3l-1.7-.7c2.3-2.5,2.4-5.5,1.5-8.4a1.4,1.4,0,0,1,1.6.5c.9,1.8.7,3.9.1,6.5Zm-151-8.4a3.2,3.2,0,0,0-2.3-3.3c-1.2-.5-2.6-.5-3.8-.9-3.2-1.1-4.2-3.7-4.5-6.8s-.2-3.4-1.3-4.8-4.1-3.3-6.6-4.2a5.3,5.3,0,0,1-3.9-4.6c-.1-.8-.1-1.4-1-1.7s-5.4,1.3-6.1,2.8l.6.7c-1.1,1.1-.5,2.3-.2,3.5s1.7,3.3,4,3.4c4.1.1,6,1.5,7.5,5.4.8,2,.9,4.2,1.8,6.1a9.9,9.9,0,0,0,4.5,4.3c1.8.9,3.7.7,5.6.8l4.6-.2c-.1-.3-.1-.6-.2-.9l.6-.2.7.6Zm163.4,28.1c3.9-.4,7.7,0,11.7.1l-.6-1a1.2,1.2,0,0,1,1.7.4c1,1.3,2.2.3,3.4.6-.8-2.1-2.5-3.4-3.4-5.2,2.9-1.4,2.7-4.6,4.2-6.8h-.7a1.3,1.3,0,0,0,.4-1.3l-8.2-.3c0,1.1-.1,2-.1,3h-.2l-.3-3.2-6.3-.5a29.7,29.7,0,0,0-.7,5.9l10.7.5c-3.6,1-7.2.2-10.9.4-.2,2.4-.5,4.9-.7,7.5ZM146,68.2,169.2,67c-1-2.7-1.4-5.5-2.9-8.1.3,1.7.5,3.4.8,5.4-1.7-1.7-1-4-2.2-5.5a121.6,121.6,0,0,0-17.1.2c-.8,3.1-1.3,6.1-1.8,9.2Zm26.6-10.7a6,6,0,0,0,.8.8c1.5.8,2,2.3,2.8,3.7s1.3,3.6,2.7,4.9a1.6,1.6,0,0,0,2.6-.2c.8-1.4.5-3,.4-4.5-.3,1.7-.3,3.6-2.7,4.1-.7-.4-.7-1-.3-1.7s.7-.7.8-1.2a7.8,7.8,0,0,0-.4-4.8c-.8-2.4-.7-5.4-3.9-6.3-.2-.1-.3-.4-.4-.6,1.7-1.8,2.6.1,3.6.8a4.8,4.8,0,0,1,2.2,3.3,5.5,5.5,0,0,0-5.6-5.4,14.3,14.3,0,0,1-3.6-.1c-3.5-1.2-5.4-4-6.6-7.4-.3-.8-.2-1.9-1-2.5s-3.8,1.6-3.6,2.7a42,42,0,0,0,1.1,7.1,8.9,8.9,0,0,0,1.8,3.8,8.1,8.1,0,0,0,3.9,2c1.9.4,3.6,1,5.4,1.5ZM49.8,132l4.4-14.5c-1.3-.2-1.8-.5-2.4-.2a12,12,0,0,1-.6,1.2c0-.7.1-.9.1-1.2a16.2,16.2,0,0,0-3.1-.2c-2.3.2-4.8-1.2-7,1s-3,2.8-3.9,4.8a38.2,38.2,0,0,1,5.4,2.6c1.8,1.1,2.8,2.8,3.9,4.8q1-2.4,2.1-4.5c-.6,1.8-.6,3.8-2.1,5.2.1.2.1.4.2.5l3,.5ZM95.4,70c-2.5.2-4.3.5-6.2.1s-2-.7-2.4.6-.7,3.6-1.1,5.4c-.7,3.7-2.1,7.2-2.6,11.1l6.2-.5a2.1,2.1,0,0,0,2.4-2.1,9.9,9.9,0,0,1,.2-1.8c.7-1.3.5-2.8.9-4.2S94.5,73,95.4,70Zm24.9,143.4c2.9-.4,5.7-1.1,8.6-.5s2.4-.1,2.7-1.6a3.1,3.1,0,0,0-.7-3.2c-1.7-1.5-3.9-1.4-6-1.1s-3.8.3-5.3-.7c-3.4-2.2-7-2.4-10.8-1.7-1.5.3-2.9,1.1-4.5.9s-1.8-.2-1.9.8-.5,1.7.2,2.7a9.3,9.3,0,0,0,.5-1c.6,0,.5.5.7.8a8,8,0,0,0,3.7-.8c3-.9,5.2.3,7.3,2.2s2.3,2.5,4,3.1,1.1-.7,1.5.1Zm58.8-55.7-36.2-3c-.1,1-1,1.7-.4,2.5l36.4,3.3a24.6,24.6,0,0,0,.2-2.8Zm-51.5-31.8.6-1c-.9-3.2-3.5-5-7.4-5.3-1.8-.1-4.6,1.9-5.4,3.9s.2,5.3,1.9,6.5,2.6,1.9,4.3,1c.9,1,1.9.6,3,0s1.9-1,1.5-2.6l.9.7c1.2-2,1.3-2.4.6-3.2Zm107.7,22.4c-.8.2-1.1,0-.7-.7s-2.3-1.4-3.8-1.4-.2,1.9-.4,3.3a7.5,7.5,0,0,1-.1-3.3l-1.3.2a82.3,82.3,0,0,1-1.1,11.9l8.3.4a17.6,17.6,0,0,0-.9-10.4ZM92.3,67.6a13.3,13.3,0,0,0-4.5.5l-.5,1.1,7.6.3c.9-4.3,1.5-8.5,2.1-12.7-.8.2-.9-1-1.8-1.1a7.8,7.8,0,0,1,.5,1.4c.3.9.3.9-.3,1l-1.6-1.6-.9,1.2c-.3,1.5,1.7,1.7,1.2,3.4l-2.4-1.9c-.2.2-.6.5-.6.8s1.5,1.6,1.9,2.7l-.9.2c-.3-.9-1.4-1.2-1.7-2.2s-.3,1.1-.9,1.2.6,1.5,1.4,1.9c-.9,1.2-1.2-.3-1.8-.4l-1.2,3.7c1.5.3,3-.1,4.4.5Zm81.1-18.4.6-.3c2.8-.1,6.2.9,7.5,4.4a.9.9,0,0,0,1,.7h2.3c1.6-1.6,1.5-3.5,1-5.4s-.1-1.4-1-1.5-4.4-.6-6.6-.4c-.1.6-.1,1.2-.2,1.7h-.1c-.1-.6-.1-1.1-.2-1.7l-5,.2c-.6,1,.2,1.6.7,2.3ZM59.6,15.5l9.9,1.8V14.5c-1,.2-1.2-1.2-2.1-1-2.9.5-5.7,1.7-8.7,2a3.5,3.5,0,0,0,.6.9c-1.7.9-3.6.8-5.4,1.4.6.1,1,.6,1.6.2l.2.4,6.7,1,6.7,1.1.3-2.5c-3.2-1.1-6.5-.8-9.7-1.5a5.1,5.1,0,0,0-.1-1ZM54.4,43.2c-1.3-3.3-4.7-3.4-7-2.7s-2.7,3.1-1.9,5.8a3.8,3.8,0,0,0,4.9,2.4c1.5-.5,2.4-1.9,3.5-2.9s0-1.4,0-2.2l.5-.4ZM217.1,180.7c.1,2.6-.7,5,.7,7.4.1-2.5-.7-5,.2-7.5l.8,1.1a7.6,7.6,0,0,1-.4,1.1c1.4-.2.3-1.7,1.4-2l.6.9c1.8.1,5.6-2.7,6-4.4l-7.5.3-.4.8c0-.4-.1-.7-.1-1s-2.6-.4-3.9.2c.2,2.9-.3,5.8-.3,8.6a1.5,1.5,0,0,0,.4,1.6c.8-1.9-.1-4.1,1.1-5.9l.4.5a2.6,2.6,0,0,1,1-1.7Zm-77.8-32,.5.2a9.9,9.9,0,0,0-.7,4.9H142c.5-6.1,2.1-12,2.2-18.2-.7.3-1.5-.6-2,.1a10.4,10.4,0,0,0-.8,2.5c-.3,2-.4,4.1-.8,6.1a30.6,30.6,0,0,1-1.3,4.3Zm-3.4-83.9c.3,1.6-.6,3-.7,4.7l5-.7c.8-1.5.6-3.2,1-4.7s.6-3.2.9-4.9h-1.9c-.4.6-.1,1.4-.8,1.7s-.3-1-.3-1.5c-1.9-.4-2.9,1.6-2.3,5l-.9.3Zm-3.2-5.1c-4.1,1.2-7.5,3.8-11.4,5.3l9.1-.5c-.2.1-.1-.1.1-.1a19.4,19.4,0,0,0,3.4-.2c.5-.1,1.2.2,1.5-.5l1.4-3.7c-3.4-1-2.9,1.4-3.6,2.8-.8-.9-.3-1.9-.5-3.1Zm96.8,113.8H219a19.7,19.7,0,0,1-.3,2.4c-.3,1,.3.9.9.9s3.5-.1,5.2,0,3.3-.1,3.8-2.2c1.2,1.7,3.3,2.7,4.2,2s-1.2-3.2-3.3-3.1ZM141.1,68.7h2c.7-.2,1.8.4,2.1-.6a35.5,35.5,0,0,0,.8-4.7c.2-1.4.8-2.8.7-4.3l-3,.3c-.9,3.2-1.8,6.3-2.6,9.4ZM59.3,149.8l-3-2.8c-.3.6-.3.6.2,2.7l-.5.5a3.1,3.1,0,0,0,.1.9l-1.1-.5a1.9,1.9,0,0,0-1.9-2.6c.1,1.2,1.3,2,1.6,3.3-1.3-.3-1.3-1.5-2.2-2,0,1.1-.8,2-.3,3.2s-.2,1-.5,1.5.2.8.4,1.2c3.1-2.1,6-4.3,9.5-5.7a1.7,1.7,0,0,0-.1-1.4c-1.1-.1-1.5-1.3-2.5-1.9a3.3,3.3,0,0,0,.9,3c-.3.1-.4.3-.6.6Zm80.8-80.2a13.3,13.3,0,0,1-2.8.3c-1.6-.2-2.4.3-2.5,2s-.4,3-.6,4.5a18.3,18.3,0,0,1,3.2-.2c1.5.1,2.2-.6,2.2-1.9s.5-3,.5-4.7Zm38.1-23.5,6.6.5a18.7,18.7,0,0,0-2.5-4.4,7,7,0,0,0-4.5-2.5c.1,2.1.2,4.2.4,6.4ZM98,255.5c.6-1.8.1-3.8.8-5.1-2.1-.6-4.3-1.3-6.6-1.8-.7-.2-1,.9-1.4,1.5a.5.5,0,0,0,.3.7l1.8.8c.2-.9.3-1.8,1.1-2.3.6,1-2.3,2.9,1.2,3.1-1.8-.4-2.2.9-2.7,1.7l2.4.9a7.8,7.8,0,0,1,1.7-5,13.3,13.3,0,0,0-.6,5.3c.8-.1,1.3.5,2,.2Zm43.6-123.7-11.2-1.6a1.2,1.2,0,0,0,1,1.1,3,3,0,0,0,.3-.9c.2,1.2,1.2.9,2.2,1.4-1.9.9-3.7-.1-5.9.4,4.6,1.9,9,1.1,13.1,2.2a4,4,0,0,0,.5-2.6Zm74.2,33.1-3.3-.2a25.5,25.5,0,0,0-1.4,7.7l3.5.2,1.2-7.7Zm-26.3-21.1c.1.7-.5,1.3-.7,1.9l-1.5,8.1c-.1.3-.2.8.3.8s1.6.4,1.9-.2a34.3,34.3,0,0,0,1.1-4.6c.3-1.9.5-3.8.7-5.8l-1.8-.2ZM169.8,67.1c1.9.4,4.3-.8,4.4-2.2a3.5,3.5,0,0,0-2.9-3.7c-.1,1.5.7,3.1.2,4.6-.4-1.1-.2-2.3-1.1-3.3s-.5-2.4-2.1-2.2c.6,2.3,1.1,4.6,1.5,6.8Zm45.5,105.5h3.3c.2-2.4.5-4.8.7-7.2l-.4-.4-2.5-.2c-.4,2.5-.7,5-1.1,7.7Zm-31.1-18h2.2c.6-3.8,1.2-7.4,1.9-11.1a4.3,4.3,0,0,0-2.1-.6,52.1,52.1,0,0,1-2,11.7ZM170.1,77.2l-4.5-1.9c.4-.9,1.7-.7,2.8.2a3.4,3.4,0,0,0,4.7-.2c-5-1.9-8.1-1.4-10.2,1.5l3.7,1.5c1.5.8,2.5,0,3.5-1.1Zm46.3,80.7h-2.3c-.7-.1-1.1-.1-1.2.8s-.3,3.3-.5,5.1l3.4.2a37.1,37.1,0,0,0,.6-6.1Zm-8.2,8.1c.3,1.8-.6,3.4-.5,5.1s1.3,1.4,2.5,1.3c.4-2.6.8-5.2,1.1-7.7a4.5,4.5,0,0,0-2.3-.1c-.5.4-.3,1.2-.8,1.4ZM51.4,116.1a5.3,5.3,0,0,1,.2-2.6,7.5,7.5,0,0,0-8.2,1.6h1.1l-.7.7,7.6.2Zm140.5,38.7c.7-3.3,1.3-6.6,2-9.9l-1.4-.5c-.4-.1-.6,0-.7.4,0,3.4-1.2,6.5-1.7,9.8a3.3,3.3,0,0,0,1.8.2ZM103,250.9l-2.2-.6c-.8-.2-1.3,0-1.4.9s-.3,3-.5,4.5.9.5,1.2.4,1.9.6,2.1-.3a20.9,20.9,0,0,0,.8-4.9Zm28.5-11c-.7-1.2-1.9-1-3-1.2s-1.2-.5-1.6.1.4.7.7,1,3,3.2,4.1,5.4a22.7,22.7,0,0,0,2.7-5.4c-.5-.4-1-.6-1.5-.1s.9,1.1.4,1.9-.6-.5-1-.6-.7,1.3-1.6,1.7a9,9,0,0,1,.8-2.8Zm52.1-85.5c.7-3.4,1.7-6.7,1.7-10.2,0-1.5-.3-1.9-1.3-1.7-.6,3.9-1,7.9-1.8,11.8.5.5,1,.1,1.4.1Zm-77.8,96.8a2.8,2.8,0,0,0-1.8-.2c-.7,1.5-.3,3.1-.6,4.6s.2.5.4.5a4.4,4.4,0,0,0,2.2.3c.6-.2,2.1.9,2-1s-.2-2.9-.4-4.3-1.2,0-1.3.8,0,2.3,0,3.5-.3.9-1,.7-.1-3.2.5-4.9ZM64.2,50.2c-1.4-.6-6.9-1.1-7.5-.6a8.3,8.3,0,0,0,1.9,2.3l-.8.5,6,.2a17.2,17.2,0,0,1,.4-2.4ZM210.5,181c.7.2.1.7.2,1.1s.6.5.9.4.3-.9.4-1.4.1.9.1,1.3a.6.6,0,0,0,.8.3.7.7,0,0,0,.4-.7,13.5,13.5,0,0,1,.5-2.9c.1-.6.4-1.4-.2-1.6s-2.7-.5-3.1.3a9.6,9.6,0,0,0-.9,4.5c.9-.2.4-1,.9-1.3Zm3.4-29.8c-.6,1-.2,1.9-.3,2.8-.6,3-.6,3,2.3,3.2.5,0,.7-.1.7-.7a38.7,38.7,0,0,0-.3-4.8c-.7-.5-1.6.5-2.4-.5ZM142.7,131c1.3.6,2.4.2,2.4-.9s.1-4.4.1-6.7c-.6.1-1.2-.3-1.5,0-.3,2.7-1.1,5.1-1,7.6Zm65.6,47.3a1.7,1.7,0,0,0-2.3-.4,7.1,7.1,0,0,0-1.7,2.1l-.7-.4.6,1.6c1-.9,2.2-1.6,2.9-3,.4,1.6-1.1,2.2-1.2,3.4s.5-.8,1.1-.7c-.1,1.6,1.1.9,1.8,1.2.3-1.5.5-3,.8-4.3s-.8.5-1.3.5ZM63.4,73.5c-.3,2.1-.7,4.2-1,6.2l.8.2c1,.4,2.2,1.3,1.8-.9,0-.2.1-.5.1-.8s.7-2.3-.3-3.4l-1.4-1.3Zm125.8,85.4c-.1.4.2,1-.7.9l.3-1.1h-2.1c-.2.9-.3,1.8-.5,2.7,1.4,0,3,.6,4.8.2-.5-1.1.8-3.1-1.8-2.6Zm-3.7,2.4a8.6,8.6,0,0,0,.4-2.8,4.3,4.3,0,0,0-2.3-.2,4.3,4.3,0,0,1-.1.5l-.6.2a3.1,3.1,0,0,0,.1-.9c-2.5-.3-1.1,1.9-1.9,2.7a13.5,13.5,0,0,0,4.4.5ZM28.7,158.5c-.7-2.7.3-5.2.2-7.8l-1.1-.4c-.1,2.3-.9,4.3-1,6.4s.8,1.7,1.9,1.8Zm168.7-13.2c-.5,2.8-.9,5.6-1.4,8.7,3-1.8,1.5-5.3,3.5-7.2-1.1-.1-1.5-1-2.1-1.5Zm-61.8,78.6c.3-.6.1-1.4.8-1.8s-1.4-1.6-2.8-1.4l-.6,4.7c.6.3,1.1,1.1,2.2,1.1l.3-1.6c-.4-.8-1.3-.6-2-1s1.4.2,2.1,0Zm5.4-8.4c.1-.9.8-1.9.3-2.3a9,9,0,0,0-4.4-2.1l-.6,2c1.6.5,2.9,1.7,4.7,2.4Zm-32.4,35.6c-.2,1.8.3,3.5.3,5.4.7-.4,1.9.5,2-.4a33.3,33.3,0,0,0-.2-5.4l-2.1.4ZM157.2,92c-.9-.7-2-1-2.9-1.6s-2,.3-2.7,1.2c1.4.9,3,1.3,4.2,2.5.4-.7.9-1.4,1.4-2.1Zm61,84.6c.1-1.1.1-2.2.2-3.3h-3.2c-.2,1.1-.3,2.2-.5,3.4ZM51.8,155.2c-1.3-.5-1.3-1.5-1.2-2.4s-.4-2-1.5-3.1c.2,2.7-.7,4.9-.4,7.4l3.1-1.9Zm173.9,24.9c1.4,1.8,1.3,4.1,1.8,6.2a2.6,2.6,0,0,0,1.9-1.6c-.8-.1-.5-.6-.5-1h-.7a6.9,6.9,0,0,0-1.4-4.7c-.1.6-.9.4-1.1,1.1Zm-15.6-22.5c.2.8-.8,1.5,0,2.2s.5.4.3.8-.6,0-.7,0,.6,2,.5,3.1h1.3c.2-1.7.4-3.4.7-5.1-1,.4-1-.9-2.1-.9Zm-68,52.6c-1.6-.7-2.9-1.9-4.6-2.2l-.6,2,4.5,2.1a10.7,10.7,0,0,0,.7-1.9ZM230,184.4c.9-1.3,2.7-1.5,3.5-2.9s1.6-2.6,2.4-3.9c-1.2-.7-1.3,1.1-2.1.9s-2.1,2.1-1.8,3.8c-1.4-.4-1.6.9-2.3,1.3s-.3.6.3.8ZM105.8,38.8c-1,3.8,2.4,3.2,4.2,4.4.2-1.8-2.5-4.4-4.2-4.4ZM191,183.7c.8-1.7.4-3.4.9-5.2-.9.1-1.5-.6-2.4-.3s0,2.6.2,4-.1,1.8,1.3,1.5ZM147.3,55.8l.3-3.3-2.9.3-1,2.9ZM62.5,80.3a3.2,3.2,0,0,1-.2.6c-1.3-.4-.6,1.3-1.5,1.2L62,83.5c.7-.6.9-1.6,2.1-1.5a5,5,0,0,1-1.5,2l.5.6,3.1-1.9c-1.2-1.2-2.6-1.6-3.7-2.4Zm5.6,5.6a2.5,2.5,0,0,0-1.5-2.6c-.4.3-.6,1.1-1.1.9-1.9,1.3-1.3,2.4-.1,3.4l2.7-1.7Zm75.7,119.2c-1.4-.3-2.5-1.3-3.8-1.8s-.7-.6-1.1-.3a1.2,1.2,0,0,0-.5,1,.8.8,0,0,0,.7,1,29.3,29.3,0,0,1,4,1.9,13.4,13.4,0,0,0,.7-1.8ZM155.5,86.8c2.5,2.1,4.9,2.2,5.7.4s-.4-.6-.6-.6-.8,1.6-1.7,1.2,0-1.2.1-1.8c-1.7-1.4-2.7-.7-3.5.8Zm25.1,67.6c.4,0,.7.1.8-.6.3-2.4.7-4.8,1-7.3a12.3,12.3,0,0,0,.1-4.7c-.8,2.1-.1,4.3-1.3,5.9.5,2.4-1,4.4-.6,6.7Zm60.9,1.4c-1.4-.2-2.4-1.7-4.1-1.3a7.8,7.8,0,0,1,.2,1.6,2.2,2.2,0,0,1,1.2,1.1c.3-.1.6-.3.8.1l-.2.4a4,4,0,0,1,2,1.1,7.7,7.7,0,0,0,.1-3ZM143,207.5l-4.9-2.2c-.1.7-.2,1.1-.3,1.6l2,1.2c2.5,1.5,2.6,1.5,3.2-.6ZM23.2,148.9c-.1,2.6-1.4,5-.8,7.4l1,.4.9-8-1.1.2Zm218,2.5c-1.4.9-2.7.3-4.2.4.6.5.2,1.1.4,1.6s3.1.4,4.4,2.2c-.3-1.7-.4-2.9-.6-4.2ZM109.6,39.9c0-2.1-3-4.5-4.9-4.3.4,2.9,3.2,2.7,4.9,4.3Zm48.7,49.4c-1.4-.1-2.3-1.3-3.7-1.5a2.5,2.5,0,0,1-1.1,1.4c3.7,2.1,4.2,2.2,5.3.7l-.5-.6ZM26.2,149.6c-1.8,2.4-1.1,5.1-1.8,7.6l1.3.6c.2-2.9.3-5.5.5-8.2Zm103.4,84.9c-.5.8-.7,1.6.1,2.3s1.3,1.6,2.4,1.9c.8-2.5.2-3.4-2.5-4.2ZM93.9,142.9c.3,2.3-1,4.8,1,7.1.2-2-.4-4.1,1.2-5.6-.2-.6-1-.6-1-1.5l-.4.5c-.1-.3-.2-.6-.8-.5Zm135.9,38.5c1.4-1.2.9-2.5.3-3.7s-1.2-.2-1.9-.4a7.6,7.6,0,0,0-.4,1.1c.8.9.7,2.2,1.3,3.1l.5-.6a.8.8,0,0,0,.2.5Zm-90.2,41.4a8.1,8.1,0,0,1-2.9-1.2l-.3,2.8L139,226c.2-1.2.4-2.2.6-3.2Zm33-43.1c-.2-1.7-.3-3.3-.5-4.8h-1.4c.1,1.6-.2,3.2.2,4.8Zm-7.5-95.4,4.9-3.7a1.9,1.9,0,0,0-2.9.4l.2.3-.7.4c.3.2.8.2.7.8l-1.9-.6-1.9,1.7c.6.4,1.3,0,1.6.7ZM141,191.5c1.4.6,2.9.7,4.2,1.6l.5-1.5-4.4-1.9a2.7,2.7,0,0,0-.3,1.8ZM92.9,147.6c-.4-2.4.8-4.7-.8-6.7-.1,2.2-1.9,4.5.8,6.7Zm51.5-50.7a28,28,0,0,0,6.8,1.6c-.2-1.5-4.7-2.6-6.8-1.6ZM54.9,77.2c-.9,2.1-1.7,4.2-2.5,6.2l.8.3,3-5.7-1.3-.8Zm15.5,62.7c-.6.1-1.3,0-1.4.9s-.3,2.7-.5,4-.4.8.3.8,1.1-.1,1.2-.8.3-3.3.4-4.9ZM143.5,98a1.5,1.5,0,0,0-.2,1.3c2.2.1,4.3,1.5,6.8.6a28.7,28.7,0,0,0-6.6-1.9Zm92.9,52.5c1.9.2,3.2.7,4.6.1a4.5,4.5,0,0,0-.7-2.5l-3.9,2.4ZM46.6,158c.6-.1,1.4.1,1.2-.7s.2-3.4.3-5.1.2-1-.5-1.3a13.3,13.3,0,0,0-1,7.1Zm98.3,36c-2.7-1.8-4.3-1.8-4.6.1,1.5,0,2.7,1.1,4.3,1.1-.3-.4.1-.8.3-1.2ZM30.6,151.2a38.3,38.3,0,0,0-1.3,7.4l1.4.2c-.4-2.5.9-4.9-.1-7.6Zm112-46.9a19,19,0,0,1,5.2,2.3,10.4,10.4,0,0,0,.4-1c-1.6-1.3-3.8-1.4-5.2-3-.5.6-.3,1.1-.4,1.7Zm12.7-10-4.4-1.9-.5,1,3.5,2.3,1.4-1.4Zm43,58.4c2.9-1.4,3.4-3.5,1.1-5.5-.4,1.9-.8,3.7-1.1,5.5Zm-74.6,64.1c0,.8-.3,2,0,2.2s2.1.1,3.2-.1.1-1.1.1-1.6l-3.3-.5Zm53.1-41.2H175c.1,1.4.1,2.8.2,4.3l1.5.2a17.8,17.8,0,0,1,.1-4.6Zm-57.6,74.9c.7-.3.4-.9.5-1.6-1.9,1.3-4,1.4-6,1.5-.3,1.6-.2,1.8,1,1.2s3-.6,4.5-1.1Zm64-191.3c.8-1.5,1.7-2.8,1.6-4.4l-2.6-.2c.3,1.5.6,2.9,1,4.6ZM133.7,232.7c.3-.8.5-1.5.8-2.2l-1.5-.7-1.5-.5c-.4,1.5.4,2.8,2.2,3.4ZM173.2,72c-1.6-1.3-3.3-1.3-4.6.5,1.7,1.6,3.2.5,4.6-.5Zm44.1,79.6c-.4,1.9,0,3.8,0,5.7h1a21.8,21.8,0,0,0,0-5.1c-.1-.6-.4-.8-1-.6Zm-49.2,22.7c.1,1.8-.1,3.5.5,5.1h1a27.5,27.5,0,0,0-.2-5Zm68.4-10.9c-1.7,1.8-.7,3.2.6,4.8.2-1.3,1.6-2.1.8-3.7-.6.7-.4,1.6-1.2,2s1.5-2.3-.2-3.1Zm-20.1.8h1.4c.4-2-.3-4,.2-6h-1a24.6,24.6,0,0,1-.6,5.9Zm-82.8,69.5-3-1.9c-.5.5-.4,1.1-.6,1.6s1.9,1.4,3,2.1a9.5,9.5,0,0,0,.6-1.8Zm102.3-62.5c1.4-1.8.4-2.7-1.1-4.4-.2.5-1.2.9-.8,1.3s.8,2.3,1.9,3.1Zm-56.1,5c.3,1.6-.6,2.9-.2,4.4s.8.2,1.3.2c.3-4.2.3-4.2-1.1-4.6ZM86.7,67.2c1.3-1.5-.1-2.1-.8-3s-1.9.6-1.5,1.7a1.6,1.6,0,0,0,2.3,1.3Zm26.2,189.2c-.1-1.4.2-2.9-.7-4.1.7-.4.5-1.1.6-1.7s-1.2-.1-1.2.5.2,3.6.3,5.4Zm125.7-85.2c1.5-2.9,1.6-4.2.2-4.9-.6,1.6-1.8,3.2-.2,4.9Zm-14.4,9.9c.5,2.1,1,4.1,1.5,6.3l.9-.5c-.5-2.1-.8-4.2-2-6.1l-.4.3ZM57.4,46.2l-.9,2.5,4.2.3c-.7-1.3-2.2-1.7-3.3-2.8ZM210.7,176.6c2.9.7,3.7.3,3.3-1.5l-1.2-.2-.6.6c-.3-.6-.3-.6-1.7-.3a5.9,5.9,0,0,1,.2,1.4Zm-156.5-63c-1.9-.5-2.3-.2-2.4,2.4,1.8.8,2.7-.2,2.4-2.4Zm90.3,18.2c-.8.3-1.5-.4-2,.2s-.3,1.7-.4,2.5a7.5,7.5,0,0,0,2,.3c.2-1,.3-2,.4-3Zm95.4,34.7a2.9,2.9,0,0,0-1.3-4.6c-1.4,2.1,1.4,2.7,1.3,4.6ZM208,187.3a23,23,0,0,1,.6-2.8c.4-1.4-.2-1.8-1.5-1.7s.3,2.8.1,4.2l.8.3ZM74.8,15.2c-.6-.4-1.2.1-1.7-.7-.2,1.2-.3,2.2-.5,3.3l1.9.3c.5-.9-.3-1.9.3-2.9Zm60,212.6c-.3-.3-.9-.4-.7-1s-1.1-.1-1.5-.4c-.8,2.4-.8,2.4,1.8,3.1.5-.6.2-1.2.4-1.7Zm-19.6,24.7c-1.9.3-2,.7-1.1,3.7l1.5-.3c-.1-1.2-.2-2.3-.4-3.4ZM187.9,50.8l.3,3.5,1.7.3c.4-1.6-.8-4-2-3.8ZM142,187.8c-.7,1-.6,1.2.4,1.4a1.8,1.8,0,0,1,1,.4L146,191l.4-.9a18.5,18.5,0,0,0-4.4-2.3Zm44.7-30.1h2.1l.6-1.9c-.5-1.1-1.5-.4-2.4-.4l-.3,2.2Zm32.5-.2c.8-.2,1.5-5.2,1.2-7.3l-1.2.9a27.4,27.4,0,0,1,0,6.4ZM194.6,180a14.5,14.5,0,0,0-.9,2.2c-.4,1.6.1,2.5,1,2.4a30.6,30.6,0,0,1,.7-4l-.8-.6Zm-8.8-3.2c.4,2.2-.3,4.1.8,6.1.3-2,.5-3.7.8-5.7l-1.6-.4ZM143.7,56.6a2,2,0,0,0-.1,1.5c2.2.4,3.4-.1,3.4-1.7l-3.3.2ZM54.1,49.9c.3,1.8.6,2.2,1.4,1.9a1.7,1.7,0,0,0-.1-.7c.5.1.3.5.4.9a3.6,3.6,0,0,0,2.3,0c-1-.3-1.1-1.3-1.9-1.7s-.3.5-.6,1.1c.5-2.1-.2-2.2-1.5-1.5Zm3.1,28.3c-.6,1.4-1.3,2.7-1.9,4l.8.4,2.3-3.8-1.2-.6Zm48.4-18.8,3.3,1-.8-1.3a2.4,2.4,0,0,1-.3-1.5c-.8.6-1.4-.2-2.2,0v1.8Zm70.5,10.7c-1.5-1-3.2-.9-4,.4,1.4.7,2.8,1.6,4-.4Zm7.7,87.2c2,.7,2.1.6,2.6-1.8-1.5-.3-2.9-.4-2.6,1.8Zm-46.7,75-1.8-1.3c-.6,2.7-.6,2.8,1.2,3.6l.6-2.3Zm45.8-50.9a20.2,20.2,0,0,1,.5-4.3l-1.6-.3a9.8,9.8,0,0,1-.1,4.2l1.2.4Zm-38.8-63a14.6,14.6,0,0,1-.4,4.2h1.6a3.9,3.9,0,0,0-1.2-4.2ZM91.5,248l-2.7-2c-.4.8,1,1,.6,1.9-2.1.6-.6,1.2.1,1.9a4.4,4.4,0,0,1,2-1.8Zm46.4-19.5c.3-.8.5-1.4.9-2.3-1.1.4-1.9-1.4-2.6-.4s.9,1.8,1.7,2.7Zm7.7-46.8-.7.7,4.1,3,.6-.7-1.2-.9c-.2.2-.4.3-.5.5s0-.6-.1-.9a5.2,5.2,0,0,0-2.2-1.7Zm92.1-22.1a9,9,0,0,1,3.3,3.1c-.1-1.1.7-2.2,0-2.9s-2-.3-3.3-.2ZM74.4,19.3c-.5-.7-1.3-.2-1.9-.5s-.6,1.5-.3,2.4l1.9.8c.2-1,.2-1.8.3-2.7ZM184.9,182c.1-1.5.1-3,.3-4.4s-.2-.9-.9-.9a14.5,14.5,0,0,0-.1,5.1l.7.2ZM107.2,45.6c-.6,1.3.2,1.8,1.5,1.9s0-1.3.9-1.3-.7,1.6.6,1.9.1-1.4.1-1.7l-3.1-.8ZM49.1,137.9a8.2,8.2,0,0,0,.6-2.7H47.4c.3,1.2.1,2.5,1.7,2.7Zm139.3,45.4c.2-2,.4-3.8.5-5.3l-1-.5a19.2,19.2,0,0,0-.3,2.2,11.3,11.3,0,0,1,.3,1.8,2.2,2.2,0,0,0,.5,1.8ZM40.5,158c.2.3.5.6,0,.9h1l.6-6.2c-1.2,1.5-.5,3.5-1.6,5.2Zm137.3,18.3a9.5,9.5,0,0,0-.1,4.1h.7c.2-1.4.4-2.7.5-4.1s-.7-.2-1.1-.1Zm-35.4,10.5a26.8,26.8,0,0,1,4.6,2.6l.3-1c-4.5-2.5-4.5-2.5-4.9-1.6Zm-5.2,44.5c.9-1.9.5-2.7-1.4-3-1,1.6.2,2.3,1.4,3ZM207.3,170c.3-1.7.5-3.1.7-4.5s-1.3.8-2,1.1l1.3,3.4Zm-59,9.7,1.5,1.9a2.9,2.9,0,0,0,1.5-1.4c-1-.5-1.6-2.3-3-.5ZM166.9,79.4l-2.5-1-1.3,1c1.7,1.5,2.5,1.5,3.8,0Zm-5.5,4.2-1.9-1a12.1,12.1,0,0,1-1.6,1.6l1.9.9,1.6-1.5ZM117.7,255.4l-.3-3.4-1.4.2c.2,1.2.4,2.4.5,3.5l1.2-.3Zm-25.2-3L90,251.3a9.2,9.2,0,0,0-.3.9c.2.7,1.1.3,1.1,1l-1.3.2,2.5.5a8.8,8.8,0,0,1,.5-1.5ZM219,158.3c-.1,2-.3,4-.4,6,.6-.2,1.5-5.3,1.1-5.9ZM178.9,71.5c-1.5-1.2-2.8-1-3.5.4,1.3,1.2,2.4.4,3.5-.4ZM112.7,213.7l3,1c.3-1.1-.4-1.9-1.9-2.3s-.8.7-1.1,1.3ZM40.2,152.9c-1,0-1.5,2.8-1,6,.4-1.9.7-3.9,1-6Zm79.1,98.5c-1.2,0-1.3-.1-.7,3.6.4.1.8.2,1.1-.2s-.2-2.2-.4-3.4ZM68.2,86.4c-.9.6-1.9,1-2.1,2.1s.3.9.6,1.1.9,0,1.5-.1-1.1-.2-1.1-.9h.7a3,3,0,0,0,.4-2.2Zm123.4,69.4c-1.6-.6-2.4.2-2.1,2.2h1.2c0-.2.1-.4.1-.6h.6a10,10,0,0,0,.2-1.6Zm22.9,17.4H211c.8,1.8,2.2,1.3,3.4,1.3s.1-.8.1-1.3ZM161.1,85.9l1.2.8,2-1.7c-.3-.6-1-.5-1.4-.8a3.7,3.7,0,0,0-1.8,1.7Zm-53.8-29V54.8c-.7,0-1.3-.6-2-.2a9.7,9.7,0,0,0,.1,1.7l1.9.6Zm-69.1,96h-.5c-.5,2.1-.2,4.4-1,6.5h.8c.2-2.1.5-4.2.7-6.4Zm159.7,30.6c-.8,0-1.3-.6-2-1V185l1.8.3a12.4,12.4,0,0,0,.2-1.8ZM58.2,80.8l2,.7,1-1.7-2-.7c0,.8-.5,1.2-1,1.7Zm-.3.7c-.1,1-1,2.3.7,2.4s.9-1,1.2-1.6-1-.9-1.6-1.1a.7.7,0,0,1-.3.3Zm49.8-29.4-.8-.2-.7-.3c-.4-.1-1.3,1.1-.9,1.3s1.4.6,2.1,1,.2-1.3.3-1.8ZM21.3,155.9c-.2-1.4.3-2.8.4-4.2s.7-1.3-.4-1.7c-.7,1.6-.7,5.7,0,5.9Zm113.6,78.7c-.7,1.3-.9,2.3.5,3.1l.9-2.1-1.4-1Zm31.2-60.5c-.3,1.4.5,2.6,1,3.9l.3-3.8Zm26.2,10c.6-1.7.5-3.4,1.4-5.1l-1.2-.3c-.5,1.9.2,3.7-.2,5.4Zm-70.5,70-.6-3.3-.8.2a9.8,9.8,0,0,0,.3,3.4l1.1-.3Zm31.4-74.7-1.5-2.3-1.1.9,1.7,1.9a.9.9,0,0,0,.9-.5Zm54-3.2,2.3.6c.6-1.9.4-2-2.3-1.5a1.4,1.4,0,0,1,0,.9Zm-47.9-2-.8.2c.6,1.3,1.1,2.5,1.7,3.7l.7-.4c-.6-1.1-.6-2.5-1.6-3.5Zm-36.6,44.4a8.6,8.6,0,0,1,.1-1.7c-1-.2-1.9.3-3.2-.2.8,1.4,2,1.5,3.1,1.9ZM142.5,56.8a2.8,2.8,0,0,0-2,0l-.3,1.6c.8-.2,1.5.2,2.1-.3a6.9,6.9,0,0,0,.2-1.3ZM75.3,138.4a1.6,1.6,0,0,0-1.5.3,4.9,4.9,0,0,1,0,2.4c2.2-.1,1.2-1.7,1.5-2.7Zm79.5,41.8.8-.5c-.8-1.2-1.5-2.4-2.5-4.1-.2,2.2,1.4,3.1,1.7,4.6ZM107.2,43.4c.8,1.1,2.1.9,3.1,1.7a3.4,3.4,0,0,1-.1-.9,11.6,11.6,0,0,0-4.3-1.5c.1.8.3,1.5,1.3.7ZM173,78.5c-1-.7-2-.4-3.3.9l1.2.7,2.1-1.6ZM88.4,251.9l.5-1.3c-.3-.7-1-.7-1.4-1.1a2.3,2.3,0,0,0-1.1,1.1l2,1.3ZM106.6,48.7c.1.5-.8,1-.2,1.5a1.8,1.8,0,0,0,1.4.4c.7-.2.2-1,.6-1.5s-1.1-.7-1.8-.4Zm41.9,137.4c-1.4-1-2.7-2.2-4.5-2.7.4,1.1,3.9,3.2,4.5,2.7Zm58.3-12c1.1.7,2,0,2.9.3s.4-.7,0-1-1.6,0-2.3-.1.2.8-.6.8Zm-1.3,8.6-.3,4.3h.6c.2-1.4.3-2.9.5-4.4ZM43.4,146.1c.9,1,1.3,2.6,3.2,3.4a5.7,5.7,0,0,0-3.2-3.4Zm34.3-8.3a1.1,1.1,0,0,0-1.1.1c.4.8-.4,1.7,0,2.6h.9a11,11,0,0,0,.2-2.6Zm-32.9,16c.8,1.6-.3,3.1.4,4.6.2-2.2.4-4.5.5-6.8-1.2.4-.1,1.7-.9,2.2Zm113.5,25.3c.3-2-.8-3.1-1.1-4.5l-.9.2c.7,1.4,1.3,2.7,2,4.3ZM47,133.8c.9,0,1.6.5,2.5.2s.5-.7.3-1.1-1.9-.4-2.9.1a2.8,2.8,0,0,0,.1.8ZM188.3,57.7l1.2-2.7c-.4.3-.6.5-.6.4-1.6-.1-1.3,1.2-2,1.8l1.4.5ZM63.7,88.9l1-.6a3.1,3.1,0,0,0-1.1-1.9c-1.1.9-1.1,1.7.1,2.5ZM153,185.7l.8-1.3c-.4-.4-.4-1.1-1-1.4l-1,1,1.2,1.7ZM71.7,18.5H70.6c-.1,1-.8,1.9.2,2.9.8-.8.5-1.9.9-2.8ZM176.6,76.1c-2,0-3.2.5-3.6,1.2,1.6,1,2.3-.8,3.6-1.2ZM32.3,135.3c.1-1.3-2.6-4.8-3.3-4.7l3.3,4.7ZM83.2,69.1c2.7.4,3.6.1,3.2-1.3-.2.5-.2,1-.8.9s-1.4-.6-2.3-.5-.1.6-.1.9ZM181,157.8a.8.8,0,0,0-1,.2,9.7,9.7,0,0,0-.2,2.4c0,.4.5.3.8.3s.3-1.9.4-2.9ZM163.7,78.2l-1.6-.6L160.7,79c1.3.1,2.5.6,3-.8Zm.8,96.7c.7,1.6.3,3.2,1.5,4.9-.3-2.1-.6-3.9-.9-5.8a3,3,0,0,0-.6.9Zm-91.8-36c-.7.1-1,.5-1,1s.1,1.4.1,2.4a3.7,3.7,0,0,0,.9-3.4Zm11.8.4a12.4,12.4,0,0,0-.4,1.6l1.8.5c0-.6.1-1.2.1-1.6l-1.5-.5Zm-1.3-.2c-1.1-.7-1.1-.7-1.8,1.1s1.1.2,1.7.3a6.1,6.1,0,0,1,.1-1.4Zm78.7,35.1c-.2-.2-.7-.3-.7,0s.3,2.2.6,3.4l.5-.3c-.2-1.1-.3-2.1-.4-3.1Zm-51.6,35.3c0,1,1.3.6,1.4,1.5H110a6.4,6.4,0,0,0-.2.7l2.2-.2c.3-1.5-.3-1.9-1.7-1.9Zm37.2-21.9.2-.3-4-2.5c-.1-.1-.5.2-.5.4l4.3,2.4Zm-1.8-93.4c.6.6,1.5.6,2.2,1.1a13.1,13.1,0,0,0,.5-1.5c-.9.5-1.9-.8-2.7.4Zm55.6,90c.7.4-.8,2.1,1.3,2.2-.5-1,.3-1.7-.1-2.5l-1.2.3Zm-19.7-27.1c2.2,1,1.3-.9,1.9-1.6H182c-.3.6.3,1.2-.4,1.7Zm54.5,19.7c1-.9.4-1.6-.1-2.4a3.7,3.7,0,0,0-1,2.3Zm-83.8-88,1.2-1.6c-1.2-.7-1.7.5-2.6.9s.9.5,1.4.7ZM109.9,209.5c-2.2-.3-3.8.9-5.7.9.3.4,4.8-.3,5.7-.9Zm36.8-13.3.6-.9c-1-1.5-1.6-.1-2.4.2s1.1.6,1.8.7Zm60-34.8c1.2.3,1.2,1.3,1.6,2.1l.4-.8-2-3.2a4,4,0,0,0,0,1.9ZM187.9,47.9v2.3a1.3,1.3,0,0,1,1.2.2c-.7-.9-.2-2.1-.9-3.1-.2.6-.7.1-1,.3s.3.5.7.3ZM71.6,17.6V14.5c-1.2.8-.5,2-1.1,2.7a.8.8,0,0,0,1.1.4ZM210.9,183.3c.1,1.5-.1,3,.6,4.3-.4-1.4.6-3.1-.6-4.3ZM149,182l-1.7-1.9c-1,1.7.7,1.7,1.1,2.6l.6-.7Zm-30.2,34.8c.5-1.7-.5-2-1.6-2.4-.6,1.7,1.2,1.4,1.6,2.4Zm4-.8c.4-1,.4-1-2.7-.6v.7Zm33.9-36.6a6.9,6.9,0,0,0-1.7-4,.3.3,0,0,0-.5.3c1.1.9,1.1,2.5,2.2,3.7Zm-23.5,59.4,1.6.3c1-1.3-.5-1.3-1-1.9l-.6,1.6ZM173,73.8a9.6,9.6,0,0,0,3.2-.5l-2.1-.9c.1.9-1.1.4-1.1,1.4ZM148.3,192.9l-1.5-.5c-.5.9-.6,1.7.7,1.8l.8-1.3Zm-77.1-50c-.1.8-.1,1.5-.2,2.2,1.5,0,.9-1.2,1.3-1.9s-.7-.5-1.1-.3Zm52.7,72.9c1.1.6,2.3-.1,3.5.6l-.4-.8c-.7.4-1.4-.3-2.2,0a.8.8,0,0,0-.7-.8,3.6,3.6,0,0,1-.2,1Zm27.4-32.2c-.4-1.2,1.8-1.1.6-2.2s-1,.6-1.6.8l1,1.4ZM43.4,155.2a5.9,5.9,0,0,0-.5,4c1.1-1.3.3-2.8.5-4ZM138,56.9c-.1.4-.1.8-.2,1.2l1.3.2c.4-.4.4-.9.4-1.6a3.9,3.9,0,0,1-1.5.2Zm11.5,38.9h2.8l-2.4-1.3a1.3,1.3,0,0,0-.4,1.4Zm87.6,61.1a2.3,2.3,0,0,1,.1,1.8c.8.1,1.5-.2,2.5.7-.6-1.3-1.5-1.7-2.6-2.5ZM73.3,142.8c.3.5-.3,1.3.5,1.3s1.4-.6,1.1-1.7l-1.6.4Zm163.3,30a1.5,1.5,0,0,0,1.6-.2c-.5-.5-.2-1.4-1.1-1.9a16,16,0,0,1-.5,2.1ZM204,186.7c.2-1.2.3-2.4.5-3.7l-1,.6c.1,1,.5,2,0,3Zm-40.2-105h-3.4c1.9,1.3,2,1.3,3.4-.1Zm73.7,81.2c.2-.9.6-1.9-.5-2.5a1.5,1.5,0,0,0,.5,2.5Zm-2.4,10.8h-2c-.1.8.5,1.2.8,1.9a4,4,0,0,1,1.2-1.9Zm-71.2,4.1c-.2-1.3-.3-2.5-.5-3.8-.7.7-.3,3.5.5,3.8Zm-36.4,41a3.3,3.3,0,0,0,2.2-1.1l-1.8-.4a8.3,8.3,0,0,0-.4,1.5ZM65.6,72.4l-1.9-.3,1.7,2.3a13.6,13.6,0,0,1,.2-2Zm14.6,67.8c-.2-.5.4-.9,0-1.4a1.9,1.9,0,0,0-1.3.5c-.1.9.2,1.4,1.3.9Zm120.2,43.9h-.9c-.1.6-.3,1.1-.4,1.6l.7.3a2.5,2.5,0,0,0,.6-1.8Zm-76.3,67.5.8,1.2.9-.6a1.7,1.7,0,0,0-.7-1.4c-.2.5-.7.5-1,.8Zm27.7-64.2c.2-1.2-.9-1.3-1.4-2l-.5.6a3.1,3.1,0,0,0,1.9,1.4ZM48.6,147.2c.8,1.3,1.7.9,2.8.6-.9-1-1.8-.4-2.8-.6Zm35.8-9.4a1.4,1.4,0,0,0,1.7.5c0-.4-.1-.7-.1-1l-1.4-.3a4.5,4.5,0,0,0-.2.8ZM81,69.2h1.2c.1-.4.1-.7.2-1H80.5a2.6,2.6,0,0,1,.5,1.2ZM231.5,179.1l1.4-1.7-1.6-.2c.1.7-.3,1.3.2,1.9ZM169.4,47.4a2.9,2.9,0,0,0,2,1.1c.3-2.4-1.6-.4-2-1.1Zm49.8,140.4c-.1-1.4-.1-2.8-.2-4.2a5.5,5.5,0,0,0,.2,4.2Zm-6.4-1.3a4.5,4.5,0,0,0,.1-2.8h-.5a.4.4,0,0,0-.2.6c.1.6.3,1.2.6,2.3ZM60.5,83.3c-.1.8-.9,1.3-.1,2.1.4-.7,1.6-1.2.1-2.1Zm88.7,108.1-1.6-.7-.3.7a1.6,1.6,0,0,0,1.3.8l.6-.8ZM87.6,64.6c.3-.8.5-1.4.7-2.1H88l-1.3,1a4.4,4.4,0,0,0,.9,1.1Zm63,31.9c1.1,1.1,1.5,1,2.7-.6-1,.8-1.9.3-2.7.6Zm-99-42.3c.1-.5.4-1-.1-1.3a.9.9,0,0,0-1.3,0c.6.3.6,1.1,1.4,1.3ZM64.7,90.6l1.3-.8c-.1-.2-.3-.5-.1-.8h-.6l-.8,1a2.5,2.5,0,0,0,.2.7ZM181.1,56h-.2c.2,1.5.3,3,.5,4.5h.4c-.3-1.4-.5-2.9-.7-4.4Zm-.8,99.2c-.4.6-.1,1.1-.1,1.7h.7a11,11,0,0,0,.2-1.8ZM87.5,142.3c.1-.7.1-1.3.2-2h-.6a16.2,16.2,0,0,1-.4,1.9l.8.2Zm116.9,16.9-.8,2.2c.5.3.5.9.9,1.5,0-1.2,0-2.1-.1-3.7Zm-56,30c-.3.3-.5.4-.3.8s1,.4,1.8.6a2.5,2.5,0,0,0-1.5-1.4Zm25.1-13.9c.5,1.2-.1,2.3.3,3.9.2-1.7.3-2.8.4-4Zm35.4-14.5a1.9,1.9,0,0,1,.4-.6l-1.8-2.6h-.1a28.9,28.9,0,0,0,1.5,3.1Zm.2,26.6c.4.1.6-.1.6-.5s.6-1.5-.2-2.3a18.8,18.8,0,0,1-.4,2.8ZM57.1,84.5c-.1.3-.4.6-.2,1l.8.4a1,1,0,0,0,.3-1.3Zm119.8-8.8.9-1c-.9-.1-1.6-.1-2.1.6l1.2.4Zm-22.2,106-1.1.7a1.3,1.3,0,0,1,.9,1c1.3-.5.3-1.1.2-1.7ZM77.2,142.1c-.4-.1-.8-.1-1,.2a1,1,0,0,0,0,1.2c.3-.6,1.4-.3,1-1.4Zm3.5-74.8c.8-.1,2.2.5,2-1.5-.5.9-1.3,1-2,1.5ZM50.1,149.2a13.1,13.1,0,0,1,.9,1.7l.3-2.1-1.2.4ZM188.5,62.6c1.2-.9.6-1.2-.4-1.4s-.1,1.1.4,1.4Zm-79-11.4c.4-1.7.4-1.8-.2-1.9s-.5,1.6.2,1.9Zm17,200.1c1-.9,0-1.3-.2-2s-.2,1.3.2,2Zm-4.6-117.7c.4.7-.5,1.7.6,2.6-.3-1.1.3-1.9-.6-2.6Zm102.3,52.2-1.1-3.8a7.3,7.3,0,0,0,1.1,3.8ZM158.7,81c1.1.4,1.6-.2,2.2-.7-1-.6-1.5.3-2.2.7ZM87.9,139.3c.3-1.2.3-1.2-.3-1.7-.6,1.4-.6,1.7.3,1.7Zm-30.7,7.6c.2-1.1.9-1.8,0-3,.3,1.2-.5,1.9,0,3ZM72.3,71.4c0,.2-.1.4-.1.7h1.7a4.1,4.1,0,0,1-.5-.9l-1.1.2Zm50.1,179.4c.2.9.5,1.7.8,2.8.6-1.3-.6-1.9-.8-2.8Zm27-63.9c.3.8.7,1.5,1.8,1.3l-1.8-1.3Zm-26.5,62.2c0-.8,1.3-1.1.3-1.9l-.8,1.1.5.8ZM153,181.3l1.1-.7-.6-.7-.8.7.3.7ZM19.3,147.1c-.5.9.5,1,.8,1.7.3-1-.1-1.5-.8-1.7ZM179.1,73.6a13,13,0,0,1,2-1.5v-.2l-2.4,1.5.5.2Zm26.7,84.2c-.9.7,0,1.2-.1,2.2a1.7,1.7,0,0,0,.1-2.2Zm33.3-12.5c.4.7-.1,1.8.9,2.3a2.8,2.8,0,0,0-.9-2.3ZM55.7,83.6l-.7-.4-.5,1.1.8.3a10.4,10.4,0,0,0,.4-1Zm31.2,52.6-2.1-.3a1.3,1.3,0,0,1-.1.6c.7-.2,1.4.5,2.2-.3Zm38.4,107.9a1,1,0,0,0-.4,1.4l.9-.5-.5-.9Zm113.6-96.5c-.4-.3-.3-1.1-1.1-1.1a.8.8,0,0,0,.2,1c.3.2.5.6.9.1Zm-1.7.9c-.3-.5-.5-1-1.3-.7a13.4,13.4,0,0,0,.6,1.2l.7-.5ZM61.4,86.6c1,.1,1-.7,1.3-1.2l-.5-.3a10.2,10.2,0,0,0-.8,1.5Zm-2-.6c-.4.6-.4,1,.2,1.3s.6-.6.5-1.1l-.7-.2ZM170.6,58.8c.4,1,.9,1.3,2.2,1.3l-2.2-1.3Zm-9.2,22.3,2-.2-1.3-.6-.7.8ZM150.1,184.2c.5-.6,0-.9-.4-1.4l-.5.6.9.8ZM21.4,147.8a.8.8,0,0,1-.1,1c-.2.2,0,.7.5.6s.2-1.4-.4-1.6ZM169.6,59.3c.2-.5-.1-.7-.4-1l-.7.7c.3.4.7.2,1.1.3ZM78.5,141.9a9.4,9.4,0,0,1,.3.9c.4-.5,1.1-.3,1.2-1Zm-31.9,5.5c.4.5.5,1.2,1.8.9C47.4,148.1,47.5,147.3,46.6,147.4Z" transform="translate(-3 -3.6)" style="fill:#e25a5f;fill-rule:evenodd"/><path d="M62.4,65.9c.6.7-.1,1.5,0,2.3s-.1-1.6-.2-2.3S62.3,65.9,62.4,65.9Z" transform="translate(-3 -3.6)" style="fill:#e25a5f;fill-rule:evenodd"/><path d="M59.9,134a4.2,4.2,0,0,1,2.2.2c-1,.6-1.6,0-2.2-.2Z" transform="translate(-3 -3.6)" style="fill:#e25a5f;fill-rule:evenodd"/><path d="M97.6,36.4c0,.8-3.5.9-8,.5,2.8,1.2,6,.7,8.9,1.5-3.6-.2-7.3.3-10.9-.5-.2.9,1.6,1.3.7,2.1s-1-1-1.9-1.2,1.4,1.5,1.3,2.6c-1-1-2.2-1.8-2.7-3.1s-.7.3-1.2.4l.8,1.1c-1.3.9-1.9-1.8-3-.5l.3.3c0,.4-.2.5-.6.7-1.2-1.5-3.1-2.2-4.5-3.5S72,35.7,69.4,36a4.1,4.1,0,0,1,.1-1.1l6.4.8c-.5-1.3-1.3-2.4-1.5-3.9a3.5,3.5,0,0,1,1.3-3.3c1.5-1.2,2.8-2.4,4.9-2.6,3.6-.3,6.2,2.2,7.6,4.8l2.6,5.1.4.3,6.4.3ZM81.7,35.1c.8.6,1.5.2,2.3-.1a3.6,3.6,0,0,0,1.8-5.4c-.9-1.5-2.4-1.6-3.9-2A3.9,3.9,0,0,0,77.8,29c-1.1,1.3-.8,2.7-.1,4.1s2.8,2.9,4,2Zm8.9.6-1.5-2.1c-.1.7-.7,1.3-.2,1.9s1.1.3,1.7.2ZM86.8,37c.5.5,1.2.2,1.8.4s-.5-.7-.9-.9Z" transform="translate(-3 -3.6)" style="fill:#e25a5f;fill-rule:evenodd"/><path d="M36.9,50.2c-1.5-.6-1.4-1.7-1.6-2.6a13.9,13.9,0,0,1,.5-7.3A17.3,17.3,0,0,1,37.9,35c.1-.1,0-.4,0-.6s-1.2,1-1.8,1.4a.5.5,0,0,1-.3-.7c.5-1.9,2.7-1.6,3.6-2.9s-.1.5-.1.9,3.1.7,3.6-1.6c-1.2,0-2.5-.4-3.6.3a.6.6,0,0,1-.9-.3.6.6,0,0,1,.5-.8,4.5,4.5,0,0,1,2.8-.2c2,.6,3-.6,3.7-2.2s-.6-.2-.5-.5c1.8-.1,2.7-1.6,3.7-2.8s2.8-2.5,4-4c-1.4,2.6-3.4,4.6-5.5,6.9l5.8,1.5c.5.1.8-.6.9-1a9.5,9.5,0,0,0,.4-5.3l.8-.3c-.3,1.5.4,2.9-.2,4.2a3.3,3.3,0,0,1-.6,2.5c.1.4.5.4.9.4s-.9.2-1.4.1-.3.8-.6.9-.8,1.6,0,2.3l6.4,2.2a10.3,10.3,0,0,1-2.5,0l-7.2-2.5c-2-.6-4-1.8-6.4-1,0,.3.4.6-.1,1.2a45.9,45.9,0,0,1,5.1,1c1.5.4,3.2.7,4.3,2.2A39,39,0,0,0,46,34.5c-1.5-.3-3.4-1.5-4-.3-2,4.7-4,8.3-3.3,12.7-1.9-.8-1.1-2.2-1-3.1a18.1,18.1,0,0,1,2.1-6.7c.5-1,.5-2.2,1.8-3.1H38.7c-1.6,5.2-3.9,10.3-1.8,16.2ZM51.7,32.8c-.3-1.1.5-1.8.7-2.9l-6.1-1.3c-.2.8-1.5.9-1.4,2.1A44.2,44.2,0,0,1,51.7,32.8Z" transform="translate(-3 -3.6)" style="fill:#e25a5f;fill-rule:evenodd"/><path d="M41.1,69.4A22.2,22.2,0,0,1,39,73.1c-.4-.5,2-4.5,3-5.2S41.6,69.2,41.1,69.4Z" transform="translate(-3 -3.6)" style="fill:#e25a5f;fill-rule:evenodd"/><path d="M42.5,61.9a10.8,10.8,0,0,1,3.9,3.8Z" transform="translate(-3 -3.6)" style="fill:#e25a5f;fill-rule:evenodd"/><path d="M71.5,50.6c1-.4,1.9.2,2.9.3a3.3,3.3,0,0,1-2.9-.3Z" transform="translate(-3 -3.6)" style="fill:#e25a5f;fill-rule:evenodd"/><path d="M49.7,68.4a2.2,2.2,0,0,1-2-1.5C48.9,66.7,48.6,68.5,49.7,68.4Z" transform="translate(-3 -3.6)" style="fill:#e25a5f;fill-rule:evenodd"/><path d="M63,27c.9-.6,1.7.3,2.6.2C64.7,27.7,63.9,26.7,63,27Z" transform="translate(-3 -3.6)" style="fill:#e25a5f;fill-rule:evenodd"/><path d="M116.6,98.4c.5-.7,1.3.1,2-.2s-1.7.5-2.3,1.3l-.4-.5h-.7c.2,1,1.3,1.6,1.2,2.8h5.9c-2.3.5-4.7.2-7,.8-.2.8,1.1.8.8,1.7l13.3,1c-5.1,1-10.2-.2-15.3-.1-.1.7.7.9.9,1.5l4.8.2v.4h-6.5c-.2.5.4.8.7,1.3a.7.7,0,0,1-.9.6,17.4,17.4,0,0,0-1-1.9.7.7,0,0,0-.8.2c.5.3.7.7.2,1.2s-1.1-1.5-2.3-1.4c.5.5,1.1,1.1.4,1.6s-1.2-.2-1.5-.9-.3-.8-1-.5-.1,1,.5,1.3a.5.5,0,0,1,0,.7.6.6,0,0,1-.8,0,7.1,7.1,0,0,1-1.3-2.2c-.2-.4-.5-.3-.8-.2s.8.7.5,1.5-1.5-.8-1.9-1.4-1.9-1.6-2.8-2.4-3.2-6.7-2-9a4.9,4.9,0,0,1,2.2-1.8c1.1-.6,1.7-1.9,3-2.1s.2-.3.2-.4c3.3-1.2,5.9.4,8.3,2.2.8.6,1.1,1.8,1.6,2.8s1.3,2,2.8,1.8Zm-14.3-4.1c-2.7,1.6-3.4,4.5-1.6,7.3s5.3,4.6,9,2.6,2.9-6.4,1-8.9-4-4.1-8.4-1Zm12.3,6c-.5.6-.1,1.1.1,1.5s.8.2,1.2.3-.6-1.5-1.3-1.8Zm-.6,2.5a1.1,1.1,0,0,0-.4,1.5H115a7.8,7.8,0,0,0-1-1.5Zm-.4,3.8c-.5-.6-.5-1.3-1.4-1.5s.2,1,.3,1.4Z" transform="translate(-3 -3.6)" style="fill:#e25a5f;fill-rule:evenodd"/><path d="M115.5,97.6a9.7,9.7,0,0,1-2.5-4.4c-.1-.2.1-.3.6-.5C113.9,94.4,114.9,95.9,115.5,97.6Z" transform="translate(-3 -3.6)" style="fill:#e25a5f;fill-rule:evenodd"/><path d="M102.7,80.3c.8-.2,1.6-.9,2.7-.2Z" transform="translate(-3 -3.6)" style="fill:#e25a5f;fill-rule:evenodd"/><path d="M108.1,66.4l-3,.2A3.6,3.6,0,0,1,108.1,66.4Z" transform="translate(-3 -3.6)" style="fill:#e25a5f;fill-rule:evenodd"/><path d="M171.9,147.2l-.7,2.8H171c.2-1,.3-1.9.5-2.9Z" transform="translate(-3 -3.6)" style="fill:#e25a5f;fill-rule:evenodd"/><path d="M50.7,109l-2.9,2.8-.5-.4A9.2,9.2,0,0,1,50.7,109Z" transform="translate(-3 -3.6)" style="fill:#e25a5f;fill-rule:evenodd"/><path d="M68.2,80.8c-.8,0-2.3-2.1-2.1-2.9,2.2.7,6.5,7.5,5.5,8.7C70.9,84.5,69.4,82.8,68.2,80.8Z" transform="translate(-3 -3.6)" style="fill:#e25a5f;fill-rule:evenodd"/><path d="M143.8,81.4c-.7-.9-.2-1.6.2-2.8a3,3,0,0,1-.2,2.8Z" transform="translate(-3 -3.6)" style="fill:#e25a5f;fill-rule:evenodd"/><path d="M201.3,169.3c.8-.7,1.3.1,1.8.2.4,3-.2,5.7-2.6,7.6a5.8,5.8,0,0,1-4.1,1c-.5,0-.9-.3-.8-.6s.2-1.5,1.1-1.8c2.9-.9,4-3.2,4.6-5.9C201.4,169.6,201.3,169.5,201.3,169.3Z" transform="translate(-3 -3.6)" style="fill:#e25a5f;fill-rule:evenodd"/><path d="M200.8,166.2c-1.9-2.3-2.3-7.1-.6-7.8a10.3,10.3,0,0,1,1,4.6,3.4,3.4,0,0,0,.5,1.4C202.2,165.4,201.7,165.9,200.8,166.2Z" transform="translate(-3 -3.6)" style="fill:#e25a5f;fill-rule:evenodd"/><path d="M52.9,144.5c-2.9.2-5.7.6-8.5-.7s-2-2-2.8-3.1.1-1,.7-1.3c1.5,1.3,2.6,3.1,5.1,3.1s4.1-.1,6,.9C53.2,144,53,144.2,52.9,144.5Z" transform="translate(-3 -3.6)" style="fill:#e25a5f;fill-rule:evenodd"/><path d="M27.9,121.6l.8.2c-.5,3.1,2.6,4.2,4.6,4.1s.3,1.1.2,1.7a5.2,5.2,0,0,1-5.8-2.1C26.8,124.2,26.3,122.9,27.9,121.6Z" transform="translate(-3 -3.6)" style="fill:#e25a5f;fill-rule:evenodd"/><path d="M43.7,133.7c0-1.6-1.7-2.2-2.2-3.7,1.8-.4,2,1,2.5,1.8S45,133,43.7,133.7Z" transform="translate(-3 -3.6)" style="fill:#e25a5f;fill-rule:evenodd"/><path d="M64.3,68.6c2.9-.8,5.6-1,8.2-2.1a1.6,1.6,0,0,0,.3.6C70.6,69.5,66.3,70.4,64.3,68.6Z" transform="translate(-3 -3.6)" style="fill:#e25a5f;fill-rule:evenodd"/><path d="M169.2,54.6c-.1.3-.1.5-.2.6s-3.8-.8-4.7-1.8-2-3-.8-4.3c1.7,2.4,3.5,4.6,6.8,4.5C170.2,54.6,169.8,54.8,169.2,54.6Z" transform="translate(-3 -3.6)" style="fill:#e25a5f;fill-rule:evenodd"/><path d="M115.3,207.3a8.2,8.2,0,0,0,3.5,2.5c2,.7,4.1.1,6.1.2l4.4.3.2.2a.8.8,0,0,1-.4.4c-2,1.4-4.4,1-6.6,1.2a8.4,8.4,0,0,1-6.8-2.7C115.1,208.9,115.1,208.3,115.3,207.3Z" transform="translate(-3 -3.6)" style="fill:#e25a5f;fill-rule:evenodd"/><path d="M108.2,206.3c1-.6,2.8-.5,4.9.3l-.2.3C111.3,207,109.6,207.8,108.2,206.3Z" transform="translate(-3 -3.6)" style="fill:#e25a5f;fill-rule:evenodd"/><path d="M124.6,122.3h.6c.1.9.8,1.4,1.3,2.2.1,3.3-1.7,6-4.5,6-1.3,0-2.9.1-3.9-1.2s-.4-.4-.2-.8a.8.8,0,0,1,.8-.3l1.8.4a3.6,3.6,0,0,0,3.9-4.1A3.7,3.7,0,0,1,124.6,122.3Z" transform="translate(-3 -3.6)" style="fill:#e25a5f;fill-rule:evenodd"/><path d="M51.6,44.6c0-.2.1-.4.1-.6h.7a2.3,2.3,0,0,1-.5,2.5,3.3,3.3,0,0,1-3.1.9.8.8,0,0,1-.3-1.3A4.8,4.8,0,0,1,51.6,44.6Z" transform="translate(-3 -3.6)" style="fill:#e25a5f;fill-rule:evenodd"/><path d="M80,34.2c.1-.4.1-.8.2-1.3s.4-.3.8-.3,2.3-1.3,2.9-2.4.4-.7.8-.7.5.4.5.9A3.6,3.6,0,0,1,80,34.2Z" transform="translate(-3 -3.6)" style="fill:#e25a5f;fill-rule:evenodd"/><path d="M103.9,102.5c.2-1.8,1.7-.8,2.5-.9s2-1.6,2.4-2.9h0c.1-.7-.3-1.9.6-1.9s1,1.1,1.1,1.9c.2,2.8-.8,4.6-3.2,5s-2.4.3-3.2-1.1Z" transform="translate(-3 -3.6)" style="fill:#e25a5f;fill-rule:evenodd"/></svg>