<?xml version="1.0" encoding="utf-8"?>
<!-- Generator: Adobe Illustrator 23.1.1, SVG Export Plug-In . SVG Version: 6.00 Build 0)  -->
<svg version="1.1" id="_x2014_ÎÓÈ_x5F_1" xmlns="http://www.w3.org/2000/svg" xmlns:xlink="http://www.w3.org/1999/xlink"
	 x="0px" y="0px" viewBox="0 0 250.1 264.2" style="enable-background:new 0 0 250.1 264.2;" xml:space="preserve">
<style type="text/css">
	.svg{fill-rule:evenodd;clip-rule:evenodd;}
</style>
<g >
	<g >
		<path class="svg" d="M245.3,158.6c1.1,0.8,0.4,1.8,0.5,2.6c0.4,2.9-0.6,5.5-1.5,8.1c-0.7,1.8-1.3,3.7-2,5.4
			c-0.8,1.9-1.7,3.7-2.6,5.5c-0.9,1.9-1.9,3.8-2.8,5.7c-1.8,0.3-2.9,1.7-4.2,2.8c-2.2,2-4.8,3.1-7.7,3.6c-3.5,0.6-7.1,0.4-10.6,0.6
			c-2.7,0.1-5.3-0.4-7.9-0.6c-1.7-0.2-3.4-0.5-5-1.3c-1.6-0.8-3.6-0.9-5.4-1.5c-3.3-1.1-6.5-2.4-9.9-3.3c-3.1-0.8-6.2-1.3-9.4-1.7
			c-3.4-0.4-6.7-0.9-10.1-0.8c-2.5,0-4.9,0.9-7,2.6c-0.7,0.6-1.8,0.8-2.3,1.5c-1.5,2-3.3,3.7-4.1,6.2c-0.5,1.5-1.4,2.9-2,4.4
			c-1,2.5-1.9,5.1-2.6,7.7c-0.5,1.7-0.7,3.7-2.1,5.2c0.5,0.7,0.1,1.6-0.3,2.2c-1.1,1.6-1.2,3.4-1.7,5.1c-0.5,1.9-0.9,3.9-1.4,5.7
			c-1.1,3.8-0.9,7.8-1.9,11.5c-0.6,2-1.7,3.9-2.6,5.8c-0.2,0.3,0.1,1-0.6,1.1c0,0.1,0.1,0.3,0,0.2c-0.7,1.2-0.9,2.4-1.9,2.9
			c-0.3,1.5-1.2,2.5-1.9,3.6c-1.9,3-4.5,5.4-6.9,7.9c-0.6,0.6-1.2,1.1-1.9,1.6c-1.2,0.8-2.6,1.2-4,1.4c-3.6,0.4-7.3,0.5-10.9,0.8
			c-3.7,0.3-7.4-0.2-11-0.8c-4.7-0.7-9.5-1.3-13.9-3.3c-2.2-1-3.5-3-5-4.7c-1.5-1.6-2.6-3.4-3.4-5.4c-0.7-1.7-0.7-3.4-0.4-5.2
			c0.2-0.9,0.3-2,0.7-2.8c1.4-2.7,3-5.2,6-6.7c1.8-0.9,3.7-1.4,5.5-2.2c1.8-0.8,2.2-2.6,2.7-4.1c1.2-4,0.7-8.1,0.7-12.2
			c0-4.4,0.4-8.7,0.5-13c0.1-3.9,0.5-7.8,0.6-11.8c0-3.6,0.5-7.1,1.4-10.6c0.8-3.4,1-6.9,0.7-10.4c-0.4-3.7-0.6-7.5-1.7-11.1
			c-0.6-1.9-1.3-3.9-2.4-5.4c-1-1.3-2.8-2-4.4-2.4c-1.9-0.5-3.8-1-5.8-1.3c-2.3-0.3-4.7,0-6.9,0.5c-2.4,0.5-4.8,1.3-7,2.2
			c-1.7,0.7-3.1,1.9-4.7,2.9c-1.7,1-3.6,1.8-5.1,3.1c-1.1,0.9-2.3,1.7-3.1,3c0,0.1-0.1,0.2-0.1,0.2c-3.5,1.7-6.5,4.4-10.5,4.8
			c-2.6,0.3-5.2,0.2-7.9-0.1c-1.5-0.2-3.1,0.3-4.7-0.1c-1.7-0.4-3.3-1.2-5-1.6c-2.1-0.6-4.1-1.2-6.3-1.6c-3.6-0.7-6.8-2.3-9.7-4.6
			c-2.5-2-4.4-4.6-6.5-7c-0.1-0.1-0.1-0.1-0.2-0.2c-0.5-0.9-0.5-2.1-0.6-3.2c-0.3-2.7,0.3-5.3,1.1-7.8c0.6-2.2,2-4,3.3-5.9
			c2.1-3,4.8-5.3,7.3-7.9c2.6-2.7,5.7-4.8,8.9-6.6c3-1.7,5.5-3.9,8.2-6c2.2-1.7,4.4-3.4,6.6-5c2.4-1.9,4.8-3.8,7.4-5.5
			c3-1.9,5.6-4.2,8.2-6.6c0.6-0.5,1.4-0.9,1.8-1.6c1-1.6,0.8-2.2-0.9-2.9c-2.2-0.9-4.5-1.9-6.7-2.7c-3.3-1.3-6.2-3.3-8.8-5.7
			c-2-1.8-3.8-3.6-5.6-5.6c-2.2-2.4-3.1-5.3-4.6-8c-1.3-2.2-1.7-4.7-2.3-7.1c-0.7-2.8-1-5.7-1.2-8.7c-0.2-2.9-0.1-5.7,0.2-8.5
			c0.2-1.6,0.9-3.1,1.2-4.7c0.3-1.2,0-2.4,0.3-3.6c0.2-1,0.3-2.1,0.4-3.1c0.8-0.7,0.6-1.8,1-2.7c1.1-2.7,2.6-5,4.6-7.1
			c1.9-2.1,3.6-4.3,5.6-6.3c2.6-2.5,5-5.3,8.1-7.3l0.2-0.2l0.2-0.1c2.9-1.8,6-2.6,9.2-3.4c1.8-0.4,3.4-1.3,5.3-1.6
			c2.2-0.4,4.3-0.2,6.4,0.3c2.1,0.4,4.3,0.2,6.5,0.4c3.3,0.4,6.6,0.9,9.8,2c1.5,0.5,3,1.3,4.5,1.9c2.1,0.7,4,1.6,6,2.5
			c1.9,0.9,3.7,2.2,5.5,3.4c2,1.3,3.7,2.9,5.4,4.7c2.7,3,4.7,6.3,5.6,10.2c0.5,2.2,1.4,4.3,2.4,6.3c1.2,2.4,1.3,4.8,1.3,7.4
			c0,3.4-0.9,6.8-0.3,10.3c0.2,1,0.7,1.3,1.4,1.5c4.5,0.8,8.3-1.2,11.9-3.4c2.2-1.3,4.3-2.9,6.5-4.2c1.8-1,3.9-1.6,5.6-2.7
			c1.5-1,3.1-1.7,4.7-2.7c1.8-1.1,3.8-1.6,5.9-2.2c0.9-0.2,1.7-0.6,2.5-1c4-2.2,8.1-4.1,12.4-5.6c2-0.7,4-1.2,6.1-1.6
			c1.2-0.3,2.4-1,3.6-1.5c2.9-1.2,7.6-0.4,10.2,1.4c1.6,1.2,3,2.4,3.8,4.1c1,1.9,1.8,3.9,2.5,5.9c0.7,2.3,1.5,4.5,1.9,6.8
			c0.5,2.8,1.4,5.5,1.2,8.5c-0.2,2.3-0.3,4.7-0.9,6.9c-0.5,1.9-1.6,3.6-3,4.9c-1.8,1.7-3.1,3.8-4.9,5.4c-1.4,1.3-2.9,2.5-4.6,3.5
			c-2,1.3-3.7,2.9-5.6,4.3c-0.8,0.6-1.5,1.5-2.4,1.5c-8.2,6.5-16.6,12.5-19.8,23.4c0.2,0.6,0.1,1.6-0.5,2.8c0.2,0,0.3-0.1,0.5-0.1
			c-0.1,0.4-0.2,0.7-0.3,1c0.8,0.7,0.4,1.9,0.8,2.6c0.8,1.2,1.1,2.7,2.1,3.8c3.1,3.6,6.8,6.4,11.2,8.4c1.8,0.9,3.7,1.6,5.5,2.5
			c0.5,0.2,1.3,0,1.5,0.8c0.8-0.1,1.5,0.3,2.2,0.5c3.4,1.4,7,1.5,10.4,2.6c3.1,1,6.2,1.7,9.2,2.7c2.1,0.7,4.4,0.9,6.5,1.7
			c3,1.1,6,2,9,2.9c3.2,1,6,0.1,8.8-1.6c2.2-1.3,4.6-2.1,7.2-2.3c2.5-0.1,4.8,0.5,7.2,1c3.7,0.7,5.1,3.7,6.7,6.6
			c1.6,3,2.1,6.3,2.8,9.5c0.5,2.2,0.5,4.5,0.8,6.7C245.8,158.5,245.6,158.5,245.3,158.6L245.3,158.6z M208.6,154.1
			c-1.1,0.7-1.2,1.5-0.3,2.5c0.4-0.1,0.9,0.3,1.3-0.1C209.7,155.5,209.4,154.7,208.6,154.1c1.1-0.4,1.9-0.8,0.6-2
			C209,152.8,208.8,153.5,208.6,154.1L208.6,154.1z M173.9,43.2c0.3-1.2,0.1-2.3-0.4-3.5c-0.6-0.2-1.1-0.2-1.6,0
			c-0.2,1.2,0.1,2.2,0.4,3.2c0.3,0,0.5-0.1,0.7-0.1c0,0.2,0,0.3,0,0.5c-0.3,0-0.6,0-0.9-0.1c0.2,0.9,0.3,1.9,0.5,3
			c0.8-0.5,1.8,0.4,2.3-0.7c0.1,0.2,0.2,0.4,0.3,0.6c0.9,0,1.6,0,2.4-0.1c-0.3-0.6-0.1-1-0.1-1.1c-0.3-2.1-0.6-3.9-0.8-5.7
			c-0.5-0.3-1.2,0.2-2,0.1c0.1,1.3-0.3,2.6,0.6,3.7c-0.4,0.1-0.4,0.5-0.4,0.9c0.1,0.5,0.2,1-0.1,1.5c-0.1-0.2-0.2-0.5-0.3-0.7
			C174.4,44.3,174.7,43.5,173.9,43.2L173.9,43.2z M34.2,159.1c0.5,0.1,0.9,0.1,1.4,0.2c0.4-2.2,0.8-4.4,0.3-6.8
			c-1,0.7-0.9,1.6-1.1,2.4C34.7,156.2,35.1,157.8,34.2,159.1c-0.6-0.5-0.7-1.1-0.7-1.9c0.1-1.7,0.2-3.3,0.3-5
			c-0.6-0.2-1.1-0.3-1.7-0.5c0.5,2.6-0.6,4.9-0.5,7.3C32.6,159.1,33.4,159.1,34.2,159.1L34.2,159.1z M170.6,43.2
			c0.2-0.1,0.4-0.2,0.7-0.4c0-0.9,0-1.9,0.1-3c-0.9,0.1-1.9,0.2-3,0.3c2-1.3,4.4,0,6-1.9c0.2,0.3,0.4,0.5,0.5,0.6
			c3.8-0.9,8.4,2,11.3,6.6c0.6-0.4,1.2,0.4,1.7,0.2c0.4-4.4-3.6-4.3-6.1-5.9c1.6-0.3,2.8,0.8,4.3,0.7c-1.1-1.9-2.4-3.5-4.6-4.2
			c0.2-0.1,0.3,0,0.3,0c0.1,0,0.2,0,0.7-0.2c-7-2.7-12.8-0.2-18.9,2.5c2.4,0.9,2.8,2.9,3.2,4.9C168.1,43.3,169.3,42.9,170.6,43.2
			c-1,0.9-2.3,0.5-3.5,0.9c0.3,0.9,0.6,1.7,1.4,2.4c1.1-0.1,2.1-0.2,3.2-0.3C171.4,45,172,43.8,170.6,43.2L170.6,43.2z M62.2,65.8
			c-0.2-0.4,0.5-0.9,0-1.3c-0.5,0.1-0.9,0-1.3,0.2c-0.8,0.3-1.6,0.8-1.4,1.7c0.4,1.5,1.2,2.8,2.8,3.4c3.5,1.3,6.9,0.8,10.2-0.7
			c2.7-1.3,5.3-2.8,7.9-4.2c1.5-0.8,1.6-0.9,1.8-1.4c-2.3,0.8-4.2,2.5-6.9,2.6c-0.1-0.4-0.1-0.8-0.2-1.2c1.4-0.7,2.9-1.4,4.2-2.1
			c1.9-1.1,3.8-2.2,5.5-3.8c2.2-2,3.8-4.1,3.6-7.3c0.6,0.2,0.2-1,0.9-0.8c1,0.9,1.8,1.8,1.1,3.4c-0.6,1.4-0.8,2.9-1.9,4
			c-0.7,0.7-1.3,1.4-2.3,2.5c1.9-1.1,3-2.3,4-3.5c1-1.2,2.3-2.3,2.5-4.6c-0.5-2.3-3-4.2-5.8-3.4c-2,0.6-3.3,2.4-4.2,4.1
			c-1.7,3.1-3.9,5.6-6.6,7.6c-2.8,2.1-6.1,2.8-9.4,3.4c-1.2,0.2-2.6,0.1-3.8,0.1c-0.2,0.5,0,1.1-0.6,1.3
			C62.3,65.9,62.3,65.8,62.2,65.8L62.2,65.8z M143.8,81.4L143.8,81.4c0.1,0.2,0.2,0.5,0.4,0.8c3.3-0.2,6.6-0.5,10-0.7
			c2-0.1,3.8-0.3,5-2.2c0.4-0.6,0-1.5,1-1.7c-0.1-0.2-0.2-0.4-0.2-0.4c0.5-1,1.6-1.4,2.4-2.5c-0.9,0.1-1.5,0.3-2.1,0.3
			c-0.7,0-1.4-0.3-1.9,0c-0.6,0.3-1.2-0.1-1.8,0.2c-0.6,0.3-1.2,0-1.6-0.3c3.4-1.2,7.6,0.3,10.8-2.5c-0.1-0.3-0.1-0.5-0.1-0.5
			c2.5-0.6,3.7-2.8,5.8-3.8c-8.5,0.2-17,0.4-25.5,1.3c-0.6,1.3-0.2,2.9-1,4.2c0.1,0.3-0.2,3.9-0.6,5.2c-0.6-0.3-0.2-5.7,0.5-6.3
			c-0.4-1.1,0.2-2,0.2-3.2c-0.9,0-1.8,0-2.7,0.1c-0.6,0-1.3,0.2-1.4,0.9c-0.3,1.8-0.6,3.7-0.9,5.5c0.2,0.2,0.6-0.1,0.6,0.4
			c-0.3,0-0.5,0-0.8,0c-0.4,2.1-0.8,4.2-1.1,6.3c1.9-0.3,3.6,0,5.3-0.6c-0.3-0.3-0.4-0.4-0.5-0.5c0-0.1,0.1-0.2,0.1-0.2
			C143.6,81.2,143.7,81.3,143.8,81.4L143.8,81.4z M87.2,95.9c-0.4,0.2-0.8,0.1-1.2,0.2c-2.1,0.6-4.5-0.7-6.3,1.3
			c0.1-0.3,0.2-0.6,0.4-1.1c-1,0.1-1.7,0.2-2.6,0.4c-0.5-0.5-1.2,0.2-2.1-0.1c1.7-0.2,3.1-0.3,4.3-0.5c0.9-1.1,0.5-2.6,1.3-3.5
			c-0.1-1.6,0.5-3,0.8-4.4c-1-0.3-2,0.3-3-0.6c0.5,0,1,0.1,1.4-0.1c0.7-0.2,1.8,0.4,2-0.7c0.8-3,1.5-6.1,2.1-9.1
			c0.5-2.5,1-5,1.5-7.5c-1-0.6-3.9-0.2-4.7,0.6c-0.2-0.3-0.3-0.5-0.5-0.7c-0.6,0.1-1.2,0.3-1.8,0.4c0.2,0.4,0.9,0.7,0.3,1.3
			c-0.2-0.1-0.4-0.1-0.7-0.2c-0.5,3-2,5.8-2.3,8.8c-0.4-3.4,1.4-6.5,1.6-9.9c-1.3,0.2-2.4,0.3-3.4,0.4c-0.2,1.3,1.9,1.6,1.2,3.4
			c-0.6-1.1-1.5-1.5-2.5-1.7c-0.3,0.1-0.7,0.2-1.1,0.3c-0.4,0.7-0.1,1.3,0,2c0.8,0.1,1.1,0.8,1.6,1.2c-0.5,0.4-0.5,0.4-0.5,0.4
			c-2.4-1.1-2.7-4.8-6.2-4c0.6,0.7,1.2,1.3,1.7,2c0.2,0.2,0.4,0.4,0.1,0.7c-0.3,0.3-0.6,0.1-0.7-0.1c-0.4-0.8-1.2-1-1.7-1.7
			c-0.4,1.1-0.2,2,0.5,2.8c-0.3,0.5-0.6,0.1-1.1,0.2c0.5,1.9-1.9,4.2,1.1,5.8c0.2-0.1,0.4-0.3,0.7,0c-0.1,0.2-0.2,0.4-0.3,0.6
			c0.2,0.2,0.5,0.4,0.7,0.6c0.3-0.1,0.5-0.1,0.6-0.1c1.3,2.2,0.7,4.5,0.5,6.7c2.5,1.2,2.5,1.2,2.6,2c0.6-0.2,0.9,0.2,1.2,0.7
			c-0.5,0.1-0.9-0.2-1.3-0.4c-0.8-0.4-1.8-1.6-2.5-1c-0.6,0.5-1.2,1.7-1,2.8c0.1,0.9,0.6,1.7,0.1,2.8c-0.3-1-0.5-1.7-0.8-2.5
			c-0.3,0.2-0.6,0.3-0.8,0.4c-1.7,2.9-3.7,5.5-6.5,8c6.6-0.6,12.6-1.5,19-1.7c0.1-0.5,0.1-1,0.2-1.6c0,0,0.1,0,0.1,0
			c-0.1,0.5-0.2,1-0.3,1.6c3-0.4,6-0.8,8.9-1.2c0.3,0,0.6,0,0.7-0.5c0.2-1.2,0.4-2.3,0.7-3.5C88.7,95.9,87.9,95.9,87.2,95.9
			c0.3-0.3,0.6-0.3,1-0.3c0.7,0,1.4,0.1,1.5-1.1c0.3-2.4,0.9-4.8,1.4-7.3c-0.1,0-0.2-0.1-0.3-0.1c-1.4,0.3-2.9,0.2-4.3,0.4
			c-1.5,0.2-3.7-0.8-4.2,2c-0.4,2.1-1.1,4.2-1.8,6.3c2.2-0.2,4.3-0.3,6.3-0.4C87,95.6,87.1,95.8,87.2,95.9L87.2,95.9z M174.1,153.4
			c0.4,0,0.1,0.5,0.3,0.6c1.7,0.1,3.4,0.2,5.2,0.3c0.4-4.2,0.9-8.4,1.4-12.7c-1.7,0-3-0.8-4.5-1.4c-0.7,2.6-0.9,5.3-1.3,8
			C174.9,150,174.9,151.8,174.1,153.4c-0.2-1.6,0.3-3.2,0.4-4.8c0.3-2.9,0.8-5.7,1.2-8.7c-0.7-0.3-1.5-0.5-2.3-0.9
			c-0.8,2.6-0.6,5.4-1.7,8.2c-0.1-0.5-0.3-0.7-0.2-0.9c0.6-1.5,0.6-3.1,0.8-4.7c0.3-3.1,0.1-3.5-1.9-3.6c-0.2,2,0.1,4-0.8,5.9
			c0.3-2.1,0.2-4.2,0.3-6.2c-2.9-1.9-6.1-3.1-9.2-4.6c-2.4-1.1-4.6-2.5-6.8-3.9c-1.2-0.7-1.9-2.2-3.1-3c-1.4-0.9-2.2-2.9-4.5-2.9
			c0.2,2.8-0.1,5.5-0.8,8.2c1,0.3,1.9,0.1,3.1,0.9c-1.4-0.1-2.2-0.2-3.2-0.3c0,1-0.3,2.2,0.1,2.9c0.4,0.7,1.7,0.2,2.7,0
			c-0.4,0.8-1,0.8-1.5,0.9c-0.6,0.1-1.1,0-1.7,0c-0.4,6.2-1.6,12.1-2.2,18.2c12.3,1,24.4,1.9,36.5,2.9c0.1-0.6,0.6-1.2,0.3-1.8
			c-4.6-0.4-9-0.8-13.5-1.2c0.3-0.4,0.5-0.5,0.8-0.5c2,0.1,4.1,0.3,6.1,0.5C173.3,153.9,173.9,154.1,174.1,153.4L174.1,153.4z
			 M106.4,236.9c-2.3-0.7-4.6-0.8-6.9-1.1c-0.6,0.7-1.2,1.4-1.8,2.2c0,0.1,0.1,0.3,0.2,0.5c1.5,0.3,2.9,0.7,4.2,1c0,0.1,0,0.2,0,0.2
			c-2-0.3-4-0.5-6.1-0.8c0,0.2-0.1,0.4-0.1,0.7c3,0.2,6,0.7,9,1.6C105.4,239.8,105.5,238.2,106.4,236.9c0,1.2-0.2,2.5-0.6,3.7
			c-0.3,0.8,0,0.9,0.6,0.9c2,0.2,4,0.6,6,0.7c-2.3,0.6-4.7,0-6.9,0.1c-0.5,1.1-0.3,2.6-1.6,3.5c0.4-1.2,0.8-2.3,1.2-3.7
			c-4.8-0.4-8.9-2.1-13.3-1.3c0,0.4,0.4,0.5,0.1,0.8c-0.3,0-0.7-0.1-1,0.2c-0.8,1-1.3,2.2-0.9,3.5c0.3,1.1,0.8,2.1,2.2,2.3
			c0.8,0.1,1.6,0.2,2.3,0.3c3.8,0.5,7.5,1.6,11.4,1.8c0.7,0,1.5,0.4,2.3-0.1c-0.2-0.5-0.1-0.9,0.3-1.2c0.4,0.3-0.2,0.9,0.4,1.2
			c3-0.8,6.2-0.4,8.8-1.3c3.1-1.9,5.7-3.6,7-6.7c0.6,0.6,1.2,1.1,1.7,1.6c0.3,2,1.8,3.2,2.7,4.8c-0.9,0.8-1.2-0.2-1.7-0.6
			c-1.2,1-0.2,1.6,0.4,2.5c1.3-1.5,2.5-2.9,3.7-4.3c-1.5-1.7-2.6-3.5-4.3-4.9c-0.7-0.6-2-1.1-1.1-2.4c-1.3-0.4-2.7-0.8-4-1.2
			c0-0.1,0.1-0.2,0.1-0.4c2.6,0.5,5.1,1,7.7,1.5c-3.5-2.2-0.2-4.6-0.3-6.8c-0.2-0.2-0.4-0.3-0.6-0.5c0.2-0.7,0.7-0.5,1.1-0.5
			c0.1-0.5,0.3-1.1,0.4-1.5c-0.9-1.5,2.3-1.7,1-3.1c1.2-2.4,1.3-5.2,2.6-8.1c0.1,0.9,0.2,1.3,0.2,1.6c1.8,0.9,3.6,1.9,5.1,2.6
			c0.4-0.8,0.7-1.6,1-2.3c-1.2-0.7-2.1-1.3-3.2-1.7c-1-0.4-2.1-1.8-3,0.1c-1.3-0.1-2.6-0.2-3.8-0.3c-0.6,1.6-2.6,1.2-3.2,2.5
			c-0.6,1.3-0.2,2.9-1.1,4.6c0.2-2,0.3-3.5,0.5-5.1c-1.2,0.2-2.2,0.4-3.1,0.6c-0.2,2.5-0.3,4.9-0.5,7.4c-0.4-2.8-0.5-5.6-0.3-8.5
			c-2.4-0.1-4-1.8-6-2.9c-0.1,0.4-0.1,0.7-0.1,1c-0.2,0-0.3,0-0.5,0c-0.1,0-0.1,0-0.2,0c0.3-2.3-1.9-1.7-3-2.6
			c-0.4,4.1-0.8,8-1.2,11.8c2.2,0.1,4.4,0.3,6.5,0.4c0,0.1,0,0.3,0,0.4c-2.2-0.1-4.4-0.2-6.5-0.3c-0.1,0.5-0.2,0.7-0.4,1.1
			c-0.1-0.5-0.1-0.7-0.2-1c-2.5-0.4-5,0-7.4-0.9c2.6,0.1,5.1,0.2,7.5,0.2c0.6-3.9,0.6-7.7,0.8-11.4c-0.5-0.2-1-0.3-1.6-0.5
			c0.4-0.2,0.6-0.3,0.9-0.4c-0.1-0.3-0.1-0.6,0.2-0.9c0.2,0,0.3,0.1,0.6,0.1c0.1-0.4,0.2-0.7,0.3-1.2c-1.2,0.3-3.1-0.4-2.6,2
			c0.2,0.1,0.3,0.1,0.6,0.2c-0.2,0.4-0.6,0.7-0.2,1.3c-0.4-0.1-0.6-0.1-0.9-0.1c0-0.3,0.1-0.5,0.1-0.8c-0.7,0-1.3,0-1.9,0
			c0-0.1,0-0.2,0-0.3c0.6-0.1,1.2-0.2,1.8-0.2c0-0.5,0-0.9-0.5-1.1c0.1-0.8,0.8-1.4,0.6-2.3c-1.8,0-3.4,0.9-5.2,1.2
			c0.3-1.6-0.8-1.3-1.6-1.3c-0.2,1.6-0.1,1.7,0.5,2.1c0,7.6-2.1,14.9-3,22.2c3.3,0.6,6.6,1.2,9.9,1.8c0,0,0,0,0-0.1
			c1.7,0.3,3.3,0.5,5,0.8c-0.8,0.2-1.5,0.1-2.3,0C110.5,237.3,108.4,237.1,106.4,236.9L106.4,236.9z M196.4,145.2
			c0.8-0.4,0.7-1,0.6-1.8c-0.2-1.1,0.2-2.1,1.4-2.6c1-0.4,2.1-0.4,3.4-0.6c-1.4-0.4-2.6-0.9-3.8-1.2c-4.8-1.3-9.7-2.4-14.5-3.7
			c-3.1-0.9-6.2-2-9.2-3.2c-4.6-1.9-9.3-3.4-13.5-6.2c-3-1.9-5.6-4.3-8.3-6.6c-1.2-1-1.4-3.2-3.6-3.1c0.6,0,1.2-0.1,1.6-0.1
			c0.1-2.8-2.3-2.5-4.4-3c1.5-0.8,2.5-0.4,3.5-0.3c0-1.2-0.5-2-1.6-2.2c-0.8-0.2-1.6-0.2-2.5-0.4c-0.4-0.1-0.8-0.2-0.7-0.7
			c0.3-0.1,0.6-0.1,0.7-0.4c1.1,0.4,2.2,0.7,3.3,1c-0.4-4.1-4.2-3.5-6.5-5.5c0.5,2.7-1,4.9-0.9,7.3c-0.3-1.1,0.2-2.1-0.3-3.2
			c0.2-0.3,0.4-0.6,0.7-0.9c-0.5-1.4,0.7-2.8-0.1-4.2c0.3,0,0.4-0.1,0.7-0.1c-0.2-0.2-0.4-0.4-0.6-0.6c0.2,0,0.3-0.1,0.4-0.1
			c-0.4-0.6-0.4-1.2,0-1.9c0.2,0.4-0.1,1.1,0.6,1.2c1.8,0.4,3.3,1.4,5.1,2.1c0.2-0.6,0.3-1.2,0.5-1.8c-1.4-1.6-4.3-2.3-6.3-1.6
			c-0.2-0.1-0.4-0.3-0.6-0.3c-3.8,0.1-7.7,0.3-11.5,0.5c-0.9,0-1.8,0.5-3-0.2c5.3-0.8,10.2-0.7,15.2-1.1c0-0.5,0.2-0.8,0.6-1
			c-0.2-0.7,0.5-1.4-0.1-2.1c-2.5,0.2-5.1,0.5-7.7,0.7c-0.1-0.4-0.2-0.8,0.3-0.9c2.1-0.2,4.2-0.3,6.3-0.5c0.5,0,1.1,0.3,1.6-0.4
			c0.3,0.5,0.7,0.2,1.1,0.2c0.1-0.5,0.7-0.8,0.2-1.4c-0.2-0.2,0.1-0.5,0.3-0.5c1.3,0,1.4-1.2,2-1.9c0.8-0.9,1.3-2,2-3
			c0.1,0.1,0.2,0.1,0.3,0.2c-0.7,1.1-1.4,2.1-2.1,3.3c0.7,0.1,1.3,0.2,1.9,0.3c1.4-1,0.4-1.8-0.2-2.5c0.7-0.3,1.2,0.3,1.8,0.4
			c0.4-0.4,0.8-0.9,1.2-1.4c-0.8-0.7-1.6-0.8-2.8,0.1c0.5-0.6,0.7-0.8,0.9-1c-0.2-0.2-0.3-0.3-0.5-0.4c2.3,1,1.7-2.2,3.2-2.3
			c0.3-0.3,0.6-0.6,0.9-1c0.3,0.5-1,1,0,1.4c1.2,0.5,1.3-0.9,2.1-1.3c-0.6-0.4-1.1-0.9-1.9-0.4c0.3-0.4,0.5-0.7,0.7-1.1
			c0.6,0.1,0.8-0.5,1.3-0.8c0.2,0.5-0.3,0.6-0.4,0.8c1.7,1.2,2.2-0.4,3.2-1.5c-6.8,0.5-13.4,1-20,1.5c-0.2,0.4-0.3,0.7-0.5,1.2
			c0-0.5-0.1-0.8-0.1-1.2c-14.5,0.7-28.9,2.6-43.3,3.5c-1.1,2.6-0.6,5.6-1.4,8.3c-0.2-2.7-0.3-5.5,0.5-8.2c-1,0.1-2.1-0.3-2.1,1.4
			c0,1.2-0.4,2.5-0.6,3.7c-0.5,2.5-0.9,5-1.4,7.7c2.5-0.1,4.8-0.1,7.1-0.2c-2.4,0.9-4.9,0.8-7.3,1c-0.9,4.1-0.7,8.3-1.9,12.4
			c1.1,0,2-0.2,2.9-0.1c4.9,0.4,9.9-0.4,14.8,0c1.4,0.1,2.9-0.1,4.4,0.1c4.7,0.4,9.5,0.7,14.2,1c4.8,0.3,9.6,0.4,14.3,0.5
			c1,0,2,0.5,3-0.3c1.2,1.2,2.1-1.1,3.5-0.5c-1.4,0.8-0.7,1.9-0.4,2.6c1.4,3.5,3.6,6.4,6.2,9c1,0.9,2.1,1.7,3.2,2.5
			c1.6,1.2,3.4,2,5.1,3.1c0.2-0.5,0.4-0.8,0.9-0.8c-0.2,0.4,0.9,0.8-0.1,1.2c0.9,1,2.3,0.8,3.2,1.8c0.1,0,0-0.4,0.3-0.2
			c1.5,0.8,3,1.6,4.5,2.3c1.9,0.9,3.6,2.3,5.8,2.3c0,0.6,0.4,0.7,0.9,0.7c0,0.2,0,0.3,0,0.3c1.7,0.6,3.2,1.2,4.9,1.9
			c0.1-0.1,0.4,0,0.8,0.1c2.1,0.5,4.1,1,6.2,1.5c1.3,0.3,2.6,0.8,3.9,0.9c1.6,0.1,2.9,2.1,5,0.9c-0.2,0.3-0.4,0.5-0.6,0.8
			C195.5,144.6,196.2,144.5,196.4,145.2c-0.5,0-1.1,0-1.9,0c-0.3,1.6-0.6,3.3-1,4.9c-0.4,1.6-0.8,3.2-1.3,4.7
			c1.7,0.4,3.2-0.2,3.2-1.1c0.1-1.2,0.3-2.3,0.4-3.5C196,148.6,196.7,146.9,196.4,145.2L196.4,145.2z M71.5,50.6
			c-1.2,0.1-2.5,0.4-3.7-0.3c-0.9,0.4-1.9-0.1-3-0.1c0,1-0.6,1.9-0.2,2.5c-0.6,3.4-1.3,6.5-1.5,9.7c1.2,0.4,2.4,0.1,3.5,0
			c0.5-1,0.5-2.2,1.5-3c-0.2,1-0.3,1.9-0.5,2.8c3.8-0.2,6.7-2.3,9.5-4.4c2.2-1.6,3.3-4.1,4.8-6.4c1-1.5,1.8-3.2,3.8-3.7
			c0.1-0.2,0.1-0.4,0.2-0.5c3.9-0.7,6.7,1,9,4.8c0,1,0.4,2.6,2,3.8c0.5-2.8,0.9-5.5,1.3-8.2c0.4-2.3,0.7-4.6,1.1-6.9
			c0.4-3,0.9-6,1.3-9c0.3-2.3-0.3-4.3-2.1-5.9c0.3-0.2,0.5-0.4,0.7-0.6c0.6,0.6,1.3,1.1,1.6,1.9c1-0.2,1.3,0.2,1.1,1.1
			c-0.1,0.3,0,0.6,0.2,0.9c1.3,1.6,2.1,3.4,2.8,5.1c0.9,0.4,1.6,0.7,2.4,1c0.7,0.3,1.3,0.6,1.8,0.8c0.2-3.5-2.5-4-5-4.6
			c0.1-0.4,0.1-0.6,0.2-0.8c1.3-0.2,2.2,0.7,3.5,0.7c-3.9-7.3-8.9-13.6-16.3-17.4C85.7,11.1,80,9.2,73.6,8.5
			c-0.3-0.3-0.8-0.4-1.4-0.4c-2,0-4,0.5-5.9,0.9c-2.6,0.5-5.2,1.1-7.8,1.6c-2.2,0.5-4.1,1.6-6.3,2.3c-2.6,0.8-4.9,2-6.8,3.9
			c-1.9,2-4.3,3.4-5.8,5.8c-1.5,2.4-3.2,4.7-4.6,7.1c-1.9,3.1-2.7,6.6-3.7,10.1c-0.6,2.1-0.9,4.2-0.5,6.4c0.3,1.8,0,3.8,0,5.7
			c0,1.5,0.2,2.9-0.2,3.9c0.5,9.7,4.6,17.1,12.3,22.5c0.1-1,1.7-1.1,1.7-2.4c0.2,0,0.4,0,0.6,0c-0.1,0.3-0.2,0.5-0.2,0.7
			c0.1,0.1,0.2,0.2,0.4,0.2c-0.6,0.7-1.3,1.4-1.9,2.1c0.6,0.3,1.2,0.6,1.7,0.9c0.8-1.4,1.5-2.7,2.9-4.2c-0.2,1-0.4,1.6-1.1,1.9
			c0.4,1.1-0.8,1.7-0.8,2.6c-0.3,0.1-0.6,0.1-1.1,0.2c1.2,0.4,2.3,0.6,3,1.2c1.2-1.9,1.6-4.4,3.9-5.5c0.2,0.5-0.2,0.7-0.4,1
			c-0.8,1.7-1.6,3.4-2.3,5c0.8,0.4,1.4,0.7,2,1c0.7-2.3,2.5-4,3-6.4c-1,0.4-1.4-0.8-2.3-0.6c-0.1-0.1-0.2-0.3-0.4-0.4
			c-1.5-0.7-2.6-1.9-3.9-2.8c-1.2-0.8-2-2-3-2.9c-1.4,0.8-1.1,3.3-3.6,3.4c0.7-1.9,2.3-2.8,2.8-4.4c-1.2-1.1-2.4-2.3-3.3-3.8
			c-0.3,0.7-0.5,1.3-0.8,1.8c-0.3,0.7-1,0.6-1.1-0.1c1-0.3,0.9-1.4,1.7-1.9c-2.1-2.7-3.8-5.6-4.5-8.9c-0.4-2-1-4-1.8-5.9
			c-1.2-3.2-0.3-6.5-0.5-9.8c0.4,0.2,0.5,0.3,0.5,0.3c1.2-1,1-2.5,1.8-3.9c0.6,1.1,0.1,2-0.2,2.8c-1,2.5-1.5,5.1-1.2,7.8
			c0.2,2.1,1,4,1.5,6c0.4,1.5,1.1,3.1,1.7,4.6c1.1,2.3,2.4,4.6,4,6.7c1,1.3,2.1,2.5,3.1,3.8c1,1.3,2,2.4,3.2,3.4
			c1.4,1.2,2.9,2.3,4.5,3.3c0.7,0.4,1.3,1.2,2.2,1.4c0.5-0.5,0.7-1.3,1.5-1.5c-0.3,0.7-0.6,1.3-0.9,1.9c0.4,0.3,0.7,0.5,1.1,0.7
			c0.6-0.4,1.3-0.8,2-1.3c0.2,0.8-0.8,0.8-0.8,1.5c0.4,0.5,0.8,0.9,1.5,0.1c0.4-0.4,0.5-1.3,1.5-1c0,0.8-1.3,1-1,1.9
			c1.6,1,2.3,0.6,2.1-1.3c0,0,0,0,0-0.1c1.2-3.7,0.8-4.7-2.4-6.8c-1.7-1.1-2.2-2.8-2-4.6c0.2-1.8,1.5-2.7,3.3-3
			c0.5-0.1,1.5,0.1,1.6-0.8c0.1-0.6,0.3-1.1,0.5-1.6c-0.4-0.4-0.4-0.6,0.1-0.8c-0.1-0.2-0.3-0.3-0.3-0.4c0.3-2.1,0.8-4.1,0.8-6.2
			c-0.2,0.1-0.3,0.2-0.4,0.2c-1.7-0.1-3.5-0.2-5.2-0.2c-1.4,0-2.8-0.1-3,1.8c-0.2,0.1-0.3,0.1-0.3-0.2c0-0.5,0.1-0.8,0.6-1.1
			c-0.1-0.3-0.2-0.5-0.3-0.8c-0.6,0.5-1.3-0.6-1.9,0.1c0,0.8,0.9,0.9,1,1.5c-0.2,0.1-0.4,0.3-0.6,0.4C53,54.5,53,53.9,52.4,54
			c-0.1,0.4-0.2,0.9,0.1,1.3c-0.6,0.1-0.4,0.7-0.9,1.6c0.1-1.8-0.8-2.5-2-3.3c-0.3,1.9-0.5,3.7-0.7,5.5c0.1-2-0.6-4,0.3-6
			c-0.5-0.3-0.8-1-1.5-0.6c-0.2,0.5-0.4,1.1-1.1,1.5c0.2-1.1,0.4-2,0.5-3c-2.6-1.2-4.3-4.3-3.5-7.6c0.8-3.5,2.8-5.8,7-4.8
			c3.4,0.8,5.2,3,5.8,6.4c0.3-0.1,0.6-0.2,0.6-0.2c2.6,1.4,3.6,5.1,7.3,4.6c1.3-5.5,1.7-11.3,3.2-17c0,0-0.2-0.2-0.1-0.3
			c0.6-1.5,0.8-3.2,0.8-4.8c-0.1-2,2-4.1-0.2-6.1c0,0,0-0.1,0.1,0.2c-4.6-0.9-9-1.4-13.4-2.4c-1.2,0-2.4-0.2-3.6-0.1
			c-2.2,0.2-3.1,2.1-4.5,3.4c-0.5,0.4-0.9,1-1.6,1c-1-0.1-1.4,0.6-1.8,1.3c-0.6,0.9-1.1,1.9-1.7,2.9c0,0,0.1,0.3-0.1,0.5
			c-0.1,0.1-0.3,0-0.4,0c0.4-5,5.4-7.4,6.4-12c0.3,0.1,0.5,0.1,0.8,0.1c0.1,0.2,0.1,0.4,0.2,0.6c0.2-0.2,0.5-0.3,0.7-0.5
			c-0.6-0.5-0.2-0.9,0-1.2c0.7,0.4,1.5,0.6,1.7,1.4c6.8-1.2,13.4-2.9,18.9-4.2c9.1,1.3,16.8,3.5,23,9.4C87,19.3,82.1,15,75.6,15.4
			c-0.1,0.9-0.2,1.9-0.4,3.1c4.1,0.7,8.3,1.5,12.5,2.2c0,0,0,0.2,0,0.6c-4.3-0.7-8.4-1.4-12.6-2c-0.2,0.7-0.4,1.4-0.5,2.1
			c-0.1,0.4,0.1,0.6,0.5,0.7c3.7,0.7,7.4,1.4,11,2.1c1.3,0.2,2.5,0.6,3.7,0.9c-0.2,0.6-11.5-1.1-12.4-1.8c-1.1,0.5-2-0.9-3.2-0.4
			c-0.4,2.6-1,5.3-2,7.8c0.5-2.7,1.1-5.4,1.3-8.1c-0.6-0.1-1.2-0.1-1.8-0.2c-0.2,1.4-0.4,2.8-0.6,4.1c-0.7-0.2-0.7-2.7-0.1-4
			c-0.2-0.5-0.6-0.5-1.3-0.6c-1.6,9.2-3.2,18.4-4.8,27.7c0.3,0,0.6,0,0.9,0.1C67.8,49.9,69.7,49.8,71.5,50.6L71.5,50.6L71.5,50.6z
			 M125.3,173c0.2-0.1,0.3-0.2,0.5-0.2c2.4-0.4,4.8-0.2,7.2-0.4c0.6-0.1,1.9,0.9,2.1-0.7c0.1-0.6,0.3-0.8,0.8-0.8c0,0.5,0,1-0.1,1.5
			c3.3,0.1,6.6,0.1,9.8,0.2c-2.2,0.3-4.4,0.6-6.6,0.5c-3-0.2-3.4,0-3.4,2.4c3.7-0.1,7.5,0.3,11.2-0.2c-3.8,0.9-7.6,0.8-11.5,0.8
			c-1,5.9-1.9,11.7-2.9,17.5c0-5.9,1.3-11.5,2-17.4c-3.3,0-6.6-0.1-10.1-0.1c-0.8,6.6-1.6,13.3-2.4,19.9c-0.2,0-0.3,0-0.5-0.1
			c0.7-6.6,1.5-13.2,2.2-19.9c-0.4,0.1-0.6,0.2-0.9,0.3c-0.4,3-0.7,5.9-1.2,8.9c-0.6,4-1.4,8-2.2,12c-0.1,0.3,0,1.1-0.8,1
			c1.2-7.3,2.3-14.6,3.5-22.1c-5.3,0.3-10.6,0.6-15.7,0.8c-0.3,5.2-0.5,10.1-0.7,15.1c-0.2,0.1-0.6,0.4-0.8,0.5
			c-0.5,1.2,0.5,2.5-0.7,3.6c-0.1-0.6-0.2-0.9-0.2-1.3c0.2-3.1,0.5-6.2,0.5-9.3c0-2.6,0.3-5.3,0.2-7.9c0-1.9,0-3.9,0.5-5.9
			c0.5-2.2,0.4-4.5-0.2-6.8c-1.3-4.9-2-9.9-4.7-14.3c-0.3-0.5-0.7-1.1-1.1-1.8c-0.2,2.2-0.4,4.1-0.6,6c-0.1-0.2-0.3-0.4-0.4-0.4
			c-0.1-1.8-0.3-3.6,0.2-5.3c0.7-2-1.4-3.1-1.6-4.8c-0.3,0.6-0.6,1.1-0.6,1.7c0,2.2-0.4,4.4,0.6,6.7c1.1,2.5,1.5,5.3,1.9,8.1
			c0.7,3.8,1.2,7.5,0.6,11.4c-0.6,3.9-1.2,7.9-1.6,11.8c-0.4,3.1-0.8,6.3-0.9,9.5c-0.1,4.5-0.1,8.9,0.1,13.4
			c0.3,5.5,0.4,11.1,0.1,16.7c0.2,0,0.5,0,0.6,0c0.6,1.3-0.5,1.9-0.8,2.8c-0.9,2.5-2.1,4.9-4,6.7c-0.2,0.2-0.3,0.5-0.2,0.7
			c0.2,0.7-0.2,0.9-0.7,1.1c-0.9,0.3-2.2,0.3-2.8,0.8c-1.9,1.3-4.4,1.1-5.9,2.9c-1.5,1.6-2.2,3.5-1.9,5.7c0.3,2.1,1.3,3.9,2.6,5.6
			c0.4-0.1,0.6,0.5,1,0.8c0.1-1.1-2.6-1.9-0.4-3.2c0.4,0.8,0.6,1.5,1,2.2c0.5-0.2,0.5-1,1.2-0.7c-0.2-1.5,1.8-0.7,1.8-1.8
			c-0.8-1.1-1.8-2.4-1-3.6c0.7-1.1,1.3-2.3,2.2-3.3c0.5-0.5,1-1.3,1.6-1.3c2.1-0.1,3.1-2.2,5.1-2.5c0-0.2-0.1-0.3-0.1-0.5
			c0.2-0.1,0.4-0.2,0.7-0.3c-0.6-0.3-0.4-0.8-0.5-1.2c0.9,0,2,0.7,2.4-0.7c0.4-1.1,0.2-2.3,0.6-3.4c0.6-1.9,0.8-4,1-6
			c0.3-2.9,1.1-5.6,1.1-8.5c0-1.4-0.1-2.9,0.1-4.3c0.2-1.2-0.1-2-0.8-2.9c-1.3-1.7-0.6-3.9,1.5-4.6c1.4-0.5,2.9,0,4.3-0.7
			c1.8-1,3.8-0.5,5.8-0.8c2-0.3,3.7,0.5,5.4,1.2c1.7,0.7,3.2,1.8,5.2,1.7c1.8-0.1,3.7-0.3,5.6-0.1c3.8,0.5,5.8,5,3.7,7.9
			c0.4,0.4,1.2-0.1,1.3,0.7c-1.6,1.4-4.1,0.2-5.8,2c2.4,0.6,4.1-0.8,6.3-1.8c-1.3,1.4-2.6,2.2-4.4,2.6c1.6,0.4,3,0.5,4.3,0.4
			c-0.4-1.1,1-1.2,1.2-2c-0.1,0.3-0.1,0.6-0.2,1c2,0.2,3.7,1.4,5.5,2.4c0.1-0.7,0.3-1.4,0.4-2.2c-1.7-0.9-3.4-1.7-5.1-2.6
			c-0.2,0.3-0.3,0.5-0.4,0.7c-0.5-0.2-0.2-0.6-0.3-0.9c-0.4-0.1-1-0.2-0.5-0.9c0.2,0.1,0.5,0.2,0.8,0.4c0.2-1,1.5-1.8,0-2.8
			c-0.2-0.1,0-0.5,0.4-0.6c1-0.3,1.2-1.4,0.8-1.9c-0.7-1.1-0.3-1.1,0.6-1.1c0-0.5,0.1-1,0.5-1.4c-0.5-0.2-0.9-0.4-1.3-0.6
			c0.2-0.6,0.7-0.6,1.1-0.4c0.8-0.6,0.4-1.7,1-2.4c1.6,0.4,2.9,1.3,4.3,2.1c0.4,0.2,1.1,0.6,1.3,0c0.2-0.6,1.1-1.6-0.1-2.1
			c-1.4-0.6-2.9-1.4-4.6-1.2c-0.2,0.5-0.2,1.1-0.8,1.2c0.2-1,0.4-2,0.6-3c0.7,0.2,0.3,0.8,0.6,1c1.9-0.3,3.3,1,5,1.6
			c0.2-0.6,0.5-1.2,0.8-1.8c-1.8-1-3.5-1.9-5.5-2.5c0.2-0.3,0.3-0.5,0.4-0.7c1.9,0.5,3.5,1.6,5.2,2.5c0.2-0.6,0.4-1.1,0.7-1.7
			c-2-0.9-3.9-2-6.2-2.2c-0.2,1.3-0.3,2.4-0.5,3.9c-0.5-0.7,0.2-1.4-0.3-1.7c0.6-2.1-0.1-4.4,1.1-6.3c-0.3-0.8,0.1-1.4,0.3-1.7
			c0.3-1.7,0.7-2.9,1.8-4c-0.1-0.2,0-0.5,0.2-0.9c0.6-1.1,1.7-2,2.1-3.1c0.6-1.4,1.4-2.4,2.5-3.3c1.9-1.4,3.7-2.9,6-3.7
			c1.8-0.7,3.5-1.3,5.5-1.5c1.4-0.1,2.9,0.5,4.1-0.8c0.1-0.1,0.5,0,0.6,0.1c0.3,0.9,1.1,0.5,1.5,0.7c0.5-0.5,0.4-1.5,1.8-1.8
			c-0.5,0.8-0.8,1.3-1.2,1.9c3.4,0.1,6.2,0.7,9,1.3c-0.1-0.5,0.1-0.9,0.4-1.2c0.6,0.4-0.2,1,0.3,1.5c0.3,0.4,1,0,1.5,0.3
			c0.5-1.6,0.5-1.6,1-1.4c-0.1,0.5-0.2,1-0.2,1.4c2.2,1.1,1.6-1.6,2.8-2.1c-0.1,0.9-0.6,1.5-0.3,2.2c1.1,0.2,2.4-1,2.2-2.1
			c-0.2-1.5,0.2-2.9,0.3-4.3c0.1-1.1,0.7-2,1.2-2c-0.9,2.8-0.8,5.8-1.3,8.7c0.2,0,0.6,0.1,1.1,0.2c0.1-0.3,0.3-0.6,0.4-0.9
			c0.7,0.3,0.5,0.7,0.1,1.1c0.5,0.1,0.8,0.1,1.1,0.1c0.1-0.2,0-0.5,0.3-0.5c0.5,0,0.1,0.6,0.4,0.7c2.8,1,2.8,1,3.4-0.2
			c0.1,0.4,0.1,0.8,0.2,1.2c0.9,0,1.7,0.8,2.8,0.2c-1.2-2.6-0.4-4.9,0.7-7.3c0.5-1,1.2-1.8,1.4-2.9c0.6-2.6-0.1-3.6-3.1-4.2
			c-0.4,2.5-0.7,5.1-1.1,7.6c-0.1,0-0.2,0-0.3,0c0.1-2.5,0.3-5,0.4-7.6c-3.2-0.3-6.3-0.5-9.4-0.8c-0.3,2.3-0.6,4.6-0.9,6.8
			c-0.1,0-0.2,0-0.3,0c0.1-2.3,0.3-4.6,0.4-7.1c-12.8-1.6-25.5-2.3-38.3-3.7c0.4,1.6-0.3,3.2-0.3,4.7c-0.5,0-0.8,0-0.7-0.5
			c0.1-0.6,0.2-1.2,0.2-1.7c-0.1-1.3,1-3.1-1.4-3.3c-0.1,0-0.1-0.3-0.2-0.6c0.6,0.7,1.3,0.1,1.8,0.4c0.1-0.8,0.1-1.6,0.2-2.4
			c-1.1,0-2-0.1-3.2-0.1c-0.7,5.1-1.4,10.2-2.5,15.3c-0.3-0.2-0.5-0.4-0.7-0.5c1-5,1.7-9.9,2.2-14.8c-0.1-0.1-0.3-0.2-0.4-0.2
			c-2.9,0-5.7-0.5-8.5-0.7c-0.6,0-1.5-0.5-2,0.1c-0.7,0.9-0.4,2.1-0.7,3.2c0.7,0,1.3,0.1,1.9,0.1c0,0.1,0,0.1,0,0.2
			c-0.6,0-1.3,0.1-2,0.2c-1,6-2,11.9-3,17.9c0.7,0.3,0.9,0,1-0.4c0.2-1.1,0.3-2.2,0.5-3.2c0.3-2.1,0.7-4.1,1.2-6.2
			c0.4-1.8,0.8-3.6,1.4-5.4c0.8,0.6,0.1,1.2,0,1.7c-0.5,2.4-1.1,4.9-1.5,7.3C125.4,170.3,124.4,171.6,125.3,173
			c-1.1,0.5-0.5,1.5-0.7,2.3c3.4,0.1,6.7,0.2,10,0.2c0-0.9,0.1-1.6,0.1-2.1C131.5,173.2,128.4,173.1,125.3,173L125.3,173z
			 M59.9,133.9c-0.4,0.1-0.8,0.3-1.2,0.3c-2-0.3-3.9-0.7-5.9-0.9c-0.7-0.1-1.9-0.9-1.8,0.9c2.6,0.7,5.2,1.2,7.9,1.5
			c0,0.2,0.1,0.4,0.1,0.6c-2.8,0.3-5.4-1-8.5-0.7c-0.1,0.6-0.2,1.5-0.4,2.4c-0.1,0.6,0.1,0.9,0.7,1c3.1,0.5,5.6,1.8,7.2,4.7
			c0.6-0.3,0.4-0.9,0.7-1.3c0.3-0.5,0.8-0.7,1.5-0.4c-1.9,2.4-0.6,4.1,1.3,5.8c0.2-1.4,0.3-2.7,0.6-4c0.3-1.3,0.3-2.7,1.7-3.7
			c-0.5,3-1,5.9-1.5,9.1c1.2-0.6,2.1-1,3.1-1.5c0.2-0.1,0.2-0.4,0.2-0.6c0-1.7-0.1-3.3-0.1-4.9c0-1.1-0.4-2.6,1.6-3.2
			c-0.4,2.8-0.9,5.4-0.9,8.2c0.5,0,0.9-0.1,1.1-0.7c0.4-1.8,0.6-3.6,0.4-5.5c0-0.5,0.3-1.1,0.7-1.4c0.4-0.4,0.8,0,1,0.2
			c1.2-0.4,1.4-1.4,1.6-2.4c0.9-0.2,1.5-0.2,1.1,0.9c0.8,0.6,0.8-2.2,1.9-0.4c0.4,0,0.9-0.1,1.5-0.1c0-0.2,0-0.5-0.1-1.1
			c2.8,1.2,5.2-1.1,8-0.3c0-0.2,0.1-0.3,0.1-0.5c-1.4-0.2-2.7-0.5-4.1-0.7c5.1-0.4,9.9,0.5,14.4,3.1c-0.1,0.2-0.2,0.4-0.2,0.5
			c-2.1-0.7-3.9-1.8-6.2-2.1c0.3,0.7,0.8,0.9,1.2,1.2c0.3-0.1,0.6-0.2,0.8-0.3c0.8,1.1-1.8,2.2,0.4,3.1c-0.5,0.1-0.8,0.1-1.1,0.1
			c-0.1,1.1-0.3,2.2-0.4,3.2c0.7,0.4,1.4,0.8,2.1,1.2c0.2-1.8,0.5-3.5,0.7-5.4c-0.3-0.2-0.6-0.6-1.1-1c1,0,1.3,1.3,2.4,0.8
			c0.1,1.2,0.9,1.6,1.6,1.9c9,8.9,12.1,20,13.2,32c2.5,0.2,5.5-0.3,8.5,0.5c-0.2,0.1-0.3,0.3-0.5,0.3c-2.5,0.5-5.1,0.4-7.6,0.3
			c-1,0-1.4,0.5-1.1,1.6c5.3-0.5,10.6-0.6,15.8-0.7c0.2-1.3,0.3-2.4,0.5-3.5c0.4-1.9,0.7-3.7,1-5.6c0.5-2.6,0.9-5.3,1.4-7.9
			c0.1-0.8-0.2-1-0.7-1c-1.6,0-3.2,0.1-4.9,0.1c-0.7,0-1.5,0.3-2.6-0.8c3,0.1,5.6,0.2,8.3,0.3c0.5-0.9,0.5-2.1,0.6-3.2
			c-3.4-0.7-7.1,0.1-10.6-1.5c1-0.7,1.4,0.2,2,0.2c1.9,0,3.8,0.4,5.6,0.3c1.4-0.1,3.5,1.3,3.8-1.7c0.9,0.6-0.2,1.3,0.3,1.9
			c3.5,0.3,7.1,0.6,10.7,0.9c1.6-6,2.3-12.1,3.5-18.2c-4.5-0.5-8.9-1-13.3-1.5c-0.1,0.2-0.2,0.5-0.3,0.7c0.1,0.5,0.8,0.5,0.6,1
			c-0.2,0.5-0.6,0-0.8,0.1c-0.3,0.4-0.2,0.7-0.2,0.8c-1.1,4.5-1.4,8.9-2.4,13.2c0-1.2,0.2-2.4,0.2-3.6c0.1-3.1,0.6-6.2,1.1-9.3
			c0.3-2-0.5-3.3-2.2-2.9c0,0.8,0.5,1.4,1,2c-0.1,0.2-0.3,0.4-0.4,0.6c-0.5-0.1-0.2-0.9-0.8-0.9c-0.8,1.6-1.1,3.2-0.8,5.3
			c-1.6-1.2-0.1-3.1-1.3-4.4c-0.1,0.6-0.2,0.9-0.2,1.3c-0.7,0-1-0.1-0.8-0.8c0.1-0.4,0.4-1.1,0.2-1.3c-1-1.1-1.7-2.7-3.2-3.3
			c-1.7-0.7-2.6-1.9-3.2-3.6c-0.8-2.1-1.6-4.1-0.5-6.4c0.6-1.1,1.5-1.9,2.3-2.8c1.2-1.3,3.6-2,4.6-1.4c1-0.2,1.9-0.1,2.8,0.1
			c3.4,0.9,4.8,4.1,7.1,6.2c0.8,0.7,1.4,1.7,2.2,2.5c-0.1,0-0.3,0.1-0.4,0.2c-0.9-0.9-1.7-1.6-2.6-2.5c-0.3,3.3,1,4.8,3.9,5.2
			c2.4,0.3,4.9,0.7,7.3,1.1c1,0.2,1.1-0.4,1.1-1.1c0-1.9,0.2-3.8,0.7-5.7c0.2-0.7,0.3-1.5-1-1.3c-0.8,0.1-1.6,0.1-2.4,0.1
			c0.1-0.1,0.1-0.1,0.1-0.2c0.1,0,0.2-0.1,0.3-0.1c2.1,0.1,3.6-0.2,3.2-3c-0.3-1.6,1-3.2-0.1-4.8c-1.5,0.1-2.9,0.2-4.4,0.2
			c-2.7,0-5.4,0.2-8.1,0c-3.7-0.2-7.3-0.6-11-0.9c-3.4-0.3-6.7-0.5-10.1-0.7c-1.1-0.1-2.2-0.4-3.3-0.3c-3.2,0.1-6.3,0.3-9.5,0.4
			c-3,0.1-6,0-9,0C86.8,120,85,126,84,132.2c-0.4,0-1,0.1-0.8-0.6c0.4-2.1,0.8-4.1,1.2-6.2c0.7-3.8,1.4-7.7,2.1-11.6
			c-10.5-0.1-21-0.2-31.4-0.3c-0.1,1-0.2,1.9-0.3,2.9c9.4,0.3,18.6,1.4,28,1.3c-0.3,0.7-1,0.9-1.5,0.9c-2.8,0-5.7-0.1-8.5-0.2
			c-5.9-0.3-11.7-0.7-17.5-1.1c-0.6,0-0.8,0.1-0.9,0.7c-0.7,3.1-1.4,6.1-2,9.2c-0.4,1.7-0.7,3.3-1,5c1.8,0.3,3.6,0.6,5.3,1
			C57.8,133.4,58.8,133.7,59.9,133.9L59.9,133.9L59.9,133.9z M105.4,79.9c9.5-1.3,19-3,28.6-3.6c-0.2,0-0.3,0-0.5,0
			c0.7-1.9,0.8-5.9,0.2-6.2c-2.6,0.4-5.1,0.6-7.6,0.4c2.6-0.4,5.1-0.6,7.7-0.8c0.4,0,0.8-0.2,0.8-0.6c0.2-1.4,0.3-2.7,0.5-4.4
			c-8.2,0.5-16.3,1.1-24.5,1.6c-0.5,0.5-1.3-0.2-2.1-0.4c0.6-0.1,1.1-0.2,1.7-0.3c-0.6-0.3-1.1-0.6-1.6-0.8c0-0.3,0-0.6,0-1.1
			c2.4,1,4.7,1.5,7.2,0.9c2.3-0.6,4.5-1.5,6.8-2.6c0,0.1,0-0.1,0.1-0.3c1.3-0.6,2.3-1.8,3.9-1.7c-0.5,0.3-1.1,0.7-1.6,1
			c5.2-2.4,10.2-5.2,15.8-6.6c0.1,0.6,0.1,0.8,0.2,1.1c0.6,0.1,1.2,0.3,1.8,0.1c0.1-0.9,0.3-1.8,0.4-2.7c-0.4,0.1-0.7,0.1-0.8-0.2
			c1.6-2,4.6-1.8,6-4.2c0.3-0.1,0.8-0.2,1.1,0.2c0.2-0.1,0.4-0.2,0.7-0.3c-0.5,1-1.1,2-1,3.1c1.9-0.1,3.7-0.1,5.7-0.2
			c-0.1,0.3-0.1,0.4-0.2,0.4c-1.6,0.2-3.3,0.5-4.9,0.5c-0.7,0-1,0.3-1.1,0.8c-0.1,0.7,0,1.4-0.4,2.1c-0.2,0.3,0.2,0.5,0.5,0.4
			c1.3-0.4,2.6-0.2,3.9-0.1c0.4,0,0.9-0.3,1.4,0.2c-1.3,0.5-2.5,0.3-3.7,0.5c-1,0.1-2.6-0.6-2.3,1.6c5.5-0.4,11-0.1,16.6,0
			c-0.1-0.5-0.2-0.8-0.6-1.1c-0.7-0.5-1.3-1-1.9-1.7c-2.3-2.5-2.9-5.7-3.3-9c-0.2-1.8-0.3-3.6,0.8-5.2c0.4-0.6,1-1.1,1.8-2
			c-1,0.6-1.6,1-2.3,1.3c-4.4,1.7-8.7,3.6-13,5.6c-5.4,2.6-10.9,5.1-16,8.4c-3.8,2.4-7.7,4.7-12.2,5.7c-1.4,0.3-2.8,1.2-4.3,0.9
			c-1.2-0.2-2.4-0.6-3.5-1.2c0.2,0.3,0.5,0.6,0.7,0.9c-0.3,1.1-1,0.7-1.7,0.3c-0.9,1.1-2-0.9-3,0.3c-0.9-0.2-1.8-0.6-2.1-1.6
			c-0.4-1.5-0.7-3-0.6-4.6c0.2-2.3-0.1-4.6,0.8-6.8c0.4-2.1,0-4.2,0-6.1c-0.9-0.8,0.3-1.6-0.1-2.3c-0.4-0.7,0.1-1.8-0.9-2.2
			c0.1-2.6-0.9-5-1.9-6.4c-1.9,12.7-3.8,25.4-5.7,38.1c0.3-0.1,0.9,0.4,1.2-0.3c0.2,0.1,0.5,0.3,0.7,0.4c-0.1,0.4-0.5,0.6-0.8,0.5
			c-1.3-0.4-1.7,0.2-1.9,1.4c-0.5,2.7-1.2,5.3-1.8,8c-0.4,2.2-0.8,4.5-1.1,6.8c0.5,0,1.1,0,1.6,0c1.5-4.1,1.8-8.4,3.7-12.3
			c-0.4,4.1-1.6,8.1-2.5,12.2c14.5-1.3,28.8-2.6,43.2-3.8c0.3-1.9,0.6-3.8,0.9-5.8c-1.4-0.1-4.6,0.5-4.8,0.7
			C124.3,77.8,114.9,79.3,105.4,79.9L105.4,79.9z M78.6,101.7c-2-0.2-3.9,0.1-5.8,0.2c-2,0.2-3.9,0.4-5.9,0.7
			c-2,0.3-4.1,0.5-6.1,0.7c-0.3,0-1,0.3-1-0.7c-0.6,1-1.6,0.8-2.6,1c0.2-0.2,0.5-0.3,0.3-0.6c-0.1,0-0.2,0-0.5,0
			c2.2-1.8,4.6-3.2,6.2-5.5c1.5-2.2,3.2-4.3,4.8-6.5c-0.7-0.3-0.3,0.5-0.6,0.5c-0.5,0.2-0.6-0.3-1-0.4c-0.9,0.7-1.9,0.8-3.1,0.1
			c0.4-0.3,0.7-0.6,0.2-0.9c-1.4,0.3-1.9,1.2-1.9,2.6c0,1.4-0.9,2.5-2.2,3.2c-0.3,0.2-1-0.1-1.2,0.2c-1.3,1.4-2.8,2.5-4.2,3.7
			c-1.6,1.4-3.2,2.9-4.9,4.2c-1.4,1-2.5,2.2-3.7,3.3c-1.7,0.7-2.7,2.5-4.4,2.9c-2,1.6-3.8,3.3-6.2,4.4c0.1,1-1.3,1.2-1.6,2.4
			c1.5,0.2,1.5,1.6,1.9,2.6c1.5-0.9,2.9-1.8,4.2-2.6c2.2-0.9,3.7-2.8,5.7-3.8c0.4-0.2,0.1-0.5,0.1-0.9c0.8-0.1,1.3-1,2.3-0.8
			c0.1,0.2,0.1,0.4,0.2,0.7c1.1,0.1,2.2,0.2,3.3,0.3c0,0.1,0,0.2,0.1,0.5c1.5-1.6,1.1-3.5,1.6-5.4c-0.5,0.6-0.9,0.8-1.5,0.8
			c0.5-1.2,1.7-1.6,2.5-2.9c0.1,1,0,1.5-0.3,1.8c-0.3,1.9-0.6,3.5-0.9,5.3c0.6-0.1,1.6,0.5,1.9-0.2c0.6-1.5,0.7-3.2,1.2-4.8
			c0.2-0.7-0.4-2,1.1-2.1c-0.5,2.4-0.9,4.8-1.4,7.3c10.4,0,20.8,0.1,31.3,0.1c0.6-4.2,1.1-8.3,1.7-12.3c-1.9,0.2-3.9,0.3-5.7,0.6
			c-1.4,0.3-3-0.3-4,1.1C78.6,102.2,78.6,101.9,78.6,101.7L78.6,101.7z M18,146.2c-1.7-1.4-3.2-2.7-2.8-5.2c0.5-0.2,1.2-0.3,1.2,0.4
			c0,1.3,0.8,2.1,1.5,3c0.4-0.1,0.9-0.7,1.2,0.1c0.2,0.4,0.3,0.7,0.8,0.8c1.1,0.4,2.2,0.8,3.3,1.2c1.5,0.5,2.6,1.7,4.2,1.6
			c0.7,0.9,1.7,0.7,2.5,0.9c1.6,1,3.3,1.7,5.3,1.2c0.1,0.2,0.2,0.4,0.3,0.5c3.2,0.2,6.4,0.3,9.4-1.2c-0.5-0.6-1-1.1-1.2-1.8
			c-0.3-1-2.1-1-1.7-2.6c-2.7-2.2-3.8-5.2-4.4-8.6c-0.2-1.1-0.6-2.3-2-3.5c0.5,1,0.5,1.5,0.4,1.9c0.3,0.3,0.6,0.6,0.9,0.9
			c-0.1,0.4-0.2,0.5-0.6,0.5c-0.2-0.1-0.3-0.3-0.6-0.5c0,4.6-1.4,8.8-1.9,13.1c-0.6-1.6-0.3-3.1-0.2-4.7c0.2-2.3,0.7-4.6,1.1-6.9
			c0.3-1.7,0.2-3.3-1.2-4.4c-0.8,1,0.5,1.4,0.6,2.2c-0.3,0-0.6,0-0.9-0.1c0,0.6-0.1,1.1-0.5,1.5c-0.5-0.3,0.3-0.7,0-1
			c-0.3,0.1-0.7,0.2-0.9,0.3c-1.9-2-3.6-4.1-4.8-6.7c-0.7,1.3-0.1,2.5-0.6,3.7c-1-0.6-0.6-1.8-1.2-2.7c-2.9,2.1-6.6,3-8.9,6.1
			c-0.3-2.8,2.3-3.5,3.7-5c1.4-1.6,3.2-2.8,5.4-3.2c-1.1-1.6-1.1-3.2-1.3-4.8c-0.3,0.4-0.5,0.7-0.7,0.9c-2.6,1.9-5.3,3.7-7.7,5.8
			c-2.2,1.9-4.9,3.3-5.6,6.6c-0.3,1.3-1.1,2.5-1.1,3.9c0,1.6-0.4,3.3,0,4.8c1.1,3.6,3.5,6.3,6.7,8.3c1.2,0.7,2.5,1.3,4.1,1.5
			c-0.3-2,1.7-4.3-0.8-6.1c-0.4,0.4-0.7,0.6-1.2,0.4c0-0.3,0-0.6-0.1-1.1c-0.7-0.1-0.9-1.2-1.9-0.9c0.4,1.2,1,2.2,2.3,2.7
			c-0.1,0.3-0.1,0.5-0.2,0.8c-1.3-0.5-2.4-1.2-3.3-2.2c-0.6,0.4-1.1,0.2-1.7-0.2c0.4-0.2,0.8-0.4,1.1-0.6c-0.4-0.7-0.7-1.3-1.1-2
			c-0.8,0.6-1.4,1.6-3,1.2c2.9-1,2.4-3.7,3.1-5.7c0.5,0,0.8,0.1,1.3,0.1c-1.8,2.2-0.3,3.7,1.1,5.6c-0.1-0.9-0.1-1.4-0.2-2
			c1.3-0.1,1.5,1.4,2.5,1.7C17.8,146.6,17.9,146.4,18,146.2L18,146.2z M203.8,140.8c0.9,1,2,1.7,3,2.6c1.9,1.7,3.6,4.3,2.8,7.1
			c0,0.2,0,0.5,0.1,0.5c1.6,0.7,1.1,2.5,2,3.5c0.3,0.3,0.6,0.7,0.1,1.3c-0.5-0.6-0.9-1.2-1.4-1.8c-0.2,1.6,0.7,3.1,1.8,2.8
			c0.2-1.8,0.4-3.7,0.6-5.5c-0.9-0.5-1.8-1-3-1.2c0.5-0.2,0.7-0.4,1-0.3c1.8,0.3,3.6,0.6,5.5,0.3c1.4-0.2,2.7-0.3,3.6-1.4
			c0.2-0.2,0.3-0.5,0.6-0.4c0.3,0.1,0.6,0.2,0.7,0.6c0.2,0.9,0,1.7-0.1,2.5c-0.2,2-0.5,4.1-0.7,6.1c2.1,0.2,4.3,0.4,6.5,0.6
			c0.3-3.8,0.8-7.5,0.6-11.2c-1.1,0.2-1.8,0.5-1.6,1.7c0.1,0.8,0,1.7-0.1,2.5c-0.1,0.8-0.3,1.5-0.6,2.7c-0.7-2.2-0.2-3.9-0.6-5.6
			c-0.9,0.2-1.8,0.4-2.7,0.6c-0.1-0.2-0.1-0.5-0.2-0.6c4.1-1.9,7.9-4.9,12.8-2.7c-0.2-0.2-0.4-0.4-0.6-0.6c1.7,0.5,2.4-1.3,3.7-1.5
			c0.1,1.1,0.6,1.5,1.2,1.3c-0.1-0.2-0.2-0.3-0.4-0.5c-1-1.5-1.8-3.2-3.5-4.1c-3.8-1.9-7.5-1.1-11,1c-5.1,3-10.5,3.8-16.1,1.4
			C206.8,142.1,205.3,141.4,203.8,140.8L203.8,140.8z M206.8,153.1c2.1-3.2,1.9-5.8-0.3-8.1c-1.8-1.9-3.9-3.4-6.8-2.8
			c-0.5,0.1-0.9,0.3-1,0.8c-0.1,0.5,0,1,0.4,1.4c1.7,1.6,3.7,3,3.3,5.2c-0.5,3.4-3.3,4.1-5.1,5.9c-0.6-0.6-0.9,0.4-1.4,0.6
			c-1.7,0.7-3.4,2.8-1.5,4.8c2.6,2.7,3.1,5.8,1,9.1c-0.3,0.4-0.5,0.9-0.8,1.3c-1.1,1.8-0.6,3.5,0.2,5.3c0.8,2.1,3.2,3,4.7,2.5
			c0.1,0.2,0.3,0.4,0.4,0.5c1-0.4,2-0.7,2.9-1.3c1.2-0.9,1.4-2.3,2.1-3.5c1.7-2.9,1.7-5.7-0.8-8.5c-1-1.1-1.8-2.4-2.1-3.8
			c-0.4-1.9,0.7-3.5,1.7-5c0.5-0.8,1.5-1.3,1.6-2.3c-0.5-0.2-1-0.4-1.7-0.7c2.3-2.5,2.4-5.5,1.5-8.4c1-0.3,1.5,0.4,1.6,0.5
			C207.6,148.4,207.4,150.5,206.8,153.1L206.8,153.1z M55.8,144.7c0-1.8-0.9-2.8-2.3-3.3c-1.2-0.5-2.6-0.5-3.8-0.9
			c-3.2-1.1-4.2-3.7-4.5-6.8c-0.2-1.7-0.2-3.4-1.3-4.8c-1.7-2.3-4.1-3.3-6.6-4.2c-2.2-0.8-3.6-2.2-3.9-4.6c-0.1-0.8-0.1-1.4-1-1.7
			c-1.6-0.5-5.4,1.3-6.1,2.8c0.2,0.2,0.4,0.4,0.6,0.7c-1.1,1.1-0.5,2.3-0.2,3.5c0.6,2.3,1.7,3.3,4,3.4c4.1,0.1,6,1.5,7.5,5.4
			c0.8,2,0.9,4.2,1.8,6.1c1,2,2.6,3.3,4.5,4.3c1.8,0.9,3.7,0.7,5.6,0.8c1.5,0,3-0.1,4.6-0.2c-0.1-0.3-0.1-0.6-0.2-0.9
			c0.2-0.1,0.4-0.2,0.6-0.2C55.3,144.3,55.5,144.4,55.8,144.7L55.8,144.7z M219.2,172.8c3.9-0.4,7.7,0,11.7,0.1
			c-0.3-0.5-0.4-0.7-0.6-1c0.8-0.5,1.4,0,1.7,0.4c1,1.3,2.2,0.3,3.4,0.6c-0.8-2.1-2.5-3.4-3.4-5.2c2.9-1.4,2.7-4.6,4.2-6.8
			c-0.3,0-0.4-0.1-0.7-0.1c0.4-0.4,0.5-0.8,0.4-1.3c-2.7-0.1-5.4-0.2-8.2-0.3c0,1.1-0.1,2-0.1,3c-0.1,0-0.1,0-0.2,0
			c-0.1-1-0.2-2.1-0.3-3.2c-2.1-0.2-4.2-0.3-6.3-0.5c-0.6,1.9-0.5,4-0.7,5.9c3.6,0.2,7.2,0.3,10.7,0.5c-3.6,1-7.2,0.2-10.9,0.4
			C219.7,167.7,219.4,170.2,219.2,172.8L219.2,172.8z M146,68.2c7.7-0.4,15.4-0.8,23.2-1.2c-1-2.7-1.4-5.5-2.9-8.1
			c0.3,1.7,0.5,3.4,0.8,5.4c-1.7-1.7-1-4-2.2-5.5c-5.8-0.2-11.5-0.4-17.1,0.2C147,62.1,146.5,65.1,146,68.2L146,68.2z M172.6,57.5
			c0.3,0.3,0.5,0.6,0.8,0.8c1.5,0.8,2,2.3,2.8,3.7c0.9,1.7,1.3,3.6,2.7,4.9c0.9,0.8,2.1,0.7,2.6-0.2c0.8-1.4,0.5-3,0.4-4.5
			c-0.3,1.7-0.3,3.6-2.7,4.1c-0.7-0.4-0.7-1-0.3-1.7c0.2-0.4,0.7-0.7,0.8-1.2c0.5-1.7,0.1-3.3-0.4-4.8c-0.8-2.4-0.7-5.4-3.9-6.3
			c-0.2-0.1-0.3-0.4-0.4-0.6c1.7-1.8,2.6,0.1,3.6,0.8c1.2,0.7,1.9,1.9,2.2,3.3c-0.1-3.1-2.6-5.5-5.6-5.4c-1.2,0-2.5,0.2-3.6-0.1
			c-3.5-1.2-5.4-4-6.6-7.4c-0.3-0.8-0.2-1.9-1-2.5c-0.9-0.6-3.8,1.6-3.6,2.7c0.3,2.4,0.4,4.8,1.1,7.1c0.4,1.3,0.8,2.8,1.8,3.8
			c1,1.1,2.5,1.6,3.9,2C169.1,56.4,170.8,57,172.6,57.5L172.6,57.5z M49.8,132c1.5-4.9,2.9-9.6,4.4-14.5c-1.3-0.2-1.8-0.5-2.4-0.2
			c-0.1,0.2-0.2,0.5-0.6,1.2c0-0.7,0.1-0.9,0.1-1.2c-1-0.1-2.1-0.3-3.1-0.2c-2.3,0.2-4.8-1.2-7,1c-1.5,1.5-3,2.8-3.9,4.8
			c1.8,0.7,3.7,1.6,5.4,2.6c1.8,1.1,2.8,2.8,3.9,4.8c0.7-1.6,1.4-3.1,2.1-4.5c-0.6,1.8-0.6,3.8-2.1,5.2c0.1,0.2,0.1,0.4,0.2,0.5
			C48,131.7,49.1,131.9,49.8,132L49.8,132z M95.4,70c-2.5,0.2-4.3,0.5-6.2,0.1c-0.7-0.1-2-0.7-2.4,0.6c-0.5,1.8-0.7,3.6-1.1,5.4
			c-0.7,3.7-2.1,7.2-2.6,11.1c2-0.2,4.1-0.4,6.2-0.5c1.5,0,2.3-0.7,2.4-2.1c0.1-0.6,0-1.3,0.2-1.8c0.7-1.3,0.5-2.8,0.9-4.2
			C93.7,75.8,94.5,73,95.4,70L95.4,70z M120.3,213.4c2.9-0.4,5.7-1.1,8.6-0.5c1.4,0.3,2.4-0.1,2.7-1.6c0.3-1.2,0.2-2.4-0.7-3.2
			c-1.7-1.5-3.9-1.4-6-1.1c-1.9,0.2-3.8,0.3-5.3-0.7c-3.4-2.2-7-2.4-10.8-1.7c-1.5,0.3-2.9,1.1-4.5,0.9c-0.7-0.1-1.8-0.2-1.9,0.8
			c-0.1,0.8-0.5,1.7,0.2,2.7c0.2-0.4,0.4-0.7,0.5-1c0.6,0,0.5,0.5,0.7,0.8c1.3,0.2,2.5-0.4,3.7-0.8c3-0.9,5.2,0.3,7.3,2.2
			c1.2,1.1,2.3,2.5,4,3.1C119.2,213.5,119.9,212.6,120.3,213.4L120.3,213.4z M179.1,157.7c-12.1-1-24.1-2-36.2-3
			c-0.1,1-1,1.7-0.4,2.5c12.1,1.1,24.2,2.2,36.4,3.3C179,159.6,179.1,158.7,179.1,157.7L179.1,157.7z M127.6,125.9
			c0.2-0.3,0.4-0.7,0.6-1c-0.9-3.2-3.5-5-7.4-5.3c-1.8-0.1-4.6,1.9-5.4,3.9c-0.7,1.7,0.2,5.3,1.9,6.5c1.2,0.8,2.6,1.9,4.3,1
			c0.9,1,1.9,0.6,3,0c1-0.5,1.9-1,1.5-2.6c0.5,0.4,0.7,0.6,0.9,0.7C128.2,127.1,128.3,126.7,127.6,125.9L127.6,125.9z M235.3,148.3
			c-0.8,0.2-1.1,0-0.7-0.7c-0.9-1.6-2.3-1.4-3.8-1.4c-0.1,1-0.2,1.9-0.4,3.3c-0.3-1.4-0.3-2.3-0.1-3.3c-0.5,0.1-0.9,0.1-1.3,0.2
			c0,3.9-0.5,7.8-1.1,11.9c2.7,0.1,5.5,0.3,8.3,0.4C236.9,155.1,236.7,151.7,235.3,148.3L235.3,148.3z M92.3,67.6
			c-1.6-0.1-3.1,0.1-4.5,0.5c-0.2,0.4-0.3,0.7-0.5,1.1c2.6,0.1,5.1,0.2,7.6,0.3c0.9-4.3,1.5-8.5,2.1-12.7c-0.8,0.2-0.9-1-1.8-1.1
			c0.2,0.5,0.4,0.9,0.5,1.4c0.3,0.9,0.3,0.9-0.3,1c-0.5-0.5-1.1-1.1-1.6-1.6c-0.4,0.6-0.8,1.1-0.9,1.2c-0.3,1.5,1.7,1.7,1.2,3.4
			c-1-0.8-1.7-1.4-2.4-1.9c-0.2,0.2-0.6,0.5-0.6,0.8c0.1,1.2,1.5,1.6,1.9,2.7c-0.3,0.1-0.5,0.1-0.9,0.2c-0.3-0.9-1.4-1.2-1.7-2.2
			c-0.7,0.2-0.3,1.1-0.9,1.2c0.4,0.7,0.6,1.5,1.4,1.9c-0.9,1.2-1.2-0.3-1.8-0.4c-0.4,1.3-0.8,2.5-1.2,3.7
			C89.4,67.4,90.9,67,92.3,67.6L92.3,67.6z M173.4,49.2c0.2-0.1,0.4-0.3,0.6-0.3c2.8-0.1,6.2,0.9,7.5,4.4c0.2,0.6,0.5,0.7,1,0.7
			c0.8,0,1.6,0,2.3,0c1.6-1.6,1.5-3.5,1-5.4c-0.1-0.5-0.1-1.4-1-1.5c-2.2-0.1-4.4-0.6-6.6-0.4c-0.1,0.6-0.1,1.2-0.2,1.7
			c-0.1,0-0.1,0-0.1,0c-0.1-0.6-0.1-1.1-0.2-1.7c-1.7,0.1-3.4,0.1-5,0.2C172.1,47.9,172.9,48.5,173.4,49.2L173.4,49.2z M59.6,15.5
			c3.4,0.6,6.6,1.2,9.9,1.8c0-0.9,0-1.8,0-2.8c-1,0.2-1.2-1.2-2.1-1c-2.9,0.5-5.7,1.7-8.7,2c0.2,0.4,0.4,0.7,0.6,0.9
			c-1.7,0.9-3.6,0.8-5.4,1.4c0.6,0.1,1,0.6,1.6,0.2c0.1,0.2,0.2,0.4,0.2,0.4c2.3,0.4,4.5,0.7,6.7,1c2.2,0.4,4.4,0.7,6.7,1.1
			c0.1-0.9,0.2-1.7,0.3-2.5c-3.2-1.1-6.5-0.8-9.7-1.5C59.7,16.3,59.7,16.1,59.6,15.5L59.6,15.5z M54.4,43.2c-1.3-3.3-4.7-3.4-7-2.7
			c-1.8,0.6-2.7,3.1-1.9,5.8c0.4,1.5,2.3,3.2,4.9,2.4c1.5-0.5,2.4-1.9,3.5-2.9c0.4-0.3,0-1.4,0-2.2C54.1,43.5,54.3,43.3,54.4,43.2
			L54.4,43.2z M217.1,180.7c0.1,2.6-0.7,5,0.7,7.4c0.1-2.5-0.7-5,0.2-7.5c0.3,0.5,0.6,0.8,0.8,1.1c-0.1,0.3-0.2,0.7-0.4,1.1
			c1.4-0.2,0.3-1.7,1.4-2c0.2,0.3,0.4,0.6,0.6,0.9c1.8,0.1,5.6-2.7,6-4.4c-2.5,0.1-5,0.2-7.5,0.3c-0.1,0.2-0.2,0.5-0.4,0.8
			c0-0.4-0.1-0.7-0.1-1c-1.3,0.5-2.6-0.4-3.9,0.2c0.2,2.9-0.3,5.8-0.3,8.6c-0.1,0.5-0.2,1,0.4,1.6c0.8-1.9-0.1-4.1,1.1-5.9
			c0.2,0.2,0.3,0.3,0.4,0.5C216.2,181.8,216.4,181.3,217.1,180.7L217.1,180.7z M139.3,148.7c0.2,0.1,0.3,0.1,0.5,0.2
			c-0.7,1.5-0.8,3.1-0.7,4.9c0.9,0,1.8,0.1,2.9,0.1c0.5-6.1,2.1-12,2.2-18.2c-0.7,0.3-1.5-0.6-2,0.1c-0.4,0.7-0.6,1.7-0.8,2.5
			c-0.3,2-0.4,4.1-0.8,6.1C140.3,145.9,139.8,147.3,139.3,148.7L139.3,148.7z M135.9,64.8c0.3,1.6-0.6,3-0.7,4.7
			c1.7-0.2,3.3-0.4,5-0.7c0.8-1.5,0.6-3.2,1-4.7c0.4-1.6,0.6-3.2,0.9-4.9c-0.8,0-1.4,0-1.9,0.1c-0.4,0.6-0.1,1.4-0.8,1.7
			c-0.6-0.4-0.3-1-0.3-1.5c-1.9-0.4-2.9,1.6-2.3,5C136.6,64.6,136.3,64.7,135.9,64.8L135.9,64.8z M132.7,59.7
			c-4.1,1.2-7.5,3.8-11.4,5.3c2.9-0.2,5.8-0.3,9.1-0.5c-0.2,0.1-0.1-0.1,0.1-0.1c1.1,0,2.3,0,3.4-0.2c0.5-0.1,1.2,0.2,1.5-0.5
			c0.5-1.3,1-2.6,1.4-3.7c-3.4-1-2.9,1.4-3.6,2.8C132.4,61.9,132.9,60.9,132.7,59.7L132.7,59.7z M229.5,173.5c-3.4,0-6.9,0-10.5,0
			c-0.1,0.8-0.1,1.6-0.3,2.4c-0.3,1,0.3,0.9,0.9,0.9c1.7,0,3.5-0.1,5.2,0c2.7,0.2,3.3-0.1,3.8-2.2c1.2,1.7,3.3,2.7,4.2,2
			C232.7,174.4,231.6,173.4,229.5,173.5L229.5,173.5z M141.1,68.7c0.9,0,1.5,0,2-0.1c0.7-0.2,1.8,0.4,2.1-0.6
			c0.4-1.5,0.6-3.1,0.8-4.7c0.2-1.4,0.8-2.8,0.7-4.3c-1.1,0.1-2.2,0.2-3,0.3C142.8,62.5,141.9,65.6,141.1,68.7L141.1,68.7z
			 M59.3,149.8c-1.1-1-2-1.9-3-2.8c-0.3,0.6-0.3,0.6,0.2,2.7c-0.2,0.2-0.4,0.3-0.5,0.5c0,0.3,0,0.5,0.1,0.9
			c-0.4-0.2-0.8-0.3-1.1-0.5c0.5-1.4-0.5-2.8-1.9-2.6c0.1,1.2,1.3,2,1.6,3.3c-1.3-0.3-1.3-1.5-2.2-2c0,1.1-0.8,2-0.3,3.2
			c-0.5,0.3-0.2,1-0.5,1.5c0.5,0.3,0.2,0.8,0.4,1.2c3.1-2.1,6-4.3,9.5-5.7c0.1-0.4,0.2-0.9-0.1-1.4c-1.1-0.1-1.5-1.3-2.5-1.9
			c-0.2,1.2,0.1,2.1,0.9,3C59.6,149.3,59.5,149.5,59.3,149.8L59.3,149.8z M140.1,69.6c-0.9,0.1-1.9,0.4-2.8,0.3
			c-1.6-0.2-2.4,0.3-2.5,2c-0.1,1.5-0.4,3-0.6,4.5c1.2-0.1,2.2-0.3,3.2-0.2c1.5,0.1,2.2-0.6,2.2-1.9
			C139.6,72.7,140.1,71.3,140.1,69.6L140.1,69.6z M178.2,46.1c2.2,0.2,4.4,0.3,6.6,0.5c-0.8-1.6-1.4-3.2-2.5-4.4
			c-1.1-1.3-2.7-2.3-4.5-2.5C177.9,41.8,178,43.9,178.2,46.1L178.2,46.1z M98,255.5c0.6-1.8,0.1-3.8,0.8-5.1
			c-2.1-0.6-4.3-1.3-6.6-1.8c-0.7-0.2-1,0.9-1.4,1.5c-0.2,0.3,0,0.6,0.3,0.7c0.6,0.3,1.2,0.5,1.8,0.8c0.2-0.9,0.3-1.8,1.1-2.3
			c0.6,1-2.3,2.9,1.2,3.1c-1.8-0.4-2.2,0.9-2.7,1.7c0.7,0.3,1.5,0.6,2.4,0.9c0.1-2,0.5-3.6,1.7-5c-0.4,1.7-0.9,3.4-0.6,5.3
			C96.8,255.2,97.3,255.8,98,255.5L98,255.5z M141.6,131.8c-3.7-0.5-7.5-1-11.2-1.6c0.1,0.6,0.4,1,1,1.1c0.1-0.2,0.2-0.4,0.3-0.9
			c0.2,1.2,1.2,0.9,2.2,1.4c-1.9,0.9-3.7-0.1-5.9,0.4c4.6,1.9,9,1.1,13.1,2.2C141.6,133.6,141.7,132.7,141.6,131.8L141.6,131.8z
			 M215.8,164.9c-1.1-0.1-2.2-0.1-3.3-0.2c-1,2.5-1.2,5.1-1.4,7.7c1.2,0.1,2.3,0.1,3.5,0.2C215,170,215.4,167.5,215.8,164.9
			L215.8,164.9z M189.5,143.8c0.1,0.7-0.5,1.3-0.7,1.9c-0.5,2.7-1,5.4-1.5,8.1c-0.1,0.3-0.2,0.8,0.3,0.8c0.6,0,1.6,0.4,1.9-0.2
			c0.5-1.5,0.8-3,1.1-4.6c0.3-1.9,0.5-3.8,0.7-5.8C190.7,143.9,190.2,143.9,189.5,143.8L189.5,143.8z M169.8,67.1
			c1.9,0.4,4.3-0.8,4.4-2.2c0.1-1.8-1.3-3.6-2.9-3.7c-0.1,1.5,0.7,3.1,0.2,4.6c-0.4-1.1-0.2-2.3-1.1-3.3c0.3-1.5-0.5-2.4-2.1-2.2
			C168.9,62.6,169.4,64.9,169.8,67.1L169.8,67.1z M215.3,172.6c1.1,0,2.2,0.1,3.3,0.1c0.2-2.4,0.5-4.8,0.7-7.2
			c0-0.1-0.3-0.4-0.4-0.4c-0.8-0.1-1.6-0.1-2.5-0.2C216,167.4,215.7,169.9,215.3,172.6L215.3,172.6z M184.2,154.6c0.8,0,1.5,0,2.2,0
			c0.6-3.8,1.2-7.4,1.9-11.1c-0.6-0.4-1.2-0.5-2.1-0.6C186.1,146.9,185.2,150.7,184.2,154.6L184.2,154.6z M170.1,77.2
			c-1.6-0.6-3.1-1.3-4.5-1.9c0.4-0.9,1.7-0.7,2.8,0.2c1.4,1.2,3.5,1.1,4.7-0.2c-5-1.9-8.1-1.4-10.2,1.5c1.2,0.5,2.5,1,3.7,1.5
			C168.1,79.1,169.1,78.3,170.1,77.2L170.1,77.2z M216.4,157.9c-0.8,0-1.6,0.1-2.3,0c-0.7-0.1-1.1-0.1-1.2,0.8
			c-0.1,1.7-0.3,3.3-0.5,5.1c1,0.1,2.1,0.2,3.4,0.2C216.3,162.2,216.2,160.1,216.4,157.9L216.4,157.9z M208.2,166
			c0.3,1.8-0.6,3.4-0.5,5.1c0.8,0.3,1.3,1.4,2.5,1.3c0.4-2.6,0.8-5.2,1.1-7.7c-0.8-0.4-1.6-0.1-2.3-0.1
			C208.5,165,208.7,165.8,208.2,166L208.2,166z M51.4,116.1c-0.3-1.1,0.1-1.9,0.2-2.6c-3.1-1.2-5.8-0.5-8.2,1.6c0,0,0,0.1,0,0.1
			c0.2,0,0.4,0,1.1,0c-0.3,0.3-0.5,0.5-0.7,0.7C46.3,116,48.8,116.1,51.4,116.1L51.4,116.1z M191.9,154.8c0.7-3.3,1.3-6.6,2-9.9
			c-0.4-0.1-0.9-0.3-1.4-0.5c-0.4-0.1-0.6,0-0.7,0.4c0,3.4-1.2,6.5-1.7,9.8C190.6,154.9,191.1,154.8,191.9,154.8L191.9,154.8z
			 M103,250.9c-0.8-0.2-1.5-0.4-2.2-0.6c-0.8-0.2-1.3,0-1.4,0.9c-0.1,1.5-0.3,3-0.5,4.5c0.4,0.1,0.9,0.5,1.2,0.4
			c0.7-0.2,1.9,0.6,2.1-0.3C102.8,254.2,102.8,252.5,103,250.9L103,250.9z M131.5,239.9c-0.7-1.2-1.9-1-3-1.2
			c-0.5-0.1-1.2-0.5-1.6,0.1c-0.4,0.6,0.4,0.7,0.7,1c1.4,1.7,3,3.2,4.1,5.4c1.1-1.9,2.2-3.5,2.7-5.4c-0.5-0.4-1-0.6-1.5-0.1
			c-0.4,0.8,0.9,1.1,0.4,1.9c-0.5,0.1-0.6-0.5-1-0.6c-0.6,0.5-0.7,1.3-1.6,1.7C130.8,241.7,131.1,240.8,131.5,239.9L131.5,239.9z
			 M183.6,154.4c0.7-3.4,1.7-6.7,1.7-10.2c0-1.5-0.3-1.9-1.3-1.7c-0.6,3.9-1,7.9-1.8,11.8C182.7,154.8,183.2,154.4,183.6,154.4
			L183.6,154.4z M105.8,251.2c-0.6-0.3-1.2-0.3-1.8-0.2c-0.7,1.5-0.3,3.1-0.6,4.6c0,0.2,0.2,0.5,0.4,0.5c0.7,0.2,1.6,0.5,2.2,0.3
			c0.6-0.2,2.1,0.9,2-1c-0.1-1.4-0.2-2.9-0.4-4.3c-0.8-0.4-1.2,0-1.3,0.8c-0.1,1.2,0,2.3,0,3.5c0,0.7-0.3,0.9-1,0.7
			C105.7,254.6,105.2,252.9,105.8,251.2L105.8,251.2z M64.2,50.2c-1.4-0.6-6.9-1.1-7.5-0.6c0.5,0.9,1.1,1.6,1.9,2.3
			c-0.2,0.1-0.4,0.2-0.8,0.5c2.2,0.1,4.1,0.2,6,0.2C63.9,51.7,64,51,64.2,50.2L64.2,50.2z M210.5,181c0.7,0.2,0.1,0.7,0.2,1.1
			c0.2,0.7,0.6,0.5,0.9,0.4c0.1-0.5,0.3-0.9,0.4-1.4c0.8,0.5,0.1,0.9,0.1,1.3c0.2,0.4,0.5,0.4,0.8,0.3c0.3-0.1,0.4-0.4,0.4-0.7
			c0.1-1,0.2-2,0.5-2.9c0.1-0.6,0.4-1.4-0.2-1.6c-1-0.3-2.7-0.5-3.1,0.3c-0.7,1.3-0.9,2.9-0.9,4.5C210.5,182.1,210,181.3,210.5,181
			L210.5,181z M213.9,151.2c-0.6,1-0.2,1.9-0.3,2.8c-0.6,3-0.6,3,2.3,3.2c0.5,0,0.7-0.1,0.7-0.7c0.1-1.6-0.2-3.2-0.3-4.8
			C215.6,151.2,214.7,152.2,213.9,151.2L213.9,151.2z M142.7,131c1.3,0.6,2.4,0.2,2.4-0.9c0.1-2.2,0.1-4.4,0.1-6.7
			c-0.6,0.1-1.2-0.3-1.5,0C143.4,126.1,142.6,128.5,142.7,131L142.7,131z M208.3,178.3c-0.7-1-1.7-0.7-2.3-0.4
			c-0.7,0.4-1.2,1.4-1.7,2.1c-0.2-0.1-0.4-0.2-0.7-0.4c0.2,0.6,0.4,1.1,0.6,1.6c1-0.9,2.2-1.6,2.9-3c0.4,1.6-1.1,2.2-1.2,3.4
			c0.8,0.4,0.5-0.8,1.1-0.7c-0.1,1.6,1.1,0.9,1.8,1.2c0.3-1.5,0.5-3,0.8-4.3C208.8,177.3,208.8,178.3,208.3,178.3L208.3,178.3z
			 M63.4,73.5c-0.3,2.1-0.7,4.2-1,6.2c0.3,0.1,0.6,0.1,0.8,0.2c1,0.4,2.2,1.3,1.8-0.9c0-0.2,0.1-0.5,0.1-0.8
			c-0.1-1.1,0.7-2.3-0.3-3.4C64.4,74.4,63.9,74,63.4,73.5L63.4,73.5z M189.2,158.9c-0.1,0.4,0.2,1-0.7,0.9c0.1-0.4,0.2-0.7,0.3-1.1
			c-0.8,0-1.5,0-2.1-0.1c-0.2,0.9-0.3,1.8-0.5,2.7c1.4,0,3,0.6,4.8,0.2C190.5,160.4,191.8,158.4,189.2,158.9L189.2,158.9z
			 M185.5,161.3c0.2-0.9,0.5-1.8,0.4-2.8c-0.7-0.1-1.4-0.5-2.3-0.2c0,0.2-0.1,0.4-0.1,0.5c-0.2,0.1-0.4,0.1-0.6,0.2
			c0.1-0.4,0.1-0.6,0.1-0.9c-2.5-0.3-1.1,1.9-1.9,2.7C182.7,161.1,184,161.5,185.5,161.3L185.5,161.3z M28.7,158.5
			c-0.7-2.7,0.3-5.2,0.2-7.8c-0.4-0.1-0.7-0.3-1.1-0.4c-0.1,2.3-0.9,4.3-1,6.4C26.6,158.5,27.6,158.4,28.7,158.5L28.7,158.5z
			 M197.4,145.3c-0.5,2.8-0.9,5.6-1.4,8.7c3-1.8,1.5-5.3,3.5-7.2C198.4,146.7,198,145.8,197.4,145.3L197.4,145.3z M135.6,223.9
			c0.3-0.6,0.1-1.4,0.8-1.8c-0.4-1.3-1.4-1.6-2.8-1.4c-0.2,1.6-0.4,3.1-0.6,4.7c0.6,0.3,1.1,1.1,2.2,1.1c0.1-0.5,0.2-1.1,0.3-1.6
			c-0.4-0.8-1.3-0.6-2-1C134.2,222.6,134.9,224.1,135.6,223.9L135.6,223.9z M141,215.5c0.1-0.9,0.8-1.9,0.3-2.3
			c-1.3-1-2.7-1.9-4.4-2.1c-0.2,0.7-0.4,1.3-0.6,2C137.9,213.6,139.2,214.8,141,215.5L141,215.5z M108.6,251.1
			c-0.2,1.8,0.3,3.5,0.3,5.4c0.7-0.4,1.9,0.5,2-0.4c0.2-1.7-0.1-3.5-0.2-5.4C110,250.9,109.3,251,108.6,251.1L108.6,251.1z
			 M157.2,92c-0.9-0.7-2-1-2.9-1.6c-1.7-1.2-2,0.3-2.7,1.2c1.4,0.9,3,1.3,4.2,2.5C156.2,93.4,156.7,92.7,157.2,92L157.2,92z
			 M218.2,176.6c0.1-1.1,0.1-2.2,0.2-3.3c-1.1,0-2.2,0-3.2,0c-0.2,1.1-0.3,2.2-0.5,3.4C216,176.7,217.1,176.7,218.2,176.6
			L218.2,176.6z M51.8,155.2c-1.3-0.5-1.3-1.5-1.2-2.4c0.2-1.3-0.4-2-1.5-3.1c0.2,2.7-0.7,4.9-0.4,7.4
			C49.7,156.5,50.6,156,51.8,155.2L51.8,155.2z M225.7,180.1c1.4,1.8,1.3,4.1,1.8,6.2c0.9-0.3,1.6-0.7,1.9-1.6
			c-0.8-0.1-0.5-0.6-0.5-1c-0.2,0-0.4,0-0.7,0c0.1-1.7-0.3-3.2-1.4-4.7C226.7,179.6,225.9,179.4,225.7,180.1L225.7,180.1z
			 M210.1,157.6c0.2,0.8-0.8,1.5,0,2.2c0.2,0.2,0.5,0.4,0.3,0.8c-0.3,0.5-0.6,0-0.7,0c-1,1.3,0.6,2,0.5,3.1c0.4,0,0.8,0,1.3-0.1
			c0.2-1.7,0.4-3.4,0.7-5.1C211.2,158.9,211.2,157.6,210.1,157.6L210.1,157.6z M142.1,210.2c-1.6-0.7-2.9-1.9-4.6-2.2
			c-0.2,0.6-0.4,1.3-0.6,2c1.6,0.7,3.1,1.4,4.5,2.1C141.7,211.5,141.9,210.9,142.1,210.2L142.1,210.2z M230,184.4
			c0.9-1.3,2.7-1.5,3.5-2.9c0.7-1.4,1.6-2.6,2.4-3.9c-1.2-0.7-1.3,1.1-2.1,0.9c-0.8,1.2-2.1,2.1-1.8,3.8c-1.4-0.4-1.6,0.9-2.3,1.3
			C229.5,183.7,229.4,184.2,230,184.4L230,184.4z M105.8,38.8c-1,3.8,2.4,3.2,4.2,4.4C110.2,41.4,107.5,38.8,105.8,38.8L105.8,38.8z
			 M191,183.7c0.8-1.7,0.4-3.4,0.9-5.2c-0.9,0.1-1.5-0.6-2.4-0.3c0.4,1.3,0,2.6,0.2,4C189.7,182.9,189.6,184,191,183.7L191,183.7z
			 M147.3,55.8c0.1-1.1,0.2-2.2,0.3-3.3c-1.1,0.1-1.9,0.2-2.9,0.3c-0.3,0.9-0.6,1.8-1,2.9C144.9,55.7,146.1,55.8,147.3,55.8
			L147.3,55.8z M62.5,80.3c-0.1,0.4-0.2,0.6-0.2,0.6c-1.3-0.4-0.6,1.3-1.5,1.2c0.5,0.5,0.8,0.9,1.2,1.4c0.7-0.6,0.9-1.6,2.1-1.5
			c-0.3,0.9-0.9,1.4-1.5,2c0.2,0.2,0.4,0.5,0.5,0.6c1-0.7,2-1.3,3.1-1.9C65,81.5,63.6,81.1,62.5,80.3L62.5,80.3z M68.1,85.9
			c0.1-1.3-0.5-2.1-1.5-2.6c-0.4,0.3-0.6,1.1-1.1,0.9c-1.9,1.3-1.3,2.4-0.1,3.4C66.4,87,67.2,86.4,68.1,85.9L68.1,85.9z
			 M143.8,205.1c-1.4-0.3-2.5-1.3-3.8-1.8c-0.4-0.1-0.7-0.6-1.1-0.3c-0.3,0.2-0.5,0.6-0.5,1c0,0.4,0,0.8,0.7,1
			c1.4,0.5,2.7,1.2,4,1.9C143.4,206.3,143.6,205.7,143.8,205.1L143.8,205.1z M155.5,86.8c2.5,2.1,4.9,2.2,5.7,0.4
			c-0.2-0.4-0.4-0.6-0.6-0.6c-0.9,0.2-0.8,1.6-1.7,1.2c-1.1-0.5,0-1.2,0.1-1.8C157.3,84.6,156.3,85.3,155.5,86.8L155.5,86.8z
			 M180.6,154.4c0.4,0,0.7,0.1,0.8-0.6c0.3-2.4,0.7-4.8,1-7.3c0.2-1.5,0.5-3,0.1-4.7c-0.8,2.1-0.1,4.3-1.3,5.9
			C181.7,150.1,180.2,152.1,180.6,154.4L180.6,154.4z M241.5,155.8c-1.4-0.2-2.4-1.7-4.1-1.3c0.1,0.5,0.2,1,0.2,1.6
			c0.6,0.2,0.9,0.6,1.2,1.1c0.3-0.1,0.6-0.3,0.8,0.1c-0.1,0.1-0.2,0.3-0.2,0.4c0.8,0.2,1.4,0.5,2,1.1
			C241.5,157.7,241.8,156.7,241.5,155.8L241.5,155.8z M143,207.5c-1.6-0.7-3.2-1.4-4.9-2.2c-0.1,0.7-0.2,1.1-0.3,1.6
			c0.7,0.4,1.4,0.8,2,1.2C142.3,209.6,142.4,209.6,143,207.5L143,207.5z M23.2,148.9c-0.1,2.6-1.4,5-0.8,7.4c0.4,0.1,0.7,0.3,1,0.4
			c0.3-2.7,0.6-5.3,0.9-8C23.9,148.8,23.5,148.9,23.2,148.9L23.2,148.9z M241.2,151.4c-1.4,0.9-2.7,0.3-4.2,0.4
			c0.6,0.5,0.2,1.1,0.4,1.6c1.5,0.3,3.1,0.4,4.4,2.2C241.5,153.9,241.4,152.7,241.2,151.4L241.2,151.4z M109.6,39.9
			c0-2.1-3-4.5-4.9-4.3C105.1,38.5,107.9,38.3,109.6,39.9L109.6,39.9z M158.3,89.3c-1.4-0.1-2.3-1.3-3.7-1.5c-0.1,0.6-0.6,1-1.1,1.4
			c3.7,2.1,4.2,2.2,5.3,0.7C158.6,89.7,158.4,89.5,158.3,89.3L158.3,89.3z M26.2,149.6c-1.8,2.4-1.1,5.1-1.8,7.6
			c0.4,0.2,0.8,0.3,1.3,0.6C25.9,154.9,26,152.3,26.2,149.6L26.2,149.6z M129.6,234.5c-0.5,0.8-0.7,1.6,0.1,2.3
			c0.8,0.7,1.3,1.6,2.4,1.9C132.9,236.2,132.3,235.3,129.6,234.5L129.6,234.5z M93.9,142.9c0.3,2.3-1,4.8,1,7.1
			c0.2-2-0.4-4.1,1.2-5.6c-0.2-0.6-1-0.6-1-1.5c-0.2,0.2-0.2,0.3-0.4,0.5C94.6,143.1,94.5,142.8,93.9,142.9L93.9,142.9z
			 M229.8,181.4c1.4-1.2,0.9-2.5,0.3-3.7c-0.4-0.8-1.2-0.2-1.9-0.4c-0.2,0.4-0.3,0.8-0.4,1.1c0.8,0.9,0.7,2.2,1.3,3.1
			c0.2-0.2,0.3-0.4,0.5-0.6C229.6,181.1,229.7,181.3,229.8,181.4L229.8,181.4z M139.6,222.8c-1.1-0.1-1.9-0.7-2.9-1.2
			c-0.1,1-0.2,1.9-0.3,2.8c0.8,0.5,1.6,0.9,2.6,1.6C139.2,224.8,139.4,223.8,139.6,222.8L139.6,222.8z M172.6,179.7
			c-0.2-1.7-0.3-3.3-0.5-4.8c-0.5,0-0.9-0.1-1.4-0.1c0.1,1.6-0.2,3.2,0.2,4.8C171.4,179.7,171.9,179.7,172.6,179.7L172.6,179.7z
			 M165.1,84.3c1.7-1.3,3.4-2.5,4.9-3.7c-1.1-0.8-2.1-0.6-2.9,0.4c0,0.1,0.1,0.2,0.2,0.3c-0.2,0.1-0.4,0.3-0.7,0.4
			c0.3,0.2,0.8,0.2,0.7,0.8c-0.7-0.2-1.3-0.4-1.9-0.6c-0.7,0.6-1.3,1.1-1.9,1.7C164.1,84,164.8,83.6,165.1,84.3L165.1,84.3z
			 M141,191.5c1.4,0.6,2.9,0.7,4.2,1.6c0.2-0.6,0.3-1,0.5-1.5c-1.5-0.7-2.9-1.3-4.4-1.9C141.1,190.2,140.8,190.8,141,191.5
			L141,191.5z M92.9,147.6c-0.4-2.4,0.8-4.7-0.8-6.7C92,143.1,90.2,145.4,92.9,147.6L92.9,147.6z M144.4,96.9
			c0.4,0.4,6.4,1.8,6.8,1.6C151,97,146.5,95.9,144.4,96.9L144.4,96.9z M54.9,77.2c-0.9,2.1-1.7,4.2-2.5,6.2c0.4,0.1,0.6,0.2,0.8,0.3
			c1-1.9,2-3.8,3-5.7C55.8,77.7,55.4,77.5,54.9,77.2L54.9,77.2z M70.4,139.9c-0.6,0.1-1.3,0-1.4,0.9c-0.1,1.3-0.3,2.7-0.5,4
			c0,0.3-0.4,0.8,0.3,0.8c0.5,0,1.1-0.1,1.2-0.8C70.2,143.1,70.3,141.5,70.4,139.9L70.4,139.9z M143.5,98c-0.3,0.4-0.3,0.9-0.2,1.3
			c2.2,0.1,4.3,1.5,6.8,0.6C147.8,99,145.7,98.3,143.5,98L143.5,98z M236.4,150.5c1.9,0.2,3.2,0.7,4.6,0.1c0-0.9-0.2-1.7-0.7-2.5
			C239.1,148.9,237.9,149.6,236.4,150.5L236.4,150.5z M46.6,158c0.6-0.1,1.4,0.1,1.2-0.7c-0.4-1.8,0.2-3.4,0.3-5.1
			c0-0.5,0.2-1-0.5-1.3C46.7,153.2,46.2,155.5,46.6,158L46.6,158z M144.9,194c-2.7-1.8-4.3-1.8-4.6,0.1c1.5,0,2.7,1.1,4.3,1.1
			C144.3,194.8,144.7,194.4,144.9,194L144.9,194z M30.6,151.2c-0.8,2.5-1,4.9-1.3,7.4c0.5,0.1,1,0.2,1.4,0.2
			C30.3,156.3,31.6,153.9,30.6,151.2L30.6,151.2z M142.6,104.3c2,0.4,3.7,1.5,5.2,2.3c0.1-0.3,0.3-0.6,0.4-1c-1.6-1.3-3.8-1.4-5.2-3
			C142.5,103.2,142.7,103.7,142.6,104.3L142.6,104.3z M155.3,94.3c-1.5-0.6-2.9-1.3-4.4-1.9c-0.2,0.4-0.3,0.7-0.5,1
			c1.2,0.8,2.3,1.6,3.5,2.3C154.4,95.2,154.8,94.8,155.3,94.3L155.3,94.3z M198.3,152.7c2.9-1.4,3.4-3.5,1.1-5.5
			C199,149.1,198.6,150.9,198.3,152.7L198.3,152.7z M123.7,216.8c0,0.8-0.3,2,0,2.2c1,0.5,2.1,0.1,3.2-0.1c0-0.6,0.1-1.1,0.1-1.6
			C125.9,217.1,124.9,216.9,123.7,216.8L123.7,216.8z M176.8,175.6c-0.6,0-1.2,0.1-1.8,0.1c0.1,1.4,0.1,2.8,0.2,4.3
			c0.4,0.1,0.9,0.1,1.5,0.2C176.6,178.7,176.5,177.2,176.8,175.6L176.8,175.6z M119.2,250.5c0.7-0.3,0.4-0.9,0.5-1.6
			c-1.9,1.3-4,1.4-6,1.5c-0.3,1.6-0.2,1.8,1,1.2C116.2,250.7,117.7,251,119.2,250.5L119.2,250.5z M183.2,59.2
			c0.8-1.5,1.7-2.8,1.6-4.4c-0.9-0.1-1.8-0.1-2.6-0.2C182.5,56.1,182.8,57.5,183.2,59.2L183.2,59.2z M133.7,232.7
			c0.3-0.8,0.5-1.5,0.8-2.2c-0.6-0.3-1.1-0.5-1.5-0.7c-0.5-0.2-1-0.3-1.5-0.5C131.1,230.8,131.9,232.1,133.7,232.7L133.7,232.7z
			 M173.2,72c-1.6-1.3-3.3-1.3-4.6,0.5C170.3,74.1,171.8,73,173.2,72L173.2,72z M217.3,151.6c-0.4,1.9,0,3.8,0,5.7c0.3,0,0.6,0,1,0
			c0.2-1.7,0.2-3.4,0-5.1C218.2,151.6,217.9,151.4,217.3,151.6L217.3,151.6z M168.1,174.3c0.1,1.8-0.1,3.5,0.5,5.1c0.3,0,0.6,0,1,0
			c0.2-1.7-0.1-3.4-0.2-5C168.9,174.4,168.6,174.3,168.1,174.3L168.1,174.3z M236.5,163.4c-1.7,1.8-0.7,3.2,0.6,4.8
			c0.2-1.3,1.6-2.1,0.8-3.7c-0.6,0.7-0.4,1.6-1.2,2C236.1,165.5,238.2,164.2,236.5,163.4L236.5,163.4z M216.4,164.2
			c0.6,0,1,0,1.4,0.1c0.4-2-0.3-4,0.2-6c-0.4,0-0.6,0-1,0C217,160.2,216.9,162.1,216.4,164.2L216.4,164.2z M133.6,233.7
			c-1-0.7-2-1.3-3-1.9c-0.5,0.5-0.4,1.1-0.6,1.6c1.2,0.4,1.9,1.4,3,2.1C133.3,234.9,133.4,234.4,133.6,233.7L133.6,233.7z
			 M235.9,171.2c1.4-1.8,0.4-2.7-1.1-4.4c-0.2,0.5-1.2,0.9-0.8,1.3C234.6,169,234.8,170.4,235.9,171.2L235.9,171.2z M179.8,176.2
			c0.3,1.6-0.6,2.9-0.2,4.4c0.4,0.4,0.8,0.2,1.3,0.2C181.2,176.6,181.2,176.6,179.8,176.2L179.8,176.2z M86.7,67.2
			c1.3-1.5-0.1-2.1-0.8-3c-0.6,0.5-1.9,0.6-1.5,1.7C84.7,67,85.6,67.7,86.7,67.2L86.7,67.2z M112.9,256.4c-0.1-1.4,0.2-2.9-0.7-4.1
			c0.7-0.4,0.5-1.1,0.6-1.7c-0.5,0.1-1.2-0.1-1.2,0.5c0,1.8,0.2,3.6,0.3,5.4C112.3,256.4,112.6,256.4,112.9,256.4L112.9,256.4z
			 M238.6,171.2c1.5-2.9,1.6-4.2,0.2-4.9C238.2,167.9,237,169.5,238.6,171.2L238.6,171.2z M224.2,181.1c0.5,2.1,1,4.1,1.5,6.3
			c0.4-0.2,0.6-0.4,0.9-0.5c-0.5-2.1-0.8-4.2-2-6.1C224.4,180.9,224.3,181,224.2,181.1L224.2,181.1z M57.4,46.2
			c-0.3,0.9-0.6,1.6-0.9,2.5c1.4,0.1,2.8,0.2,4.2,0.3C60,47.7,58.5,47.3,57.4,46.2L57.4,46.2z M210.7,176.6c2.9,0.7,3.7,0.3,3.3-1.5
			c-0.4-0.1-0.8-0.1-1.2-0.2c-0.2,0.2-0.4,0.4-0.6,0.6c-0.3-0.6-0.3-0.6-1.7-0.3C210.6,175.6,210.7,176.1,210.7,176.6L210.7,176.6z
			 M54.2,113.6c-1.9-0.5-2.3-0.2-2.4,2.4C53.6,116.8,54.5,115.8,54.2,113.6L54.2,113.6z M144.5,131.8c-0.8,0.3-1.5-0.4-2,0.2
			c-0.1,0.9-0.3,1.7-0.4,2.5c0.7,0.1,1.4,0.4,2,0.3C144.3,133.8,144.4,132.8,144.5,131.8L144.5,131.8z M239.9,166.5
			c1.4-1.6,0.6-3.9-1.3-4.6C237.2,164,240,164.6,239.9,166.5L239.9,166.5z M208,187.3c0.2-1,0.3-1.9,0.6-2.8
			c0.4-1.4-0.2-1.8-1.5-1.7c-0.4,1.4,0.3,2.8,0.1,4.2C207.4,187.1,207.6,187.2,208,187.3L208,187.3z M74.8,15.2
			c-0.6-0.4-1.2,0.1-1.7-0.7c-0.2,1.2-0.3,2.2-0.5,3.3c0.7,0.1,1.3,0.2,1.9,0.3C75,17.2,74.2,16.2,74.8,15.2L74.8,15.2z
			 M134.8,227.8c-0.3-0.3-0.9-0.4-0.7-1c-0.6,0.3-1.1-0.1-1.5-0.4c-0.8,2.4-0.8,2.4,1.8,3.1C134.9,228.9,134.6,228.3,134.8,227.8
			L134.8,227.8z M115.2,252.5c-1.9,0.3-2,0.7-1.1,3.7c0.5-0.1,0.9-0.2,1.5-0.3C115.5,254.7,115.4,253.6,115.2,252.5L115.2,252.5z
			 M187.9,50.8c0.1,1.2,0.2,2.3,0.3,3.5c0.6,0.1,1.1,0.2,1.7,0.3C190.3,53,189.1,50.6,187.9,50.8L187.9,50.8z M142,187.8
			c-0.7,1-0.6,1.2,0.4,1.4c0.4,0,0.7,0.2,1,0.4c0.8,0.5,1.7,0.9,2.6,1.4c0.2-0.4,0.3-0.7,0.4-0.9C145,189.2,143.6,188.3,142,187.8
			L142,187.8z M186.7,157.7c0.8,0.1,1.5,0.1,2.1,0.1c0.2-0.7,0.4-1.2,0.6-1.9c-0.5-1.1-1.5-0.4-2.4-0.4
			C186.9,156.2,186.8,156.9,186.7,157.7L186.7,157.7z M219.2,157.5c0.8-0.2,1.5-5.2,1.2-7.3c-0.4,0.3-0.7,0.5-1.2,0.9
			C219.6,153.1,219.3,155.3,219.2,157.5L219.2,157.5z M194.6,180c-0.3,0.7-0.7,1.4-0.9,2.2c-0.4,1.6,0.1,2.5,1,2.4
			c0.3-1.3,0.2-2.6,0.7-4C195,180.4,194.6,180.1,194.6,180L194.6,180z M185.8,176.8c0.4,2.2-0.3,4.1,0.8,6.1c0.3-2,0.5-3.7,0.8-5.7
			C186.9,177,186.5,176.9,185.8,176.8L185.8,176.8z M143.7,56.6c-0.3,0.5-0.2,1-0.1,1.5c2.2,0.4,3.4-0.1,3.4-1.7
			C145.9,56.5,144.9,56.6,143.7,56.6L143.7,56.6z M54.1,49.9c0.3,1.8,0.6,2.2,1.4,1.9c0-0.2,0-0.5-0.1-0.7c0.5,0.1,0.3,0.5,0.4,0.9
			c0.7,0.1,1.3,0.4,2.3,0c-1-0.3-1.1-1.3-1.9-1.7c-0.1,0.3-0.3,0.5-0.6,1.1C56.1,49.3,55.4,49.2,54.1,49.9L54.1,49.9z M57.2,78.2
			c-0.6,1.4-1.3,2.7-1.9,4c0.3,0.2,0.5,0.3,0.8,0.4c0.8-1.3,1.5-2.5,2.3-3.8C58.1,78.6,57.7,78.4,57.2,78.2L57.2,78.2z M105.6,59.4
			c1.1,0.3,2.1,0.7,3.3,1c-0.3-0.5-0.5-0.9-0.8-1.3c-0.3-0.4-0.3-0.9-0.3-1.5c-0.8,0.6-1.4-0.2-2.2,0
			C105.6,58.2,105.6,58.9,105.6,59.4L105.6,59.4z M176.1,70.1c-1.5-1-3.2-0.9-4,0.4C173.5,71.2,174.9,72.1,176.1,70.1L176.1,70.1z
			 M183.8,157.3c2,0.7,2.1,0.6,2.6-1.8C184.9,155.2,183.5,155.1,183.8,157.3L183.8,157.3z M137.1,232.3c-0.7-0.5-1.2-0.9-1.8-1.3
			c-0.6,2.7-0.6,2.8,1.2,3.6C136.7,233.8,136.9,233,137.1,232.3L137.1,232.3z M182.9,181.4c-0.1-1.5,0.3-2.9,0.5-4.3
			c-0.6-0.1-1-0.2-1.6-0.3c0.3,1.5,0.2,2.9-0.1,4.2C182.2,181.2,182.5,181.3,182.9,181.4L182.9,181.4z M144.1,118.4
			c0,1.5,0,2.8-0.4,4.2c0.7,0,1.1,0,1.6,0C145.8,121.2,145.3,119.3,144.1,118.4L144.1,118.4z M91.5,248c-1-0.8-1.9-1.4-2.7-2
			c-0.4,0.8,1,1,0.6,1.9c-2.1,0.6-0.6,1.2,0.1,1.9C90,249.1,90.5,248.4,91.5,248L91.5,248z M137.9,228.5c0.3-0.8,0.5-1.4,0.9-2.3
			c-1.1,0.4-1.9-1.4-2.6-0.4C135.1,227.4,137.1,227.6,137.9,228.5L137.9,228.5z M145.6,181.7c-0.2,0.2-0.4,0.4-0.7,0.7
			c1.4,1,2.7,2,4.1,3c0.2-0.3,0.4-0.5,0.6-0.7c-0.4-0.3-0.8-0.6-1.2-0.9c-0.2,0.2-0.4,0.3-0.5,0.5c-0.6-0.3,0-0.6-0.1-0.9
			C147.2,182.6,146.5,182.1,145.6,181.7L145.6,181.7z M237.7,159.6c1.5,0.8,2.4,1.8,3.3,3.1c-0.1-1.1,0.7-2.2,0-2.9
			C240.2,159.1,239,159.5,237.7,159.6L237.7,159.6z M74.4,19.3c-0.5-0.7-1.3-0.2-1.9-0.5c0,0.8-0.6,1.5-0.3,2.4
			c0.5,0.2,0.9,0.4,1.9,0.8C74.3,21,74.3,20.2,74.4,19.3L74.4,19.3z M184.9,182c0.1-1.5,0.1-3,0.3-4.4c0.1-0.8-0.2-0.9-0.9-0.9
			c-0.2,1.7-0.5,3.3-0.1,5.1C184.3,181.9,184.6,182,184.9,182L184.9,182z M107.2,45.6c-0.6,1.3,0.2,1.8,1.5,1.9
			c0.6-0.3,0-1.3,0.9-1.3c0.5,0.5-0.7,1.6,0.6,1.9c0-0.8,0.1-1.4,0.1-1.7C109.2,46.1,108.2,45.9,107.2,45.6L107.2,45.6z M49.1,137.9
			c0.5-0.8,0.4-1.8,0.6-2.7c-0.8,0-1.5,0-2.3,0C47.7,136.4,47.5,137.7,49.1,137.9L49.1,137.9z M188.4,183.3c0.2-2,0.4-3.8,0.5-5.3
			c-0.4-0.2-0.7-0.4-1-0.5c-0.1,0.8-0.3,1.5-0.3,2.2c0.1,0.6,0.3,1.2,0.3,1.8C187.9,182,187.8,182.7,188.4,183.3L188.4,183.3z
			 M40.5,158c0.2,0.3,0.5,0.6,0,0.9c0.4,0,0.6,0.1,1,0.1c0.2-2.1,0.4-4.2,0.6-6.2C40.9,154.3,41.6,156.3,40.5,158L40.5,158z
			 M177.8,176.3c-0.3,1.4-0.4,2.7-0.1,4.1c0.2,0,0.5,0.1,0.7,0.1c0.2-1.4,0.4-2.7,0.5-4.1C178.6,175.9,178.2,176.2,177.8,176.3
			L177.8,176.3z M142.4,186.8c1.5,0.7,3.1,1.5,4.6,2.6c0.1-0.4,0.2-0.7,0.3-1C142.8,185.9,142.8,185.9,142.4,186.8L142.4,186.8z
			 M137.2,231.3c0.9-1.9,0.5-2.7-1.4-3C134.8,229.9,136,230.6,137.2,231.3L137.2,231.3z M207.3,170c0.3-1.7,0.5-3.1,0.7-4.5
			c-1.2-0.3-1.3,0.8-2,1.1C206.4,167.6,206.8,168.7,207.3,170L207.3,170z M148.3,179.7c0.5,0.7,1,1.3,1.5,1.9
			c0.7-0.3,1.1-0.7,1.5-1.4C150.3,179.7,149.7,177.9,148.3,179.7L148.3,179.7z M166.9,79.4c-0.8-0.3-1.7-0.6-2.5-1
			c-0.4,0.4-0.8,0.7-1.3,1C164.8,80.9,165.6,80.9,166.9,79.4L166.9,79.4z M161.4,83.6c-0.7-0.4-1.3-0.7-1.9-1
			c-0.5,0.6-1,1.1-1.6,1.6c0.7,0.3,1.3,0.6,1.9,0.9C160.3,84.6,160.8,84.1,161.4,83.6L161.4,83.6z M117.7,255.4
			c-0.1-1.1-0.2-2.2-0.3-3.4c-0.5,0.1-1,0.1-1.4,0.2c0.2,1.2,0.4,2.4,0.5,3.5C117,255.6,117.3,255.5,117.7,255.4L117.7,255.4z
			 M92.5,252.4c-0.8-0.4-1.6-0.7-2.5-1.1c-0.1,0.4-0.3,0.7-0.3,0.9c0.2,0.7,1.1,0.3,1.1,1c-0.4,0.1-0.7,0.1-1.3,0.2
			c1.1,0.2,1.8,0.4,2.5,0.5C92.1,253.4,92.3,252.9,92.5,252.4L92.5,252.4z M219,158.3c-0.1,2-0.3,4-0.4,6c0.6-0.2,1.5-5.3,1.1-5.9
			C219.5,158.4,219.3,158.3,219,158.3L219,158.3z M178.9,71.5c-1.5-1.2-2.8-1-3.5,0.4C176.7,73.1,177.8,72.3,178.9,71.5L178.9,71.5z
			 M112.7,213.7c1.1,0.4,2,0.7,3,1c0.3-1.1-0.4-1.9-1.9-2.3C112.8,212.2,113,213.1,112.7,213.7L112.7,213.7z M40.2,152.9
			c-1,0-1.5,2.8-1,6C39.6,157,39.9,155,40.2,152.9L40.2,152.9z M119.3,251.4c-1.2,0-1.3-0.1-0.7,3.6c0.4,0.1,0.8,0.2,1.1-0.2
			C119.6,253.7,119.5,252.6,119.3,251.4L119.3,251.4z M68.2,86.4c-0.9,0.6-1.9,1-2.1,2.1c-0.1,0.3,0.3,0.9,0.6,1.1
			c0.4,0.3,0.9,0,1.5-0.1c-0.3-0.5-1.1-0.2-1.1-0.9c0.2,0,0.5,0,0.7,0C68.3,87.6,68.3,87.3,68.2,86.4L68.2,86.4z M191.6,155.8
			c-1.6-0.6-2.4,0.2-2.1,2.2c0.4,0,0.8,0.1,1.2,0.1c0-0.2,0.1-0.4,0.1-0.6c0.2,0,0.4-0.1,0.6-0.1
			C191.5,156.8,191.6,156.3,191.6,155.8L191.6,155.8z M214.5,173.2c-1.2,0-2.3,0-3.5,0c0.8,1.8,2.2,1.3,3.4,1.3
			C214.4,174.1,214.5,173.7,214.5,173.2L214.5,173.2z M161.1,85.9c0.4,0.3,0.8,0.5,1.2,0.8c0.7-0.5,1.3-1.1,2-1.7
			c-0.3-0.6-1-0.5-1.4-0.8C162.1,84.6,161.5,85.1,161.1,85.9L161.1,85.9z M107.3,56.9c0-0.8,0-1.5,0-2.1c-0.7,0-1.3-0.6-2-0.2
			c0,0.6,0,1.1,0.1,1.7C106,56.4,106.6,56.6,107.3,56.9L107.3,56.9z M38.2,152.9c-0.2,0-0.3,0-0.5-0.1c-0.5,2.1-0.2,4.4-1,6.5
			c0.2,0,0.4,0,0.8,0C37.7,157.2,38,155.1,38.2,152.9L38.2,152.9z M197.9,183.5c-0.8,0-1.3-0.6-2-1c0,0.8,0,1.6,0,2.5
			c0.6,0.1,1.2,0.2,1.8,0.3C197.8,184.6,197.9,184.1,197.9,183.5L197.9,183.5z M58.2,80.8c0.8,0.3,1.4,0.5,2,0.7
			c0.3-0.6,0.7-1.1,1-1.7c-0.8-0.3-1.4-0.5-2-0.7C59.2,79.9,58.7,80.3,58.2,80.8L58.2,80.8z M57.9,81.5c-0.1,1-1,2.3,0.7,2.4
			c0.6,0,0.9-1,1.2-1.6c-0.9,0-1-0.9-1.6-1.1C58.1,81.4,57.9,81.5,57.9,81.5L57.9,81.5z M107.7,52.1c-0.3-0.1-0.5-0.1-0.8-0.2
			c-0.2-0.1-0.5-0.2-0.7-0.3c-0.4-0.1-1.3,1.1-0.9,1.3c0.6,0.4,1.4,0.6,2.1,1C107.5,53.1,107.6,52.6,107.7,52.1L107.7,52.1z
			 M21.3,155.9c-0.2-1.4,0.3-2.8,0.4-4.2c0-0.6,0.7-1.3-0.4-1.7C20.6,151.6,20.6,155.7,21.3,155.9L21.3,155.9z M134.9,234.6
			c-0.7,1.3-0.9,2.3,0.5,3.1c0.3-0.7,0.6-1.4,0.9-2.1C135.7,235.2,135.3,234.9,134.9,234.6L134.9,234.6z M166.1,174.1
			c-0.3,1.4,0.5,2.6,1,3.9c0.1-1.3,0.2-2.5,0.3-3.8C167,174.2,166.6,174.2,166.1,174.1L166.1,174.1z M192.3,184.1
			c0.6-1.7,0.5-3.4,1.4-5.1c-0.5-0.1-0.8-0.2-1.2-0.3C192,180.6,192.7,182.4,192.3,184.1L192.3,184.1z M121.8,254.1
			c-0.2-1.1-0.4-2.2-0.6-3.3c-0.3,0.1-0.5,0.1-0.8,0.2c-0.2,1.2,0.1,2.2,0.3,3.4C121.1,254.3,121.4,254.2,121.8,254.1L121.8,254.1z
			 M153.2,179.4c-0.5-0.7-1-1.5-1.5-2.3c-0.4,0.3-0.7,0.6-1.1,0.9c0.6,0.6,1.1,1.3,1.7,1.9C152.7,179.9,153,179.8,153.2,179.4
			L153.2,179.4z M207.2,176.2c0.8,0.2,1.6,0.4,2.3,0.6c0.6-1.9,0.4-2-2.3-1.5C207.3,175.6,207.3,175.9,207.2,176.2L207.2,176.2z
			 M159.3,174.2c-0.2,0.1-0.5,0.1-0.8,0.2c0.6,1.3,1.1,2.5,1.7,3.7c0.3-0.2,0.5-0.3,0.7-0.4C160.3,176.6,160.3,175.2,159.3,174.2
			L159.3,174.2z M122.7,218.6c0-0.7,0-1.2,0.1-1.7c-1-0.2-1.9,0.3-3.2-0.2C120.4,218.1,121.6,218.2,122.7,218.6L122.7,218.6z
			 M142.5,56.8c-0.7-0.3-1.3-0.2-2,0c-0.1,0.5-0.2,1-0.3,1.6c0.8-0.2,1.5,0.2,2.1-0.3C142.4,57.6,142.5,57.2,142.5,56.8L142.5,56.8z
			 M75.3,138.4c-0.6-0.1-1.1-0.1-1.5,0.3c0.3,0.8,0.1,1.5,0,2.4C76,141,75,139.4,75.3,138.4L75.3,138.4z M154.8,180.2
			c0.3-0.2,0.6-0.3,0.8-0.5c-0.8-1.2-1.5-2.4-2.5-4.1C152.9,177.8,154.5,178.7,154.8,180.2L154.8,180.2z M107.2,43.4
			c0.8,1.1,2.1,0.9,3.1,1.7c-0.1-0.4-0.1-0.7-0.1-0.9c-1.4-0.8-2.8-1.3-4.3-1.5C106,43.5,106.2,44.2,107.2,43.4L107.2,43.4z
			 M173,78.5c-1-0.7-2-0.4-3.3,0.9c0.4,0.2,0.8,0.5,1.2,0.7C171.7,79.5,172.3,79,173,78.5L173,78.5z M88.4,251.9
			c0.2-0.6,0.4-1,0.5-1.3c-0.3-0.7-1-0.7-1.4-1.1c-0.5,0.2-0.8,0.6-1.1,1.1C87.1,251,87.7,251.5,88.4,251.9L88.4,251.9z M106.6,48.7
			c0.1,0.5-0.8,1-0.2,1.5c0.3,0.3,1,0.5,1.4,0.4c0.7-0.2,0.2-1,0.6-1.5C107.7,48.9,107.3,48.4,106.6,48.7L106.6,48.7z M148.5,186.1
			c-1.4-1-2.7-2.2-4.5-2.7C144.4,184.5,147.9,186.6,148.5,186.1L148.5,186.1z M206.8,174.1c1.1,0.7,2,0,2.9,0.3c0.1-0.4,0.4-0.7,0-1
			c-0.8-0.6-1.6,0-2.3-0.1C207.3,173.7,207.6,174.1,206.8,174.1L206.8,174.1z M205.5,182.7c-0.1,1.5-0.2,2.9-0.3,4.3
			c0.2,0,0.4,0.1,0.6,0.1c0.2-1.4,0.3-2.9,0.5-4.4C206.1,182.6,205.9,182.7,205.5,182.7L205.5,182.7z M43.4,146.1
			c0.9,1,1.3,2.6,3.2,3.4C45.8,147.6,44.8,146.7,43.4,146.1L43.4,146.1z M77.7,137.8c-0.4-0.2-0.7-0.1-1.1,0.1
			c0.4,0.8-0.4,1.7,0,2.6c0.3,0,0.6,0,0.9-0.1C77.8,139.6,77.6,138.7,77.7,137.8L77.7,137.8z M44.8,153.8c0.8,1.6-0.3,3.1,0.4,4.6
			c0.2-2.2,0.4-4.5,0.5-6.8C44.5,152,45.6,153.3,44.8,153.8L44.8,153.8z M158.3,179.1c0.3-2-0.8-3.1-1.1-4.5c-0.3,0-0.6,0.1-0.9,0.2
			C157,176.2,157.6,177.5,158.3,179.1L158.3,179.1z M47,133.8c0.9,0,1.6,0.5,2.5,0.2c0.1-0.4,0.5-0.7,0.3-1.1
			c-1,0.2-1.9-0.4-2.9,0.1C46.9,133.2,46.9,133.4,47,133.8L47,133.8z M188.3,57.7c0.4-0.8,0.7-1.6,1.2-2.7c-0.4,0.3-0.6,0.5-0.6,0.4
			c-1.6-0.1-1.3,1.2-2,1.8C187.5,57.4,187.8,57.5,188.3,57.7L188.3,57.7z M63.7,88.9c0.3-0.2,0.6-0.4,1-0.6
			c-0.2-0.7-0.4-1.4-1.1-1.9C62.5,87.3,62.5,88.1,63.7,88.9L63.7,88.9z M153,185.7c0.3-0.5,0.6-0.9,0.8-1.3c-0.4-0.4-0.4-1.1-1-1.4
			c-0.3,0.3-0.6,0.7-1,1C152.2,184.6,152.6,185.1,153,185.7L153,185.7z M71.7,18.5c-0.4,0-0.7,0-1.1-0.1c-0.1,1-0.8,1.9,0.2,2.9
			C71.6,20.5,71.3,19.4,71.7,18.5L71.7,18.5z M176.6,76.1c-2,0-3.2,0.5-3.6,1.2C174.6,78.3,175.3,76.5,176.6,76.1L176.6,76.1z
			 M32.3,135.3c0.1-1.3-2.6-4.8-3.3-4.7C30,132.1,31.1,133.6,32.3,135.3L32.3,135.3z M83.2,69.1c2.7,0.4,3.6,0.1,3.2-1.3
			c-0.2,0.5-0.2,1-0.8,0.9c-0.6-0.8-1.4-0.6-2.3-0.5C83.3,68.5,83.2,68.8,83.2,69.1L83.2,69.1z M181,157.8c-0.4-0.2-0.9,0-1,0.2
			c-0.2,0.8-0.2,1.6-0.2,2.4c0,0.4,0.5,0.3,0.8,0.3C180.7,159.8,180.9,158.8,181,157.8L181,157.8z M163.7,78.2
			c-0.6-0.2-1.1-0.4-1.6-0.6c-0.4,0.4-0.8,0.8-1.4,1.4C162,79.1,163.2,79.6,163.7,78.2L163.7,78.2z M164.5,174.9
			c0.7,1.6,0.3,3.2,1.5,4.9c-0.3-2.1-0.6-3.9-0.9-5.8C164.7,174.5,164.5,174.8,164.5,174.9L164.5,174.9z M72.7,138.9
			c-0.7,0.1-1,0.5-1,1c0,0.7,0.1,1.4,0.1,2.4C72.9,141.2,72.8,140.1,72.7,138.9L72.7,138.9z M84.5,139.3c-0.2,0.6-0.3,1.1-0.4,1.6
			c0.7,0.2,1.2,0.4,1.8,0.5c0-0.6,0.1-1.2,0.1-1.6C85.5,139.7,85,139.5,84.5,139.3L84.5,139.3z M83.2,139.1
			c-1.1-0.7-1.1-0.7-1.8,1.1c0.5,0.7,1.1,0.2,1.7,0.3C83.1,140,83.1,139.5,83.2,139.1L83.2,139.1z M161.9,174.2
			c-0.2-0.2-0.7-0.3-0.7,0c-0.3,1.2,0.3,2.2,0.6,3.4c0.2-0.1,0.4-0.3,0.5-0.3C162.1,176.2,162,175.2,161.9,174.2L161.9,174.2z
			 M110.3,209.5c0,1,1.3,0.6,1.4,1.5c-0.6,0-1.1-0.1-1.7-0.1c-0.1,0.2-0.1,0.4-0.2,0.7c0.8-0.1,1.5-0.1,2.2-0.2
			C112.3,209.9,111.7,209.5,110.3,209.5L110.3,209.5z M147.5,187.6c0.1-0.1,0.1-0.2,0.2-0.3c-1.3-0.8-2.7-1.7-4-2.5
			c-0.1-0.1-0.5,0.2-0.5,0.4C144.6,186,146.1,186.8,147.5,187.6L147.5,187.6z M145.7,94.2c0.6,0.6,1.5,0.6,2.2,1.1
			c0.2-0.4,0.3-0.9,0.5-1.5C147.5,94.3,146.5,93,145.7,94.2L145.7,94.2z M201.3,184.2c0.7,0.4-0.8,2.1,1.3,2.2
			c-0.5-1,0.3-1.7-0.1-2.5C202.1,183.9,201.7,184,201.3,184.2L201.3,184.2z M181.6,157.1c2.2,1,1.3-0.9,1.9-1.6c-0.6,0-1,0-1.5-0.1
			C181.7,156,182.3,156.6,181.6,157.1L181.6,157.1z M236.1,176.8c1-0.9,0.4-1.6-0.1-2.4c-0.6,0.7-0.9,1.3-1,2.3
			C235.4,176.7,235.8,176.8,236.1,176.8L236.1,176.8z M152.3,88.8c0.4-0.6,0.9-1.1,1.2-1.6c-1.2-0.7-1.7,0.5-2.6,0.9
			C151.2,88.7,151.8,88.6,152.3,88.8L152.3,88.8z M109.9,209.5c-2.2-0.3-3.8,0.9-5.7,0.9C104.5,210.8,109,210.1,109.9,209.5
			L109.9,209.5z M146.7,196.2c0.2-0.3,0.4-0.6,0.6-0.9c-1-1.5-1.6-0.1-2.4,0.2C145.3,196.1,146,196.1,146.7,196.2L146.7,196.2z
			 M206.7,161.4c1.2,0.3,1.2,1.3,1.6,2.1c0.2-0.4,0.3-0.6,0.4-0.8c-0.7-1.1-1.3-2.1-2-3.2C206.5,160.3,206.6,160.9,206.7,161.4
			L206.7,161.4z M187.9,47.9c0,0.8,0,1.5,0,2.3c0.5-0.2,0.8,0,1.2,0.2c-0.7-0.9-0.2-2.1-0.9-3.1c-0.2,0.6-0.7,0.1-1,0.3
			C187.2,48,187.5,48.1,187.9,47.9L187.9,47.9z M71.6,17.6c0-1,0-1.9,0-3.1c-1.2,0.8-0.5,2-1.1,2.7C70.8,17.7,71.2,17.8,71.6,17.6
			L71.6,17.6z M210.9,183.3c0.1,1.5-0.1,3,0.6,4.3C211.1,186.2,212.1,184.5,210.9,183.3L210.9,183.3z M149,182
			c-0.6-0.6-1.1-1.2-1.7-1.9c-1,1.7,0.7,1.7,1.1,2.6C148.6,182.5,148.8,182.3,149,182L149,182z M118.8,216.8c0.5-1.7-0.5-2-1.6-2.4
			C116.6,216.1,118.4,215.8,118.8,216.8L118.8,216.8z M122.8,216c0.4-1,0.4-1-2.7-0.6c0,0.2,0,0.4,0,0.7
			C121,216,121.8,216,122.8,216L122.8,216z M156.7,179.4c-0.2-1.6-0.7-2.9-1.7-4c-0.1-0.1-0.5-0.1-0.5,0.3
			C155.6,176.6,155.6,178.2,156.7,179.4L156.7,179.4z M133.2,238.8c0.6,0.1,1.1,0.2,1.6,0.3c1-1.3-0.5-1.3-1-1.9
			C133.6,237.8,133.4,238.3,133.2,238.8L133.2,238.8z M173,73.8c1-0.1,2,0,3.2-0.5c-0.8-0.3-1.4-0.6-2.1-0.9
			C174.2,73.3,173,72.8,173,73.8L173,73.8z M148.3,192.9c-0.5-0.2-1-0.3-1.5-0.5c-0.5,0.9-0.6,1.7,0.7,1.8
			C147.8,193.8,148,193.4,148.3,192.9L148.3,192.9z M71.2,142.9c-0.1,0.8-0.1,1.5-0.2,2.2c1.5,0,0.9-1.2,1.3-1.9
			C71.9,142.9,71.6,142.7,71.2,142.9L71.2,142.9z M123.9,215.8c1.1,0.6,2.3-0.1,3.5,0.6c-0.2-0.4-0.3-0.6-0.4-0.8
			c-0.7,0.4-1.4-0.3-2.2,0c0-0.4-0.2-0.7-0.7-0.8C124.1,215.1,124,215.5,123.9,215.8L123.9,215.8z M151.3,183.6
			c-0.4-1.2,1.8-1.1,0.6-2.2c-0.7-0.6-1,0.6-1.6,0.8C150.6,182.6,150.8,182.9,151.3,183.6L151.3,183.6z M43.4,155.2
			c-0.5,1.2-0.9,2.4-0.5,4C44,157.9,43.2,156.4,43.4,155.2L43.4,155.2z M138,56.9c-0.1,0.4-0.1,0.8-0.2,1.2c0.5,0.1,0.9,0.1,1.3,0.2
			c0.4-0.4,0.4-0.9,0.4-1.6C139,56.9,138.5,56.9,138,56.9L138,56.9z M149.5,95.8c0.9,0,1.7-0.1,2.8-0.1c-1-0.5-1.7-0.9-2.4-1.3
			C149.5,94.8,149.3,95.3,149.5,95.8L149.5,95.8z M237.1,156.9c0.4,0.9,0.2,1.3,0.1,1.8c0.8,0.1,1.5-0.2,2.5,0.7
			C239.1,158.1,238.2,157.7,237.1,156.9L237.1,156.9z M73.3,142.8c0.3,0.5-0.3,1.3,0.5,1.3c0.8,0,1.4-0.6,1.1-1.7
			C74.4,142.6,73.9,142.7,73.3,142.8L73.3,142.8z M236.6,172.8c0.6,0.2,1.1,0.2,1.6-0.2c-0.5-0.5-0.2-1.4-1.1-1.9
			C237,171.4,236.8,172.1,236.6,172.8L236.6,172.8z M204,186.7c0.2-1.2,0.3-2.4,0.5-3.7c-0.4,0.3-0.7,0.4-1,0.6c0.1,1,0.5,2,0,3
			C203.7,186.6,203.9,186.6,204,186.7L204,186.7z M163.8,81.7c-1.2,0-2.2,0.1-3.4,0.1C162.3,83.1,162.4,83.1,163.8,81.7L163.8,81.7z
			 M237.5,162.9c0.2-0.9,0.6-1.9-0.5-2.5C236.3,161.4,236.4,162.2,237.5,162.9L237.5,162.9z M235.1,173.7c-0.9,0-1.4,0-2,0
			c-0.1,0.8,0.5,1.2,0.8,1.9C234.2,175,234.3,174.3,235.1,173.7L235.1,173.7z M163.9,177.8c-0.2-1.3-0.3-2.5-0.5-3.8
			C162.7,174.7,163.1,177.5,163.9,177.8L163.9,177.8z M127.5,218.8c0.8-0.2,1.6-0.3,2.2-1.1c-0.7-0.1-1.3-0.3-1.8-0.4
			C127.7,217.8,127.6,218.3,127.5,218.8L127.5,218.8z M65.6,72.4c-0.6-0.1-1.1-0.2-1.9-0.3c0.6,0.8,1.1,1.5,1.7,2.3
			C65.4,73.7,65.5,73.1,65.6,72.4L65.6,72.4z M80.2,140.2c-0.2-0.5,0.4-0.9,0-1.4c-0.5,0-1,0.2-1.3,0.5
			C78.8,140.2,79.1,140.7,80.2,140.2L80.2,140.2z M200.4,184.1c-0.3,0-0.6-0.1-0.9-0.1c-0.1,0.6-0.3,1.1-0.4,1.6
			c0.3,0.1,0.5,0.2,0.7,0.3C200.2,185.3,200.5,184.8,200.4,184.1L200.4,184.1z M124.1,251.6c0.3,0.4,0.5,0.8,0.8,1.2
			c0.3-0.2,0.6-0.4,0.9-0.6c0-0.5-0.2-1-0.7-1.4C124.9,251.3,124.4,251.3,124.1,251.6L124.1,251.6z M151.8,187.4
			c0.2-1.2-0.9-1.3-1.4-2c-0.2,0.2-0.3,0.4-0.5,0.6C150.4,186.6,150.8,187.2,151.8,187.4L151.8,187.4z M48.6,147.2
			c0.8,1.3,1.7,0.9,2.8,0.6C50.5,146.8,49.6,147.4,48.6,147.2L48.6,147.2z M84.4,137.8c0.5,0.5,1,0.8,1.7,0.5c0-0.4-0.1-0.7-0.1-1
			c-0.5-0.1-1-0.2-1.4-0.3C84.5,137.4,84.4,137.6,84.4,137.8L84.4,137.8z M81,69.2c0.4,0,0.9,0,1.2-0.1c0.1-0.4,0.1-0.7,0.2-1
			c-0.6,0-1.2-0.1-1.9-0.1C80.8,68.4,80.9,68.7,81,69.2L81,69.2z M231.5,179.1c0.4-0.5,0.8-1,1.4-1.7c-0.6-0.1-1.1-0.2-1.6-0.2
			C231.4,177.9,231,178.5,231.5,179.1L231.5,179.1z M169.4,47.4c0.5,0.5,1.1,1.1,2,1.1C171.7,46.1,169.8,48.1,169.4,47.4L169.4,47.4
			z M219.2,187.8c-0.1-1.4-0.1-2.8-0.2-4.2C218.5,185.1,218.6,186.5,219.2,187.8L219.2,187.8z M212.8,186.5c0.3-1.2,0.4-2,0.1-2.8
			c0-0.1-0.4-0.1-0.5-0.1c-0.2,0.1-0.3,0.3-0.2,0.6C212.3,184.8,212.5,185.4,212.8,186.5L212.8,186.5z M60.5,83.3
			c-0.1,0.8-0.9,1.3-0.1,2.1C60.8,84.7,62,84.2,60.5,83.3L60.5,83.3z M149.2,191.4c-0.6-0.2-1.1-0.5-1.6-0.7
			c-0.1,0.3-0.2,0.5-0.3,0.7c0.3,0.6,0.8,0.7,1.3,0.8C148.8,191.9,149,191.7,149.2,191.4L149.2,191.4z M87.6,64.6
			c0.3-0.8,0.5-1.4,0.7-2.1c-0.2,0-0.2,0-0.3,0c-0.4,0.3-0.8,0.6-1.3,1C86.9,63.9,87.2,64.2,87.6,64.6L87.6,64.6z M150.6,96.5
			c1.1,1.1,1.5,1,2.7-0.6C152.3,96.7,151.4,96.2,150.6,96.5L150.6,96.5z M51.6,54.2c0.1-0.5,0.4-1-0.1-1.3c-0.3-0.2-0.8-0.5-1.3,0
			C50.8,53.2,50.8,54,51.6,54.2L51.6,54.2z M64.7,90.6c0.4-0.3,0.9-0.5,1.3-0.8c-0.1-0.2-0.3-0.5-0.1-0.8c-0.2,0-0.5-0.1-0.6-0.1
			c-0.3,0.3-0.5,0.6-0.8,1C64.5,90.1,64.6,90.3,64.7,90.6L64.7,90.6z M181.1,56c-0.1,0-0.1,0-0.2,0c0.2,1.5,0.3,3,0.5,4.5
			c0.1,0,0.3,0,0.4-0.1C181.5,59,181.3,57.5,181.1,56L181.1,56z M180.3,155.2c-0.4,0.6-0.1,1.1-0.1,1.7c0.2,0,0.4,0.1,0.7,0.1
			c0.1-0.6,0.2-1.2,0.2-1.8C180.8,155.2,180.6,155.2,180.3,155.2L180.3,155.2z M87.5,142.3c0.1-0.7,0.1-1.3,0.2-2
			c-0.2,0-0.4-0.1-0.6-0.1c-0.1,0.6-0.2,1.2-0.4,1.9C87,142.2,87.2,142.3,87.5,142.3L87.5,142.3z M204.4,159.2
			c-0.4,1.1-0.6,1.6-0.8,2.2c0.5,0.3,0.5,0.9,0.9,1.5C204.5,161.7,204.5,160.8,204.4,159.2L204.4,159.2z M148.4,189.2
			c-0.3,0.3-0.5,0.4-0.3,0.8c0.4,0.6,1,0.4,1.8,0.6C149.5,189.8,149,189.4,148.4,189.2L148.4,189.2z M173.5,175.3
			c0.5,1.2-0.1,2.3,0.3,3.9c0.2-1.7,0.3-2.8,0.4-4C174,175.2,173.9,175.2,173.5,175.3L173.5,175.3z M208.9,160.8
			c0.2-0.4,0.3-0.5,0.4-0.6c-0.6-0.9-1.2-1.8-1.8-2.6c0,0-0.1,0.1-0.1,0.1C207.8,158.7,208.3,159.7,208.9,160.8L208.9,160.8z
			 M209.1,187.4c0.4,0.1,0.6-0.1,0.6-0.5c0-0.7,0.6-1.5-0.2-2.3C209.4,185.7,209.3,186.6,209.1,187.4L209.1,187.4z M57.1,84.5
			c-0.1,0.3-0.4,0.6-0.2,1c0.2,0.1,0.5,0.3,0.8,0.4c0.4-0.3,0.5-0.7,0.3-1.3C57.8,84.6,57.4,84.5,57.1,84.5L57.1,84.5z M176.9,75.7
			c0.4-0.4,0.6-0.7,0.9-1c-0.9-0.1-1.6-0.1-2.1,0.6C176.2,75.5,176.6,75.6,176.9,75.7L176.9,75.7z M154.7,181.7
			c-0.4,0.2-0.7,0.4-1.1,0.7c0.6,0.2,0.8,0.6,0.9,1C155.8,182.9,154.8,182.3,154.7,181.7L154.7,181.7z M77.2,142.1
			c-0.4-0.1-0.8-0.1-1,0.2c-0.2,0.3-0.3,0.7,0,1.2C76.5,142.9,77.6,143.2,77.2,142.1L77.2,142.1z M80.7,67.3c0.8-0.1,2.2,0.5,2-1.5
			C82.2,66.7,81.4,66.8,80.7,67.3L80.7,67.3z M50.1,149.2c0.3,0.5,0.6,1,0.9,1.7c0.1-0.8,0.2-1.4,0.3-2.1
			C50.9,148.9,50.5,149,50.1,149.2L50.1,149.2z M188.5,62.6c1.2-0.9,0.6-1.2-0.4-1.4C187.6,61.9,188,62.3,188.5,62.6L188.5,62.6z
			 M109.5,51.2c0.4-1.7,0.4-1.8-0.2-1.9C108.7,50.3,108.8,50.9,109.5,51.2L109.5,51.2z M126.5,251.3c1-0.9,0-1.3-0.2-2
			C125.5,250.1,126.1,250.6,126.5,251.3L126.5,251.3z M121.9,133.6c0.4,0.7-0.5,1.7,0.6,2.6C122.2,135.1,122.8,134.3,121.9,133.6
			L121.9,133.6z M224.2,185.8c-0.4-1.3-0.7-2.5-1.1-3.8C223,183.4,223.6,184.6,224.2,185.8L224.2,185.8z M158.7,81
			c1.1,0.4,1.6-0.2,2.2-0.7C159.9,79.7,159.4,80.6,158.7,81L158.7,81z M87.9,139.3c0.3-1.2,0.3-1.2-0.3-1.7
			C87,139,87,139.3,87.9,139.3L87.9,139.3z M57.2,146.9c0.2-1.1,0.9-1.8,0-3C57.5,145.1,56.7,145.8,57.2,146.9L57.2,146.9z
			 M72.3,71.4c0,0.2-0.1,0.4-0.1,0.7c0.6,0,1.1,0,1.7,0c-0.2-0.3-0.4-0.6-0.5-0.9C73,71.3,72.7,71.3,72.3,71.4L72.3,71.4z
			 M122.4,250.8c0.2,0.9,0.5,1.7,0.8,2.8C123.8,252.3,122.6,251.7,122.4,250.8L122.4,250.8z M149.4,186.9c0.3,0.8,0.7,1.5,1.8,1.3
			C150.5,187.7,149.9,187.3,149.4,186.9L149.4,186.9z M122.9,249.1c0-0.8,1.3-1.1,0.3-1.9c-0.3,0.4-0.5,0.7-0.8,1.1
			C122.5,248.5,122.6,248.7,122.9,249.1L122.9,249.1z M153,181.3c0.4-0.2,0.7-0.4,1.1-0.7c-0.2-0.2-0.4-0.4-0.6-0.7
			c-0.3,0.3-0.6,0.5-0.8,0.7C152.8,180.9,152.9,181.1,153,181.3L153,181.3z M19.3,147.1c-0.5,0.9,0.5,1,0.8,1.7
			C20.4,147.8,20,147.3,19.3,147.1L19.3,147.1z M179.1,73.6c0.7-0.6,1.3-1.1,2-1.5c0-0.1-0.1-0.1-0.1-0.2c-0.8,0.5-1.6,1-2.4,1.5
			C178.7,73.4,178.9,73.5,179.1,73.6L179.1,73.6z M205.8,157.8c-0.9,0.7,0,1.2-0.1,2.2C206.3,159.1,206.3,158.5,205.8,157.8
			L205.8,157.8z M239.1,145.3c0.4,0.7-0.1,1.8,0.9,2.3C240,146.7,239.8,145.9,239.1,145.3L239.1,145.3z M55.7,83.6
			c-0.2-0.1-0.4-0.2-0.7-0.4c-0.2,0.4-0.3,0.7-0.5,1.1c0.3,0.1,0.5,0.2,0.8,0.3C55.4,84.3,55.6,84,55.7,83.6L55.7,83.6z M86.9,136.2
			c-0.8-0.1-1.4-0.2-2.1-0.3c0,0.2,0,0.4-0.1,0.6C85.4,136.3,86.1,137,86.9,136.2L86.9,136.2z M125.3,244.1
			c-0.6,0.4-0.6,0.9-0.4,1.4c0.3-0.2,0.6-0.3,0.9-0.5C125.6,244.6,125.5,244.4,125.3,244.1L125.3,244.1z M238.9,147.6
			c-0.4-0.3-0.3-1.1-1.1-1.1c-0.2,0.4-0.1,0.7,0.2,1C238.3,147.7,238.5,148.1,238.9,147.6L238.9,147.6z M237.2,148.5
			c-0.3-0.5-0.5-1-1.3-0.7c0.2,0.5,0.4,0.8,0.6,1.2C236.8,148.8,237,148.6,237.2,148.5L237.2,148.5z M61.4,86.6c1,0.1,1-0.7,1.3-1.2
			c-0.2-0.1-0.3-0.2-0.5-0.3C61.9,85.5,61.7,86,61.4,86.6L61.4,86.6z M59.4,86c-0.4,0.6-0.4,1,0.2,1.3c0.2-0.4,0.6-0.6,0.5-1.1
			C59.8,86.1,59.6,86.1,59.4,86L59.4,86z M170.6,58.8c0.4,1,0.9,1.3,2.2,1.3C171.9,59.6,171.4,59.3,170.6,58.8L170.6,58.8z
			 M161.4,81.1c0.7-0.1,1.2-0.1,2-0.2c-0.6-0.3-0.9-0.5-1.3-0.6C161.9,80.5,161.8,80.7,161.4,81.1L161.4,81.1z M150.1,184.2
			c0.5-0.6,0-0.9-0.4-1.4c-0.2,0.3-0.4,0.4-0.5,0.6C149.5,183.7,149.8,183.9,150.1,184.2L150.1,184.2z M21.4,147.8
			c0.2,0.4,0.2,0.7-0.1,1c-0.2,0.2,0,0.7,0.5,0.6C22,148,22,148,21.4,147.8L21.4,147.8z M169.6,59.3c0.2-0.5-0.1-0.7-0.4-1
			c-0.3,0.2-0.5,0.5-0.7,0.7C168.8,59.4,169.2,59.2,169.6,59.3L169.6,59.3z M78.5,141.9c0.1,0.3,0.2,0.5,0.3,0.9
			c0.4-0.5,1.1-0.3,1.2-1C79.6,141.8,79.1,141.8,78.5,141.9L78.5,141.9z M46.6,147.4c0.4,0.5,0.5,1.2,1.8,0.9
			C47.4,148.1,47.5,147.3,46.6,147.4z"/>
		<path class="svg" d="M62.4,65.9c0.6,0.7-0.1,1.5,0,2.3c-0.8-0.7-0.1-1.6-0.2-2.3C62.3,65.8,62.3,65.9,62.4,65.9z"/>
		<path class="svg" d="M59.9,134c0.7-0.2,1.4,0,2.2,0.2C61.1,134.8,60.5,134.2,59.9,134L59.9,134z"/>
		<path class="svg" d="M97.6,36.4c0,0.8-3.5,0.9-8,0.5c2.8,1.2,6,0.7,8.9,1.5c-3.6-0.2-7.3,0.3-10.9-0.5c-0.2,0.9,1.6,1.3,0.7,2.1
			c-0.8,0.6-1-1-1.9-1.2c0.4,0.9,1.4,1.5,1.3,2.6c-1-1-2.2-1.8-2.7-3.1c-0.5-0.2-0.7,0.3-1.2,0.4c0.3,0.4,0.5,0.7,0.8,1.1
			c-1.3,0.9-1.9-1.8-3-0.5c0,0,0.2,0.1,0.3,0.3c0,0.4-0.2,0.5-0.6,0.7c-1.2-1.5-3.1-2.2-4.5-3.5c-2.4-0.4-4.8-1.1-7.4-0.8
			c0-0.4,0-0.7,0.1-1.1c2.2,0.3,4.3,0.5,6.4,0.8c-0.5-1.3-1.3-2.4-1.5-3.9c-0.2-1.4,0.3-2.4,1.3-3.3c1.5-1.2,2.8-2.4,4.9-2.6
			c3.6-0.3,6.2,2.2,7.6,4.8c0.9,1.7,1.7,3.4,2.6,5.1c0.1,0.1,0.3,0.3,0.4,0.3C93.5,36.2,95.5,36.3,97.6,36.4L97.6,36.4z M81.7,35.1
			c0.8,0.6,1.5,0.2,2.3-0.1c2.2-0.7,3.1-3.4,1.8-5.4c-0.9-1.5-2.4-1.6-3.9-2c-1.8-0.4-3,0.2-4.1,1.4c-1.1,1.3-0.8,2.7-0.1,4.1
			C78.9,35.3,80.5,36,81.7,35.1L81.7,35.1z M90.6,35.7c-0.5-0.7-0.9-1.3-1.5-2.1c-0.1,0.7-0.7,1.3-0.2,1.9
			C89.4,36,90,35.8,90.6,35.7L90.6,35.7z M86.8,37c0.5,0.5,1.2,0.2,1.8,0.4c0-0.7-0.5-0.7-0.9-0.9C87.4,36.6,87.2,36.8,86.8,37z"/>
		<path class="svg" d="M36.9,50.2c-1.5-0.6-1.4-1.7-1.6-2.6c-0.6-2.5-0.2-4.9,0.5-7.3c0.5-1.8,1-3.7,2.1-5.3c0.1-0.1,0-0.4,0-0.6
			c-1-0.1-1.2,1-1.8,1.4c-0.4-0.2-0.4-0.5-0.3-0.7c0.5-1.9,2.7-1.6,3.6-2.9c0,0.2-0.1,0.5-0.1,0.9c1.3-0.4,3.1,0.7,3.6-1.6
			c-1.2,0-2.5-0.4-3.6,0.3c-0.3,0.2-0.8,0.1-0.9-0.3c-0.1-0.4,0.1-0.7,0.5-0.8c0.9-0.3,1.9-0.5,2.8-0.2c2,0.6,3-0.6,3.7-2.2
			c-0.3-0.1-0.6-0.2-0.5-0.5c1.8-0.1,2.7-1.6,3.7-2.8c1.3-1.4,2.8-2.5,4-4c-1.4,2.6-3.4,4.6-5.5,6.9c2,0.6,3.9,1.1,5.8,1.5
			c0.5,0.1,0.8-0.6,0.9-1c0.5-1.7,0.9-3.4,0.4-5.3c0.2-0.1,0.4-0.2,0.8-0.3c-0.3,1.5,0.4,2.9-0.2,4.2c0.2,0.9-0.1,1.7-0.6,2.5
			c0.1,0.4,0.5,0.4,0.9,0.4c-0.5,0.5-0.9,0.2-1.4,0.1c-0.2,0.4-0.3,0.8-0.6,0.9c-0.2,0.8-0.8,1.6,0,2.3c2,0.7,4,1.4,6.4,2.2
			c-1.1,0-1.8,0.2-2.5,0c-2.4-0.8-4.7-1.7-7.2-2.5c-2-0.6-4-1.8-6.4-1c0,0.3,0.4,0.6-0.1,1.2c1.7,0.3,3.4,0.5,5.1,1
			c1.5,0.4,3.2,0.7,4.3,2.2c-2.2-0.9-4.4-1.3-6.7-1.8c-1.5-0.3-3.4-1.5-4-0.3c-2,4.7-4,8.3-3.3,12.7c-1.9-0.8-1.1-2.2-1-3.1
			c0.3-2.3,0.9-4.6,2.1-6.7c0.5-1,0.5-2.2,1.8-3.1c-1.1,0-1.9,0-2.9,0C37.1,39.2,34.8,44.3,36.9,50.2L36.9,50.2z M51.7,32.8
			c-0.3-1.1,0.5-1.8,0.7-2.9c-2-0.4-4-0.8-6.1-1.3c-0.2,0.8-1.5,0.9-1.4,2.1C47.2,31.1,49.4,32,51.7,32.8z"/>
		<path class="svg" d="M41.1,69.4c-0.5,1.4-1.4,2.5-2.1,3.7c-0.4-0.5,2-4.5,3-5.2C41.8,68.6,41.6,69.2,41.1,69.4z"/>
		<path class="svg" d="M42.5,61.9c1.4,1,2.9,1.9,3.9,3.8C44.9,64.2,43.7,63.1,42.5,61.9z"/>
		<path class="svg" d="M71.5,50.6c1-0.4,1.9,0.2,2.9,0.3C73.3,51.2,72.4,51.2,71.5,50.6L71.5,50.6z"/>
		<path class="svg" d="M49.7,68.4c-0.9-0.1-1.6-0.5-2-1.5C48.9,66.7,48.6,68.5,49.7,68.4z"/>
		<path class="svg" d="M63,27c0.9-0.6,1.7,0.3,2.6,0.2C64.7,27.7,63.9,26.7,63,27z"/>
		<path class="svg" d="M116.6,98.4c0.5-0.7,1.3,0.1,2-0.2c-0.7,0.5-1.7,0.5-2.3,1.3c-0.2-0.2-0.3-0.4-0.4-0.5
			c-0.2,0-0.5,0.1-0.7,0.1c0.2,1,1.3,1.6,1.2,2.8c1.8,0,3.9,0,5.9,0c-2.3,0.5-4.7,0.2-7,0.8c-0.2,0.8,1.1,0.8,0.8,1.7
			c4.5,0.3,8.9,0.6,13.3,1c-5.1,1-10.2-0.2-15.3-0.1c-0.1,0.7,0.7,0.9,0.9,1.5c1.6,0.1,3.2,0.2,4.8,0.2c0,0.1,0,0.3,0,0.4
			c-2.1,0-4.3,0-6.5,0c-0.2,0.5,0.4,0.8,0.7,1.3c-0.1,0.4-0.3,0.7-0.9,0.6c-0.3-0.6-0.6-1.3-1-1.9c-0.3-0.1-0.5-0.1-0.8,0.2
			c0.5,0.3,0.7,0.7,0.2,1.2c-1,0-1.1-1.5-2.3-1.4c0.5,0.5,1.1,1.1,0.4,1.6c-0.7,0.4-1.2-0.2-1.5-0.9c-0.1-0.3-0.3-0.8-1-0.5
			c0.2,0.4-0.1,1,0.5,1.3c0.2,0.2,0.2,0.5,0,0.7c-0.3,0.2-0.5,0.2-0.8,0c-0.7-0.6-0.9-1.5-1.3-2.2c-0.2-0.4-0.5-0.3-0.8-0.2
			c0,0.5,0.8,0.7,0.5,1.5c-1.1,0.2-1.5-0.8-1.9-1.4c-0.7-1.1-1.9-1.6-2.8-2.4c-1.9-1.8-3.2-6.7-2-9c0.4-0.8,1.4-1.4,2.2-1.8
			c1.1-0.6,1.7-1.9,3-2.1c0.1,0,0.2-0.3,0.2-0.4c3.3-1.2,5.9,0.4,8.3,2.2c0.8,0.6,1.1,1.8,1.6,2.8C114.5,97.6,115.1,98.6,116.6,98.4
			L116.6,98.4z M102.3,94.3c-2.7,1.6-3.4,4.5-1.6,7.3c2.1,3.2,5.3,4.6,9,2.6c2.2-1.2,2.9-6.4,1-8.9C109,92.8,106.7,91.2,102.3,94.3
			L102.3,94.3z M114.6,100.3c-0.5,0.6-0.1,1.1,0.1,1.5c0.2,0.2,0.8,0.2,1.2,0.3C115.1,101.7,115.3,100.6,114.6,100.3L114.6,100.3z
			 M114,102.8c-0.5,0.4-0.7,0.9-0.4,1.5c0.4,0,0.8,0,1.4,0C114.7,103.7,114.4,103.3,114,102.8L114,102.8z M113.6,106.6
			c-0.5-0.6-0.5-1.3-1.4-1.5c0.1,0.6,0.2,1,0.3,1.4C112.9,106.5,113.1,106.6,113.6,106.6z"/>
		<path class="svg" d="M115.5,97.6c-1.2-1.3-2.1-2.7-2.5-4.4c-0.1-0.2,0.1-0.3,0.6-0.5C113.9,94.4,114.9,95.9,115.5,97.6z"/>
		<path class="svg" d="M102.7,80.3c0.8-0.2,1.6-0.9,2.7-0.2C104.3,80.2,103.5,80.3,102.7,80.3z"/>
		<path class="svg" d="M108.1,66.4c-0.8,0.1-1.7,0.1-3,0.2C106.3,66.1,107.2,66,108.1,66.4z"/>
		<path class="svg" d="M171.9,147.2c-0.2,0.9-0.5,1.9-0.7,2.8c-0.1,0-0.1,0-0.2,0c0.2-1,0.3-1.9,0.5-2.9
			C171.5,147.1,171.7,147.1,171.9,147.2z"/>
		<path class="svg" d="M50.7,109c-1,1-1.9,1.9-2.9,2.8c-0.2-0.1-0.3-0.3-0.5-0.4C48.3,110.4,49.3,109.5,50.7,109z"/>
		<path class="svg" d="M68.2,80.8c-0.8,0-2.3-2.1-2.1-2.9c2.2,0.7,6.5,7.5,5.5,8.7C70.9,84.5,69.4,82.8,68.2,80.8z"/>
		<path class="svg" d="M143.8,81.4c-0.7-0.9-0.2-1.6,0.2-2.8C144.4,79.8,144.3,80.6,143.8,81.4C143.8,81.4,143.8,81.4,143.8,81.4z"
			/>
		<path class="svg" d="M201.3,169.3c0.8-0.7,1.3,0.1,1.8,0.2c0.4,3-0.2,5.7-2.6,7.6c-1.1,0.9-2.6,1.1-4.1,1c-0.5,0-0.9-0.3-0.8-0.6
			c0.3-0.6,0.2-1.5,1.1-1.8c2.9-0.9,4-3.2,4.6-5.9C201.4,169.6,201.3,169.5,201.3,169.3z"/>
		<path class="svg" d="M200.8,166.2c-1.9-2.3-2.3-7.1-0.6-7.8c0.7,1.4,1,3,1,4.6c0,0.6,0.3,0.9,0.5,1.4
			C202.2,165.4,201.7,165.9,200.8,166.2z"/>
		<path class="svg" d="M52.9,144.5c-2.9,0.2-5.7,0.6-8.5-0.7c-1.4-0.6-2-2-2.8-3.1c-0.3-0.5,0.1-1,0.7-1.3c1.5,1.3,2.6,3.1,5.1,3.1
			c2,0,4.1-0.1,6,0.9C53.2,144,53,144.2,52.9,144.5z"/>
		<path class="svg" d="M27.9,121.6c0.2,0.1,0.5,0.1,0.8,0.2c-0.5,3.1,2.6,4.2,4.6,4.1c0.5,0.5,0.3,1.1,0.2,1.7
			c-2.4,0.6-4.5-0.2-5.8-2.1C26.8,124.2,26.3,122.9,27.9,121.6z"/>
		<path class="svg" d="M43.7,133.7c0-1.6-1.7-2.2-2.2-3.7c1.8-0.4,2,1,2.5,1.8C44.3,132.2,45,133,43.7,133.7z"/>
		<path class="svg" d="M64.3,68.6c2.9-0.8,5.6-1,8.2-2.1c0.1,0.3,0.2,0.5,0.3,0.6C70.6,69.5,66.3,70.4,64.3,68.6z"/>
		<path class="svg" d="M169.2,54.6c-0.1,0.3-0.1,0.5-0.2,0.6c-0.6,0.5-3.8-0.8-4.7-1.8c-1.8-1.9-2-3-0.8-4.3
			c1.7,2.4,3.5,4.6,6.8,4.5C170.2,54.6,169.8,54.8,169.2,54.6z"/>
		<path class="svg" d="M115.3,207.3c1.1,1.2,2.2,2.1,3.5,2.5c2,0.7,4.1,0.1,6.1,0.2c1.5,0.1,2.9,0.2,4.4,0.3c0.1,0,0.2,0.2,0.2,0.2
			c-0.1,0.2-0.2,0.3-0.4,0.4c-2,1.4-4.4,1-6.6,1.2c-2.7,0.2-4.9-0.8-6.8-2.7C115.1,208.9,115.1,208.3,115.3,207.3z"/>
		<path class="svg" d="M108.2,206.3c1-0.6,2.8-0.5,4.9,0.3c-0.1,0.2-0.2,0.3-0.2,0.3C111.3,207,109.6,207.8,108.2,206.3z"/>
		<path class="svg" d="M124.6,122.3c0.2,0,0.4,0,0.6,0.1c0.1,0.9,0.8,1.4,1.3,2.2c0.1,3.3-1.7,6-4.5,6c-1.3,0-2.9,0.1-3.9-1.2
			c-0.2-0.2-0.4-0.4-0.2-0.8c0.2-0.3,0.5-0.3,0.8-0.3c0.6,0.1,1.2,0.3,1.8,0.4c2.5,0.2,4.2-1.9,3.9-4.1
			C124.3,123.9,124.2,123.1,124.6,122.3z"/>
		<path class="svg" d="M51.6,44.6c0-0.2,0.1-0.4,0.1-0.6c0.2,0,0.5,0,0.7,0c0.3,0.9,0.2,1.8-0.5,2.5c-0.9,0.8-2,1.2-3.1,0.9
			c-0.5-0.1-0.7-1-0.3-1.3C49.4,45.4,50.2,44.6,51.6,44.6z"/>
		<path class="svg" d="M80,34.2c0.1-0.4,0.1-0.8,0.2-1.3c0.1-0.2,0.4-0.3,0.8-0.3c1.7,0,2.3-1.3,2.9-2.4c0.2-0.4,0.4-0.7,0.8-0.7
			c0.4,0,0.5,0.4,0.5,0.9c0.2,1.5-0.4,2.8-1.4,3.5C83,34.6,81.4,34.9,80,34.2z"/>
		<path class="svg" d="M103.9,102.5c0.2-1.8,1.7-0.8,2.5-0.9c1.9-0.2,2-1.6,2.4-2.9c0,0,0-0.1,0-0.1c0.1-0.7-0.3-1.9,0.6-1.9
			c0.9,0,1,1.1,1.1,1.9c0.2,2.8-0.8,4.6-3.2,5c-1.1,0.2-2.4,0.3-3.2-1.1C104.1,102.5,104,102.5,103.9,102.5z"/>
	</g>
</g>
</svg>
