<?xml version="1.0" encoding="utf-8"?>
<!-- Generator: Adobe Illustrator 23.1.1, SVG Export Plug-In . SVG Version: 6.00 Build 0)  -->
<svg version="1.1" id="Layer_1" xmlns="http://www.w3.org/2000/svg" xmlns:xlink="http://www.w3.org/1999/xlink" x="0px" y="0px"
	 viewBox="0 0 16.8 16.1" style="enable-background:new 0 0 16.8 16.1;" xml:space="preserve">
<style type="text/css">
	.st0{enable-background:new    ;}
</style>
<g class="st0">
	<path d="M11.2,7.8c0,0,0.2,0.2,0.6,0.6c0.8,0.9,1.2,1.9,1.2,3.1c0,0.9-0.2,1.7-0.7,2.3c-0.4,0.7-1,1.2-1.8,1.5
		c-0.8,0.4-1.6,0.5-2.6,0.5c-1.5,0-2.7-0.3-3.5-1c-0.8-0.7-1.2-1.6-1.2-2.8c0-1.2,0.7-2.3,2-3.4c0.6-0.5,1.3-0.9,2-1.2L7.1,7.1
		C7.1,7,7,7,6.9,6.9C6.7,6.8,6.6,6.7,6.5,6.6C6.5,6.5,6.3,6.4,5.9,6.2S5.4,5.7,5.2,5.3c-0.2-0.4-0.3-1-0.3-1.7
		c0-0.7,0.2-1.3,0.6-1.8c0.4-0.5,0.9-0.9,1.5-1.1c0.6-0.2,1.2-0.3,1.7-0.3c0.5,0,1,0.1,1.5,0.3c0.6,0.2,1.1,0.5,1.5,1
		c0.4,0.5,0.6,1.1,0.6,1.9c0,1-0.3,2-0.9,3c-0.2,0.4-0.5,0.7-0.9,1C11,7.7,11.2,7.8,11.2,7.8z M10.3,14.4c0.5-0.4,0.9-0.8,1.2-1.4
		c0.3-0.6,0.4-1.1,0.4-1.6c0-0.6-0.1-1.1-0.4-1.5c-0.3-0.4-0.7-0.8-1.1-1.1c-0.5-0.3-1-0.6-1.5-0.8C8,8.4,7.3,8.7,6.6,9.1
		C6,9.5,5.5,9.9,5.1,10.5c-0.4,0.5-0.6,1.1-0.6,1.7c0,0.8,0.2,1.4,0.6,1.9c0.4,0.4,0.9,0.7,1.4,0.8S7.8,15,8.6,15
		C9.2,15,9.8,14.8,10.3,14.4z M7.2,5.9c0.4,0.3,0.9,0.6,1.4,0.9C9,6.6,9.4,6.4,9.8,6.1c0.8-0.6,1.2-1.3,1.2-2c0-0.9-0.2-1.5-0.6-2
		c-0.4-0.5-1-0.8-1.8-0.8c-0.3,0-0.7,0.1-1.1,0.3C6.9,1.8,6.6,2,6.3,2.3C6,2.6,5.9,2.9,5.9,3.2C5.9,4.2,6.3,5.1,7.2,5.9z"/>
</g>
</svg>
