<?xml version="1.0" encoding="utf-8"?>
<!-- Generator: Adobe Illustrator 23.1.1, SVG Export Plug-In . SVG Version: 6.00 Build 0)  -->
<svg version="1.1" id="Layer_1" xmlns="http://www.w3.org/2000/svg" xmlns:xlink="http://www.w3.org/1999/xlink" x="0px" y="0px"
	 viewBox="0 0 19 17.2" style="enable-background:new 0 0 19 17.2;" xml:space="preserve">
<style type="text/css">
	.st0{enable-background:new    ;}
</style>
<g class="st0">
	<path d="M17.1,5.1c0.1,0,0.1,0,0.2,0.1c0,0.1,0.1,0.1,0.1,0.2c0,0-0.1,0.1-0.1,0.2c0,0.1,0,0.2-0.1,0.3c0,0.1-0.1,0.2-0.2,0.2
		c-0.1,0.1-0.2,0.1-0.3,0.1h-1c-0.2,0-0.3,0.1-0.3,0.4c0,0.1-0.1,0.3-0.1,0.7c-0.1,0.4-0.1,0.7-0.1,1c-0.1,0.4-0.2,1-0.3,1.6
		c-0.1,0.6-0.2,1-0.2,1.1l0,0.2c0,0.1,0,0.1,0.1,0.1s0.1,0,0.1,0s0.1,0,0.1,0c0,0,0.1,0,0.3,0c0.2,0,0.6,0,1-0.1
		c0.1,0,0.2,0,0.3,0.1c0.1,0.1,0.1,0.1,0,0.2c0,0.1,0,0.2,0,0.3c0,0.1,0,0.2,0,0.4c0,0.1-0.1,0.2-0.2,0.2l-0.2,0l-0.6,0l-0.7,0
		c-0.1,0-0.2,0-0.3,0.1s0,0.3,0,0.5c-0.1,0.3-0.2,0.8-0.3,1.4c-0.1,0.6-0.2,1-0.3,1.3c0,0.2,0,0.3-0.1,0.3c-0.1,0-0.1,0-0.2,0
		c-0.1,0-0.2,0-0.2,0c-0.1,0-0.2,0-0.2,0c-0.1,0-0.1,0-0.3,0c-0.1,0-0.2,0-0.2-0.1c0-0.1,0-0.2,0.1-0.3c0-0.1,0.1-0.3,0.1-0.4
		c0-0.1,0.1-0.5,0.2-1.2c0.1-0.7,0.2-1.2,0.2-1.4l0-0.1c0-0.1,0-0.2-0.1-0.2l-0.3,0c-0.1,0-0.2,0-0.4,0l-1.1,0l-1.3,0l-0.7,0
		c0,0-0.1,0-0.1,0c-0.1,0-0.2,0-0.2,0.1c0,0.1-0.1,0.1-0.1,0.2c0,0.1-0.1,0.4-0.2,1c-0.1,0.3-0.1,0.7-0.2,1.3
		c-0.1,0.6-0.1,0.9-0.1,1.1c0,0.1,0,0.2-0.1,0.2c0,0-0.1,0.1-0.2,0.1c-0.1,0-0.1,0-0.2,0c-0.1,0-0.1,0-0.2,0c-0.2,0-0.3,0-0.5,0
		c-0.4,0-0.8,0-1.4,0.1c-0.2,0-0.3-0.1-0.3-0.2c0-0.1,0-0.1,0-0.1c0,0,0-0.1,0-0.1c0.1-0.1,0.1-0.5,0.2-1c0-0.1,0.1-0.5,0.1-1.1
		s0.1-1,0.1-1.2l0-0.1c0-0.1-0.1-0.1-0.3-0.1H4.7c-0.1,0-0.2,0-0.2-0.1c0-0.1,0-0.1,0-0.2c0-0.1,0.1-0.1,0.1-0.2
		c0-0.1,0.1-0.2,0.1-0.3c0-0.1,0.1-0.2,0.2-0.2c0.1,0,0.2-0.1,0.2-0.1c0.1,0,0.3,0.1,0.7,0.1c0.1,0,0.2,0,0.3-0.1
		c0-0.1,0.1-0.2,0.1-0.3c0-0.1,0-0.2,0.1-0.5c0-0.3,0.1-0.5,0.1-0.7c0.1-0.3,0.1-0.8,0.2-1.5c0.1-0.7,0.1-1.2,0.1-1.4
		c0-0.1,0-0.2-0.1-0.3c0,0-0.1,0-0.1,0H5.7c-0.2,0-0.2-0.1-0.2-0.2c0-0.1,0.1-0.1,0.1-0.2c0-0.1,0.1-0.1,0.1-0.2
		c0.1-0.2,0.2-0.3,0.2-0.4c0.1,0,0.2,0,0.3,0c0.1,0,0.3,0,0.4,0c0.1,0,0.2,0,0.2-0.1s0.1-0.1,0.1-0.2C6.9,5,7,4.9,7,4.9
		C7,4.8,7.1,4.5,7.2,4c0.1-0.5,0.1-1,0.1-1.3c0-0.3,0.1-0.4,0.2-0.5c0.1-0.1,0.3-0.1,0.6-0.1h1.3c0.2,0,0.3,0,0.5,0.1
		c0.2,0,0.3,0.1,0.4,0.1c0.2,0,0.3,0.1,0.3,0.2c0,0.1,0,0.1-0.1,0.2c0,0.1-0.1,0.1-0.1,0.2c-0.1,0.5-0.2,1-0.3,1.3
		c0,0.2,0,0.4-0.1,0.6c-0.1,0.4-0.1,0.6,0,0.6c0,0.1,0.1,0.1,0.2,0.1l0.4,0c0.3,0,0.8-0.1,1.6-0.2h2c0.1,0,0.1,0,0.2-0.1
		c0,0,0-0.1,0.1-0.2s0-0.1,0-0.2c0-0.3,0.1-0.7,0.2-1.1c0.1-0.5,0.2-0.8,0.3-1c0.1-0.3,0.2-0.5,0.4-0.4c0,0,0.1,0,0.2,0
		c0.1,0,0.3,0,0.5,0c0.1,0,0.2,0.1,0.2,0.1c0,0,0,0.1-0.1,0.3C16.1,2.8,16,2.9,16,3l-0.1,0.8c-0.2,0.9-0.2,1.3-0.2,1.4
		c0,0.1,0.1,0.2,0.2,0.2l0.3,0C16.2,5.3,16.5,5.3,17.1,5.1L17.1,5.1z M14.2,6.5c0-0.1,0-0.1,0-0.2C14.3,6.1,14.2,6,14,6
		c-0.1,0-0.2,0-0.5,0c-0.2,0-0.4,0-0.5,0.1c-0.5,0.1-0.9,0.1-1.1,0.1c-0.2,0-0.4,0-0.7,0c-0.2,0-0.4,0-0.7,0
		c-0.2-0.1-0.4-0.1-0.6-0.1c-0.2,0-0.2,0-0.3,0.1c0,0.1-0.1,0.3-0.1,0.5L9.6,7.3c0,0.2,0,0.7-0.1,1.4c-0.1,0.8-0.2,1.2-0.2,1.3
		c-0.1,0.5-0.1,0.8-0.1,0.8V11c0,0.2,0.1,0.2,0.3,0.3l1.1,0l1.3,0c0.3,0,0.7,0.1,1.3,0.1c0.1,0,0.2,0,0.3-0.1
		c0.1-0.1,0.1-0.2,0.2-0.4l0.1-0.7c0-0.1,0-0.4,0.1-0.8s0.1-0.7,0.1-0.9C14,7.6,14.1,7,14.2,6.7C14.2,6.6,14.2,6.6,14.2,6.5z"/>
</g>
</svg>
