<?xml version="1.0" encoding="utf-8"?>
<!-- Generator: Adobe Illustrator 23.1.1, SVG Export Plug-In . SVG Version: 6.00 Build 0)  -->
<svg version="1.1" id="Layer_1" xmlns="http://www.w3.org/2000/svg" xmlns:xlink="http://www.w3.org/1999/xlink" x="0px" y="0px"
	 viewBox="0 0 19 17.2" style="enable-background:new 0 0 19 17.2;" xml:space="preserve">
<style type="text/css">
	.st0{enable-background:new    ;}
</style>
<g class="st0">
	<path d="M6.6,15.6c-0.4-0.2-0.7-0.6-1.1-1.3c-0.4-0.7-0.6-1.4-0.8-2c-0.1-0.6-0.2-2-0.2-4.1C4.5,7,4.6,5.9,4.7,5s0.4-1.7,0.7-2.2
		c0.4-0.6,0.9-1.1,1.5-1.4c0.6-0.3,1.6-0.5,2.8-0.5c1.5,0.2,2.6,0.8,3,1.6s0.8,1.8,0.9,2.8c0.1,1,0.1,2.1,0.1,3.4
		c0,1.3-0.1,2.5-0.3,3.6c-0.2,1.1-0.6,2-1.4,2.6c-0.8,0.7-1.8,1-3,1C7.8,15.9,7,15.8,6.6,15.6z M8.1,2.6C7.6,2.8,7.2,3.2,6.9,3.8
		c-0.3,0.5-0.4,1-0.4,1.6c0,0.4,0,0.7,0,1l0,1.8l0,2c0,1.1,0.3,2,0.7,2.4c0.6,0.7,0.9,1.1,1.1,1.3c0.3,0.4,0.8,0.6,1.4,0.6
		c0.4,0,0.8-0.2,1.3-0.5c0.4-0.3,0.8-0.7,1.1-1.3c0.3-0.5,0.5-1.2,0.5-2l0-1.5c0-0.2,0-0.4,0-0.7c0-1.1,0-1.8,0-2.1
		c0-0.8,0-1.4-0.1-1.8c-0.1-0.9-0.3-1.5-0.5-1.9c-0.3-0.4-0.6-0.7-1.1-0.7c-0.3,0-0.5,0-0.7,0c-0.1,0-0.4,0-0.7,0
		C9.1,2.1,8.6,2.3,8.1,2.6z M10.8,8.7c0,0.3-0.1,0.5-0.3,0.6S10,9.6,9.8,9.6c-0.3,0-0.5-0.1-0.7-0.3C8.8,9,8.7,8.7,8.7,8.4
		c0-0.4,0.1-0.7,0.3-0.8c0.2-0.1,0.4-0.2,0.7-0.2C10.5,7.3,10.8,7.8,10.8,8.7z"/>
</g>
</svg>
