<?xml version="1.0" encoding="utf-8"?>
<!-- Generator: Adobe Illustrator 23.1.1, SVG Export Plug-In . SVG Version: 6.00 Build 0)  -->
<svg version="1.1" id="Layer_1" xmlns="http://www.w3.org/2000/svg" xmlns:xlink="http://www.w3.org/1999/xlink" x="0px" y="0px"
	 viewBox="0 0 190.8 17.2" style="enable-background:new 0 0 190.8 17.2;" xml:space="preserve">
<style type="text/css">
	.stTitle{enable-background:new    ;}
</style>
<g class="stTitle">
	<path d="M9.3,1.5c0.6,0.4,1,0.8,1.2,1.1s0.4,0.6,0.4,0.6c0.1,0.2,0.2,0.3,0.2,0.4c0,0.1,0,0.2-0.1,0.2C11.1,4,11,4.1,10.9,4.1
		s-0.1,0.1-0.2,0.1c-0.2,0.1-0.4,0.3-0.7,0.5C9.9,4.8,9.8,5,9.5,5.2C9.3,5.3,9.1,5.5,9,5.5C9,5.5,8.9,5.6,8.9,5.6
		c-0.1,0-0.2-0.1-0.3-0.2C8.5,5.3,8.4,5.2,8.4,5.2c0,0-0.1-0.1-0.2-0.3C8.1,4.8,7.9,4.6,7.7,4.5C7.6,4.4,7.4,4.4,7.1,4.4
		c-0.4,0-0.7,0.3-1,0.8C5.9,5.8,5.8,6.7,5.8,8.1C5.8,9,5.9,9.8,6,10.4c0.2,0.6,0.3,1,0.6,1.3c0.2,0.3,0.4,0.4,0.6,0.4
		c0.3,0,0.5-0.1,0.6-0.2s0.3-0.4,0.4-0.7c0.1-0.3,0.3-0.5,0.5-0.5c0.1,0,0.2,0,0.3,0c0.1,0,0.2,0,0.2,0.1c0.1,0.1,0.5,0.1,1,0.3
		c0.5,0.1,1,0.2,1.4,0.3c0.2,0,0.3,0.2,0.3,0.5c0,0.1,0,0.2,0,0.3c0,0.2-0.1,0.4-0.2,0.7c-0.3,0.9-0.8,1.7-1.5,2.4
		c-0.7,0.7-1.8,1.1-3.2,1.1c-0.9,0-1.7-0.3-2.6-0.8C3.7,15.1,3,14.2,2.4,13c-0.6-1.2-0.9-2.8-0.9-4.8c0-2.8,0.5-4.7,1.6-5.7
		c1.1-1,2.3-1.5,3.6-1.5C7.9,0.9,8.8,1.1,9.3,1.5z"/>
	<path d="M18.9,7c0.3,0,0.6,0,0.8,0c0.1,0,0.2,0,0.4,0c0.2,0,0.3,0,0.4,0L21,7l0.1-0.6l0.1-1l0-2.1l0-1.6c0-0.2,0-0.3,0.1-0.4
		c0-0.1,0.1-0.1,0.3-0.1c0.1,0,0.5,0,1.2-0.1c0.1,0,0.3,0,0.6,0c0.4,0,0.8,0,1.1,0.1c0.2,0,0.2,0.1,0.3,0.1c0,0,0.1,0.1,0.1,0.2
		c0,0.1,0,0.2,0,0.2c0,0.2,0,0.6-0.1,1.1c-0.1,1-0.1,1.7-0.1,2c0,0.2,0,0.8-0.1,1.7c-0.1,1.1-0.1,1.8-0.1,2.1l0,4.2
		c0,1.6,0,2.5,0.1,2.9v0c0,0.2,0,0.2-0.1,0.3c-0.1,0-0.1,0-0.2,0c-0.1,0-0.1,0-0.1,0c-0.1,0-0.3,0-0.4,0c-0.1,0-0.2,0-0.5,0
		c-0.4,0-1,0.1-1.9,0.1h0C21.1,16,21,16,21,15.8c0-0.3,0-0.8,0-1.6c0-0.8,0-1.4-0.1-1.7c0-0.5,0-1,0-1.6c0-0.2,0-0.5,0-1h-0.6
		l-0.9,0l-0.4,0l-0.4,0c-0.2,0-0.4,0-0.5,0l-0.1,1.3c0,0.5-0.1,1.1-0.1,1.9v1.1c0,0.8,0,1.2,0,1.4c0,0.2,0,0.3-0.1,0.3
		c-0.1,0-0.2,0.1-0.3,0.1s-0.2,0-0.2,0c-0.1,0-0.3,0-0.6-0.1c-0.3,0-0.5,0-0.7,0l-0.6,0c-0.1,0-0.5,0-1.1,0.1
		c-0.3,0-0.5-0.2-0.5-0.6l0-0.8l0-1.5c0-0.3,0-0.6,0-0.9l0-2.4c0-0.6,0-0.9,0-1.1C14,8.5,14,8.1,14,7.5l0-1.3c0-0.2,0-0.5,0-0.8
		c0-0.4,0-1.2,0.1-2.4l0.1-1.4c0-0.1,0-0.2,0.1-0.2s0.1-0.1,0.2-0.1l0.3,0c0.2,0,0.4,0,0.7,0.1c0.3,0,0.6,0,0.9,0l1,0
		c0.2,0,0.3,0,0.5,0h0c0.1,0,0.2,0.1,0.2,0.2c0,0,0,0.3,0,0.8c0,0.5,0,1.1,0,1.9c0,0.4,0,1,0,1.8l0,1L18.9,7z"/>
	<path d="M36.2,2.3c0,0.3,0,0.5-0.1,0.5c-0.1,0-0.2,0-0.3,0c-0.1,0-0.2,0-0.4,0h-3.4l-2.6,0c-0.1,0-0.4,0-0.9,0.1l-0.5,0l0,0.6
		c0,0.2,0,0.5,0,1c0,0.2,0,0.5,0,0.9c0,0.3,0,0.6,0,0.7v0.8c0,0.2,0,0.4,0,0.5c0.1,0,0.3,0,0.6,0h0.8c0.1,0,0.3,0,0.5,0
		c0.4,0,0.7,0,0.9,0c0.1,0,0.5,0,1.2,0.1l0.5,0c0.1,0,0.3,0,0.5,0c0.2,0,0.4,0,0.6,0l0.7,0c0.4,0,0.6,0,0.8,0c0.2,0,0.3,0,0.3,0
		l0.1,0c0.1,0,0.2,0,0.2,0.1c0,0.1,0.1,0.1,0,0.2c0,0.1,0,0.2,0,0.4c0,0.1,0,0.3,0,0.4c0,0.1,0,0.2-0.1,0.2c0,0-0.1,0-0.3,0
		l-0.8-0.1c-1-0.1-1.7-0.1-2.1-0.1c-1.2,0-2.1,0-2.6,0.1c-0.2,0-0.5,0-0.7,0s-0.4,0-0.5,0c-0.3,0-0.5,0-0.6,0L28,8.8
		c0,0.3,0,0.5,0,0.7c0,0.2,0,0.4,0,0.6c0,0.2,0,0.4,0,0.6l0,2.5l0,1c0,0.1,0,0.3,0,0.5c0.2,0,0.4,0,0.8,0c0.3,0,0.7,0,1.4,0l1.1,0
		c0.2,0,0.6,0,1.1,0c0.3,0,0.7,0,1.2,0l0.9,0c0.3,0,0.6,0,0.8,0c0.2,0,0.4,0,0.5,0c0.1,0,0.2,0,0.2,0.1s0,0.1,0,0.3
		c0,0.1,0,0.2,0,0.3c0,0.1,0,0.2,0,0.3c0,0.1,0,0.2-0.1,0.2c-0.1,0-0.2,0.1-0.3,0.1c-0.2,0-0.3,0-0.4,0c-0.4,0-1.1-0.1-2.3-0.1
		c-0.7,0-1.2,0-1.5,0c-0.2,0-0.6,0-1.2,0l-2,0c-0.2,0-0.5,0-0.8,0c-0.2,0-0.3,0-0.4-0.1S27,15.7,27,15.6l0-0.3c0-0.1,0-0.1,0-0.2
		c0,0,0-0.1,0-0.3s0-0.5,0-0.9c0-0.4,0-1.1,0-2.1c0-0.8-0.1-1.5-0.1-2.3c0-0.3,0-1.2,0.1-2.7c0-0.3,0-0.6,0-0.9s0-0.6,0-0.8
		C27,3.6,27,2.5,27,2c0-0.3,0.2-0.5,0.6-0.5c0.1,0,0.3,0,0.5,0c0.2,0,0.4,0,0.5,0l1.3,0c1-0.1,1.7-0.1,2.2-0.1c0.6,0,1.4,0,2.5,0
		c0.4,0,0.7,0,1.1,0c0.2,0,0.3,0,0.3,0.1s0.1,0.2,0.1,0.3s0,0.2,0,0.2V2.3z"/>
	<path d="M48.2,16c0,0,0,0.1-0.1,0.1c-0.1,0.1-0.4,0.1-0.9,0.1c-0.4,0-0.6,0-0.7-0.1c-0.1,0-0.2-0.1-0.2-0.2c0-0.1-0.1-0.2-0.1-0.3
		c0-0.1-0.2-0.3-0.5-0.7c-0.3-0.4-0.5-0.7-0.7-0.9c-0.7-1-1.4-1.8-1.9-2.6c-0.3-0.5-1-1.3-1.9-2.5l-0.3-0.4l-1.4-1.8l-0.1,0.8
		c-0.1,0.4-0.1,0.9,0,1.5c0,0.4,0.1,1.4,0.1,3c0,1.6,0,2.8,0,3.6c0,0.2-0.1,0.4-0.3,0.4c-0.2,0.1-0.4,0.1-0.6,0.1
		c-0.1,0-0.2,0-0.2-0.1c0-0.1,0-0.2-0.1-0.3c0-0.1,0-0.2,0-0.2c0-0.2,0-0.6,0-1c0-0.3,0-0.5,0-0.6c0-0.8,0-2.1,0.1-4
		c0-1.9,0-3.6,0-5.1c0-1.6,0-2.5-0.1-2.8c0-0.1,0-0.3,0-0.4c0-0.2,0-0.3,0.1-0.4c0.1-0.1,0.2-0.1,0.3-0.1c0.3,0,0.6,0,0.8,0l2.3,0
		c0.8,0,1.7,0.1,2.6,0.4c0.9,0.3,1.4,0.8,1.4,1.6c0,0.8-0.3,1.3-0.8,1.8c-0.6,0.4-1.2,0.7-1.9,0.9s-1.3,0.2-1.8,0.2
		c-0.2,0-0.3,0-0.3,0c0.1,0.1,0.6,0.8,1.7,2.2c3.1,4.1,4.8,6.4,5.1,6.7C48,15.6,48.2,15.8,48.2,16z M40.3,5.4c0.8,0,1.4-0.1,1.9-0.2
		c0.6-0.1,1.1-0.3,1.5-0.5c0.3-0.2,0.5-0.5,0.5-0.9c0-0.3-0.1-0.5-0.4-0.7S43,2.8,42.6,2.7c-0.4-0.1-0.8-0.2-1.1-0.2
		c-0.4,0-0.8,0-1.5,0h-0.7l-0.1,2.9C39.7,5.4,40.1,5.4,40.3,5.4z"/>
	<path d="M59.9,16c0,0,0,0.1-0.1,0.1c-0.1,0.1-0.4,0.1-0.9,0.1c-0.4,0-0.6,0-0.7-0.1c-0.1,0-0.2-0.1-0.2-0.2c0-0.1-0.1-0.2-0.1-0.3
		c0-0.1-0.2-0.3-0.5-0.7c-0.3-0.4-0.5-0.7-0.7-0.9c-0.7-1-1.4-1.8-1.9-2.6c-0.3-0.5-1-1.3-1.9-2.5l-0.3-0.4l-1.4-1.8L51,7.6
		c-0.1,0.4-0.1,0.9,0,1.5c0,0.4,0.1,1.4,0.1,3c0,1.6,0,2.8,0,3.6c0,0.2-0.1,0.4-0.3,0.4c-0.2,0.1-0.4,0.1-0.6,0.1
		c-0.1,0-0.2,0-0.2-0.1c0-0.1,0-0.2-0.1-0.3c0-0.1,0-0.2,0-0.2c0-0.2,0-0.6,0-1c0-0.3,0-0.5,0-0.6c0-0.8,0-2.1,0.1-4
		c0-1.9,0-3.6,0-5.1c0-1.6,0-2.5-0.1-2.8c0-0.1,0-0.3,0-0.4c0-0.2,0-0.3,0.1-0.4c0.1-0.1,0.2-0.1,0.3-0.1c0.3,0,0.6,0,0.8,0l2.3,0
		c0.8,0,1.7,0.1,2.6,0.4c0.9,0.3,1.4,0.8,1.4,1.6c0,0.8-0.3,1.3-0.8,1.8c-0.6,0.4-1.2,0.7-1.9,0.9s-1.3,0.2-1.8,0.2
		c-0.2,0-0.3,0-0.3,0c0.1,0.1,0.6,0.8,1.7,2.2c3.1,4.1,4.8,6.4,5.1,6.7C59.8,15.6,59.9,15.8,59.9,16z M52.1,5.4
		c0.8,0,1.4-0.1,1.9-0.2c0.6-0.1,1.1-0.3,1.5-0.5c0.3-0.2,0.5-0.5,0.5-0.9c0-0.3-0.1-0.5-0.4-0.7s-0.6-0.4-1.1-0.5
		c-0.4-0.1-0.8-0.2-1.1-0.2c-0.4,0-0.8,0-1.5,0h-0.7L51,5.4C51.5,5.4,51.8,5.4,52.1,5.4z"/>
	<path d="M63.6,3.8c0.3,0.9,0.6,1.8,1,2.7c0.2,0.4,0.4,1,0.6,1.6l0.3,1l0.2-0.5L66,7.7c0.1-0.4,0.3-1,0.6-1.7
		c0.3-0.7,0.5-1.2,0.6-1.4c0.4-1.1,0.6-1.9,0.8-2.4c0.1-0.3,0.2-0.5,0.3-0.5c0.1-0.1,0.2-0.1,0.3-0.1c0.1,0,0.2,0,0.2,0l1.1,0
		c0.3,0,0.7,0,0.9,0c0.3,0,0.4,0.1,0.4,0.2c0,0,0,0.1,0,0.2c0,0.1-0.1,0.2-0.1,0.3C71,2.3,71,2.5,71,2.6c-0.3,1-0.6,1.6-0.7,1.8
		c-0.2,0.5-0.5,1.3-0.9,2.4l-0.9,2.3c-0.3,0.8-0.7,1.7-1.2,2.9c-0.5,1.2-0.7,1.9-0.8,2.1c-0.1,0.2-0.1,0.4-0.2,0.8s-0.1,0.6-0.1,0.7
		c0,0.2-0.1,0.3-0.1,0.3c0,0.1-0.1,0.1-0.2,0.1l-1.2,0l-1.7,0c-0.2,0-0.3,0-0.3-0.1c0,0,0-0.1,0-0.1c0,0,0-0.1,0.1-0.1l0.8-2
		c0-0.2,0.1-0.5,0.3-0.9c0-0.1,0.1-0.2,0.1-0.3c0-0.1,0.1-0.2,0.1-0.3c0-0.1,0.1-0.2,0.1-0.3c0.1-0.1,0.1-0.2,0.1-0.3
		c0-0.1,0-0.1,0-0.2l-0.2-0.7c-0.2-0.6-0.3-1-0.4-1.2c-0.1-0.2-0.2-0.6-0.3-1c-0.1-0.3-0.2-0.6-0.3-0.9c-0.1-0.3-0.4-1-0.8-2.1
		c-0.4-1.1-0.7-2-0.9-2.6c-0.1-0.3-0.2-0.5-0.3-0.7c-0.1-0.2-0.1-0.4-0.1-0.5c0-0.1,0.1-0.2,0.2-0.2c0.1,0,0.3-0.1,0.5-0.1
		c0.2,0,0.6,0,1,0c0.1,0,0.2,0,0.2,0.1c0,0,0,0.1,0,0.2c0,0.1,0,0.1,0,0.2L63.6,3.8z"/>
	<path d="M86.5,1.5c0.6,0.4,1,0.8,1.2,1.1s0.4,0.6,0.4,0.6c0.1,0.2,0.2,0.3,0.2,0.4c0,0.1,0,0.2-0.1,0.2c-0.1,0.1-0.1,0.1-0.2,0.1
		s-0.1,0.1-0.2,0.1c-0.2,0.1-0.4,0.3-0.7,0.5c-0.1,0.1-0.3,0.2-0.6,0.4c-0.2,0.2-0.4,0.3-0.5,0.3c-0.1,0-0.1,0.1-0.2,0.1
		c-0.1,0-0.2-0.1-0.3-0.2c-0.1-0.1-0.1-0.2-0.2-0.2c0,0-0.1-0.1-0.2-0.3c-0.1-0.1-0.3-0.3-0.5-0.4c-0.2-0.1-0.4-0.1-0.6-0.1
		c-0.4,0-0.7,0.3-1,0.8c-0.2,0.5-0.4,1.5-0.4,2.9c0,0.9,0.1,1.7,0.2,2.3c0.2,0.6,0.3,1,0.6,1.3c0.2,0.3,0.4,0.4,0.6,0.4
		c0.3,0,0.5-0.1,0.6-0.2s0.3-0.4,0.4-0.7c0.1-0.3,0.3-0.5,0.5-0.5c0.1,0,0.2,0,0.3,0c0.1,0,0.2,0,0.2,0.1c0.1,0.1,0.5,0.1,1,0.3
		c0.5,0.1,1,0.2,1.4,0.3c0.2,0,0.3,0.2,0.3,0.5c0,0.1,0,0.2,0,0.3c0,0.2-0.1,0.4-0.2,0.7c-0.3,0.9-0.8,1.7-1.5,2.4
		c-0.7,0.7-1.8,1.1-3.2,1.1c-0.9,0-1.7-0.3-2.6-0.8c-0.9-0.5-1.6-1.4-2.2-2.6c-0.6-1.2-0.9-2.8-0.9-4.8c0-2.8,0.5-4.7,1.6-5.7
		c1.1-1,2.3-1.5,3.6-1.5C85,0.9,85.9,1.1,86.5,1.5z"/>
	<path d="M96,7c0.3,0,0.6,0,0.8,0c0.1,0,0.2,0,0.4,0c0.2,0,0.3,0,0.4,0l0.5,0l0.1-0.6l0.1-1l0-2.1l0-1.6c0-0.2,0-0.3,0.1-0.4
		c0-0.1,0.1-0.1,0.3-0.1c0.1,0,0.5,0,1.2-0.1c0.1,0,0.3,0,0.6,0c0.4,0,0.8,0,1.1,0.1c0.2,0,0.2,0.1,0.3,0.1s0.1,0.1,0.1,0.2
		c0,0.1,0,0.2,0,0.2c0,0.2,0,0.6-0.1,1.1c-0.1,1-0.1,1.7-0.1,2c0,0.2,0,0.8-0.1,1.7c-0.1,1.1-0.1,1.8-0.1,2.1l0,4.2
		c0,1.6,0,2.5,0.1,2.9v0c0,0.2,0,0.2-0.1,0.3s-0.1,0-0.2,0c-0.1,0-0.1,0-0.1,0c-0.1,0-0.3,0-0.4,0c-0.1,0-0.2,0-0.5,0
		c-0.4,0-1,0.1-1.9,0.1h0c-0.2,0-0.3-0.1-0.3-0.2c0-0.3,0-0.8,0-1.6s0-1.4-0.1-1.7c0-0.5,0-1,0-1.6c0-0.2,0-0.5,0-1h-0.6l-0.9,0
		l-0.4,0l-0.4,0c-0.2,0-0.4,0-0.5,0l-0.1,1.3c0,0.5-0.1,1.1-0.1,1.9v1.1c0,0.8,0,1.2,0,1.4c0,0.2,0,0.3-0.1,0.3
		c-0.1,0-0.2,0.1-0.3,0.1s-0.2,0-0.2,0c-0.1,0-0.3,0-0.6-0.1c-0.3,0-0.5,0-0.7,0l-0.6,0c-0.1,0-0.5,0-1.1,0.1
		c-0.3,0-0.5-0.2-0.5-0.6l0-0.8l0-1.5c0-0.3,0-0.6,0-0.9l0-2.4c0-0.6,0-0.9,0-1.1c0-0.3-0.1-0.7-0.1-1.3l0-1.3c0-0.2,0-0.5,0-0.8
		c0-0.4,0-1.2,0.1-2.4l0.1-1.4c0-0.1,0-0.2,0.1-0.2s0.1-0.1,0.2-0.1l0.3,0c0.2,0,0.4,0,0.7,0.1c0.3,0,0.6,0,0.9,0l1,0
		c0.2,0,0.3,0,0.5,0h0c0.1,0,0.2,0.1,0.2,0.2c0,0,0,0.3,0,0.8c0,0.5,0,1.1,0,1.9c0,0.4,0,1,0,1.8l0,1L96,7z"/>
	<path d="M114.6,16c0,0,0,0.1-0.1,0.1c-0.1,0.1-0.4,0.1-0.9,0.1c-0.4,0-0.6,0-0.7-0.1s-0.2-0.1-0.2-0.2c0-0.1-0.1-0.2-0.1-0.3
		c0-0.1-0.2-0.3-0.5-0.7c-0.3-0.4-0.5-0.7-0.7-0.9c-0.7-1-1.4-1.8-1.9-2.6c-0.3-0.5-1-1.3-1.9-2.5l-0.3-0.4l-1.4-1.8l-0.1,0.8
		c-0.1,0.4-0.1,0.9,0,1.5c0,0.4,0.1,1.4,0.1,3c0,1.6,0,2.8,0,3.6c0,0.2-0.1,0.4-0.3,0.4c-0.2,0.1-0.4,0.1-0.6,0.1
		c-0.1,0-0.2,0-0.2-0.1s0-0.2-0.1-0.3c0-0.1,0-0.2,0-0.2c0-0.2,0-0.6,0-1c0-0.3,0-0.5,0-0.6c0-0.8,0-2.1,0.1-4c0-1.9,0-3.6,0-5.1
		c0-1.6,0-2.5-0.1-2.8c0-0.1,0-0.3,0-0.4c0-0.2,0-0.3,0.1-0.4c0.1-0.1,0.2-0.1,0.3-0.1c0.3,0,0.6,0,0.8,0l2.3,0
		c0.8,0,1.7,0.1,2.6,0.4s1.4,0.8,1.4,1.6c0,0.8-0.3,1.3-0.8,1.8c-0.6,0.4-1.2,0.7-1.9,0.9c-0.7,0.2-1.3,0.2-1.8,0.2
		c-0.2,0-0.3,0-0.3,0c0.1,0.1,0.6,0.8,1.7,2.2c3.1,4.1,4.8,6.4,5.1,6.7C114.4,15.6,114.6,15.8,114.6,16z M106.7,5.4
		c0.8,0,1.4-0.1,1.9-0.2c0.6-0.1,1.1-0.3,1.5-0.5s0.5-0.5,0.5-0.9c0-0.3-0.1-0.5-0.4-0.7s-0.6-0.4-1.1-0.5c-0.4-0.1-0.8-0.2-1.1-0.2
		c-0.3,0-0.8,0-1.5,0h-0.7l-0.1,2.9C106.1,5.4,106.5,5.4,106.7,5.4z"/>
	<path d="M126.2,3.7c0.5,1,0.9,1.9,1.1,2.8s0.3,1.6,0.3,2.1c0,0.9-0.1,1.9-0.4,3c-0.3,1.1-0.9,2.2-1.8,3.2c-0.9,1-2.2,1.5-3.9,1.5
		c-2.3,0-4-1.4-5-4.1c-0.4-1.2-0.7-2.6-0.7-4.1c0-1.2,0.3-2.4,0.8-3.5c0.5-1.1,1.2-2,2-2.7c0.8-0.7,1.7-1,2.6-1c0.8,0,1.4,0,1.8,0.1
		c0.4,0,0.8,0.2,1.1,0.4C125,1.9,125.7,2.7,126.2,3.7z M124.7,13.2c0.7-1.2,1.1-2.8,1.1-4.7c0-1.1-0.2-2.2-0.5-3.2
		c-0.3-1-0.8-1.8-1.4-2.3s-1.3-0.9-2.2-0.9c-0.1,0-0.3,0-0.6,0c-0.3,0-0.6,0-0.8,0.1s-0.4,0.2-0.6,0.4c-0.5,0.5-0.9,0.9-1.2,1.3
		c-0.3,0.4-0.6,1-0.9,1.7c-0.3,0.8-0.5,1.6-0.5,2.6c0,1.2,0.1,2.3,0.4,3.3c0.3,1,0.7,1.8,1.4,2.5s1.4,1,2.4,1
		C122.9,15.1,124,14.5,124.7,13.2z"/>
	<path d="M135.6,1.3c0-0.3,0.1-0.4,0.3-0.5c0.2-0.1,0.4-0.1,0.8-0.1c0.3,0,0.7,0,1.2-0.1s0.9-0.1,1.1-0.1c0.2,0,0.3,0,0.4,0.1
		c0.1,0.1,0.1,0.2,0.1,0.4c0,0.1,0,0.2,0,0.5c0,0.2,0,1.6,0,4.2v4.7c0,0.7,0,1.5,0,2.4c0,0.9,0,1.6,0.1,2.3s0,0.9,0,0.6
		c0,0.2-0.1,0.3-0.3,0.3c-0.1,0-0.2,0-0.3,0c-0.1,0-0.2,0-0.3,0s-0.4,0-0.8,0c-0.4,0-0.7,0-0.8,0c-0.3,0-0.5-0.1-0.6-0.2
		c-0.1-0.1-0.3-0.3-0.4-0.6l-0.4-0.7c-0.4-0.9-0.8-1.7-1.1-2.2c-0.2-0.3-0.6-1.2-1.4-2.5l-0.9-1.7v0.8v0.5c0,0.1,0,0.3,0,0.4
		c0,0.2,0,0.4,0,0.6c0,0.7,0,1.7,0,2.9c0,1.2,0.1,1.9,0.1,2.1c0,0.1,0,0.2,0,0.3c0,0.1,0,0.2-0.1,0.3c-0.1,0-0.2,0-0.3,0
		c-0.2,0-0.5,0-0.8,0c-0.3,0-0.6,0.1-0.9,0.1c-0.2,0-0.3,0-0.4-0.1c-0.1-0.1-0.1-0.3-0.1-0.7c0-0.5,0-1.4-0.1-2.7
		c-0.1-1.3-0.1-2.5-0.1-3.5c0-1,0-2,0.1-3c0-1.3,0-2.2,0-2.6c0-0.6,0-1.1-0.1-1.4c0-0.3,0-0.4,0-0.5c0-0.3,0-0.4,0.1-0.5
		c0.1-0.1,0.2-0.1,0.3-0.1c0.1,0,0.2,0,0.4,0c0.2,0,0.5,0,0.9-0.1c0.2,0,0.3,0,0.5,0c0.1,0,0.2,0,0.4,0c0.2,0,0.4,0,0.6,0
		c0.3,0,0.6,0.1,0.8,0.4s0.5,0.6,0.7,1.1l0.2,0.4c0.2,0.3,0.4,0.6,0.6,1l0.3,0.5V3C135.6,2.1,135.6,1.6,135.6,1.3z"/>
	<path d="M143.4,1.2c0.2,0,0.3,0,0.5,0c0.3,0,0.5,0,0.7,0c0.2,0,0.3,0,0.4,0.1s0.1,0.1,0.1,0.2c0,0.1,0,0.1,0,0.2s0,0.2,0,0.2
		c-0.2,1.2-0.2,2.4-0.3,3.7c0,0.4,0,0.9,0,1.7l0,2.5c0,0.2,0,0.4,0,0.7l0,0.8c0,0.7,0,1.3,0,1.6c0,0.3,0,0.4,0,0.5
		c0,0.1,0,0.2,0,0.5l0,1.2c0,0.2,0,0.4,0,0.6c0,0.2,0,0.3-0.2,0.3s-0.3,0.1-0.5,0.1h-1.9c-0.2,0-0.3,0-0.4-0.1
		c-0.1-0.1-0.1-0.3-0.1-0.5c0-0.1,0-0.4,0-0.8c0.1-0.4,0.1-0.7,0.1-1c0-0.1,0-1,0.1-2.8c0.1-1.3,0.1-2,0.1-2.2l0-2.1l0-1.9l0-1.1
		l0-0.8V2c0-0.5,0.1-0.8,0.4-0.8c0.1,0,0.1,0,0.2,0C143.1,1.3,143.3,1.3,143.4,1.2z"/>
	<path d="M154.8,1.5c0.6,0.4,1,0.8,1.2,1.1c0.2,0.3,0.4,0.6,0.4,0.6c0.1,0.2,0.2,0.3,0.2,0.4c0,0.1,0,0.2-0.1,0.2
		c-0.1,0.1-0.1,0.1-0.2,0.1s-0.1,0.1-0.2,0.1c-0.2,0.1-0.4,0.3-0.7,0.5c-0.1,0.1-0.3,0.2-0.6,0.4c-0.2,0.2-0.4,0.3-0.5,0.3
		c-0.1,0-0.1,0.1-0.2,0.1c-0.1,0-0.2-0.1-0.3-0.2c-0.1-0.1-0.1-0.2-0.2-0.2c0,0-0.1-0.1-0.2-0.3c-0.1-0.1-0.3-0.3-0.5-0.4
		c-0.2-0.1-0.4-0.1-0.6-0.1c-0.4,0-0.7,0.3-1,0.8s-0.4,1.5-0.4,2.9c0,0.9,0.1,1.7,0.2,2.3c0.2,0.6,0.3,1,0.6,1.3
		c0.2,0.3,0.4,0.4,0.6,0.4c0.3,0,0.5-0.1,0.6-0.2c0.1-0.1,0.3-0.4,0.4-0.7c0.1-0.3,0.3-0.5,0.5-0.5c0.1,0,0.2,0,0.3,0
		c0.1,0,0.2,0,0.2,0.1c0.1,0.1,0.5,0.1,1,0.3s1,0.2,1.4,0.3c0.2,0,0.3,0.2,0.3,0.5c0,0.1,0,0.2,0,0.3c0,0.2-0.1,0.4-0.2,0.7
		c-0.3,0.9-0.8,1.7-1.5,2.4c-0.7,0.7-1.8,1.1-3.2,1.1c-0.9,0-1.7-0.3-2.6-0.8c-0.9-0.5-1.6-1.4-2.2-2.6c-0.6-1.2-0.9-2.8-0.9-4.8
		c0-2.8,0.5-4.7,1.6-5.7c1.1-1,2.3-1.5,3.6-1.5C153.3,0.9,154.2,1.1,154.8,1.5z"/>
	<path d="M161.2,2.7c-0.1,2-0.1,3-0.1,3.2l0,3c0,0.3,0,0.5,0,0.7l0,1.3c0,0.3,0,0.5,0,0.5c0,0.1,0,0.2,0,0.2s0,0.1,0,0.1
		c0,0.1,0,0.1,0,0.1l0.5,0c0.4,0,0.8,0,1.1,0l3.9,0l2.2,0.1l1,0c0.2,0,0.2,0.1,0.2,0.1c0,0,0,0.1,0,0.1s0,0.1,0,0.1v1
		c0,0.3,0,0.8,0.1,1.6l0.1,0.9l0,0.1c0,0.1,0,0.1-0.1,0.1c-0.1,0-0.2,0-0.4,0l-1.5,0l-2.6,0c-0.3,0-0.8,0-1.5,0.1
		c-0.3,0-0.6,0-0.9,0s-0.7,0-1,0l-0.4,0c-0.1,0-0.2,0-0.5,0l-0.9,0c-0.2,0-0.4,0-0.7,0c-0.2,0-0.3,0-0.3-0.1c0,0,0-0.1,0-0.2
		c0-0.1,0-0.2,0-0.3c0-0.3,0-0.8,0.1-1.6l0.1-2.2l0-1c0-0.2,0-0.4,0-0.7c0-0.3,0-0.6,0-0.9c0,0.5,0,0,0.1-1.4
		c0.1-1.4,0.1-2.3,0.1-2.7l0-2.4l0-1.3v0c0-0.1,0.1-0.2,0.2-0.2l0.3,0c0.1,0,0.2,0,0.3,0c0.1,0,0.3,0,0.5,0h0.2
		c0.1,0,0.1,0.1,0.1,0.2L161.2,2.7z"/>
	<path d="M180.4,2.3c0,0.3,0,0.5-0.1,0.5c-0.1,0-0.2,0-0.3,0c-0.1,0-0.2,0-0.4,0h-3.4l-2.6,0c-0.1,0-0.4,0-0.9,0.1l-0.5,0l0,0.6
		c0,0.2,0,0.5,0,1c0,0.2,0,0.5,0,0.9c0,0.3,0,0.6,0,0.7v0.8c0,0.2,0,0.4,0,0.5c0.1,0,0.3,0,0.6,0h0.8c0.1,0,0.3,0,0.5,0
		c0.4,0,0.7,0,0.9,0c0.1,0,0.5,0,1.2,0.1l0.5,0c0.1,0,0.3,0,0.5,0c0.2,0,0.4,0,0.6,0l0.7,0c0.4,0,0.6,0,0.8,0c0.2,0,0.3,0,0.3,0
		l0.1,0c0.1,0,0.2,0,0.2,0.1c0,0.1,0.1,0.1,0,0.2c0,0.1,0,0.2,0,0.4c0,0.1,0,0.3,0,0.4c0,0.1,0,0.2-0.1,0.2c0,0-0.1,0-0.3,0
		l-0.8-0.1c-1-0.1-1.7-0.1-2.1-0.1c-1.2,0-2.1,0-2.6,0.1c-0.2,0-0.5,0-0.7,0s-0.4,0-0.5,0c-0.3,0-0.5,0-0.6,0l-0.1,0.3
		c0,0.3,0,0.5,0,0.7c0,0.2,0,0.4,0,0.6c0,0.2,0,0.4,0,0.6l0,2.5l0,1c0,0.1,0,0.3,0,0.5c0.2,0,0.4,0,0.8,0c0.3,0,0.7,0,1.4,0l1.1,0
		c0.2,0,0.6,0,1.1,0c0.3,0,0.7,0,1.2,0l0.9,0c0.3,0,0.6,0,0.8,0s0.4,0,0.5,0s0.2,0,0.2,0.1c0,0,0,0.1,0,0.3c0,0.1,0,0.2,0,0.3
		c0,0.1,0,0.2,0,0.3c0,0.1,0,0.2-0.1,0.2c-0.1,0-0.2,0.1-0.3,0.1s-0.3,0-0.4,0c-0.4,0-1.1-0.1-2.3-0.1c-0.7,0-1.2,0-1.5,0
		c-0.2,0-0.6,0-1.2,0l-2,0c-0.2,0-0.5,0-0.8,0c-0.2,0-0.3,0-0.4-0.1c-0.1,0-0.1-0.1-0.1-0.2l0-0.3c0-0.1,0-0.1,0-0.2
		c0,0,0-0.1,0-0.3c0-0.2,0-0.5,0-0.9c0-0.4,0-1.1,0-2.1c0-0.8-0.1-1.5-0.1-2.3c0-0.3,0-1.2,0.1-2.7c0-0.3,0-0.6,0-0.9s0-0.6,0-0.8
		c0-1.6,0-2.7-0.1-3.2c0-0.3,0.2-0.5,0.6-0.5c0.1,0,0.3,0,0.5,0c0.2,0,0.4,0,0.5,0l1.3,0c1-0.1,1.7-0.1,2.2-0.1c0.6,0,1.4,0,2.5,0
		c0.3,0,0.7,0,1.1,0c0.2,0,0.3,0,0.3,0.1s0.1,0.2,0.1,0.3c0,0.1,0,0.2,0,0.2V2.3z"/>
	<path d="M189.5,2c0.6,0.5,0.9,0.7,0.9,0.8c0.1,0.1,0.2,0.2,0.2,0.3c0,0.1,0,0.1-0.1,0.2c0,0.1-0.1,0.2-0.3,0.4
		c-0.1,0.2-0.2,0.3-0.3,0.3c-0.1,0-0.2,0-0.3-0.1l-0.1-0.1c-1.1-0.8-2-1.2-2.7-1.2c-1,0-1.7,0.2-2.2,0.7c-0.5,0.4-0.7,1-0.7,1.7
		c0,0.6,0.2,1.1,0.6,1.5s1,0.8,1.6,1.2c0.2,0.1,0.4,0.2,0.6,0.2c0.7,0.3,1.3,0.5,1.8,0.9c0.5,0.3,1,0.8,1.4,1.4
		c0.4,0.6,0.6,1.4,0.6,2.3c0,1.6-0.5,2.7-1.6,3.2c-1.1,0.6-2.3,0.9-3.6,0.9c-0.8,0-1.5-0.2-2.1-0.5s-1.1-0.7-1.3-0.9
		c-0.1-0.1-0.2-0.3-0.1-0.4c0,0,0.1-0.1,0.2-0.3c0.1-0.2,0.2-0.3,0.3-0.3h0c0,0,0.1,0,0.1,0c0,0,0.1,0.1,0.1,0.1
		c0,0.1,0.1,0.1,0.2,0.2c0.2,0.2,0.5,0.4,1.1,0.6s1,0.3,1.3,0.3c0.7,0,1.4-0.2,2.1-0.5s1-1,1-2c0-0.4-0.2-0.8-0.6-1.1
		c-0.4-0.3-1-0.7-1.8-1.1L185,9.8c-1-0.6-1.7-1.2-2.3-1.8c-0.6-0.6-0.8-1.5-0.8-2.5c0-0.9,0.2-1.6,0.7-2.3c0.5-0.6,1.1-1.1,1.9-1.5
		s1.5-0.5,2.2-0.5C188,1.2,188.9,1.5,189.5,2z"/>
</g>
</svg>
