<?xml version="1.0" encoding="utf-8"?>
<!-- Generator: Adobe Illustrator 23.1.1, SVG Export Plug-In . SVG Version: 6.00 Build 0)  -->
<svg version="1.1" id="Layer_1" xmlns="http://www.w3.org/2000/svg" xmlns:xlink="http://www.w3.org/1999/xlink" x="0px" y="0px"
	 viewBox="0 0 191.7 17.2" style="enable-background:new 0 0 191.7 17.2;" xml:space="preserve">
<style type="text/css">
	.st0{enable-background:new    ;}
</style>
<g class="st0">
	<path d="M9.3,1.5c0.6,0.4,1,0.8,1.2,1.1s0.4,0.6,0.4,0.6c0.1,0.2,0.2,0.3,0.2,0.4c0,0.1,0,0.2-0.1,0.2C11.1,4,11,4.1,10.9,4.1
		s-0.1,0.1-0.2,0.1c-0.2,0.1-0.4,0.3-0.7,0.5C9.9,4.8,9.8,5,9.5,5.2C9.3,5.3,9.1,5.5,9,5.5C9,5.5,8.9,5.6,8.9,5.6
		c-0.1,0-0.2-0.1-0.3-0.2C8.5,5.3,8.4,5.2,8.4,5.2c0,0-0.1-0.1-0.2-0.3C8.1,4.8,7.9,4.6,7.7,4.5C7.6,4.4,7.4,4.4,7.1,4.4
		c-0.4,0-0.7,0.3-1,0.8C5.9,5.8,5.8,6.7,5.8,8.1C5.8,9,5.9,9.8,6,10.4c0.2,0.6,0.3,1,0.6,1.3c0.2,0.3,0.4,0.4,0.6,0.4
		c0.3,0,0.5-0.1,0.6-0.2s0.3-0.4,0.4-0.7c0.1-0.3,0.3-0.5,0.5-0.5c0.1,0,0.2,0,0.3,0c0.1,0,0.2,0,0.2,0.1c0.1,0.1,0.5,0.1,1,0.3
		c0.5,0.1,1,0.2,1.4,0.3c0.2,0,0.3,0.2,0.3,0.5c0,0.1,0,0.2,0,0.3c0,0.2-0.1,0.4-0.2,0.7c-0.3,0.9-0.8,1.7-1.5,2.4
		c-0.7,0.7-1.8,1.1-3.2,1.1c-0.9,0-1.7-0.3-2.6-0.8C3.7,15.1,3,14.2,2.4,13c-0.6-1.2-0.9-2.8-0.9-4.8c0-2.8,0.5-4.7,1.6-5.7
		c1.1-1,2.3-1.5,3.6-1.5C7.9,0.9,8.8,1.1,9.3,1.5z"/>
	<path d="M18.1,7.8l0.8,0c0.7,0,1.1,0,1.4,0c1.1,0,1.9,0,2.5,0c0.7,0,1.2,0,1.6,0V7.2l0-1.2c0-0.5,0-1.6,0.1-3.3l0-1.5
		c0-0.1,0.1-0.2,0.2-0.2l0.2,0c0.1,0,0.2,0,0.3,0c0.2,0,0.3,0,0.4,0c0.1,0,0.2,0.1,0.2,0.2l0,0.2c0,0.1,0,0.3-0.1,0.6
		c0,0.3-0.1,0.7-0.1,1.2c0,0.4-0.1,1.4-0.1,2.9c0,1.5,0,2.7,0,3.5c0,0.6,0,1.6-0.1,3.1l0,1.4l0,0.8c0,0.2,0,0.4,0,0.6l0,0.1
		c0,0.1,0,0.1-0.1,0.1c-0.1,0-0.1,0-0.1,0c-0.1,0-0.4,0-0.8,0c-0.1,0-0.2-0.1-0.2-0.2l0-3.1c0-0.2,0-0.5,0-0.7c0-0.2,0-0.5,0-0.7
		v-0.9V8.9l-1.7,0c-0.6,0-1.4,0-2.4,0h-2c-0.5,0-0.9,0-1.2,0c0,0.2,0,0.4,0,0.5c0,0.4,0,0.9,0,1.3l0,2.3c0,1.1,0,1.8,0.1,2.2
		c0,0.2,0,0.3,0,0.3c0,0.2-0.1,0.3-0.2,0.4s-0.2,0.1-0.3,0.1c-0.1,0-0.2,0-0.2,0c-0.5,0-1,0-1.7,0.1c-0.2,0-0.4,0-0.4-0.2
		c0-0.1-0.1-0.3-0.1-0.6c0-0.3,0-0.4,0-0.6l0-7.3L14,2c0-0.3,0-0.5,0.1-0.5s0.2-0.1,0.3-0.1l0.5,0c0.1,0,0.2,0,0.5,0
		c0.1,0,0.2,0,0.4,0l0.5,0c0.1,0,0.3,0,0.5,0c0.2,0,0.2,0,0.3,0.1c0,0.1,0,0.2,0,0.3c0,0.1,0,0.2,0,0.2c0,0.6,0,1.5-0.1,2.5
		l-0.1,2.1l-0.1,1.2L18.1,7.8z"/>
	<path d="M37.1,2.3c0,0.3,0,0.5-0.1,0.5c-0.1,0-0.2,0-0.3,0c-0.1,0-0.2,0-0.4,0H33l-2.6,0c-0.1,0-0.4,0-0.9,0.1l-0.5,0l0,0.6
		c0,0.2,0,0.5,0,1c0,0.2,0,0.5,0,0.9c0,0.3,0,0.6,0,0.7v0.8c0,0.2,0,0.4,0,0.5c0.1,0,0.3,0,0.6,0h0.8c0.1,0,0.3,0,0.5,0
		c0.4,0,0.7,0,0.9,0c0.1,0,0.5,0,1.2,0.1l0.5,0c0.1,0,0.3,0,0.5,0c0.2,0,0.4,0,0.6,0l0.7,0c0.4,0,0.6,0,0.8,0c0.2,0,0.3,0,0.3,0
		l0.1,0c0.1,0,0.2,0,0.2,0.1c0,0.1,0.1,0.1,0,0.2c0,0.1,0,0.2,0,0.4c0,0.1,0,0.3,0,0.4c0,0.1,0,0.2-0.1,0.2c0,0-0.1,0-0.3,0
		l-0.8-0.1c-1-0.1-1.7-0.1-2.1-0.1c-1.2,0-2.1,0-2.6,0.1c-0.2,0-0.5,0-0.7,0s-0.4,0-0.5,0c-0.3,0-0.5,0-0.6,0L29,8.8
		c0,0.3,0,0.5,0,0.7c0,0.2,0,0.4,0,0.6c0,0.2,0,0.4,0,0.6l0,2.5l0,1c0,0.1,0,0.3,0,0.5c0.2,0,0.4,0,0.8,0c0.3,0,0.7,0,1.4,0l1.1,0
		c0.2,0,0.6,0,1.1,0c0.3,0,0.7,0,1.2,0l0.9,0c0.3,0,0.6,0,0.8,0c0.2,0,0.4,0,0.5,0c0.1,0,0.2,0,0.2,0.1s0,0.1,0,0.3
		c0,0.1,0,0.2,0,0.3c0,0.1,0,0.2,0,0.3c0,0.1,0,0.2-0.1,0.2c-0.1,0-0.2,0.1-0.3,0.1c-0.2,0-0.3,0-0.4,0c-0.4,0-1.1-0.1-2.3-0.1
		c-0.7,0-1.2,0-1.5,0c-0.2,0-0.6,0-1.2,0l-2,0c-0.2,0-0.5,0-0.8,0c-0.2,0-0.3,0-0.4-0.1s-0.1-0.1-0.1-0.2l0-0.3c0-0.1,0-0.1,0-0.2
		c0,0,0-0.1,0-0.3s0-0.5,0-0.9c0-0.4,0-1.1,0-2.1c0-0.8-0.1-1.5-0.1-2.3c0-0.3,0-1.2,0.1-2.7c0-0.3,0-0.6,0-0.9s0-0.6,0-0.8
		c0-1.6,0-2.7-0.1-3.2c0-0.3,0.2-0.5,0.6-0.5c0.1,0,0.3,0,0.5,0c0.2,0,0.4,0,0.5,0l1.3,0c1-0.1,1.7-0.1,2.2-0.1c0.6,0,1.4,0,2.5,0
		c0.4,0,0.7,0,1.1,0c0.2,0,0.3,0,0.3,0.1s0.1,0.2,0.1,0.3s0,0.2,0,0.2V2.3z"/>
	<path d="M49.1,16c0,0,0,0.1-0.1,0.1c-0.1,0.1-0.4,0.1-0.9,0.1c-0.4,0-0.6,0-0.7-0.1c-0.1,0-0.2-0.1-0.2-0.2c0-0.1-0.1-0.2-0.1-0.3
		c0-0.1-0.2-0.3-0.5-0.7c-0.3-0.4-0.5-0.7-0.7-0.9c-0.7-1-1.4-1.8-1.9-2.6c-0.3-0.5-1-1.3-1.9-2.5l-0.3-0.4l-1.4-1.8l-0.1,0.8
		c-0.1,0.4-0.1,0.9,0,1.5c0,0.4,0.1,1.4,0.1,3c0,1.6,0,2.8,0,3.6c0,0.2-0.1,0.4-0.3,0.4c-0.2,0.1-0.4,0.1-0.6,0.1
		c-0.1,0-0.2,0-0.2-0.1c0-0.1,0-0.2-0.1-0.3c0-0.1,0-0.2,0-0.2c0-0.2,0-0.6,0-1c0-0.3,0-0.5,0-0.6c0-0.8,0-2.1,0.1-4
		c0-1.9,0-3.6,0-5.1c0-1.6,0-2.5-0.1-2.8c0-0.1,0-0.3,0-0.4c0-0.2,0-0.3,0.1-0.4c0.1-0.1,0.2-0.1,0.3-0.1c0.3,0,0.6,0,0.8,0l2.3,0
		c0.8,0,1.7,0.1,2.6,0.4c0.9,0.3,1.4,0.8,1.4,1.6c0,0.8-0.3,1.3-0.8,1.8c-0.6,0.4-1.2,0.7-1.9,0.9s-1.3,0.2-1.8,0.2
		c-0.2,0-0.3,0-0.3,0c0.1,0.1,0.6,0.8,1.7,2.2c3.1,4.1,4.8,6.4,5.1,6.7C48.9,15.6,49.1,15.8,49.1,16z M41.2,5.4
		c0.8,0,1.4-0.1,1.9-0.2c0.6-0.1,1.1-0.3,1.5-0.5c0.3-0.2,0.5-0.5,0.5-0.9c0-0.3-0.1-0.5-0.4-0.7S44,2.8,43.6,2.7
		c-0.4-0.1-0.8-0.2-1.1-0.2c-0.4,0-0.8,0-1.5,0h-0.7l-0.1,2.9C40.6,5.4,41,5.4,41.2,5.4z"/>
	<path d="M60.5,16.1c0,0.1,0,0.1-0.1,0.1c-0.1,0-0.1,0-0.2,0c0,0-0.1,0-0.1,0l-2.4,0.1c-0.1,0-0.2,0-0.3-0.1
		c-0.1-0.1-0.2-0.3-0.3-0.5c-0.1-0.2-0.2-0.5-0.4-0.8c-0.3-0.5-0.8-1.4-1.4-2.8l-1.1-2.1l0.1,1.1l0.1,1.6c0.1,1.9,0.2,2.9,0.2,3.1
		c0,0.1,0,0.1,0,0.2c0,0.3-0.1,0.4-0.4,0.4c-0.1,0-0.2,0-0.2,0c-0.2,0-0.8,0-1.6,0.1c-0.6,0.1-0.9,0.1-1.1,0.1c-0.2,0-0.3,0-0.4-0.1
		c-0.1-0.1-0.1-0.2-0.1-0.4l0-0.5l0-1.2c-0.1-1.5-0.1-2.7-0.1-3.8c0-0.6,0-0.9,0.1-1.2c0.1-0.3,0.1-1.3,0.1-3c0-1.7,0-3-0.1-3.8
		c0-0.1,0-0.3,0-0.5c0-0.2,0-0.4,0.1-0.5c0-0.1,0.1-0.2,0.1-0.2c0,0,0.1,0,0.3,0l0.5,0c1-0.1,1.7-0.2,2.3-0.2c1.6,0,2.7,0.4,3.5,1.2
		c0.8,0.8,1.2,1.9,1.2,3.1c0,1-0.3,2-1,2.9c-0.3,0.4-0.6,0.8-1,1.1l1.5,2.7c1.1,1.9,1.7,3,1.9,3.3C60.4,15.8,60.5,16,60.5,16.1z
		 M54.7,6.9c0.4-0.2,0.6-0.6,0.6-1.1c0-0.4-0.1-0.7-0.2-0.9c-0.1-0.2-0.3-0.3-0.5-0.3c-0.2,0-0.3,0.1-0.4,0.2c0,0,0,0.1,0,0.3
		c0,0.2,0,0.4,0,0.5c0,0.2,0,0.3,0,0.3c-0.1,0.2-0.1,0.5-0.1,0.7l0,0.2l0,0.2C54.4,7,54.6,7,54.7,6.9z"/>
	<path d="M64.2,3.8c0.3,0.9,0.6,1.8,1,2.7c0.2,0.4,0.4,1,0.6,1.6l0.3,1l0.2-0.5l0.3-0.9c0.1-0.4,0.3-1,0.6-1.7
		c0.3-0.7,0.5-1.2,0.6-1.4c0.4-1.1,0.6-1.9,0.8-2.4c0.1-0.3,0.2-0.5,0.3-0.5c0.1-0.1,0.2-0.1,0.3-0.1c0.1,0,0.2,0,0.2,0l1.1,0
		c0.3,0,0.7,0,0.9,0c0.3,0,0.4,0.1,0.4,0.2c0,0,0,0.1,0,0.2c0,0.1-0.1,0.2-0.1,0.3c0,0.1-0.1,0.2-0.1,0.3c-0.3,1-0.6,1.6-0.7,1.8
		c-0.2,0.5-0.5,1.3-0.9,2.4l-0.9,2.3c-0.3,0.8-0.7,1.7-1.2,2.9c-0.5,1.2-0.7,1.9-0.8,2.1c-0.1,0.2-0.1,0.4-0.2,0.8s-0.1,0.6-0.1,0.7
		c0,0.2-0.1,0.3-0.1,0.3c0,0.1-0.1,0.1-0.2,0.1l-1.2,0l-1.7,0c-0.2,0-0.3,0-0.3-0.1c0,0,0-0.1,0-0.1c0,0,0-0.1,0.1-0.1l0.8-2
		c0-0.2,0.1-0.5,0.3-0.9c0-0.1,0.1-0.2,0.1-0.3c0-0.1,0.1-0.2,0.1-0.3c0-0.1,0.1-0.2,0.1-0.3c0.1-0.1,0.1-0.2,0.1-0.3
		c0-0.1,0-0.1,0-0.2l-0.2-0.7c-0.2-0.6-0.3-1-0.4-1.2c-0.1-0.2-0.2-0.6-0.3-1c-0.1-0.3-0.2-0.6-0.3-0.9c-0.1-0.3-0.4-1-0.8-2.1
		c-0.4-1.1-0.7-2-0.9-2.6c-0.1-0.3-0.2-0.5-0.3-0.7c-0.1-0.2-0.1-0.4-0.1-0.5c0-0.1,0.1-0.2,0.2-0.2c0.1,0,0.3-0.1,0.5-0.1
		c0.2,0,0.6,0,1,0c0.1,0,0.2,0,0.2,0.1c0,0,0,0.1,0,0.2c0,0.1,0,0.1,0,0.2L64.2,3.8z"/>
	<path d="M87.1,1.5c0.6,0.4,1,0.8,1.2,1.1s0.4,0.6,0.4,0.6C88.9,3.5,89,3.6,89,3.7c0,0.1,0,0.2-0.1,0.2c-0.1,0.1-0.1,0.1-0.2,0.1
		s-0.1,0.1-0.2,0.1c-0.2,0.1-0.4,0.3-0.7,0.5c-0.1,0.1-0.3,0.2-0.6,0.4c-0.2,0.2-0.4,0.3-0.5,0.3c-0.1,0-0.1,0.1-0.2,0.1
		c-0.1,0-0.2-0.1-0.3-0.2c-0.1-0.1-0.1-0.2-0.2-0.2c0,0-0.1-0.1-0.2-0.3c-0.1-0.1-0.3-0.3-0.5-0.4c-0.2-0.1-0.4-0.1-0.6-0.1
		c-0.4,0-0.7,0.3-1,0.8c-0.2,0.5-0.4,1.5-0.4,2.9c0,0.9,0.1,1.7,0.2,2.3c0.2,0.6,0.3,1,0.6,1.3c0.2,0.3,0.4,0.4,0.6,0.4
		c0.3,0,0.5-0.1,0.6-0.2s0.3-0.4,0.4-0.7c0.1-0.3,0.3-0.5,0.5-0.5c0.1,0,0.2,0,0.3,0c0.1,0,0.2,0,0.2,0.1c0.1,0.1,0.5,0.1,1,0.3
		c0.5,0.1,1,0.2,1.4,0.3c0.2,0,0.3,0.2,0.3,0.5c0,0.1,0,0.2,0,0.3c0,0.2-0.1,0.4-0.2,0.7c-0.3,0.9-0.8,1.7-1.5,2.4
		c-0.7,0.7-1.8,1.1-3.2,1.1c-0.9,0-1.7-0.3-2.6-0.8c-0.9-0.5-1.6-1.4-2.2-2.6c-0.6-1.2-0.9-2.8-0.9-4.8c0-2.8,0.5-4.7,1.6-5.7
		c1.1-1,2.3-1.5,3.6-1.5C85.7,0.9,86.5,1.1,87.1,1.5z"/>
	<path d="M95.9,7.8l0.8,0c0.7,0,1.1,0,1.4,0c1.1,0,1.9,0,2.5,0c0.7,0,1.2,0,1.6,0V7.2l0-1.2c0-0.5,0-1.6,0.1-3.3l0-1.5
		c0-0.1,0.1-0.2,0.2-0.2l0.2,0c0.1,0,0.2,0,0.3,0c0.2,0,0.3,0,0.4,0c0.1,0,0.2,0.1,0.2,0.2l0,0.2c0,0.1,0,0.3-0.1,0.6
		c0,0.3-0.1,0.7-0.1,1.2c0,0.4-0.1,1.4-0.1,2.9c0,1.5,0,2.7,0,3.5c0,0.6,0,1.6-0.1,3.1l0,1.4l0,0.8c0,0.2,0,0.4,0,0.6l0,0.1
		c0,0.1,0,0.1-0.1,0.1c-0.1,0-0.1,0-0.1,0c-0.1,0-0.4,0-0.8,0c-0.1,0-0.2-0.1-0.2-0.2l0-3.1c0-0.2,0-0.5,0-0.7c0-0.2,0-0.5,0-0.7
		v-0.9V8.9l-1.7,0c-0.6,0-1.4,0-2.4,0h-2c-0.5,0-0.9,0-1.2,0c0,0.2,0,0.4,0,0.5c0,0.4,0,0.9,0,1.3l0,2.3c0,1.1,0,1.8,0.1,2.2
		c0,0.2,0,0.3,0,0.3c0,0.2-0.1,0.3-0.2,0.4s-0.2,0.1-0.3,0.1c-0.1,0-0.2,0-0.2,0c-0.5,0-1,0-1.7,0.1c-0.2,0-0.4,0-0.4-0.2
		c0-0.1-0.1-0.3-0.1-0.6c0-0.3,0-0.4,0-0.6l0-7.3l0-5.4c0-0.3,0-0.5,0.1-0.5s0.2-0.1,0.3-0.1l0.5,0c0.1,0,0.2,0,0.5,0
		c0.1,0,0.2,0,0.4,0l0.5,0c0.1,0,0.3,0,0.5,0c0.2,0,0.2,0,0.3,0.1c0,0.1,0,0.2,0,0.3c0,0.1,0,0.2,0,0.2c0,0.6,0,1.5-0.1,2.5
		l-0.1,2.1l-0.1,1.2L95.9,7.8z"/>
	<path d="M116.1,16c0,0,0,0.1-0.1,0.1c-0.1,0.1-0.4,0.1-0.9,0.1c-0.4,0-0.6,0-0.7-0.1s-0.2-0.1-0.2-0.2c0-0.1-0.1-0.2-0.1-0.3
		c0-0.1-0.2-0.3-0.5-0.7c-0.3-0.4-0.5-0.7-0.7-0.9c-0.7-1-1.4-1.8-1.9-2.6c-0.3-0.5-1-1.3-1.9-2.5l-0.3-0.4l-1.4-1.8l-0.1,0.8
		c-0.1,0.4-0.1,0.9,0,1.5c0,0.4,0.1,1.4,0.1,3c0,1.6,0,2.8,0,3.6c0,0.2-0.1,0.4-0.3,0.4c-0.2,0.1-0.4,0.1-0.6,0.1
		c-0.1,0-0.2,0-0.2-0.1s0-0.2-0.1-0.3c0-0.1,0-0.2,0-0.2c0-0.2,0-0.6,0-1c0-0.3,0-0.5,0-0.6c0-0.8,0-2.1,0.1-4c0-1.9,0-3.6,0-5.1
		c0-1.6,0-2.5-0.1-2.8c0-0.1,0-0.3,0-0.4c0-0.2,0-0.3,0.1-0.4c0.1-0.1,0.2-0.1,0.3-0.1c0.3,0,0.6,0,0.8,0l2.3,0
		c0.8,0,1.7,0.1,2.6,0.4s1.4,0.8,1.4,1.6c0,0.8-0.3,1.3-0.8,1.8c-0.6,0.4-1.2,0.7-1.9,0.9c-0.7,0.2-1.3,0.2-1.8,0.2
		c-0.2,0-0.3,0-0.3,0c0.1,0.1,0.6,0.8,1.7,2.2c3.1,4.1,4.8,6.4,5.1,6.7C116,15.6,116.1,15.8,116.1,16z M108.3,5.4
		c0.8,0,1.4-0.1,1.9-0.2c0.6-0.1,1.1-0.3,1.5-0.5s0.5-0.5,0.5-0.9c0-0.3-0.1-0.5-0.4-0.7s-0.6-0.4-1.1-0.5c-0.4-0.1-0.8-0.2-1.1-0.2
		c-0.3,0-0.8,0-1.5,0h-0.7l-0.1,2.9C107.7,5.4,108,5.4,108.3,5.4z"/>
	<path d="M127.7,3.7c0.5,1,0.9,1.9,1.1,2.8s0.3,1.6,0.3,2.1c0,0.9-0.1,1.9-0.4,3c-0.3,1.1-0.9,2.2-1.8,3.2c-0.9,1-2.2,1.5-3.9,1.5
		c-2.3,0-4-1.4-5-4.1c-0.4-1.2-0.7-2.6-0.7-4.1c0-1.2,0.3-2.4,0.8-3.5c0.5-1.1,1.2-2,2-2.7c0.8-0.7,1.7-1,2.6-1c0.8,0,1.4,0,1.8,0.1
		c0.4,0,0.8,0.2,1.1,0.4C126.6,1.9,127.2,2.7,127.7,3.7z M126.3,13.2c0.7-1.2,1.1-2.8,1.1-4.7c0-1.1-0.2-2.2-0.5-3.2
		c-0.3-1-0.8-1.8-1.4-2.3s-1.3-0.9-2.2-0.9c-0.1,0-0.3,0-0.6,0c-0.3,0-0.6,0-0.8,0.1s-0.4,0.2-0.6,0.4c-0.5,0.5-0.9,0.9-1.2,1.3
		c-0.3,0.4-0.6,1-0.9,1.7c-0.3,0.8-0.5,1.6-0.5,2.6c0,1.2,0.1,2.3,0.4,3.3c0.3,1,0.7,1.8,1.4,2.5s1.4,1,2.4,1
		C124.5,15.1,125.6,14.5,126.3,13.2z"/>
	<path d="M134.7,0.8c0.3,0,0.5,0,0.7,0.1c0.1,0.1,0.3,0.2,0.3,0.3c0.1,0.3,0.3,0.7,0.5,1.1l0.8,1.7l1,2.2c0.2,0.4,0.4,0.9,0.7,1.6
		s0.5,1.1,0.6,1.3c0.2,0.5,0.4,0.8,0.5,0.9l0.6,1.2l0.7,1.3l0-1.2l-0.1-2.1V8.6c0-0.8,0-1.5,0-2.3c0-0.6,0-1.1,0-1.4l0-1.6l0.1-2
		c0-0.2,0.1-0.3,0.3-0.3c0.1,0,0.2,0,0.4,0.1c0.1,0,0.3,0,0.4,0c0.1,0,0.3,0,0.3,0c0.1,0,0.2,0,0.2,0c0,0,0.1,0.1,0.1,0.1
		c0,0.1,0,0.1,0,0.2c0,0.1,0,0.1,0,0.2l0,1.8l0,4.2l0,0.6c0,0.5,0,0.9,0,1.3c0,0.4,0,0.7,0,1c0,0.6,0.1,1.1,0.1,1.5
		c0-0.1,0,0.8,0.1,2.5l0,1.2v0c0,0.3-0.1,0.4-0.4,0.4c0,0-0.1,0-0.3,0l-0.6,0h-0.1c-0.1,0-0.2,0-0.2-0.1c0,0-0.1-0.2-0.2-0.4
		c0-0.1-0.1-0.2-0.2-0.4c-0.1-0.2-0.2-0.4-0.3-0.6c-0.6-1.5-1-2.5-1.3-3.1c-0.3-0.6-1.1-2.3-2.3-5.1c-0.3-0.6-0.6-1.2-0.9-1.8
		l-0.6-1.1l0.1,2l0,1.2c0,0.9,0,1.5,0,1.8c0,1.1,0,2.3,0.1,3.5l0,1.6c0,0.3,0,0.7,0,1.3l0,0.7v0c0,0.1,0,0.2-0.1,0.3
		c-0.1,0-0.2,0.1-0.3,0.1l-0.5,0c-0.3,0-0.6,0.1-0.9,0.1c-0.4,0-0.7,0-1,0l-1.1,0c-0.2,0-0.4,0-0.4-0.1c-0.1-0.1-0.1-0.2-0.1-0.3
		c0-0.1,0-0.2,0-0.2c-0.1-0.3-0.1-0.6-0.1-0.9c0-0.3,0-0.6,0-0.9c0-0.7,0-1.6,0-2.6c0-1,0.1-1.7,0.1-2.1l0.1-1.5
		c0.2-2.3,0.3-3.6,0.3-3.9c0-1.1,0-1.9,0.1-2.5c0-0.4,0.2-0.6,0.6-0.6c0.1,0,0.2,0,0.3,0c0.1,0,0.2,0,0.2,0L134.7,0.8z"/>
	<path d="M146.5,4.4c0,0.4,0,1.4-0.1,3c-0.1,1.5-0.1,2.5-0.1,2.8c0,0.8,0,1.8,0,3.1c0,1.2,0.1,2,0.1,2.2c0,0.1,0,0.2,0,0.3
		c0,0.1,0,0.2-0.1,0.2c0,0-0.1,0.1-0.2,0.1c-0.1,0.1-0.3,0.1-0.7,0.1c-0.1,0-0.1,0-0.3,0s-0.2,0-0.2,0c0,0,0-0.1,0-0.2l0-0.7l0-2.8
		l0-4.4c0-0.4,0-1.4,0.1-2.9c0-0.3,0-0.9,0.1-1.7c0-0.8,0-1.3,0-1.4l0-0.4c0-0.4,0.1-0.5,0.3-0.5l0.8,0c0.1,0,0.2,0.1,0.2,0.3
		c0,0.1,0,0.2,0,0.2c0,0.1,0,0.2,0,0.3C146.6,2.3,146.5,3.1,146.5,4.4z"/>
	<path d="M156.1,1.5c0.6,0.4,1,0.8,1.2,1.1c0.2,0.3,0.4,0.6,0.4,0.6c0.1,0.2,0.2,0.3,0.2,0.4c0,0.1,0,0.2-0.1,0.2
		c-0.1,0.1-0.1,0.1-0.2,0.1s-0.1,0.1-0.2,0.1c-0.2,0.1-0.4,0.3-0.7,0.5c-0.1,0.1-0.3,0.2-0.6,0.4c-0.2,0.2-0.4,0.3-0.5,0.3
		c-0.1,0-0.1,0.1-0.2,0.1c-0.1,0-0.2-0.1-0.3-0.2c-0.1-0.1-0.1-0.2-0.2-0.2c0,0-0.1-0.1-0.2-0.3c-0.1-0.1-0.3-0.3-0.5-0.4
		c-0.2-0.1-0.4-0.1-0.6-0.1c-0.4,0-0.7,0.3-1,0.8s-0.4,1.5-0.4,2.9c0,0.9,0.1,1.7,0.2,2.3c0.2,0.6,0.3,1,0.6,1.3
		c0.2,0.3,0.4,0.4,0.6,0.4c0.3,0,0.5-0.1,0.6-0.2c0.1-0.1,0.3-0.4,0.4-0.7c0.1-0.3,0.3-0.5,0.5-0.5c0.1,0,0.2,0,0.3,0
		c0.1,0,0.2,0,0.2,0.1c0.1,0.1,0.5,0.1,1,0.3s1,0.2,1.4,0.3c0.2,0,0.3,0.2,0.3,0.5c0,0.1,0,0.2,0,0.3c0,0.2-0.1,0.4-0.2,0.7
		c-0.3,0.9-0.8,1.7-1.5,2.4c-0.7,0.7-1.8,1.1-3.2,1.1c-0.9,0-1.7-0.3-2.6-0.8c-0.9-0.5-1.6-1.4-2.2-2.6c-0.6-1.2-0.9-2.8-0.9-4.8
		c0-2.8,0.5-4.7,1.6-5.7c1.1-1,2.3-1.5,3.6-1.5C154.6,0.9,155.5,1.1,156.1,1.5z"/>
	<path d="M164.7,3.5c-0.1,1.1-0.1,2-0.1,2.6l0,3.2c0,0.5,0,1,0,1.6l0,2.3l0,0.4l0,0.6l0,0.7l3,0.1l2.5,0h0c0.1,0,0.1,0,0.1,0
		s0,0.1,0,0.1c0,0,0,0.1,0,0.1c0,0.1,0,0.2,0,0.3c0,0.2,0,0.3,0,0.4c0,0.1,0,0.2-0.1,0.2c-0.1,0-0.2,0-0.3,0c-0.1,0-0.2,0-0.2,0
		l-1.1-0.1c-1-0.1-1.7-0.1-2.1-0.1c-0.4,0-1.6,0-3.4,0.1l-1.9,0.1c-0.3,0-0.5-0.1-0.5-0.4v-1.6l0.1-7c0-0.5,0-1.5-0.1-2.9l-0.1-2.6
		c0-0.2,0.1-0.4,0.3-0.4c0.1,0,0.2,0,0.4,0.1s0.3,0.1,0.4,0.1c0.4,0.1,0.9,0.1,1.4,0.1c0.4,0,0.7,0,1.1-0.1c0.2,0,0.4,0,0.4,0
		c0.1,0.1,0.1,0.1,0.1,0.3c0,0.1,0,0.2,0,0.3c0,0.1,0,0.2,0,0.3L164.7,3.5z"/>
	<path d="M180.5,2.3c0,0.3,0,0.5-0.1,0.5c-0.1,0-0.2,0-0.3,0c-0.1,0-0.2,0-0.4,0h-3.4l-2.6,0c-0.1,0-0.4,0-0.9,0.1l-0.5,0l0,0.6
		c0,0.2,0,0.5,0,1c0,0.2,0,0.5,0,0.9c0,0.3,0,0.6,0,0.7v0.8c0,0.2,0,0.4,0,0.5c0.1,0,0.3,0,0.6,0h0.8c0.1,0,0.3,0,0.5,0
		c0.4,0,0.7,0,0.9,0c0.1,0,0.5,0,1.2,0.1l0.5,0c0.1,0,0.3,0,0.5,0c0.2,0,0.4,0,0.6,0l0.7,0c0.4,0,0.6,0,0.8,0c0.2,0,0.3,0,0.3,0
		l0.1,0c0.1,0,0.2,0,0.2,0.1c0,0.1,0.1,0.1,0,0.2c0,0.1,0,0.2,0,0.4c0,0.1,0,0.3,0,0.4c0,0.1,0,0.2-0.1,0.2c0,0-0.1,0-0.3,0L179,8.5
		c-1-0.1-1.7-0.1-2.1-0.1c-1.2,0-2.1,0-2.6,0.1c-0.2,0-0.5,0-0.7,0s-0.4,0-0.5,0c-0.3,0-0.5,0-0.6,0l-0.1,0.3c0,0.3,0,0.5,0,0.7
		c0,0.2,0,0.4,0,0.6c0,0.2,0,0.4,0,0.6l0,2.5l0,1c0,0.1,0,0.3,0,0.5c0.2,0,0.4,0,0.8,0c0.3,0,0.7,0,1.4,0l1.1,0c0.2,0,0.6,0,1.1,0
		c0.3,0,0.7,0,1.2,0l0.9,0c0.3,0,0.6,0,0.8,0s0.4,0,0.5,0s0.2,0,0.2,0.1c0,0,0,0.1,0,0.3c0,0.1,0,0.2,0,0.3c0,0.1,0,0.2,0,0.3
		c0,0.1,0,0.2-0.1,0.2c-0.1,0-0.2,0.1-0.3,0.1s-0.3,0-0.4,0c-0.4,0-1.1-0.1-2.3-0.1c-0.7,0-1.2,0-1.5,0c-0.2,0-0.6,0-1.2,0l-2,0
		c-0.2,0-0.5,0-0.8,0c-0.2,0-0.3,0-0.4-0.1c-0.1,0-0.1-0.1-0.1-0.2l0-0.3c0-0.1,0-0.1,0-0.2c0,0,0-0.1,0-0.3c0-0.2,0-0.5,0-0.9
		c0-0.4,0-1.1,0-2.1c0-0.8-0.1-1.5-0.1-2.3c0-0.3,0-1.2,0.1-2.7c0-0.3,0-0.6,0-0.9s0-0.6,0-0.8c0-1.6,0-2.7-0.1-3.2
		c0-0.3,0.2-0.5,0.6-0.5c0.1,0,0.3,0,0.5,0c0.2,0,0.4,0,0.5,0l1.3,0c1-0.1,1.7-0.1,2.2-0.1c0.6,0,1.4,0,2.5,0c0.3,0,0.7,0,1.1,0
		c0.2,0,0.3,0,0.3,0.1s0.1,0.2,0.1,0.3c0,0.1,0,0.2,0,0.2V2.3z"/>
	<path d="M189.6,2c0.6,0.5,0.9,0.7,0.9,0.8c0.1,0.1,0.2,0.2,0.2,0.3c0,0.1,0,0.1-0.1,0.2c0,0.1-0.1,0.2-0.3,0.4
		c-0.1,0.2-0.2,0.3-0.3,0.3c-0.1,0-0.2,0-0.3-0.1l-0.1-0.1c-1.1-0.8-2-1.2-2.7-1.2c-1,0-1.7,0.2-2.2,0.7c-0.5,0.4-0.7,1-0.7,1.7
		c0,0.6,0.2,1.1,0.6,1.5s1,0.8,1.6,1.2c0.2,0.1,0.4,0.2,0.6,0.2c0.7,0.3,1.3,0.5,1.8,0.9c0.5,0.3,1,0.8,1.4,1.4
		c0.4,0.6,0.6,1.4,0.6,2.3c0,1.6-0.5,2.7-1.6,3.2c-1.1,0.6-2.3,0.9-3.6,0.9c-0.8,0-1.5-0.2-2.1-0.5s-1.1-0.7-1.3-0.9
		c-0.1-0.1-0.2-0.3-0.1-0.4c0,0,0.1-0.1,0.2-0.3c0.1-0.2,0.2-0.3,0.3-0.3h0c0,0,0.1,0,0.1,0c0,0,0.1,0.1,0.1,0.1
		c0,0.1,0.1,0.1,0.2,0.2c0.2,0.2,0.5,0.4,1.1,0.6s1,0.3,1.3,0.3c0.7,0,1.4-0.2,2.1-0.5s1-1,1-2c0-0.4-0.2-0.8-0.6-1.1
		c-0.4-0.3-1-0.7-1.8-1.1l-0.9-0.5c-1-0.6-1.7-1.2-2.3-1.8c-0.6-0.6-0.8-1.5-0.8-2.5c0-0.9,0.2-1.6,0.7-2.3c0.5-0.6,1.1-1.1,1.9-1.5
		s1.5-0.5,2.2-0.5C188.2,1.2,189.1,1.5,189.6,2z"/>
</g>
</svg>
