<?xml version="1.0" encoding="utf-8"?>
<!-- Generator: Adobe Illustrator 23.1.1, SVG Export Plug-In . SVG Version: 6.00 Build 0)  -->
<svg version="1.1" id="Layer_1" xmlns="http://www.w3.org/2000/svg" xmlns:xlink="http://www.w3.org/1999/xlink" x="0px" y="0px"
	 viewBox="0 0 67.2 34.5" style="enable-background:new 0 0 67.2 34.5;" xml:space="preserve">
<style type="text/css">
	.stTrace2{fill:none;stroke:#000000;stroke-width:1.5;stroke-linecap:round;stroke-miterlimit:10;stroke-dasharray:900;}
</style>
<path class="stTrace2" d="M30.5,1.7c3-0.3,6,0.4,8.9,1.1c4.5,1.2,9,2.5,13.5,4c4.1,1.4,8.5,3.1,11,6.7c1.7,2.4,2.4,5.6,1.8,8.5
	s-2.3,5.6-4.8,7.2c-1.5,1-3.3,1.6-5.1,2c-2.4,0.6-4.9,0.8-7.4,1.1c-7.9,0.7-15.7,1-23.6,1c-2.1,0-4.2,0-6.2-0.5
	c-2.8-0.6-5.5-1.8-7.9-3.3c-2.6-1.6-5-3.5-6.9-5.8c-1.3-1.5-2.3-3.3-2.5-5.3c-0.1-2,0.8-3.9,2.1-5.4s3-2.6,4.7-3.6
	c12.8-7.3,28.1-8.7,42.8-8.3"/>
</svg>
