<?xml version="1.0" encoding="utf-8"?>
<!-- Generator: Adobe Illustrator 23.1.1, SVG Export Plug-In . SVG Version: 6.00 Build 0)  -->
<svg version="1.1" id="Layer_1" xmlns="http://www.w3.org/2000/svg" xmlns:xlink="http://www.w3.org/1999/xlink" x="0px" y="0px"
	 viewBox="0 0 132.6 80.3" style="enable-background:new 0 0 132.6 80.3;" xml:space="preserve">
<style type="text/css">
	.stTrace1{fill:none;stroke:#000000;stroke-width:6;stroke-linecap:round;stroke-miterlimit:10;stroke-dasharray: 900;}
</style>
<path class="stTrace1" d="M13.7,50.1c9.7,7.7,21.1,13,32.4,18.2c8.7,4,17.6,8.1,27.2,8.6c9.1,0.5,18.2-2.3,25.9-7.1s14.1-11.6,19.3-19.1
	c3.1-4.4,5.8-9.3,6.7-14.6c0.5-2.7,0.5-5.4-0.2-8c-1-3.2-3.1-5.9-5.5-8.3c-8.2-8.3-19.2-13.5-30.7-15.5S65.5,3.5,54.3,6.8
	c-7.2,2.1-14.2,5.1-20.6,8.9c-9.5,5.5-18.2,12.9-23.2,22.6c-4.5,8.6-5.9,18.4-6.7,28"/>
</svg>
