<?xml version="1.0" encoding="utf-8"?>
<!-- Generator: Adobe Illustrator 23.1.1, SVG Export Plug-In . SVG Version: 6.00 Build 0)  -->
<svg version="1.1" id="Layer_1" xmlns="http://www.w3.org/2000/svg" xmlns:xlink="http://www.w3.org/1999/xlink" x="0px" y="0px"
	 viewBox="0 0 124.8 71.5" style="enable-background:new 0 0 124.8 71.5;" xml:space="preserve">
<style type="text/css">
	.stTrace3{fill:none;stroke:#000000;stroke-width:4;stroke-linecap:round;stroke-miterlimit:10;stroke-dasharray: 900;}
</style>
<path class="stTrace3" d="M77.1,3.2C64.3,2.6,51,2,38.9,6.2C30.8,9,23.5,13.8,17.1,19.5c-4.6,4-8.8,8.4-11.9,13.6
	c-1.5,2.6-2.8,5.4-2.7,8.4c0.2,4.6,3.9,8.3,7.6,11c11.5,8.4,25.8,11.9,39.9,14.2c11.6,1.9,23.5,3,35.1,1.1
	c11.6-1.9,23-7.1,30.5-16.1c3.1-3.7,5.5-8.1,5.4-12.9c-0.1-3.3-1.4-6.5-3.1-9.4c-5.4-9.2-15-15.7-25.5-17.5
	c-6.3-1.1-12.8-0.4-19.2-1.4c-4.7-0.7-9.3-2.3-13.4-4.6"/>
</svg>
