<?xml version="1.0" standalone="no"?>
<!DOCTYPE svg PUBLIC "-//W3C//DTD SVG 20010904//EN"
 "http://www.w3.org/TR/2001/REC-SVG-20010904/DTD/svg10.dtd">
<svg version="1.0" xmlns="http://www.w3.org/2000/svg"
 width="1804.000000pt" height="2406.000000pt" viewBox="0 0 1804.000000 2406.000000"
 preserveAspectRatio="xMidYMid meet" class="svg">
<g fill="#69bf6482" transform="translate(0.000000,2406.000000) scale(0.100000,-0.100000)"
 stroke="none">
<path  d="M8937 24053 c-3 -5 -57 -132 -122 -283 -64 -151 -121 -279 -125 -284
-5 -5 -147 -36 -317 -70 -173 -35 -308 -67 -308 -73 0 -5 99 -97 220 -203 121
-106 228 -200 238 -209 18 -17 17 -29 -19 -330 -20 -171 -34 -314 -31 -317 3
-3 128 67 278 156 l272 162 101 -47 c342 -158 477 -218 481 -213 3 2 -27 144
-65 313 l-70 309 28 30 c16 17 112 122 215 233 164 176 202 223 182 223 -16 0
-557 50 -591 55 l-42 6 -153 274 c-85 151 -157 275 -161 275 -4 0 -9 -3 -11
-7z"/>
<path  d="M791 23983 c-12 -38 -54 -174 -94 -303 l-73 -235 -307 -95 c-169 -52
-307 -99 -306 -105 0 -5 118 -93 262 -194 l262 -184 -3 -318 c-1 -176 0 -319
3 -319 3 0 119 85 257 189 l253 188 303 -102 c261 -89 302 -101 302 -85 0 10
-45 148 -99 307 l-99 289 189 252 c104 138 189 257 189 263 0 9 -80 11 -319 7
l-318 -6 -183 259 c-101 143 -187 259 -191 259 -5 0 -17 -30 -28 -67z"/>
<path  d="M16769 24023 c0 -5 -28 -145 -62 -312 l-62 -304 -292 -126 c-161 -69
-293 -131 -293 -136 0 -6 124 -80 275 -164 152 -85 277 -157 279 -160 2 -3 16
-147 32 -318 15 -172 31 -313 35 -313 4 0 112 97 240 215 150 138 238 213 248
211 67 -20 603 -137 608 -133 3 3 -54 134 -126 290 -72 156 -131 288 -131 294
0 6 60 111 133 234 73 123 145 248 160 277 l28 53 -48 -6 c-26 -4 -170 -21
-320 -39 l-272 -32 -208 238 c-114 131 -211 238 -215 238 -5 0 -8 -3 -9 -7z"/>
<path  d="M4699 24018 c-1 -2 -25 -142 -53 -313 l-52 -310 -287 -135 c-183 -86
-286 -140 -284 -148 1 -8 124 -77 272 -153 149 -77 275 -145 281 -152 7 -7 29
-150 50 -319 20 -170 42 -308 47 -308 5 0 109 100 233 221 l224 222 297 -57
c301 -57 333 -61 333 -49 0 3 -65 133 -144 287 l-144 281 105 190 c112 203
204 378 200 381 -1 1 -144 -20 -317 -47 l-315 -49 -100 105 c-55 58 -152 162
-215 230 -101 109 -127 132 -131 123z"/>
<path  d="M10640 23998 c-4 -88 -50 -630 -54 -636 -3 -6 -128 -81 -276 -167
-149 -87 -269 -163 -267 -169 3 -8 287 -130 580 -248 5 -2 38 -141 74 -308 36
-168 68 -308 72 -312 4 -4 96 98 205 227 109 129 203 238 210 244 7 5 115 -2
291 -20 316 -32 345 -34 345 -18 0 7 -72 128 -160 271 -88 142 -160 264 -160
271 0 6 43 111 96 232 155 357 154 355 140 355 -8 0 -141 -31 -297 -69 -156
-39 -291 -71 -300 -73 -10 -2 -101 72 -224 182 -222 197 -275 243 -275 238z"/>
<path  d="M6577 23859 c-4 -67 -7 -204 -8 -303 -1 -100 -4 -191 -7 -203 -5 -14
-95 -79 -267 -192 -143 -94 -260 -176 -260 -182 0 -7 128 -57 295 -116 162
-57 297 -107 301 -111 4 -4 41 -135 83 -292 94 -350 86 -321 97 -315 6 5 373
484 384 502 0 1 144 -5 318 -14 175 -8 321 -13 324 -10 3 4 -75 122 -173 263
-99 142 -180 261 -182 266 -2 4 29 94 68 200 40 106 89 240 111 297 21 58 37
107 35 109 -2 2 -140 -37 -306 -87 -166 -50 -307 -88 -314 -84 -10 7 -443 350
-477 380 -14 12 -17 2 -22 -108z"/>
<path  d="M15160 23780 c-129 -109 -240 -199 -245 -199 -6 -1 -145 37 -310 84
-164 46 -301 82 -303 80 -4 -4 22 -74 151 -399 l78 -200 -175 -261 c-97 -144
-176 -268 -176 -274 0 -8 10 -11 28 -7 40 7 611 40 615 35 2 -2 91 -114 197
-249 106 -135 195 -244 198 -243 4 1 41 137 83 302 42 164 79 303 82 308 3 5
139 58 301 118 163 60 296 114 296 120 0 5 -122 86 -270 180 l-270 169 -1 41
c-6 237 -26 589 -34 591 -5 1 -116 -87 -245 -196z"/>
<path  d="M3202 23760 c-144 -94 -266 -170 -271 -170 -4 0 -137 54 -295 121
-159 66 -290 118 -292 116 -3 -2 31 -143 75 -312 l79 -307 -200 -232 c-196
-227 -216 -252 -205 -262 2 -3 145 -13 316 -23 172 -10 314 -20 316 -22 3 -3
249 -409 308 -506 10 -18 22 -33 26 -33 4 0 59 133 122 295 69 179 120 297
129 300 8 2 132 32 275 65 320 75 335 79 335 89 0 4 -110 98 -245 207 l-245
199 0 41 c0 40 35 478 45 562 2 23 1 42 -3 42 -4 0 -125 -77 -270 -170z"/>
<path  d="M12501 23576 l48 -315 -82 -79 c-45 -43 -148 -141 -229 -217 -82 -76
-148 -144 -148 -150 0 -8 98 -28 293 -59 160 -26 302 -50 313 -53 17 -4 50
-65 154 -286 73 -155 136 -286 140 -290 5 -5 74 120 154 277 141 274 148 286
179 291 18 3 157 21 311 40 153 20 283 38 288 42 6 3 -61 78 -148 167 -88 88
-190 193 -227 231 l-67 71 30 164 c17 91 44 231 59 313 15 81 24 147 19 147
-4 0 -135 -63 -289 -140 l-281 -141 -274 151 c-151 82 -278 150 -283 150 -4 0
14 -141 40 -314z"/>
<path  d="M16945 21788 c-77 -149 -145 -278 -151 -286 -7 -10 -94 -25 -310 -53
-164 -21 -305 -38 -311 -39 -7 0 -13 -6 -13 -12 0 -7 100 -113 222 -235 l222
-222 -22 -118 c-74 -393 -94 -505 -89 -509 3 -3 132 58 287 136 l282 141 271
-148 c149 -81 277 -150 285 -151 10 -3 13 3 8 25 -3 15 -24 150 -46 298 -22
149 -42 278 -44 287 -3 12 69 86 230 238 129 122 234 224 234 228 0 5 -136 30
-302 57 -167 26 -310 50 -319 52 -9 3 -70 121 -149 289 -74 157 -136 287 -140
289 -3 2 -69 -118 -145 -267z"/>
<path  d="M440 21891 c0 -5 16 -141 35 -303 19 -161 35 -300 35 -308 0 -9 -96
-100 -213 -203 -286 -250 -273 -238 -256 -247 8 -4 149 -34 314 -66 165 -32
303 -63 307 -69 4 -5 62 -137 129 -292 67 -156 124 -283 128 -283 3 0 76 124
160 275 113 200 160 277 175 280 21 4 579 55 604 55 8 0 12 6 10 14 -2 8 -98
118 -215 244 l-211 229 69 304 c38 167 69 307 69 312 0 15 -28 4 -273 -109
-139 -64 -266 -123 -283 -130 -30 -13 -36 -10 -299 147 -147 87 -272 159 -276
159 -5 0 -9 -4 -9 -9z"/>
<path  d="M17095 19770 c-178 -212 -203 -239 -230 -239 -16 -1 -160 12 -320 28
-159 17 -291 28 -293 26 -4 -4 15 -38 193 -330 67 -110 125 -205 129 -212 4
-7 -50 -140 -119 -297 -114 -259 -132 -306 -121 -306 2 0 142 34 311 75 l308
76 26 -25 c94 -88 445 -396 451 -396 4 0 10 35 13 78 3 42 13 185 23 317 l17
240 273 159 c150 87 275 163 277 170 3 7 -109 58 -292 132 l-296 121 -51 236
c-81 372 -85 387 -92 387 -4 -1 -97 -108 -207 -240z"/>
<path  d="M565 19763 c-4 -109 -10 -253 -14 -321 l-6 -123 -265 -167 c-146 -92
-265 -173 -265 -181 0 -13 19 -21 396 -160 l197 -72 77 -310 c43 -170 81 -308
86 -307 4 2 94 113 200 248 105 135 193 246 194 248 2 2 146 -6 320 -18 175
-12 320 -19 323 -16 3 3 -75 126 -172 272 l-178 267 41 106 c23 58 74 192 115
296 40 105 70 191 65 193 -7 3 -491 -129 -580 -158 -25 -8 -47 8 -272 196
-135 112 -247 204 -250 204 -3 0 -8 -89 -12 -197z"/>
<path  d="M17150 17756 l-225 -224 -309 59 c-170 33 -311 57 -315 54 -3 -3 59
-134 137 -291 l142 -285 -150 -273 c-139 -254 -159 -296 -144 -296 3 0 136 20
296 45 160 25 301 45 313 45 15 0 85 -68 235 -227 118 -126 217 -229 221 -231
3 -1 28 131 54 295 27 164 51 307 56 318 5 15 88 59 293 155 157 74 286 139
286 145 0 5 -127 75 -283 154 -155 79 -283 145 -285 146 -1 1 -82 617 -82 633
0 13 -47 -29 -240 -222z"/>
<path  d="M1166 17731 l-258 -178 -261 99 c-369 141 -337 130 -337 110 0 -9 40
-149 89 -310 l88 -293 -200 -250 c-110 -137 -197 -253 -193 -256 3 -4 148 -10
322 -13 252 -6 318 -10 325 -21 33 -60 337 -514 344 -514 4 0 54 132 111 294
57 162 106 297 111 301 4 4 127 39 273 78 356 97 340 92 340 101 0 4 -111 93
-247 196 -137 103 -251 191 -256 195 -4 3 0 141 8 306 18 351 17 334 7 334 -5
0 -124 -80 -266 -179z"/>
<path  d="M16846 15973 c-3 -10 -35 -144 -71 -298 -35 -154 -68 -286 -73 -294
-4 -7 -138 -64 -297 -127 -172 -66 -290 -118 -290 -125 0 -7 119 -86 265 -175
199 -121 267 -167 272 -185 4 -13 14 -156 23 -318 8 -162 17 -296 19 -299 3
-2 111 88 241 200 129 111 243 204 253 205 9 2 150 -32 312 -75 197 -53 296
-75 298 -67 1 6 -51 141 -117 299 l-121 287 107 167 c143 223 234 374 229 379
-2 2 -145 -8 -317 -22 l-314 -27 -32 39 c-18 21 -108 131 -200 245 -92 114
-171 207 -175 207 -4 1 -9 -7 -12 -16z"/>
<path  d="M698 15968 c-3 -7 -29 -149 -59 -314 l-53 -301 -290 -131 c-160 -72
-292 -135 -294 -140 -2 -6 125 -78 281 -162 l284 -153 33 -319 c19 -175 37
-317 41 -316 4 2 109 101 234 221 124 119 231 217 238 217 7 -1 147 -29 312
-64 203 -42 301 -59 303 -51 1 6 -58 138 -133 293 l-136 281 101 176 c56 97
104 184 108 193 3 9 28 55 54 101 27 46 46 86 43 89 -3 3 -145 -14 -317 -37
-299 -40 -312 -41 -328 -24 -9 10 -106 116 -214 236 -109 119 -199 217 -201
217 -1 0 -5 -6 -7 -12z"/>
<path  d="M884 13823 c-102 -198 -195 -377 -198 -379 0 -1 -134 -18 -296 -39
-162 -20 -306 -41 -319 -46 -24 -10 -15 -20 203 -238 l227 -228 -50 -264 c-27
-145 -53 -288 -57 -317 l-7 -53 282 140 c154 78 286 141 291 141 6 0 134 -67
284 -150 151 -82 276 -150 278 -150 6 0 6 -3 -48 350 l-43 285 22 21 c12 12
114 108 227 214 113 106 206 198 208 205 4 16 8 15 -334 71 l-291 47 -134 284
c-73 157 -137 287 -141 289 -3 2 -50 -80 -104 -183z"/>
<path  d="M16766 13933 c-7 -31 -86 -580 -86 -595 0 -5 -128 -71 -284 -147
-156 -76 -286 -144 -290 -150 -5 -8 90 -60 282 -154 l289 -142 42 -295 c24
-162 46 -306 49 -320 5 -22 26 -4 231 207 l226 232 285 -49 c157 -27 297 -51
313 -54 19 -4 27 -1 27 9 0 8 -65 138 -144 287 l-144 273 89 170 c148 280 204
394 197 401 -4 3 -142 -17 -308 -46 -165 -28 -306 -50 -313 -48 -6 2 -109 102
-227 223 -118 121 -218 221 -222 223 -3 2 -9 -10 -12 -25z"/>
<path  d="M1040 11721 l-225 -231 -310 54 c-171 30 -312 52 -314 50 -5 -4 95
-204 218 -440 l69 -131 -144 -274 c-136 -260 -154 -299 -136 -299 4 0 144 23
312 51 l305 52 186 -189 c102 -104 202 -207 222 -229 19 -22 39 -37 43 -32 6
6 93 573 94 614 0 7 128 75 283 151 156 77 287 144 291 151 5 8 -83 56 -282
153 l-289 141 -42 296 c-24 163 -46 307 -50 319 -6 22 -27 3 -231 -207z"/>
<path  d="M16515 11798 c3 -13 25 -156 50 -318 l44 -295 -27 -26 c-15 -15 -117
-111 -227 -214 -110 -103 -201 -194 -203 -201 -4 -17 -8 -16 329 -70 l297 -48
133 -284 c74 -156 138 -284 144 -284 5 0 73 125 152 277 78 153 144 279 145
280 2 1 140 20 308 41 168 20 311 42 318 47 10 8 -40 64 -213 237 l-226 226
16 90 c9 49 34 183 56 297 21 114 39 217 39 227 0 17 -43 -1 -280 -120 -154
-77 -285 -140 -291 -140 -6 0 -134 68 -285 150 -150 83 -276 150 -279 150 -3
0 -3 -10 0 -22z"/>
<path  d="M17167 9710 c-125 -121 -233 -220 -240 -220 -6 0 -147 29 -312 63
-199 42 -301 60 -303 52 -1 -6 58 -138 133 -293 l135 -282 -156 -275 c-86
-152 -154 -279 -150 -282 4 -4 147 12 318 35 249 34 314 40 323 30 273 -305
419 -458 425 -447 4 8 32 149 61 315 l54 301 289 130 c160 72 292 135 294 141
1 5 -125 78 -281 162 l-283 152 -34 319 c-19 175 -36 319 -39 319 -3 -1 -108
-100 -234 -220z"/>
<path  d="M1100 9704 c-129 -112 -242 -204 -250 -204 -8 0 -143 34 -299 75
-156 41 -290 75 -297 75 -8 0 -14 -5 -14 -10 0 -6 54 -139 120 -297 l120 -286
-170 -264 c-94 -145 -170 -268 -170 -273 0 -13 -16 -14 331 15 290 24 304 25
319 8 10 -10 99 -119 200 -243 101 -124 185 -227 187 -230 10 -11 23 37 87
313 38 160 72 296 77 302 5 5 138 59 297 121 171 66 287 117 287 124 0 8 -117
85 -260 172 -143 87 -265 166 -271 175 -7 10 -16 118 -23 253 -14 284 -22 380
-30 379 -3 0 -112 -92 -241 -205z"/>
<path  d="M16945 7948 c-3 -7 -50 -141 -104 -297 -55 -156 -103 -287 -108 -291
-4 -4 -136 -42 -293 -84 -350 -95 -320 -86 -320 -96 0 -4 111 -93 248 -196
136 -103 250 -190 255 -194 4 -3 0 -147 -8 -319 -9 -172 -15 -317 -13 -321 2
-5 121 74 266 174 l264 183 221 -84 c395 -151 377 -145 377 -125 0 9 -40 149
-89 310 l-89 293 147 184 c80 102 170 215 198 252 l53 68 -68 6 c-37 4 -155 7
-263 8 -108 0 -223 4 -255 7 l-59 6 -170 260 c-93 143 -173 262 -177 264 -5 3
-10 -1 -13 -8z"/>
<path  d="M635 7633 c-27 -164 -51 -307 -56 -319 -5 -15 -87 -58 -293 -155
-157 -74 -286 -138 -286 -144 0 -5 127 -75 283 -154 155 -79 283 -145 285
-146 1 -1 20 -143 42 -315 22 -172 42 -315 45 -318 3 -4 108 95 233 220 l227
225 309 -59 c170 -32 311 -56 314 -53 4 3 -58 134 -136 291 l-142 285 80 145
c44 80 80 147 80 151 0 3 32 63 71 135 39 71 69 131 67 133 -3 3 -145 -17
-317 -43 l-311 -48 -218 232 c-119 128 -220 233 -223 233 -4 1 -28 -133 -54
-296z"/>
<path  d="M17080 5705 c-102 -130 -190 -243 -197 -251 -10 -14 -42 -14 -328 6
-175 11 -320 18 -323 15 -3 -3 75 -125 172 -271 105 -158 176 -273 173 -283
-2 -9 -54 -141 -116 -294 -61 -152 -111 -279 -111 -282 0 -12 52 1 326 79
l292 82 246 -204 c136 -112 249 -203 250 -201 4 4 26 531 26 600 l0 36 270
169 c148 93 269 175 270 182 0 7 -10 16 -22 21 -13 4 -147 54 -299 110 l-277
102 -77 310 c-43 170 -81 309 -84 309 -3 0 -89 -106 -191 -235z"/>
<path  d="M600 5878 c1 -7 -9 -150 -22 -318 l-22 -305 -273 -159 c-150 -88
-274 -165 -276 -171 -3 -6 120 -61 292 -132 l296 -121 51 -236 c83 -378 85
-387 94 -384 4 2 97 108 205 236 109 129 204 236 211 239 12 4 471 -37 592
-53 27 -4 42 -2 42 4 0 6 -74 131 -165 278 -91 146 -165 268 -165 270 0 2 56
131 125 288 114 258 133 306 121 306 -2 0 -142 -34 -311 -75 l-307 -76 -71 64
c-40 35 -146 130 -236 210 -91 81 -168 147 -173 147 -4 0 -8 -6 -8 -12z"/>
<path  d="M16960 3662 l-156 -277 -314 -29 c-173 -16 -317 -30 -319 -32 -3 -3
9 -19 26 -37 16 -17 40 -45 52 -62 12 -16 96 -109 186 -206 l164 -177 -63
-278 c-84 -370 -79 -344 -66 -344 6 0 124 52 263 116 139 64 266 122 283 130
30 13 35 10 299 -147 147 -87 272 -159 276 -159 12 0 14 -21 -26 316 -20 164
-34 304 -33 311 2 7 107 103 233 214 217 190 257 228 238 229 -4 1 -147 29
-316 63 l-309 62 -125 293 c-69 160 -128 292 -132 292 -3 0 -76 -125 -161
-278z"/>
<path  d="M414 3743 c3 -16 24 -147 46 -293 22 -146 41 -275 44 -288 3 -18 -39
-62 -230 -243 -129 -121 -234 -224 -234 -228 0 -4 134 -28 298 -55 163 -26
306 -50 318 -53 16 -3 51 -70 154 -289 74 -157 137 -287 140 -289 3 -2 69 117
145 266 76 148 143 276 149 285 9 12 84 25 316 55 168 21 308 39 313 39 25 0
-17 49 -213 245 -121 121 -220 227 -220 235 0 8 25 149 56 313 31 164 54 300
51 303 -2 3 -132 -59 -288 -136 l-284 -142 -274 151 c-151 83 -279 151 -284
151 -5 0 -6 -12 -3 -27z"/>
<path  d="M4900 1663 c-78 -153 -146 -282 -150 -286 -4 -5 -149 -27 -321 -49
-173 -22 -316 -42 -318 -44 -2 -2 98 -109 223 -238 l226 -234 -58 -308 c-33
-170 -56 -310 -51 -312 4 -2 134 60 289 138 l281 141 275 -151 c152 -83 279
-150 283 -148 6 2 -57 451 -84 595 -5 30 3 39 225 248 126 120 230 223 230
230 0 7 -107 29 -311 62 -202 33 -315 56 -320 65 -5 7 -66 135 -135 283 -70
149 -130 274 -134 278 -4 5 -72 -117 -150 -270z"/>
<path  d="M14859 1635 l-114 -295 -35 -10 c-19 -5 -152 -36 -295 -70 -298 -70
-295 -69 -295 -79 0 -5 110 -98 245 -207 l244 -199 0 -50 c0 -27 -10 -171 -23
-320 -13 -148 -22 -272 -20 -274 2 -2 121 72 265 165 144 93 266 171 271 172
5 2 139 -51 299 -118 160 -67 293 -119 296 -116 3 2 -18 92 -46 198 -28 106
-64 244 -80 306 l-30 112 205 238 c112 130 204 242 204 248 0 14 -63 20 -350
34 -113 6 -223 13 -245 16 l-40 5 -164 269 c-90 149 -167 270 -170 270 -4 0
-59 -133 -122 -295z"/>
<path  d="M2816 1909 c-3 -8 -37 -140 -76 -294 -39 -154 -74 -289 -79 -300 -7
-16 -78 -46 -305 -130 -163 -61 -296 -114 -296 -120 0 -5 121 -86 269 -179
l268 -170 6 -100 c4 -56 10 -199 13 -318 4 -120 11 -218 16 -218 4 0 116 90
248 200 132 110 243 200 247 200 5 0 514 -142 596 -166 10 -3 17 0 17 8 0 7
-52 143 -115 301 l-115 288 171 256 c95 141 174 264 176 273 4 14 -4 16 -54
12 -32 -2 -176 -11 -320 -20 l-262 -17 -58 74 c-248 317 -343 432 -347 420z"/>
<path  d="M11184 1859 c-40 -50 -332 -436 -339 -446 -1 -2 -132 4 -291 12 -359
18 -357 18 -351 3 2 -7 84 -128 181 -268 98 -140 175 -261 173 -270 -2 -8 -52
-142 -112 -298 -59 -156 -105 -286 -101 -289 3 -3 135 34 293 81 158 48 295
89 304 92 10 3 107 -69 265 -196 l249 -201 6 93 c4 51 7 184 8 294 0 111 4
215 7 230 5 25 43 54 270 203 146 96 263 178 261 184 -1 5 -135 56 -297 113
-162 57 -297 107 -301 111 -3 5 -41 136 -83 293 -42 157 -80 294 -84 304 -7
16 -15 10 -58 -45z"/>
<path  d="M7067 1676 c-109 -129 -203 -239 -210 -244 -8 -7 -106 0 -292 19
-340 35 -349 35 -343 12 3 -10 75 -132 161 -271 87 -139 157 -259 157 -266 0
-7 -56 -140 -125 -296 -69 -156 -123 -286 -120 -289 3 -3 144 29 314 70 l308
75 239 -213 c131 -117 240 -211 241 -209 2 2 15 144 28 316 17 221 28 316 37
325 7 6 131 81 276 165 145 84 261 157 259 163 -2 6 -133 64 -292 129 -159 65
-291 120 -293 123 -2 2 -33 140 -69 307 -36 167 -68 306 -72 310 -4 4 -96 -98
-204 -226z"/>
<path  d="M13136 1659 l-227 -222 -309 59 c-170 32 -312 55 -316 52 -3 -4 59
-135 138 -291 l144 -285 -154 -281 c-85 -155 -153 -284 -151 -286 4 -3 496 70
604 90 30 5 42 -6 250 -229 121 -129 222 -232 224 -230 3 3 28 145 56 317 l51
312 287 135 c182 86 286 140 285 148 -2 7 -124 76 -273 153 -148 77 -275 145
-281 152 -6 6 -29 150 -50 320 -21 169 -41 307 -44 307 -4 0 -109 -100 -234
-221z"/>
<path  d="M1119 1655 c-149 -138 -238 -213 -248 -211 -63 19 -604 136 -608 132
-3 -2 54 -133 126 -290 72 -156 131 -289 131 -294 0 -6 -73 -132 -161 -281
-89 -150 -159 -274 -157 -276 3 -3 137 11 299 30 162 19 305 35 319 35 20 0
65 -46 230 -235 112 -129 208 -235 212 -235 4 0 8 3 9 8 0 4 29 144 62 311
l62 304 293 125 c160 69 292 130 292 136 0 6 -124 80 -276 165 -151 85 -276
157 -278 160 -2 3 -16 147 -32 319 -15 171 -31 312 -35 312 -3 0 -111 -97
-240 -215z"/>
<path  d="M17246 1641 l-250 -188 -298 100 c-164 55 -302 96 -306 92 -4 -4 38
-141 94 -304 l101 -297 -188 -253 c-104 -140 -189 -258 -189 -263 0 -6 116 -9
320 -7 l319 3 176 -249 c97 -138 182 -256 189 -262 9 -10 33 55 107 294 l95
308 307 95 c169 52 305 100 304 105 -2 6 -120 93 -263 194 l-259 183 3 319 c1
176 -1 319 -5 318 -5 0 -120 -85 -257 -188z"/>
<path  d="M9305 1629 c-137 -83 -259 -155 -270 -160 -17 -8 -74 15 -308 122
-158 73 -289 130 -292 127 -3 -3 26 -144 65 -314 l70 -308 -23 -26 c-13 -14
-110 -118 -215 -232 -106 -114 -192 -212 -192 -217 0 -11 35 -16 325 -41 127
-11 249 -22 271 -25 l42 -6 153 -274 c85 -152 158 -274 163 -272 5 2 64 130
130 284 67 155 125 285 129 289 3 4 145 35 314 68 170 34 308 66 308 72 0 6
-97 95 -215 198 -118 104 -225 199 -238 211 l-24 22 36 299 c39 321 40 334 29
333 -5 0 -120 -68 -258 -150z"/>
</g>
</svg>
