<?xml version="1.0" encoding="utf-8"?>
<!-- Generator: Adobe Illustrator 23.1.1, SVG Export Plug-In . SVG Version: 6.00 Build 0)  -->
<svg version="1.1" id="Layer_1" xmlns="http://www.w3.org/2000/svg" xmlns:xlink="http://www.w3.org/1999/xlink" x="0px" y="0px"
	 viewBox="0 0 1152 1160.9" style="enable-background:new 0 0 1152 1160.9;" xml:space="preserve">
<style type="text/css">
	.st0{fill:#E25A5F;}
</style>
<g transform="translate(0.000000,2406.000000) scale(0.100000,-0.100000)">
	<path class="st0" d="M781,23994.1c-12-38-54-174-94-303l-73-235l-307-95c-169-52-307-99-306-105c0-5,118-93,262-194l262-184l-3-318
		c-1-176,0-319,3-319s119,85,257,189l253,188l303-102c261-89,302-101,302-85c0,10-45,148-99,307l-99,289l189,252
		c104,138,189,257,189,263c0,9-80,11-319,7l-318-6l-183,259c-101,143-187,259-191,259C804,24061.1,792,24031.1,781,23994.1z"/>
	<path class="st0" d="M3192,23771.1c-144-94-266-170-271-170c-4,0-137,54-295,121c-159,66-290,118-292,116c-3-2,31-143,75-312
		l79-307l-200-232c-196-227-216-252-205-262c2-3,145-13,316-23c172-10,314-20,316-22c3-3,249-409,308-506c10-18,22-33,26-33
		s59,133,122,295c69,179,120,297,129,300c8,2,132,32,275,65c320,75,335,79,335,89c0,4-110,98-245,207l-245,199v41
		c0,40,35,478,45,562c2,23,1,42-3,42S3337,23864.1,3192,23771.1z"/>
	<path class="st0" d="M430,21902.1c0-5,16-141,35-303c19-161,35-300,35-308c0-9-96-100-213-203c-286-250-273-238-256-247
		c8-4,149-34,314-66s303-63,307-69c4-5,62-137,129-292c67-156,124-283,128-283c3,0,76,124,160,275c113,200,160,277,175,280
		c21,4,579,55,604,55c8,0,12,6,10,14s-98,118-215,244l-211,229l69,304c38,167,69,307,69,312c0,15-28,4-273-109
		c-139-64-266-123-283-130c-30-13-36-10-299,147c-147,87-272,159-276,159C434,21911.1,430,21907.1,430,21902.1z"/>
</g>
<g transform="translate(0.000000,2406.000000) scale(0.100000,-0.100000)">
	<path class="st0" d="M10712,24061.1c-4,0-90-116-191-259l-183-259l-318,6c-239,4-319,2-319-7c0-6,85-125,189-263l189-252l-99-289
		c-54-159-99-297-99-307c0-16,41-4,302,85l303,102l253-188c138-104,254-189,257-189s4,143,3,319l-3,318l262,184
		c144,101,262,189,262,194c1,6-137,53-306,105l-307,95l-73,235c-40,129-82,265-94,303C10729,24031.1,10717,24061.1,10712,24061.1z"
		/>
	<path class="st0" d="M8059,23941.1c-4,0-5-19-3-42c10-84,45-522,45-562v-41l-245-199c-135-109-245-203-245-207c0-10,15-14,335-89
		c143-33,267-63,275-65c9-3,60-121,129-300c63-162,118-295,122-295s16,15,26,33c59,97,305,503,308,506c2,2,144,12,316,22
		c171,10,314,20,316,23c11,10-9,35-205,262l-200,232l79,307c44,169,78,310,75,312c-2,2-133-50-292-116c-158-67-291-121-295-121
		c-5,0-127,76-271,170C8184,23864.1,8063,23941.1,8059,23941.1z"/>
	<path class="st0" d="M11082,21911.1c-4,0-129-72-276-159c-263-157-269-160-299-147c-17,7-144,66-283,130c-245,113-273,124-273,109
		c0-5,31-145,69-312l69-304l-211-229c-117-126-213-236-215-244s2-14,10-14c25,0,583-51,604-55c15-3,62-80,175-280
		c84-151,157-275,160-275c4,0,61,127,128,283c67,155,125,287,129,292c4,6,142,37,307,69s306,62,314,66c17,9,30-3-256,247
		c-117,103-213,194-213,203c0,8,16,147,35,308c19,162,35,298,35,303S11087,21911.1,11082,21911.1z"/>
</g>
<g transform="translate(0.000000,2406.000000) scale(0.100000,-0.100000)">
	<path class="st0" d="M10740,12518.1c12,38,54,174,94,303l73,235l307,95c169,52,307,99,306,105c0,5-118,93-262,194l-262,184l3,318
		c1,176,0,319-3,319s-119-85-257-189l-253-188l-303,102c-261,89-302,101-302,85c0-10,45-148,99-307l99-289l-189-252
		c-104-138-189-257-189-263c0-9,80-11,319-7l318,6l183-259c101-143,187-259,191-259C10717,12451.1,10729,12481.1,10740,12518.1z"/>
	<path class="st0" d="M8329,12741.1c144,94,266,170,271,170c4,0,137-54,295-121c159-66,290-118,292-116c3,2-31,143-75,312l-79,307
		l200,232c196,227,216,252,205,262c-2,3-145,13-316,23c-172,10-314,20-316,22c-3,3-249,409-308,506c-10,18-22,33-26,33
		s-59-133-122-295c-69-179-120-297-129-300c-8-2-132-32-275-65c-320-75-335-79-335-89c0-4,110-98,245-207l245-199v-41
		c0-40-35-478-45-562c-2-23-1-42,3-42S8184,12648.1,8329,12741.1z"/>
	<path class="st0" d="M11091,14610.1c0,5-16,141-35,303c-19,161-35,300-35,308c0,9,96,100,213,203c286,250,273,238,256,247
		c-8,4-149,34-314,66s-303,63-307,69c-4,5-62,137-129,292c-67,156-124,283-128,283c-3,0-76-124-160-275c-113-200-160-277-175-280
		c-21-4-579-55-604-55c-8,0-12-6-10-14s98-118,215-244l211-229l-69-304c-38-167-69-307-69-312c0-15,28-4,273,109
		c139,64,266,123,283,130c30,13,36,10,299-147c147-87,272-159,276-159C11087,14601.1,11091,14605.1,11091,14610.1z"/>
</g>
<g transform="translate(0.000000,2406.000000) scale(0.100000,-0.100000)">
	<path class="st0" d="M809,12451.1c4,0,90,116,191,259l183,259l318-6c239-4,319-2,319,7c0,6-85,125-189,263l-189,252l99,289
		c54,159,99,297,99,307c0,16-41,4-302-85l-303-102l-253,188c-138,104-254,189-257,189s-4-143-3-319l3-318l-262-184
		c-144-101-262-189-262-194c-1-6,137-53,306-105l307-95l73-235c40-129,82-265,94-303C792,12481.1,804,12451.1,809,12451.1z"/>
	<path class="st0" d="M3462,12571.1c4,0,5,19,3,42c-10,84-45,522-45,562v41l245,199c135,109,245,203,245,207c0,10-15,14-335,89
		c-143,33-267,63-275,65c-9,3-60,121-129,300c-63,162-118,295-122,295s-16-15-26-33c-59-97-305-503-308-506c-2-2-144-12-316-22
		c-171-10-314-20-316-23c-11-10,9-35,205-262l200-232l-79-307c-44-169-78-310-75-312c2-2,133,50,292,116c158,67,291,121,295,121
		c5,0,127-76,271-170C3337,12648.1,3458,12571.1,3462,12571.1z"/>
	<path class="st0" d="M439,14601.1c4,0,129,72,276,159c263,157,269,160,299,147c17-7,144-66,283-130c245-113,273-124,273-109
		c0,5-31,145-69,312l-69,304l211,229c117,126,213,236,215,244s-2,14-10,14c-25,0-583,51-604,55c-15,3-62,80-175,280
		c-84,151-157,275-160,275c-4,0-61-127-128-283c-67-155-125-287-129-292c-4-6-142-37-307-69s-306-62-314-66c-17-9-30,3,256-247
		c117-103,213-194,213-203c0-8-16-147-35-308c-19-162-35-298-35-303S434,14601.1,439,14601.1z"/>
</g>
</svg>
